<?xml version="1.0" standalone="no"?><!DOCTYPE svg PUBLIC "-//W3C//DTD SVG 1.1//EN" "http://www.w3.org/Graphics/SVG/1.1/DTD/svg11.dtd"><svg t="1753181619006" class="icon" viewBox="0 0 1024 1024" version="1.1" xmlns="http://www.w3.org/2000/svg" p-id="5220" xmlns:xlink="http://www.w3.org/1999/xlink" width="200" height="200"><path d="M708.297762 511.972208V197.047409c0-54.19398-19.307977-100.562378-57.558249-139.105195A188.47218 188.47218 0 0 0 512.146273 0.018284c-53.974571 0-100.196697 19.307977-138.520105 57.850793a190.227451 190.227451 0 0 0-57.631385 139.105195v315.071072c0 54.340252 19.161704 100.562378 57.631385 139.105195a188.47218 188.47218 0 0 0 138.520105 57.850794c54.047707 0 100.196697-19.23484 138.59324-57.777657A190.227451 190.227451 0 0 0 708.297762 511.972208z m156.877309 0.219409V433.350713a37.957727 37.957727 0 0 0-11.701804-27.791785 37.738318 37.738318 0 0 0-27.572375-11.701804 37.518909 37.518909 0 0 0-27.572376 11.701804 38.030863 38.030863 0 0 0-11.701804 27.645512v78.840904c0 76.061726-26.767877 140.787329-80.596175 194.7619-53.755162 53.974571-118.480765 80.88872-194.030537 80.888721-75.622908 0-140.202239-27.060422-193.957401-81.034993A266.142904 266.142904 0 0 1 237.446424 511.972208V433.058168a38.030863 38.030863 0 0 0-11.555531-27.645512 37.738318 37.738318 0 0 0-27.572376-11.701804 37.518909 37.518909 0 0 0-27.645512 11.701804 38.030863 38.030863 0 0 0-11.555531 27.645512V511.972208c0 90.688981 29.985873 169.676158 90.323299 236.742122 60.191154 67.1391 134.717018 105.608781 223.358184 115.409042v81.181265H315.994783a37.518909 37.518909 0 0 0-27.645512 11.701804 38.030863 38.030863 0 0 0-11.555531 27.645512 38.030863 38.030863 0 0 0 11.555531 27.718648c7.752445 7.752445 17.040752 11.628668 27.645512 11.628668h392.229842a37.738318 37.738318 0 0 0 27.572376-11.701804 38.030863 38.030863 0 0 0 11.555532-27.645512 37.811454 37.811454 0 0 0-11.555532-27.718648 37.738318 37.738318 0 0 0-27.572376-11.628668H551.347316v-81.181265c88.641165-9.653988 163.167029-48.123669 223.504456-115.262769 60.191154-67.065964 90.323299-145.906868 90.323299-236.59585z" p-id="5221" fill="#212121"></path></svg>