<svg width="28" height="28" viewBox="0 0 28 28" fill="none" xmlns="http://www.w3.org/2000/svg">
<g id="Group 47972">
<circle id="Ellipse 160" cx="14" cy="14" r="14" fill="#212121"/>
<path id="Vector" d="M20.2611 5.97941L6.56684 12.8016C5.79511 13.1861 5.81444 13.7448 6.60618 14.0481L9.915 15.3156L11.2603 20.4837C11.4365 21.1603 11.8966 21.303 12.2902 20.7996L14.0258 18.58L17.4518 21.8213C17.8969 22.2424 18.3546 22.0208 18.4747 21.3218L20.9748 6.77775C21.0946 6.08077 20.7755 5.72313 20.2611 5.97941ZM18.1771 9.26777L12.3359 15.9868C12.2308 16.1076 12.1358 16.3471 12.1212 16.5243L11.8633 19.6544C11.8344 20.0059 11.7405 20.0204 11.6539 19.6835L10.5236 15.2849C10.4794 15.1128 10.54 14.9019 10.6581 14.8105L18.0659 9.07414C18.5379 8.7086 18.5882 8.79493 18.1771 9.26777Z" fill="white"/>
</g>
</svg>
