<svg width="48" height="43" viewBox="0 0 48 43" fill="none" xmlns="http://www.w3.org/2000/svg">
<g id="Group 47442">
<g id="Group 47435">
<g id="Union">
<mask id="path-1-inside-1_329_3106" fill="white">
<path d="M34.4423 0V0.000976562C38.5771 0.000986074 41.9402 3.08914 41.9403 6.88379V13.1729C41.9403 13.6871 42.0711 20.9351 41.9394 26.2266V29.3223C41.9394 33.117 38.5762 36.2051 34.4413 36.2051H24.7714L16.1151 42.1035C15.8222 42.3035 15.4692 42.4062 15.1142 42.4062C14.8639 42.4062 14.6119 42.3566 14.3798 42.2539C13.8162 42.0036 13.4608 41.4893 13.4608 40.9268V36.2051H7.55459C3.42082 36.2051 0.0565464 33.1171 0.0565464 29.3213V26.1738C-0.0712347 20.892 0.0574919 13.7298 0.0575229 13.2158V6.88379C0.057622 3.08914 3.42186 0 7.55557 0H34.4423Z"/>
</mask>
<path d="M34.4423 0V0.000976562C38.5771 0.000986074 41.9402 3.08914 41.9403 6.88379V13.1729C41.9403 13.6871 42.0711 20.9351 41.9394 26.2266V29.3223C41.9394 33.117 38.5762 36.2051 34.4413 36.2051H24.7714L16.1151 42.1035C15.8222 42.3035 15.4692 42.4062 15.1142 42.4062C14.8639 42.4062 14.6119 42.3566 14.3798 42.2539C13.8162 42.0036 13.4608 41.4893 13.4608 40.9268V36.2051H7.55459C3.42082 36.2051 0.0565464 33.1171 0.0565464 29.3213V26.1738C-0.0712347 20.892 0.0574919 13.7298 0.0575229 13.2158V6.88379C0.057622 3.08914 3.42186 0 7.55557 0H34.4423Z" fill="white"/>
<path d="M34.4423 0H36.4423V-2H34.4423V0ZM34.4423 0.000976562H32.4423V2.00097L34.4423 2.00098L34.4423 0.000976562ZM41.9403 6.88379H43.9403V6.88374L41.9403 6.88379ZM41.9394 26.2266L39.94 26.1768L39.9394 26.2017V26.2266H41.9394ZM24.7714 36.2051V34.2051H24.1548L23.6452 34.5523L24.7714 36.2051ZM16.1151 42.1035L14.9889 40.4507L14.9877 40.4516L16.1151 42.1035ZM15.1142 42.4062V44.4062H15.1145L15.1142 42.4062ZM14.3798 42.2539L13.568 44.0817L13.5706 44.0829L14.3798 42.2539ZM13.4608 36.2051H15.4608V34.2051H13.4608V36.2051ZM0.0565464 26.1738H2.05655V26.1496L2.05596 26.1255L0.0565464 26.1738ZM0.0575229 13.2158L2.05752 13.2159V13.2158H0.0575229ZM0.0575229 6.88379L-1.94248 6.88374V6.88379H0.0575229ZM34.4423 0H32.4423V0.000976562H34.4423H36.4423V0H34.4423ZM34.4423 0.000976562L34.4423 2.00098C37.6369 2.00098 39.9403 4.35127 39.9403 6.88384L41.9403 6.88379L43.9403 6.88374C43.9402 1.82701 39.5172 -1.99901 34.4423 -1.99902L34.4423 0.000976562ZM41.9403 6.88379H39.9403V13.1729H41.9403H43.9403V6.88379H41.9403ZM41.9403 13.1729H39.9403C39.9403 13.7587 40.071 20.9141 39.94 26.1768L41.9394 26.2266L43.9387 26.2763C44.0712 20.9561 43.9403 13.6154 43.9403 13.1729H41.9403ZM41.9394 26.2266H39.9394V29.3223H41.9394H43.9394V26.2266H41.9394ZM41.9394 29.3223H39.9394C39.9394 31.8548 37.6361 34.2051 34.4413 34.2051V36.2051V38.2051C39.5163 38.2051 43.9394 34.3792 43.9394 29.3223H41.9394ZM34.4413 36.2051V34.2051H24.7714V36.2051V38.2051H34.4413V36.2051ZM24.7714 36.2051L23.6452 34.5523L14.9889 40.4507L16.1151 42.1035L17.2414 43.7563L25.8976 37.8578L24.7714 36.2051ZM16.1151 42.1035L14.9877 40.4516C15.0183 40.4307 15.0449 40.4197 15.0642 40.4139C15.0832 40.4082 15.0995 40.4063 15.1139 40.4062L15.1142 42.4062L15.1145 44.4062C15.8474 44.4061 16.598 44.1954 17.2426 43.7555L16.1151 42.1035ZM15.1142 42.4062V40.4062C15.1253 40.4062 15.1508 40.408 15.1889 40.4249L14.3798 42.2539L13.5706 44.0829C14.0729 44.3051 14.6025 44.4062 15.1142 44.4062V42.4062ZM14.3798 42.2539L15.1916 40.4261C15.2646 40.4585 15.4608 40.6088 15.4608 40.9268H13.4608H11.4608C11.4608 42.3698 12.3679 43.5487 13.568 44.0817L14.3798 42.2539ZM13.4608 40.9268H15.4608V36.2051H13.4608H11.4608V40.9268H13.4608ZM13.4608 36.2051V34.2051H7.55459V36.2051V38.2051H13.4608V36.2051ZM7.55459 36.2051V34.2051C4.3609 34.2051 2.05655 31.8549 2.05655 29.3213H0.0565464H-1.94345C-1.94345 34.3793 2.48074 38.2051 7.55459 38.2051V36.2051ZM0.0565464 29.3213H2.05655V26.1738H0.0565464H-1.94345V29.3213H0.0565464ZM0.0565464 26.1738L2.05596 26.1255C1.92885 20.8714 2.05749 13.8008 2.05752 13.2159L0.0575229 13.2158L-1.94248 13.2157C-1.9425 13.6588 -2.07132 20.9125 -1.94287 26.2222L0.0565464 26.1738ZM0.0575229 13.2158H2.05752V6.88379H0.0575229H-1.94248V13.2158H0.0575229ZM0.0575229 6.88379L2.05752 6.88384C2.05759 4.35109 4.3622 2 7.55557 2V0V-2C2.48151 -2 -1.94235 1.82719 -1.94248 6.88374L0.0575229 6.88379ZM7.55557 0V2H34.4423V0V-2H7.55557V0Z" fill="black" mask="url(#path-1-inside-1_329_3106)"/>
</g>
</g>
<g id="Group 47368">
<circle id="Ellipse 15" cx="39.5263" cy="32.4648" r="9.97357" fill="#2CEDB8" stroke="white" stroke-width="3"/>
<path id="AI" d="M36.5023 36.1924H35.2312L37.5454 29.6189H39.0155L41.3328 36.1924H40.0618L38.3061 30.967H38.2548L36.5023 36.1924ZM36.544 33.615H40.0105V34.5715H36.544V33.615ZM43.3895 29.6189V36.1924H42.1987V29.6189H43.3895Z" fill="black"/>
</g>
<g id="Group 47440">
<path id="Vector 23" d="M17.1309 20.7149C19.4917 21.0185 24.0665 21.2086 26.6531 18.502" stroke="black" stroke-width="3.7647" stroke-linecap="round"/>
<path id="Vector 24" d="M11.8066 9.18457V12.956M21.7897 9.18457V12.956" stroke="black" stroke-width="3.7647" stroke-linecap="round" stroke-linejoin="round"/>
</g>
</g>
</svg>
