<svg width="51" height="41" viewBox="0 0 51 41" fill="none" xmlns="http://www.w3.org/2000/svg">
<g id="Group 47451">
<g id="Group 47438">
<g id="Group 47437">
<g id="Group 47339">
<rect id="Rectangle 2722" x="1.94141" y="8.35059" width="42.6957" height="31.4693" rx="6.15202" fill="white" stroke="black" stroke-width="2"/>
<g id="Group 47338">
<path id="Vector 4" d="M8.55469 31.8035L14.2287 22.2013C15.7276 19.6647 19.4328 19.7707 20.7842 22.3889L24.1135 28.8395C24.7565 30.0853 26.0411 30.868 27.4431 30.868H38.7257" stroke="black" stroke-width="2.47678" stroke-linecap="round"/>
</g>
</g>
</g>
</g>
<path id="Star 4" d="M39.3301 3.01367C40.2521 1.3661 42.6501 1.36622 43.5723 3.01367L43.6592 3.18457L44.9629 5.97754L47.7578 7.28223C49.6323 8.15736 49.6321 10.823 47.7578 11.6982L44.9629 13.002L43.6592 15.7969C42.784 17.6712 40.1183 17.6713 39.2432 15.7969L37.9385 13.002L35.1455 11.6982C33.2706 10.8232 33.2706 8.15727 35.1455 7.28223L37.9385 5.97754L39.2432 3.18457L39.3301 3.01367Z" fill="#2CEDB8" stroke="white" stroke-width="3"/>
</g>
</svg>
