<svg width="47" height="44" viewBox="0 0 47 44" fill="none" xmlns="http://www.w3.org/2000/svg">
<g id="Group 47441">
<g id="Group 47439">
<path id="Union" d="M19.376 0C30.0764 0.000247387 38.7507 8.67456 38.751 19.375C38.751 19.8898 38.7308 20.3999 38.6912 20.9045C38.4157 24.419 38.1228 28.0322 39.2451 31.374C39.4297 31.9238 39.0556 32.5027 38.4785 32.5605C34.9646 32.9124 31.786 34.6671 28.691 36.3679C25.9271 37.8868 22.7526 38.7509 19.376 38.751C8.67517 38.751 0 30.0758 0 19.375C0.000250896 8.67441 8.67533 0 19.376 0Z" fill="#212121"/>
<g id="Union_2">
<mask id="path-2-outside-1_329_3141" maskUnits="userSpaceOnUse" x="3.21973" y="1.0918" width="44" height="42" fill="black">
<rect fill="white" x="3.21973" y="1.0918" width="44" height="42"/>
<path d="M24.3662 4.0918C34.3883 4.0918 42.5127 12.2162 42.5127 22.2383C42.5127 24.0967 42.2331 25.8897 41.714 27.5779C41.6952 27.6391 41.7023 27.704 41.7227 27.7646L43.9531 34.4072C44.1377 34.957 43.7636 35.5359 43.1865 35.5938L36.2139 36.293C36.004 36.3139 35.7845 36.343 35.6191 36.4738C32.5262 38.9221 28.6172 40.3848 24.3662 40.3848C14.3443 40.3847 6.21984 32.2602 6.21973 22.2383C6.21973 12.2163 14.3442 4.09186 24.3662 4.0918Z"/>
</mask>
<path d="M24.3662 4.0918C34.3883 4.0918 42.5127 12.2162 42.5127 22.2383C42.5127 24.0967 42.2331 25.8897 41.714 27.5779C41.6952 27.6391 41.7023 27.704 41.7227 27.7646L43.9531 34.4072C44.1377 34.957 43.7636 35.5359 43.1865 35.5938L36.2139 36.293C36.004 36.3139 35.7845 36.343 35.6191 36.4738C32.5262 38.9221 28.6172 40.3848 24.3662 40.3848C14.3443 40.3847 6.21984 32.2602 6.21973 22.2383C6.21973 12.2163 14.3442 4.09186 24.3662 4.0918Z" fill="#2CEDB8"/>
<path d="M24.3662 4.0918V1.39685H24.3662L24.3662 4.0918ZM42.5127 22.2383L45.2076 22.2383V22.2383H42.5127ZM43.9531 34.4072L46.508 33.5496L46.5079 33.5494L43.9531 34.4072ZM43.1865 35.5938L42.9178 32.9122L42.9176 32.9123L43.1865 35.5938ZM24.3662 40.3848L24.3662 43.0797H24.3662V40.3848ZM6.21973 22.2383H3.52478V22.2383L6.21973 22.2383ZM35.6191 36.4738L33.9465 34.3608L35.6191 36.4738ZM41.714 27.5779L44.29 28.3699L41.714 27.5779ZM24.3662 4.0918V6.78675C32.8999 6.78675 39.8177 13.7046 39.8177 22.2383H42.5127H45.2076C45.2076 10.7278 35.8766 1.39685 24.3662 1.39685V4.0918ZM42.5127 22.2383L39.8177 22.2383C39.8177 23.825 39.5792 25.3512 39.1381 26.7859L41.714 27.5779L44.29 28.3699C44.887 26.4282 45.2076 24.3684 45.2076 22.2383L42.5127 22.2383ZM41.7227 27.7646L39.1679 28.6225L41.3984 35.2651L43.9531 34.4072L46.5079 33.5494L44.2774 26.9068L41.7227 27.7646ZM43.9531 34.4072L41.3983 35.2649C41.0321 34.1739 41.7743 33.0268 42.9178 32.9122L43.1865 35.5938L43.4552 38.2753C45.7529 38.045 47.2433 35.7401 46.508 33.5496L43.9531 34.4072ZM43.1865 35.5938L42.9176 32.9123L35.945 33.6115L36.2139 36.293L36.4828 38.9745L43.4554 38.2752L43.1865 35.5938ZM35.6191 36.4738L33.9465 34.3608C31.3121 36.446 27.9881 37.6898 24.3662 37.6898V40.3848V43.0797C29.2463 43.0797 33.7402 41.3982 37.2917 38.5869L35.6191 36.4738ZM24.3662 40.3848L24.3662 37.6898C15.8327 37.6898 8.91477 30.7718 8.91467 22.2383L6.21973 22.2383L3.52478 22.2383C3.52491 33.7486 12.8559 43.0796 24.3662 43.0797L24.3662 40.3848ZM6.21973 22.2383H8.91467C8.91467 13.7047 15.8326 6.7868 24.3662 6.78675L24.3662 4.0918L24.3662 1.39685C12.8558 1.39692 3.52478 10.7279 3.52478 22.2383H6.21973ZM36.2139 36.293L35.9459 33.6114C35.8259 33.6234 34.8158 33.6727 33.9465 34.3608L35.6191 36.4738L37.2917 38.5869C36.9902 38.8256 36.7059 38.9175 36.5724 38.9519C36.4562 38.9818 36.3822 38.9845 36.4819 38.9746L36.2139 36.293ZM41.714 27.5779L39.1381 26.7859C38.9032 27.55 39.032 28.2176 39.1678 28.6223L41.7227 27.7646L44.2775 26.907C44.3726 27.1903 44.4873 27.7282 44.29 28.3699L41.714 27.5779Z" fill="white" mask="url(#path-2-outside-1_329_3141)"/>
</g>
</g>
<g id="Group 47428">
<g id="Group 47427">
<path id="Vector" d="M23.1566 14.0128C23.1566 13.7216 23.2723 13.4424 23.4782 13.2366C23.6841 13.0307 23.9634 12.915 24.2545 12.915C24.5457 12.915 24.8249 13.0307 25.0308 13.2366C25.2367 13.4424 25.3524 13.7216 25.3525 14.0128V28.6323C25.3524 28.9234 25.2367 29.2026 25.0308 29.4085C24.8249 29.6144 24.5457 29.73 24.2545 29.73C23.9634 29.73 23.6841 29.6144 23.4782 29.4085C23.2723 29.2026 23.1566 28.9234 23.1566 28.6323V14.0128ZM18.7648 17.6653C18.7649 17.3741 18.8806 17.0949 19.0865 16.889C19.2924 16.6832 19.5716 16.5675 19.8628 16.5675C20.1539 16.5675 20.4332 16.6832 20.6391 16.889C20.845 17.0949 20.9606 17.3741 20.9607 17.6653V25.7242C20.9606 26.0153 20.845 26.2946 20.6391 26.5004C20.4332 26.7063 20.1539 26.8219 19.8628 26.8219C19.5716 26.8219 19.2924 26.7063 19.0865 26.5004C18.8806 26.2946 18.7649 26.0153 18.7648 25.7242V17.6653ZM27.5483 17.6653C27.5484 17.3741 27.6641 17.0949 27.87 16.889C28.0759 16.6832 28.3551 16.5675 28.6463 16.5675C28.9375 16.5675 29.2167 16.6832 29.4226 16.889C29.6285 17.0949 29.7442 17.3741 29.7442 17.6653V25.7242C29.7442 26.0153 29.6285 26.2946 29.4226 26.5004C29.2167 26.7063 28.9375 26.8219 28.6463 26.8219C28.3551 26.8219 28.0759 26.7063 27.87 26.5004C27.6641 26.2946 27.5484 26.0153 27.5483 25.7242V17.6653ZM31.9401 19.8721C31.9402 19.581 32.0559 19.3018 32.2618 19.0959C32.4677 18.89 32.7469 18.7744 33.0381 18.7744C33.3292 18.7744 33.6085 18.89 33.8144 19.0959C34.0203 19.3018 34.136 19.581 34.136 19.8721V23.5027C34.136 23.6469 34.1076 23.7897 34.0525 23.9229C33.9973 24.0561 33.9164 24.1772 33.8145 24.2792C33.7125 24.3811 33.5915 24.462 33.4583 24.5172C33.325 24.5724 33.1823 24.6008 33.0381 24.6008C32.8939 24.6008 32.7511 24.5724 32.6179 24.5172C32.4846 24.462 32.3636 24.3811 32.2616 24.2792C32.1597 24.1772 32.0788 24.0561 32.0236 23.9229C31.9685 23.7897 31.9401 23.6469 31.9401 23.5027V19.8721ZM14.373 19.8721C14.3731 19.581 14.4888 19.3018 14.6947 19.0959C14.9006 18.89 15.1798 18.7744 15.471 18.7744C15.7621 18.7744 16.0414 18.89 16.2473 19.0959C16.4532 19.3018 16.5689 19.581 16.5689 19.8721V23.5027C16.569 23.6469 16.5406 23.7897 16.4854 23.9229C16.4302 24.0561 16.3494 24.1772 16.2474 24.2792C16.1455 24.3811 16.0244 24.462 15.8912 24.5172C15.758 24.5724 15.6152 24.6008 15.471 24.6008C15.3268 24.6008 15.184 24.5724 15.0508 24.5172C14.9176 24.462 14.7965 24.3811 14.6946 24.2792C14.5926 24.1772 14.5117 24.0561 14.4566 23.9229C14.4014 23.7897 14.373 23.6469 14.373 23.5027V19.8721Z" fill="#212121"/>
</g>
</g>
</g>
</svg>
