<svg width="37" height="36" viewBox="0 0 37 36" fill="none" xmlns="http://www.w3.org/2000/svg">
<path d="M17.9326 1.77637C26.8555 1.77637 34.0898 9.01067 34.0898 17.9336C34.0896 26.8563 26.8554 34.0898 17.9326 34.0898C9.01008 34.0896 1.77659 26.8562 1.77637 17.9336C1.77637 9.01083 9.00995 1.77662 17.9326 1.77637Z" fill="#2CEDB8" stroke="white" stroke-width="2.44643"/>
<ellipse cx="14.4071" cy="9.55427" rx="2.87393" ry="4.42145" fill="white"/>
<ellipse cx="19.4901" cy="9.55427" rx="2.87393" ry="4.42145" fill="white"/>
<ellipse cx="14.407" cy="10.5487" rx="2.21071" ry="3.42663" fill="black"/>
<ellipse cx="19.491" cy="10.5487" rx="2.21071" ry="3.42663" fill="black"/>
<path d="M17.0829 18.029C19.3488 18.1829 23.7006 18.0274 25.8857 14.7321" stroke="black" stroke-width="2.44268" stroke-linecap="round"/>
<path d="M27.9297 22.0645C28.6181 20.5895 30.7158 20.5896 31.4043 22.0645L32.252 23.8809L34.0684 24.7285C35.5434 25.4169 35.5434 27.5147 34.0684 28.2031L32.252 29.0508L31.4043 30.8672C30.7159 32.3422 28.6181 32.3422 27.9297 30.8672L27.082 29.0508L25.2656 28.2031C23.7908 27.5146 23.7906 25.4169 25.2656 24.7285L27.082 23.8809L27.9297 22.0645Z" fill="#FF9500" stroke="white" stroke-width="2.36016"/>
</svg>
