<svg width="24" height="24" viewBox="0 0 1024 1024" fill="none" xmlns="http://www.w3.org/2000/svg">
<path d="M874.667 248.96A447.36 447.36 0 0 0 512 64C280.448 64 90.027 239.573 66.432 464.896L61.995 507.307L146.901 516.224L151.296 473.771A362.709 362.709 0 0 1 819.712 320H661.333V405.333H960V106.667H874.667V248.96ZM877.099 507.776L872.661 550.229A362.709 362.709 0 0 1 204.245 704H362.667V618.667H64V917.333H149.333V775.04A447.36 447.36 0 0 0 512 960C743.509 960 933.973 784.427 957.525 559.104L961.963 516.693L877.099 507.776Z" fill="#FFFFFF"/>
</svg>
