<svg width="86" height="89" viewBox="0 0 86 89" fill="none" xmlns="http://www.w3.org/2000/svg">
<g filter="url(#filter0_d_3086_2377)">
<ellipse cx="44.4346" cy="40.9473" rx="28.25" ry="28" fill="url(#paint0_linear_3086_2377)"/>
<mask id="mask0_3086_2377" style="mask-type:alpha" maskUnits="userSpaceOnUse" x="16" y="12" width="57" height="57">
<ellipse cx="44.4346" cy="40.9473" rx="28.25" ry="28" fill="url(#paint1_linear_3086_2377)"/>
</mask>
<g mask="url(#mask0_3086_2377)">
<g filter="url(#filter1_f_3086_2377)">
<ellipse cx="43.7986" cy="11.3719" rx="43.7986" ry="11.3719" transform="matrix(0.732701 -0.680551 0.687023 0.726635 -19.7705 40.7441)" fill="#656AFF"/>
</g>
<g filter="url(#filter2_f_3086_2377)">
<ellipse cx="43.9434" cy="6.07269" rx="43.9434" ry="6.07269" transform="matrix(0.707781 -0.706431 0.712695 0.701474 32.877 83.9414)" fill="#12A7FF"/>
</g>
</g>
</g>
<mask id="path-5-inside-1_3086_2377" fill="white">
<path d="M41.5811 30.9473L60.7871 30.9482C63.7405 30.9483 66.1433 33.1339 66.1436 35.8203V40.2734C66.1436 40.6392 66.236 45.7752 66.1416 49.5215V51.707C66.1415 54.3936 63.7397 56.5801 60.7861 56.5801H53.8789L47.6953 60.7559C47.4861 60.8974 47.234 60.9697 46.9805 60.9697C46.8017 60.9697 46.6218 60.934 46.4561 60.8613C46.0536 60.6841 45.7989 60.321 45.7988 59.9229V56.5801H41.5801C38.6274 56.5799 36.2246 54.3933 36.2246 51.7061V49.4863C36.133 45.7461 36.2256 40.6681 36.2256 40.3037V35.8203C36.2259 33.1339 38.6285 30.9473 41.5811 30.9473Z"/>
</mask>
<path d="M41.5811 30.9473L60.7871 30.9482C63.7405 30.9483 66.1433 33.1339 66.1436 35.8203V40.2734C66.1436 40.6392 66.236 45.7752 66.1416 49.5215V51.707C66.1415 54.3936 63.7397 56.5801 60.7861 56.5801H53.8789L47.6953 60.7559C47.4861 60.8974 47.234 60.9697 46.9805 60.9697C46.8017 60.9697 46.6218 60.934 46.4561 60.8613C46.0536 60.6841 45.7989 60.321 45.7988 59.9229V56.5801H41.5801C38.6274 56.5799 36.2246 54.3933 36.2246 51.7061V49.4863C36.133 45.7461 36.2256 40.6681 36.2256 40.3037V35.8203C36.2259 33.1339 38.6285 30.9473 41.5811 30.9473Z" fill="white"/>
<path d="M41.5811 30.9473L41.5811 29.3288L41.581 29.3288L41.5811 30.9473ZM60.7871 30.9482L60.787 32.5667L60.7871 32.5667L60.7871 30.9482ZM66.1436 35.8203L67.762 35.8203L67.762 35.8201L66.1436 35.8203ZM66.1436 40.2734L64.5251 40.2734L64.5251 40.2736L66.1436 40.2734ZM66.1416 49.5215L64.5237 49.4807L64.5232 49.5011V49.5215H66.1416ZM66.1416 51.707L67.76 51.7071V51.707H66.1416ZM53.8789 56.5801V54.9617H53.3836L52.9732 55.2388L53.8789 56.5801ZM47.6953 60.7559L46.7896 59.4146L46.7886 59.4153L47.6953 60.7559ZM46.9805 60.9697L46.9805 62.5881L46.9807 62.5881L46.9805 60.9697ZM46.4561 60.8613L45.8038 62.3425L45.8061 62.3435L46.4561 60.8613ZM45.7988 59.9229L44.1804 59.9229L44.1804 59.923L45.7988 59.9229ZM45.7988 56.5801H47.4172V54.9617H45.7988V56.5801ZM41.5801 56.5801L41.58 58.1985H41.5801V56.5801ZM36.2246 49.4863H37.843V49.4665L37.8425 49.4467L36.2246 49.4863ZM36.2256 40.3037L37.844 40.3038V40.3037H36.2256ZM36.2256 35.8203L34.6072 35.8201V35.8203H36.2256ZM41.5811 30.9473L41.581 32.5657L60.787 32.5667L60.7871 30.9482L60.7872 29.3298L41.5811 29.3288L41.5811 30.9473ZM60.7871 30.9482L60.7871 32.5667C62.9943 32.5667 64.525 34.1686 64.5251 35.8205L66.1436 35.8203L67.762 35.8201C67.7616 32.0992 64.4867 29.3299 60.7871 29.3298L60.7871 30.9482ZM66.1436 35.8203H64.5251V40.2734H66.1436H67.762V35.8203H66.1436ZM66.1436 40.2734L64.5251 40.2736C64.5252 40.6967 64.6175 45.7584 64.5237 49.4807L66.1416 49.5215L67.7595 49.5622C67.8545 45.792 67.762 40.5817 67.762 40.2733L66.1436 40.2734ZM66.1416 49.5215H64.5232V51.707H66.1416H67.76V49.5215H66.1416ZM66.1416 51.707L64.5232 51.707C64.5231 53.3596 62.9927 54.9617 60.7861 54.9617V56.5801V58.1985C64.4866 58.1985 67.7599 55.4276 67.76 51.7071L66.1416 51.707ZM60.7861 56.5801V54.9617H53.8789V56.5801V58.1985H60.7861V56.5801ZM53.8789 56.5801L52.9732 55.2388L46.7896 59.4146L47.6953 60.7559L48.6011 62.0971L54.7846 57.9213L53.8789 56.5801ZM47.6953 60.7559L46.7886 59.4153C46.8648 59.3638 46.9328 59.3513 46.9802 59.3513L46.9805 60.9697L46.9807 62.5881C47.5352 62.5881 48.1073 62.431 48.602 62.0965L47.6953 60.7559ZM46.9805 60.9697V59.3513C47.0147 59.3513 47.0573 59.3578 47.106 59.3791L46.4561 60.8613L45.8061 62.3435C46.1864 62.5102 46.5886 62.5881 46.9805 62.5881V60.9697ZM46.4561 60.8613L47.1083 59.3802C47.2128 59.4262 47.4172 59.5961 47.4172 59.9228L45.7988 59.9229L44.1804 59.923C44.1805 61.046 44.8944 61.942 45.8038 62.3425L46.4561 60.8613ZM45.7988 59.9229H47.4172V56.5801H45.7988H44.1804V59.9229H45.7988ZM45.7988 56.5801V54.9617H41.5801V56.5801V58.1985H45.7988V56.5801ZM41.5801 56.5801L41.5802 54.9617C39.3743 54.9615 37.843 53.3593 37.843 51.7061H36.2246H34.6062C34.6062 55.4274 37.8805 58.1983 41.58 58.1985L41.5801 56.5801ZM36.2246 51.7061H37.843V49.4863H36.2246H34.6062V51.7061H36.2246ZM36.2246 49.4863L37.8425 49.4467C37.7515 45.7293 37.844 40.7264 37.844 40.3038L36.2256 40.3037L34.6072 40.3036C34.6071 40.6098 34.5145 45.7629 34.6067 49.526L36.2246 49.4863ZM36.2256 40.3037H37.844V35.8203H36.2256H34.6072V40.3037H36.2256ZM36.2256 35.8203L37.844 35.8205C37.8442 34.168 39.3753 32.5657 41.5811 32.5657L41.5811 30.9473L41.581 29.3288C37.8816 29.3289 34.6075 32.0998 34.6072 35.8201L36.2256 35.8203Z" fill="black" mask="url(#path-5-inside-1_3086_2377)"/>
<path d="M26.2812 30.0309C28.9844 30.3755 34.2225 30.5912 37.1842 27.5195" stroke="black" stroke-width="3.04644" stroke-linecap="round"/>
<path d="M20.1846 16.9473V21.2273M31.6151 16.9473V21.2273" stroke="black" stroke-width="3.04644" stroke-linecap="round" stroke-linejoin="round"/>
<path d="M44.9599 36.3228H50.8038V37.0981H44.9599V36.3228ZM44.5503 37.9977H51.1402V38.7803H44.5503V37.9977ZM46.0277 40.4479H49.6774V41.1135H46.0277V40.4479ZM46.035 41.6328H49.6847V42.3642H46.035V41.6328ZM47.3589 35.7303H48.2877V36.7909H47.3589V35.7303ZM45.5889 39.2191H50.226V42.5909H49.3044V39.9505H46.4739V42.5982H45.5889V39.2191ZM48.9679 36.9591L49.948 37.1639C49.8603 37.3492 49.7725 37.5296 49.6847 37.7051C49.6018 37.8807 49.5262 38.0294 49.458 38.1513L48.6096 37.9538C48.6534 37.8612 48.6973 37.7563 48.7412 37.6393C48.79 37.5223 48.8339 37.4053 48.8729 37.2882C48.9167 37.1663 48.9484 37.0566 48.9679 36.9591ZM45.8887 37.1639L46.7591 36.9884C46.8518 37.1395 46.9346 37.3053 47.0078 37.4857C47.0809 37.6612 47.1272 37.8173 47.1468 37.9538L46.2325 38.1586C46.2179 38.0221 46.1764 37.8587 46.1082 37.6686C46.0448 37.4784 45.9716 37.3102 45.8887 37.1639ZM55.2434 36.1399H58.4981V36.9006H55.2434V36.1399ZM56.6184 36.6153L57.401 36.7982C57.3181 37.003 57.2377 37.2005 57.1597 37.3906C57.0816 37.5808 57.0085 37.7466 56.9402 37.888L56.2381 37.7198C56.3064 37.5637 56.3771 37.3833 56.4502 37.1785C56.5233 36.9688 56.5794 36.7811 56.6184 36.6153ZM55.4043 37.5296H58.3518V40.9452H57.5912V38.1732H56.1284V40.9745H55.4043V37.5296ZM56.516 38.4585H57.2255C57.2206 38.9851 57.2084 39.4507 57.1889 39.8555C57.1694 40.2553 57.1231 40.6088 57.0499 40.916C56.9817 41.2183 56.8744 41.4792 56.7281 41.6986C56.5819 41.9131 56.3844 42.096 56.1357 42.2471C55.887 42.3983 55.5676 42.5299 55.1776 42.6421C55.1483 42.5495 55.0922 42.4397 55.0093 42.313C54.9313 42.1862 54.8557 42.0862 54.7826 42.0131C55.1239 41.9302 55.4019 41.8302 55.6164 41.7132C55.8358 41.5913 56.0065 41.4426 56.1284 41.2671C56.2503 41.0915 56.338 40.877 56.3917 40.6234C56.4453 40.3699 56.4795 40.0651 56.4941 39.7092C56.5087 39.3532 56.516 38.9363 56.516 38.4585ZM56.7793 41.4426L57.2547 40.9672C57.4059 41.0745 57.5692 41.1964 57.7448 41.3329C57.9203 41.4645 58.0885 41.5962 58.2494 41.7278C58.4104 41.8595 58.542 41.979 58.6444 42.0862L58.1397 42.6202C58.0422 42.5129 57.9154 42.3885 57.7594 42.2471C57.6083 42.1106 57.4449 41.9716 57.2694 41.8302C57.0987 41.6888 56.9354 41.5596 56.7793 41.4426ZM53.6416 36.5129H55.024V37.2224H53.6416V36.5129ZM51.7107 37.9026H55.1922V38.6706H51.7107V37.9026ZM53.3125 35.723H54.0805V38.3341H53.3125V35.723ZM52.1569 36.3667H52.8444V38.3634H52.1569V36.3667ZM54.4681 39.1021L55.2141 39.263C55.0825 39.8774 54.8874 40.4016 54.629 40.8355C54.3755 41.2646 54.0439 41.623 53.6343 41.9107C53.2296 42.1984 52.7298 42.4373 52.1349 42.6275C52.0959 42.5153 52.035 42.3934 51.9521 42.2618C51.8692 42.135 51.7863 42.0302 51.7034 41.9473C52.2349 41.8107 52.6835 41.623 53.0492 41.3841C53.4198 41.1452 53.7196 40.838 53.9488 40.4625C54.178 40.0871 54.3511 39.6336 54.4681 39.1021ZM52.2666 39.007L52.9907 39.1606C52.9175 39.4678 52.8176 39.7701 52.6908 40.0676C52.5689 40.365 52.4348 40.6137 52.2885 40.8136C52.2446 40.7746 52.1837 40.7307 52.1057 40.6819C52.0276 40.6332 51.9472 40.5844 51.8643 40.5357C51.7863 40.4869 51.718 40.4479 51.6595 40.4186C51.8009 40.2382 51.9228 40.0237 52.0252 39.775C52.1276 39.5214 52.2081 39.2655 52.2666 39.007ZM53.1369 38.4877H53.9342V40.8867H53.1369V38.4877ZM48.4121 45.5568H49.2751V49.5869H48.4121V45.5568ZM50.1236 44.8693H50.9939V50.5596C50.9939 50.8083 50.9647 50.9985 50.9062 51.1301C50.8477 51.2618 50.7453 51.3617 50.599 51.43C50.4527 51.4983 50.2625 51.5421 50.0285 51.5616C49.7944 51.586 49.5116 51.5982 49.1801 51.5982C49.1605 51.4763 49.1215 51.33 49.063 51.1594C49.0094 50.9887 48.9509 50.8424 48.8875 50.7205C49.1118 50.7254 49.3239 50.7303 49.5238 50.7352C49.7237 50.7352 49.8603 50.7352 49.9334 50.7352C50.0017 50.7303 50.0504 50.7157 50.0797 50.6913C50.1089 50.662 50.1236 50.6157 50.1236 50.5523V44.8693ZM45.662 46.6832H47.5417V47.4877H45.662V46.6832ZM44.5868 45.0595H48.2219V45.8713H44.5868V45.0595ZM45.2085 48.6214L45.6254 47.9631C45.7668 48.0412 45.918 48.1314 46.0789 48.2338C46.2447 48.3362 46.4032 48.4386 46.5543 48.5409C46.7055 48.6433 46.8274 48.736 46.92 48.8189L46.4885 49.5576C46.4007 49.4698 46.2837 49.3699 46.1374 49.2577C45.9911 49.1456 45.8351 49.0334 45.6693 48.9213C45.5084 48.8091 45.3548 48.7092 45.2085 48.6214ZM47.2345 46.6832H47.3954L47.549 46.6539L48.0976 46.8368C47.9757 47.6462 47.7879 48.363 47.5344 48.9871C47.2857 49.6064 46.981 50.1354 46.6201 50.5743C46.2593 51.0131 45.8522 51.3642 45.3987 51.6275C45.3548 51.5592 45.2939 51.4836 45.2158 51.4007C45.1378 51.3178 45.0574 51.2374 44.9745 51.1594C44.8916 51.0814 44.8136 51.0228 44.7404 50.9838C45.1842 50.7498 45.5742 50.4426 45.9107 50.0623C46.2471 49.6819 46.5275 49.226 46.7518 48.6945C46.9761 48.1631 47.137 47.5536 47.2345 46.866V46.6832ZM45.7863 45.5129L46.664 45.6812C46.5568 46.1005 46.4202 46.5296 46.2544 46.9684C46.0935 47.4024 45.9009 47.8144 45.6766 48.2045C45.4572 48.5946 45.2012 48.9335 44.9087 49.2212C44.8599 49.1626 44.7965 49.0993 44.7185 49.031C44.6405 48.9578 44.5625 48.8896 44.4844 48.8262C44.4113 48.7579 44.343 48.7019 44.2797 48.658C44.543 48.4044 44.7746 48.1021 44.9745 47.751C45.1744 47.3951 45.3426 47.0221 45.4792 46.632C45.6157 46.2419 45.7181 45.8689 45.7863 45.5129ZM52.1715 45.2204H58.169V45.9664H52.1715V45.2204ZM52.5152 46.3394H57.8837V47.0343H52.5152V46.3394ZM51.9009 47.4438H58.3957V48.1899H51.9009V47.4438ZM54.6948 44.7303H55.5798V48.0655H54.6948V44.7303ZM54.7021 47.7145L55.4628 48.0802C55.2629 48.2898 55.0362 48.4922 54.7826 48.6872C54.5339 48.8823 54.2657 49.0651 53.9781 49.2358C53.6904 49.4016 53.3954 49.5527 53.0931 49.6893C52.7907 49.8209 52.4884 49.9331 52.1861 50.0257C52.1471 49.9574 52.0935 49.8794 52.0252 49.7916C51.9618 49.7039 51.8936 49.6186 51.8204 49.5357C51.7522 49.4479 51.6863 49.3747 51.6229 49.3162C51.9106 49.2382 52.2032 49.1431 52.5006 49.031C52.7981 48.9188 53.0833 48.7921 53.3564 48.6507C53.6294 48.5093 53.8805 48.3605 54.1097 48.2045C54.3438 48.0485 54.5412 47.8851 54.7021 47.7145ZM55.9675 47.8534C56.0942 48.3362 56.2722 48.775 56.5014 49.17C56.7306 49.5649 57.0231 49.9014 57.3791 50.1793C57.735 50.4523 58.1617 50.6596 58.659 50.801C58.5956 50.8644 58.5274 50.94 58.4542 51.0277C58.3811 51.1204 58.3128 51.2154 58.2494 51.313C58.1861 51.4154 58.1324 51.5056 58.0885 51.5836C57.5473 51.3983 57.0865 51.1399 56.7062 50.8083C56.3307 50.4719 56.0187 50.0696 55.77 49.6015C55.5262 49.1334 55.3238 48.6019 55.1629 48.007L55.9675 47.8534ZM57.6497 48.2923L58.3811 48.8408C58.1958 48.9725 58.0032 49.1041 57.8033 49.2358C57.6034 49.3626 57.4059 49.482 57.2109 49.5942C57.0158 49.7063 56.833 49.8063 56.6623 49.894L56.1138 49.4186C56.2747 49.3211 56.4478 49.209 56.633 49.0822C56.8232 48.9554 57.0061 48.8238 57.1816 48.6872C57.362 48.5507 57.518 48.419 57.6497 48.2923ZM52.3982 50.779C52.6957 50.7254 53.0345 50.662 53.4149 50.5889C53.8001 50.5109 54.2024 50.428 54.6217 50.3402C55.0459 50.2524 55.4652 50.1622 55.8797 50.0696L55.9602 50.8595C55.5798 50.9473 55.1922 51.035 54.7972 51.1228C54.4071 51.2106 54.0293 51.2935 53.6636 51.3715C53.3027 51.4495 52.9687 51.5226 52.6615 51.5909L52.3982 50.779ZM53.4002 49.2943L53.9781 48.7165L54.2852 48.7969V50.8961H53.4002V49.2943Z" fill="black"/>
<path d="M40.6846 12.9478C39.6846 2.94726 48.6847 3.44829 51.1846 9.44778C53.6846 15.4473 52.1846 31.4475 52.1846 31.4475" stroke="black" stroke-width="3"/>
<defs>
<filter id="filter0_d_3086_2377" x="0.000360489" y="-0.000102043" width="88.8684" height="88.3684" filterUnits="userSpaceOnUse" color-interpolation-filters="sRGB">
<feFlood flood-opacity="0" result="BackgroundImageFix"/>
<feColorMatrix in="SourceAlpha" type="matrix" values="0 0 0 0 0 0 0 0 0 0 0 0 0 0 0 0 0 0 127 0" result="hardAlpha"/>
<feOffset dy="3.23684"/>
<feGaussianBlur stdDeviation="8.0921"/>
<feComposite in2="hardAlpha" operator="out"/>
<feColorMatrix type="matrix" values="0 0 0 0 0.227451 0 0 0 0 0.0941176 0 0 0 0 0.498039 0 0 0 0.25 0"/>
<feBlend mode="normal" in2="BackgroundImageFix" result="effect1_dropShadow_3086_2377"/>
<feBlend mode="normal" in="SourceGraphic" in2="effect1_dropShadow_3086_2377" result="shape"/>
</filter>
<filter id="filter1_f_3086_2377" x="-25.8497" y="-24.6866" width="91.967" height="87.7736" filterUnits="userSpaceOnUse" color-interpolation-filters="sRGB">
<feFlood flood-opacity="0" result="BackgroundImageFix"/>
<feBlend mode="normal" in="SourceGraphic" in2="BackgroundImageFix" result="shape"/>
<feGaussianBlur stdDeviation="6.47368" result="effect1_foregroundBlur_3086_2377"/>
</filter>
<filter id="filter2_f_3086_2377" x="20.7172" y="9.6361" width="95.1799" height="95.0442" filterUnits="userSpaceOnUse" color-interpolation-filters="sRGB">
<feFlood flood-opacity="0" result="BackgroundImageFix"/>
<feBlend mode="normal" in="SourceGraphic" in2="BackgroundImageFix" result="shape"/>
<feGaussianBlur stdDeviation="8.0921" result="effect1_foregroundBlur_3086_2377"/>
</filter>
<linearGradient id="paint0_linear_3086_2377" x1="20.6789" y1="30.1291" x2="67.9102" y2="63.615" gradientUnits="userSpaceOnUse">
<stop stop-color="#4387FF"/>
<stop offset="0.581731" stop-color="#20D8FA"/>
<stop offset="1" stop-color="#78F8E1"/>
</linearGradient>
<linearGradient id="paint1_linear_3086_2377" x1="20.0368" y1="26.9473" x2="72.2579" y2="75.1369" gradientUnits="userSpaceOnUse">
<stop stop-color="#4387FF"/>
<stop offset="0.671883" stop-color="#20D8FA"/>
<stop offset="1" stop-color="#78F8E1"/>
</linearGradient>
</defs>
</svg>
