<svg xmlns="http://www.w3.org/2000/svg" width="585" height="472" viewBox="0 0 585 472"><path fill="#4e1601" d="M269 12h46v1h-46ZM259 13h66v1h-66ZM252 14h81v1h-81ZM245 15h94v1h-94ZM240 16h104v1h-104ZM235 17h114v1h-114ZM230 18h124v1h-124ZM226 19h132v1h-132ZM222 20h140v1h-140ZM218 21h148v1h-148ZM215 22h155v1h-155ZM211 23h162v1h-162ZM208 24h168v1h-168ZM205 25h174v1h-174ZM202 26h180v1h-180ZM199 27h186v1h-186ZM196 28h192v1h-192ZM194 29h197v1h-197ZM191 30h202v1h-202ZM189 31h207v1h-207ZM186 32h212v1h-212ZM184 33h217v1h-217ZM181 34h222v1h-222ZM179 35h226v1h-226ZM177 36h230v1h-230ZM175 37h235v1h-235ZM173 38h239v1h-239ZM171 39h243v1h-243ZM169 40h247v1h-247ZM167 41h251v1h-251ZM165 42h255v1h-255ZM163 43h259v1h-259ZM161 44h263v1h-263ZM159 45h266v1h-266ZM157 46h270v1h-270ZM155 47h274v1h-274ZM154 48h277v1h-277ZM152 49h281v1h-281ZM150 50h284v1h-284ZM148 51h288v1h-288ZM147 52h291v1h-291ZM145 53h294v1h-294ZM144 54h297v1h-297ZM142 55h300v1h-300ZM140 56h304v1h-304ZM139 57h306v1h-306ZM137 58h310v1h-310ZM136 59h312v1h-312ZM134 60h316v1h-316ZM133 61h318v1h-318ZM132 62h321v1h-321ZM130 63h324v1h-324ZM129 64h327v1h-327ZM127 65h330v1h-330ZM126 66h332v1h-332ZM125 67h335v1h-335ZM123 68h160v1h-160ZM302 68h159v1h-159ZM122 69h147v1h-147ZM316 69h146v1h-146ZM121 70h139v1h-139ZM324 70h140v1h-140ZM119 71h135v1h-135ZM330 71h135v1h-135ZM118 72h131v1h-131ZM336 72h130v1h-130ZM117 73h127v1h-127ZM340 73h127v1h-127ZM116 74h124v1h-124ZM345 74h124v1h-124ZM114 75h121v1h-121ZM349 75h121v1h-121ZM113 76h119v1h-119ZM353 76h118v1h-118ZM112 77h116v1h-116ZM356 77h116v1h-116ZM111 78h114v1h-114ZM359 78h114v1h-114ZM110 79h112v1h-112ZM362 79h113v1h-113ZM109 80h110v1h-110ZM365 80h111v1h-111ZM107 81h109v1h-109ZM368 81h109v1h-109ZM106 82h107v1h-107ZM371 82h107v1h-107ZM105 83h106v1h-106ZM374 83h105v1h-105ZM104 84h104v1h-104ZM376 84h104v1h-104ZM103 85h103v1h-103ZM379 85h102v1h-102ZM102 86h101v1h-101ZM381 86h101v1h-101ZM101 87h100v1h-100ZM383 87h101v1h-101ZM100 88h99v1h-99ZM385 88h100v1h-100ZM99 89h98v1h-98ZM387 89h99v1h-99ZM98 90h97v1h-97ZM390 90h97v1h-97ZM97 91h96v1h-96ZM392 91h96v1h-96ZM96 92h95v1h-95ZM394 92h95v1h-95ZM95 93h94v1h-94ZM396 93h94v1h-94ZM94 94h93v1h-93ZM397 94h94v1h-94ZM93 95h92v1h-92ZM399 95h93v1h-93ZM92 96h91v1h-91ZM401 96h92v1h-92ZM91 97h90v1h-90ZM403 97h91v1h-91ZM90 98h90v1h-90ZM405 98h90v1h-90ZM89 99h89v1h-89ZM406 99h90v1h-90ZM88 100h88v1h-88ZM408 100h89v1h-89ZM87 101h88v1h-88ZM410 101h87v1h-87ZM86 102h87v1h-87ZM411 102h87v1h-87ZM85 103h87v1h-87ZM413 103h86v1h-86ZM84 104h86v1h-86ZM414 104h86v1h-86ZM83 105h85v1h-85ZM416 105h85v1h-85ZM82 106h85v1h-85ZM417 106h85v1h-85ZM81 107h85v1h-85ZM419 107h84v1h-84ZM81 108h83v1h-83ZM420 108h84v1h-84ZM80 109h83v1h-83ZM422 109h83v1h-83ZM79 110h82v1h-82ZM423 110h82v1h-82ZM78 111h82v1h-82ZM424 111h82v1h-82ZM77 112h82v1h-82ZM426 112h81v1h-81ZM76 113h81v1h-81ZM427 113h81v1h-81ZM75 114h81v1h-81ZM429 114h80v1h-80ZM75 115h80v1h-80ZM430 115h80v1h-80ZM74 116h79v1h-79ZM431 116h79v1h-79ZM73 117h79v1h-79ZM432 117h79v1h-79ZM72 118h79v1h-79ZM434 118h78v1h-78ZM71 119h79v1h-79ZM435 119h78v1h-78ZM71 120h77v1h-77ZM436 120h78v1h-78ZM70 121h77v1h-77ZM437 121h77v1h-77ZM69 122h77v1h-77ZM438 122h77v1h-77ZM68 123h77v1h-77ZM439 123h77v1h-77ZM68 124h76v1h-76ZM441 124h76v1h-76ZM67 125h76v1h-76ZM442 125h75v1h-75ZM66 126h76v1h-76ZM443 126h75v1h-75ZM65 127h76v1h-76ZM444 127h75v1h-75ZM65 128h74v1h-74ZM445 128h75v1h-75ZM64 129h74v1h-74ZM446 129h74v1h-74ZM63 130h74v1h-74ZM447 130h74v1h-74ZM63 131h73v1h-73ZM448 131h74v1h-74ZM62 132h73v1h-73ZM449 132h73v1h-73ZM61 133h73v1h-73ZM450 133h73v1h-73ZM60 134h73v1h-73ZM451 134h73v1h-73ZM60 135h72v1h-72ZM452 135h73v1h-73ZM59 136h72v1h-72ZM453 136h72v1h-72ZM58 137h72v1h-72ZM454 137h72v1h-72ZM58 138h71v1h-71ZM455 138h72v1h-72ZM57 139h72v1h-72ZM456 139h71v1h-71ZM56 140h72v1h-72ZM457 140h71v1h-71ZM56 141h71v1h-71ZM458 141h70v1h-70ZM55 142h71v1h-71ZM459 142h70v1h-70ZM55 143h70v1h-70ZM460 143h70v1h-70ZM54 144h70v1h-70ZM461 144h69v1h-69ZM53 145h70v1h-70ZM461 145h70v1h-70ZM53 146h69v1h-69ZM462 146h70v1h-70ZM52 147h69v1h-69ZM463 147h69v1h-69ZM51 148h70v1h-70ZM464 148h69v1h-69ZM51 149h69v1h-69ZM465 149h68v1h-68ZM50 150h69v1h-69ZM466 150h68v1h-68ZM50 151h68v1h-68ZM466 151h69v1h-69ZM49 152h486v1h-486ZM49 153h487v1h-487ZM48 154h488v1h-488ZM47 155h490v2h-490ZM46 157h492v1h-492ZM46 158h493v1h-493ZM45 159h494v1h-494ZM45 160h495v1h-495ZM44 161h496v1h-496ZM44 162h497v1h-497ZM43 163h498v1h-498ZM43 164h499v1h-499ZM42 165h500v1h-500ZM42 166h501v1h-501ZM41 167h502v1h-502ZM41 168h503v1h-503ZM40 169h504v1h-504ZM40 170h505v1h-505ZM39 171h506v1h-506ZM39 172h507v1h-507ZM38 173h508v1h-508ZM38 174h509v1h-509ZM37 175h510v1h-510ZM37 176h511v1h-511ZM36 177h512v2h-512ZM35 179h514v2h-514ZM35 181h515v1h-515ZM34 182h516v1h-516ZM34 183h517v1h-517ZM33 184h518v2h-518ZM32 186h520v2h-520ZM32 188h521v1h-521ZM31 189h522v2h-522ZM30 191h524v2h-524ZM30 193h525v1h-525ZM29 194h526v2h-526ZM29 196h527v1h-527ZM28 197h528v2h-528ZM27 199h530v2h-530ZM27 201h531v1h-531ZM26 202h532v2h-532ZM26 204h533v1h-533ZM25 205h534v2h-534ZM25 207h535v1h-535ZM500 208h60v2h-60ZM24 208h60v3h-60ZM501 210h59v1h-59ZM24 211h59v1h-59ZM501 211h60v2h-60ZM23 212h60v2h-60ZM502 213h59v1h-59ZM23 214h59v1h-59ZM22 215h60v1h-60ZM502 214h60v2h-60ZM503 216h59v1h-59ZM503 217h60v1h-60ZM22 216h59v3h-59ZM504 218h59v3h-59ZM21 219h59v3h-59ZM505 221h59v3h-59ZM20 222h59v3h-59ZM506 224h58v1h-58ZM20 225h58v1h-58ZM506 225h59v3h-59ZM19 226h59v3h-59ZM507 228h58v1h-58ZM19 229h58v2h-58ZM507 229h59v2h-59ZM18 231h59v1h-59ZM508 231h58v3h-58ZM18 232h58v3h-58ZM508 234h59v1h-59ZM17 235h59v1h-59ZM509 235h58v4h-58ZM17 236h58v4h-58ZM510 239h58v4h-58ZM511 243h57v1h-57ZM16 240h58v5h-58ZM16 245h57v1h-57ZM511 244h58v4h-58ZM15 246h58v3h-58ZM512 248h57v2h-57ZM15 249h57v3h-57ZM512 250h58v3h-58ZM14 252h58v3h-58ZM513 253h57v4h-57ZM513 257h58v2h-58ZM14 255h57v5h-57ZM13 260h58v2h-58ZM514 259h57v8h-57ZM13 262h57v8h-57ZM515 267h57v12h-57ZM516 279h56v4h-56ZM12 270h57v17h-57ZM12 287h56v117h-56ZM180 208h57v196h-57ZM348 208h57v196h-57ZM516 283h57v121h-57ZM12 404h561v31h-561ZM12 435h560v4h-560ZM13 439h559v1h-559ZM13 440h558v2h-558ZM14 442h557v1h-557ZM14 443h556v1h-556ZM15 444h555v1h-555ZM15 445h554v1h-554ZM16 446h553v1h-553ZM16 447h552v1h-552ZM17 448h550v1h-550ZM18 449h549v1h-549ZM19 450h547v1h-547ZM19 451h546v1h-546ZM20 452h544v1h-544ZM22 453h541v1h-541ZM23 454h539v1h-539ZM24 455h536v1h-536ZM26 456h533v1h-533ZM28 457h529v1h-529ZM30 458h524v1h-524ZM33 459h518v1h-518Z"/></svg>
