<svg xmlns="http://www.w3.org/2000/svg" width="507" height="520" viewBox="0 0 507 520"><path fill="#4e1601" d="M437 12h35v1h-35ZM419 13h57v1h-57ZM409 14h69v1h-69ZM402 15h78v1h-78ZM396 16h86v1h-86ZM392 17h91v1h-91ZM387 18h97v1h-97ZM384 19h102v1h-102ZM380 20h107v1h-107ZM377 21h112v1h-112ZM374 22h116v1h-116ZM371 23h121v1h-121ZM369 24h124v1h-124ZM366 25h128v1h-128ZM364 26h131v1h-131ZM362 27h133v1h-133ZM360 28h135v1h-135ZM358 29h137v1h-137ZM356 30h139v1h-139ZM354 31h141v1h-141ZM352 32h143v1h-143ZM350 33h145v1h-145ZM348 34h147v1h-147ZM347 35h148v1h-148ZM345 36h150v1h-150ZM344 37h151v1h-151ZM342 38h153v1h-153ZM341 39h154v1h-154ZM339 40h156v1h-156ZM338 41h157v1h-157ZM336 42h159v1h-159ZM335 43h160v1h-160ZM334 44h161v1h-161ZM333 45h162v1h-162ZM331 46h100v1h-100ZM330 47h87v1h-87ZM329 48h80v1h-80ZM328 49h75v1h-75ZM327 50h72v1h-72ZM326 51h69v1h-69ZM325 52h66v1h-66ZM324 53h64v1h-64ZM323 54h62v1h-62ZM322 55h60v1h-60ZM321 56h58v1h-58ZM320 57h57v1h-57ZM319 58h56v1h-56ZM318 59h55v1h-55ZM317 60h54v1h-54ZM316 61h53v1h-53ZM315 62h52v1h-52ZM314 63h51v1h-51ZM312 64h52v1h-52ZM311 65h51v1h-51ZM309 66h52v1h-52ZM308 67h51v1h-51ZM307 68h51v1h-51ZM306 69h51v1h-51ZM305 70h50v1h-50ZM304 71h50v1h-50ZM303 72h50v1h-50ZM302 73h50v1h-50ZM301 74h50v1h-50ZM300 75h49v1h-49ZM299 76h49v1h-49ZM298 77h50v1h-50ZM297 78h52v1h-52ZM296 79h54v1h-54ZM295 80h56v1h-56ZM461 46h34v35h-34ZM294 81h58v1h-58ZM293 82h60v1h-60ZM292 83h62v1h-62ZM291 84h64v1h-64ZM290 85h66v1h-66ZM289 86h68v1h-68ZM460 81h34v6h-34ZM288 87h70v1h-70ZM459 87h35v1h-35ZM288 88h71v1h-71ZM287 89h73v1h-73ZM286 90h75v1h-75ZM285 91h77v1h-77ZM284 92h79v1h-79ZM459 88h34v5h-34ZM283 93h81v1h-81ZM458 93h35v1h-35ZM282 94h83v1h-83ZM281 95h85v1h-85ZM280 96h87v1h-87ZM279 97h89v1h-89ZM278 98h90v1h-90ZM458 94h34v5h-34ZM277 99h92v1h-92ZM457 99h35v1h-35ZM276 100h94v1h-94ZM275 101h96v1h-96ZM274 102h98v1h-98ZM273 103h100v1h-100ZM272 104h102v1h-102ZM457 100h34v5h-34ZM271 105h47v1h-47ZM319 105h56v1h-56ZM456 105h35v1h-35ZM270 106h47v1h-47ZM320 106h56v1h-56ZM269 107h47v1h-47ZM321 107h56v1h-56ZM268 108h47v1h-47ZM322 108h56v1h-56ZM267 109h47v1h-47ZM323 109h56v1h-56ZM266 110h47v1h-47ZM323 110h57v1h-57ZM456 106h34v5h-34ZM265 111h47v1h-47ZM324 111h57v1h-57ZM455 111h35v1h-35ZM265 112h46v1h-46ZM325 112h57v1h-57ZM264 113h46v1h-46ZM326 113h57v1h-57ZM263 114h46v1h-46ZM327 114h57v1h-57ZM455 112h34v3h-34ZM262 115h46v1h-46ZM328 115h57v1h-57ZM261 116h46v1h-46ZM329 116h57v1h-57ZM260 117h46v1h-46ZM330 117h57v1h-57ZM454 115h35v3h-35ZM259 118h46v1h-46ZM331 118h57v1h-57ZM454 118h34v1h-34ZM258 119h46v1h-46ZM332 119h57v1h-57ZM257 120h47v1h-47ZM333 120h57v1h-57ZM256 121h47v1h-47ZM334 121h57v1h-57ZM453 119h35v3h-35ZM255 122h47v1h-47ZM335 122h57v1h-57ZM453 122h34v1h-34ZM254 123h47v1h-47ZM336 123h57v1h-57ZM253 124h47v1h-47ZM337 124h57v1h-57ZM252 125h47v1h-47ZM338 125h56v1h-56ZM452 123h35v3h-35ZM251 126h47v1h-47ZM339 126h56v1h-56ZM250 127h47v1h-47ZM340 127h56v1h-56ZM249 128h47v1h-47ZM341 128h56v1h-56ZM451 126h35v3h-35ZM248 129h47v1h-47ZM342 129h56v1h-56ZM450 129h36v1h-36ZM247 130h47v1h-47ZM343 130h56v1h-56ZM450 130h35v1h-35ZM246 131h47v1h-47ZM344 131h56v1h-56ZM245 132h47v1h-47ZM345 132h56v1h-56ZM449 131h36v2h-36ZM244 133h47v1h-47ZM346 133h56v1h-56ZM449 133h35v1h-35ZM243 134h47v1h-47ZM347 134h56v1h-56ZM243 135h46v1h-46ZM348 135h56v1h-56ZM448 134h36v2h-36ZM242 136h46v1h-46ZM349 136h56v1h-56ZM241 137h46v1h-46ZM350 137h56v1h-56ZM447 136h36v2h-36ZM240 138h46v1h-46ZM351 138h56v1h-56ZM446 138h37v1h-37ZM239 139h46v1h-46ZM351 139h57v1h-57ZM446 139h36v1h-36ZM238 140h46v1h-46ZM352 140h57v1h-57ZM237 141h46v1h-46ZM353 141h57v1h-57ZM445 140h37v2h-37ZM236 142h46v1h-46ZM354 142h57v1h-57ZM235 143h47v1h-47ZM355 143h57v1h-57ZM444 142h37v2h-37ZM234 144h47v1h-47ZM356 144h57v1h-57ZM443 144h38v1h-38ZM233 145h47v1h-47ZM357 145h57v1h-57ZM443 145h37v1h-37ZM232 146h47v1h-47ZM358 146h57v1h-57ZM442 146h38v1h-38ZM231 147h47v1h-47ZM359 147h57v1h-57ZM442 147h37v1h-37ZM230 148h47v1h-47ZM360 148h57v1h-57ZM441 148h38v1h-38ZM229 149h47v1h-47ZM361 149h57v1h-57ZM228 150h47v1h-47ZM362 150h57v1h-57ZM440 149h38v2h-38ZM227 151h47v1h-47ZM363 151h57v1h-57ZM439 151h39v1h-39ZM226 152h47v1h-47ZM364 152h56v1h-56ZM439 152h38v1h-38ZM225 153h47v1h-47ZM365 153h56v1h-56ZM438 153h39v1h-39ZM224 154h47v1h-47ZM366 154h56v1h-56ZM223 155h47v1h-47ZM367 155h56v1h-56ZM437 154h39v2h-39ZM222 156h47v1h-47ZM368 156h56v1h-56ZM436 156h39v1h-39ZM221 157h47v1h-47ZM369 157h56v1h-56ZM435 157h40v1h-40ZM220 158h47v1h-47ZM370 158h56v1h-56ZM219 159h47v1h-47ZM371 159h56v1h-56ZM434 158h40v2h-40ZM218 160h47v1h-47ZM372 160h56v1h-56ZM433 160h40v1h-40ZM218 161h46v1h-46ZM373 161h56v1h-56ZM432 161h40v1h-40ZM217 162h46v1h-46ZM374 162h56v1h-56ZM431 162h41v1h-41ZM216 163h46v1h-46ZM375 163h96v1h-96ZM215 164h46v1h-46ZM376 164h95v1h-95ZM214 165h46v1h-46ZM213 166h46v1h-46ZM377 165h93v2h-93ZM212 167h47v1h-47ZM378 167h91v1h-91ZM211 168h47v1h-47ZM379 168h89v1h-89ZM210 169h47v1h-47ZM380 169h88v1h-88ZM209 170h47v1h-47ZM381 170h86v1h-86ZM208 171h47v1h-47ZM382 171h84v1h-84ZM207 172h47v1h-47ZM383 172h83v1h-83ZM206 173h47v1h-47ZM384 173h81v1h-81ZM205 174h47v1h-47ZM385 174h79v1h-79ZM204 175h47v1h-47ZM386 175h78v1h-78ZM203 176h47v1h-47ZM387 176h76v1h-76ZM202 177h47v1h-47ZM388 177h74v1h-74ZM201 178h47v1h-47ZM389 178h72v1h-72ZM200 179h47v1h-47ZM390 179h71v1h-71ZM199 180h47v1h-47ZM391 180h69v1h-69ZM198 181h47v1h-47ZM392 181h67v1h-67ZM197 182h47v1h-47ZM393 182h65v1h-65ZM196 183h47v1h-47ZM394 183h64v1h-64ZM195 184h47v1h-47ZM395 184h62v1h-62ZM194 185h47v1h-47ZM396 185h60v1h-60ZM193 186h47v1h-47ZM397 186h58v1h-58ZM192 187h47v1h-47ZM398 187h56v1h-56ZM191 188h47v1h-47ZM399 188h54v1h-54ZM190 189h47v1h-47ZM400 189h52v1h-52ZM189 190h47v1h-47ZM400 190h51v1h-51ZM188 191h47v1h-47ZM401 191h49v1h-49ZM187 192h47v1h-47ZM400 192h49v1h-49ZM187 193h46v1h-46ZM399 193h49v1h-49ZM186 194h46v1h-46ZM398 194h49v1h-49ZM185 195h46v1h-46ZM397 195h49v1h-49ZM184 196h46v1h-46ZM396 196h49v1h-49ZM183 197h47v1h-47ZM395 197h49v1h-49ZM183 198h46v1h-46ZM394 198h49v1h-49ZM182 199h46v1h-46ZM393 199h49v1h-49ZM181 200h46v1h-46ZM392 200h49v1h-49ZM181 201h45v1h-45ZM391 201h49v1h-49ZM180 202h45v1h-45ZM390 202h49v1h-49ZM179 203h45v1h-45ZM390 203h48v1h-48ZM179 204h44v1h-44ZM389 204h47v1h-47ZM178 205h44v1h-44ZM388 205h47v1h-47ZM178 206h43v1h-43ZM387 206h47v1h-47ZM177 207h43v1h-43ZM386 207h47v1h-47ZM177 208h42v1h-42ZM385 208h47v1h-47ZM176 209h42v1h-42ZM384 209h47v1h-47ZM176 210h41v1h-41ZM383 210h47v1h-47ZM175 211h41v1h-41ZM382 211h47v1h-47ZM175 212h40v1h-40ZM381 212h47v1h-47ZM175 213h39v1h-39ZM380 213h47v1h-47ZM174 214h39v1h-39ZM379 214h47v1h-47ZM174 215h38v1h-38ZM378 215h47v1h-47ZM174 216h37v1h-37ZM377 216h47v1h-47ZM174 217h36v1h-36ZM376 217h47v1h-47ZM173 218h37v1h-37ZM375 218h47v1h-47ZM146 219h24v1h-24ZM173 219h36v1h-36ZM374 219h47v1h-47ZM141 220h67v1h-67ZM373 220h47v1h-47ZM137 221h71v1h-71ZM372 221h47v1h-47ZM134 222h73v1h-73ZM371 222h47v1h-47ZM131 223h76v1h-76ZM370 223h47v1h-47ZM129 224h78v1h-78ZM369 224h47v1h-47ZM126 225h80v1h-80ZM368 225h47v1h-47ZM124 226h82v1h-82ZM367 226h47v1h-47ZM122 227h84v1h-84ZM366 227h47v1h-47ZM120 228h86v1h-86ZM365 228h47v1h-47ZM118 229h88v1h-88ZM364 229h47v1h-47ZM117 230h89v1h-89ZM363 230h47v1h-47ZM115 231h91v1h-91ZM363 231h46v1h-46ZM113 232h94v1h-94ZM362 232h46v1h-46ZM112 233h95v1h-95ZM361 233h46v1h-46ZM111 234h96v1h-96ZM360 234h47v1h-47ZM109 235h99v1h-99ZM359 235h47v1h-47ZM108 236h100v1h-100ZM358 236h47v1h-47ZM106 237h103v1h-103ZM357 237h47v1h-47ZM105 238h104v1h-104ZM356 238h47v1h-47ZM104 239h106v1h-106ZM355 239h47v1h-47ZM103 240h107v1h-107ZM354 240h47v1h-47ZM102 241h109v1h-109ZM353 241h47v1h-47ZM101 242h110v1h-110ZM352 242h47v1h-47ZM100 243h112v1h-112ZM351 243h47v1h-47ZM98 244h114v1h-114ZM350 244h47v1h-47ZM97 245h116v1h-116ZM349 245h47v1h-47ZM96 246h117v1h-117ZM348 246h47v1h-47ZM95 247h119v1h-119ZM347 247h47v1h-47ZM94 248h120v1h-120ZM346 248h47v1h-47ZM93 249h122v1h-122ZM345 249h47v1h-47ZM92 250h123v1h-123ZM344 250h47v1h-47ZM91 251h125v1h-125ZM343 251h47v1h-47ZM90 252h64v1h-64ZM163 252h53v1h-53ZM342 252h47v1h-47ZM89 253h59v1h-59ZM169 253h48v1h-48ZM341 253h47v1h-47ZM88 254h56v1h-56ZM172 254h45v1h-45ZM340 254h47v1h-47ZM87 255h55v1h-55ZM175 255h43v1h-43ZM339 255h47v1h-47ZM86 256h53v1h-53ZM177 256h41v1h-41ZM338 256h47v1h-47ZM85 257h52v1h-52ZM180 257h39v1h-39ZM337 257h47v1h-47ZM84 258h52v1h-52ZM183 258h36v1h-36ZM336 258h47v1h-47ZM83 259h51v1h-51ZM185 259h35v1h-35ZM335 259h47v1h-47ZM82 260h50v1h-50ZM188 260h32v1h-32ZM335 260h46v1h-46ZM81 261h50v1h-50ZM191 261h29v1h-29ZM334 261h46v1h-46ZM80 262h49v1h-49ZM194 262h27v1h-27ZM333 262h46v1h-46ZM79 263h49v1h-49ZM197 263h24v1h-24ZM332 263h46v1h-46ZM78 264h49v1h-49ZM200 264h22v1h-22ZM331 264h47v1h-47ZM77 265h48v1h-48ZM203 265h19v1h-19ZM330 265h47v1h-47ZM76 266h48v1h-48ZM206 266h17v1h-17ZM329 266h47v1h-47ZM75 267h48v1h-48ZM209 267h14v1h-14ZM328 267h47v1h-47ZM74 268h48v1h-48ZM212 268h12v1h-12ZM327 268h47v1h-47ZM73 269h48v1h-48ZM215 269h9v1h-9ZM326 269h47v1h-47ZM72 270h48v1h-48ZM218 270h7v1h-7ZM325 270h47v1h-47ZM71 271h48v1h-48ZM221 271h4v1h-4ZM324 271h47v1h-47ZM70 272h48v1h-48ZM224 272h2v1h-2ZM323 272h47v1h-47ZM69 273h48v1h-48ZM322 273h47v1h-47ZM68 274h48v1h-48ZM321 274h47v1h-47ZM67 275h48v1h-48ZM320 275h47v1h-47ZM66 276h48v1h-48ZM319 276h47v1h-47ZM65 277h48v1h-48ZM318 277h47v1h-47ZM64 278h48v1h-48ZM317 278h47v1h-47ZM63 279h48v1h-48ZM316 279h47v1h-47ZM62 280h48v1h-48ZM315 280h47v1h-47ZM61 281h48v1h-48ZM314 281h47v1h-47ZM60 282h48v1h-48ZM313 282h47v1h-47ZM59 283h48v1h-48ZM312 283h47v1h-47ZM58 284h48v1h-48ZM311 284h47v1h-47ZM57 285h48v1h-48ZM310 285h47v1h-47ZM56 286h48v1h-48ZM309 286h47v1h-47ZM55 287h47v1h-47ZM309 287h46v1h-46ZM54 288h47v1h-47ZM308 288h46v1h-46ZM53 289h47v1h-47ZM307 289h46v1h-46ZM52 290h47v1h-47ZM306 290h46v1h-46ZM51 291h47v1h-47ZM305 291h46v1h-46ZM50 292h47v1h-47ZM304 292h46v1h-46ZM49 293h47v1h-47ZM303 293h46v1h-46ZM48 294h47v1h-47ZM247 294h2v1h-2ZM302 294h47v1h-47ZM47 295h47v1h-47ZM247 295h4v1h-4ZM301 295h47v1h-47ZM46 296h47v1h-47ZM247 296h6v1h-6ZM300 296h47v1h-47ZM45 297h47v1h-47ZM248 297h7v1h-7ZM299 297h47v1h-47ZM44 298h47v1h-47ZM248 298h9v1h-9ZM298 298h47v1h-47ZM43 299h47v1h-47ZM248 299h12v1h-12ZM297 299h47v1h-47ZM42 300h47v1h-47ZM248 300h14v1h-14ZM296 300h47v1h-47ZM41 301h47v1h-47ZM248 301h16v1h-16ZM295 301h47v1h-47ZM40 302h47v1h-47ZM248 302h18v1h-18ZM294 302h47v1h-47ZM39 303h48v1h-48ZM249 303h19v1h-19ZM293 303h47v1h-47ZM38 304h48v1h-48ZM249 304h21v1h-21ZM292 304h47v1h-47ZM37 305h48v1h-48ZM249 305h23v1h-23ZM291 305h47v1h-47ZM36 306h48v1h-48ZM249 306h25v1h-25ZM289 306h48v1h-48ZM35 307h48v1h-48ZM249 307h28v1h-28ZM287 307h49v1h-49ZM34 308h48v1h-48ZM249 308h30v1h-30ZM285 308h50v1h-50ZM33 309h48v1h-48ZM249 309h85v1h-85ZM32 310h48v1h-48ZM250 310h83v1h-83ZM31 311h48v1h-48ZM250 311h82v1h-82ZM30 312h48v1h-48ZM250 312h81v1h-81ZM29 313h48v1h-48ZM250 313h80v1h-80ZM28 314h48v1h-48ZM250 314h79v1h-79ZM27 315h48v1h-48ZM250 315h78v1h-78ZM26 316h48v1h-48ZM251 316h76v1h-76ZM25 317h48v1h-48ZM251 317h75v1h-75ZM24 318h48v1h-48ZM23 319h48v1h-48ZM149 319h2v1h-2ZM251 318h74v2h-74ZM22 320h48v1h-48ZM148 320h4v1h-4ZM251 320h73v1h-73ZM21 321h48v1h-48ZM147 321h6v1h-6ZM251 321h72v1h-72ZM20 322h48v1h-48ZM146 322h8v1h-8ZM251 322h71v1h-71ZM19 323h48v1h-48ZM145 323h10v1h-10ZM252 323h69v1h-69ZM18 324h48v1h-48ZM144 324h12v1h-12ZM252 324h68v1h-68ZM18 325h47v1h-47ZM143 325h14v1h-14ZM252 325h67v1h-67ZM17 326h47v1h-47ZM143 326h15v1h-15ZM252 326h66v1h-66ZM16 327h48v1h-48ZM142 327h17v1h-17ZM252 327h65v1h-65ZM15 328h53v1h-53ZM141 328h19v1h-19ZM252 328h64v1h-64ZM14 329h59v1h-59ZM140 329h21v1h-21ZM253 329h61v1h-61ZM13 330h65v1h-65ZM139 330h24v1h-24ZM253 330h60v1h-60ZM13 331h70v1h-70ZM138 331h26v1h-26ZM253 331h59v1h-59ZM12 332h75v1h-75ZM137 332h28v1h-28ZM253 332h58v1h-58ZM12 333h80v1h-80ZM136 333h30v1h-30ZM253 333h56v1h-56ZM12 334h85v1h-85ZM135 334h32v1h-32ZM253 334h55v1h-55ZM12 335h90v1h-90ZM134 335h34v1h-34ZM254 335h52v1h-52ZM12 336h94v1h-94ZM132 336h37v1h-37ZM254 336h50v1h-50ZM12 337h99v1h-99ZM131 337h39v1h-39ZM254 337h49v1h-49ZM12 338h104v1h-104ZM130 338h41v1h-41ZM254 338h46v1h-46ZM12 339h109v1h-109ZM129 339h43v1h-43ZM254 339h44v1h-44ZM12 340h114v1h-114ZM128 340h45v1h-45ZM255 340h40v1h-40ZM12 341h162v1h-162ZM255 341h36v1h-36ZM12 342h164v1h-164ZM12 343h165v1h-165ZM12 344h166v1h-166ZM255 342h34v3h-34ZM12 345h167v1h-167ZM255 345h35v1h-35ZM12 346h168v1h-168ZM12 347h169v1h-169ZM12 348h170v1h-170ZM12 349h171v1h-171ZM12 350h172v1h-172ZM12 351h173v1h-173ZM256 346h34v6h-34ZM17 352h169v1h-169ZM22 353h165v1h-165ZM27 354h161v1h-161ZM257 352h33v3h-33ZM32 355h157v1h-157ZM37 356h153v1h-153ZM42 357h149v1h-149ZM47 358h145v1h-145ZM52 359h141v1h-141ZM57 360h137v1h-137ZM62 361h133v1h-133ZM66 362h130v1h-130ZM71 363h126v1h-126ZM257 355h34v9h-34ZM76 364h122v1h-122ZM81 365h116v1h-116ZM257 364h33v2h-33ZM85 366h111v1h-111ZM90 367h105v1h-105ZM95 368h99v1h-99ZM100 369h93v1h-93ZM105 370h87v1h-87ZM256 366h34v5h-34ZM110 371h81v1h-81ZM115 372h75v1h-75ZM255 371h35v2h-35ZM120 373h21v1h-21ZM142 373h47v1h-47ZM125 374h13v1h-13ZM142 374h46v1h-46ZM255 373h34v2h-34ZM131 375h1v1h-1ZM142 375h45v1h-45ZM141 376h45v1h-45ZM141 377h44v1h-44ZM254 375h35v3h-35ZM141 378h43v1h-43ZM140 379h43v1h-43ZM253 378h35v2h-35ZM140 380h42v1h-42ZM140 381h41v1h-41ZM252 380h36v2h-36ZM140 382h40v1h-40ZM140 383h38v1h-38ZM251 382h36v2h-36ZM140 384h37v1h-37ZM250 384h37v1h-37ZM140 385h36v1h-36ZM250 385h36v1h-36ZM140 386h35v1h-35ZM249 386h37v2h-37ZM248 388h37v2h-37ZM247 390h38v1h-38ZM140 387h34v5h-34ZM246 391h38v2h-38ZM140 392h35v2h-35ZM245 393h39v1h-39ZM141 394h34v2h-34ZM244 394h39v2h-39ZM243 396h39v1h-39ZM242 397h40v1h-40ZM141 396h35v3h-35ZM241 398h40v1h-40ZM240 399h41v1h-41ZM142 399h34v2h-34ZM240 400h40v1h-40ZM239 401h41v1h-41ZM142 401h35v2h-35ZM238 402h41v1h-41ZM237 403h42v1h-42ZM236 404h42v1h-42ZM235 405h42v1h-42ZM143 403h34v4h-34ZM234 406h43v1h-43ZM143 407h35v1h-35ZM233 407h43v2h-43ZM232 409h43v1h-43ZM231 410h43v1h-43ZM144 408h34v4h-34ZM230 411h44v1h-44ZM144 412h35v1h-35ZM229 412h44v1h-44ZM228 413h44v1h-44ZM227 414h44v1h-44ZM226 415h45v1h-45ZM145 413h34v4h-34ZM225 416h45v1h-45ZM224 417h45v1h-45ZM145 417h35v2h-35ZM223 418h45v1h-45ZM222 419h46v1h-46ZM222 420h45v1h-45ZM221 421h45v1h-45ZM146 419h34v4h-34ZM220 422h45v1h-45ZM146 423h35v1h-35ZM219 423h45v1h-45ZM218 424h45v1h-45ZM217 425h46v1h-46ZM216 426h46v1h-46ZM147 424h34v4h-34ZM215 427h46v1h-46ZM147 428h35v1h-35ZM214 428h46v1h-46ZM213 429h46v1h-46ZM212 430h46v1h-46ZM211 431h46v1h-46ZM148 429h34v4h-34ZM210 432h46v1h-46ZM209 433h46v1h-46ZM148 433h35v2h-35ZM208 434h46v1h-46ZM207 435h47v1h-47ZM206 436h47v1h-47ZM205 437h47v1h-47ZM149 435h34v4h-34ZM205 438h46v1h-46ZM149 439h35v1h-35ZM204 439h46v1h-46ZM203 440h46v1h-46ZM202 441h46v1h-46ZM201 442h46v1h-46ZM150 440h34v4h-34ZM200 443h46v1h-46ZM199 444h46v1h-46ZM150 444h35v2h-35ZM198 445h46v1h-46ZM197 446h46v1h-46ZM196 447h46v1h-46ZM151 446h34v3h-34ZM195 448h47v1h-47ZM194 449h47v1h-47ZM151 449h35v2h-35ZM193 450h47v1h-47ZM192 451h47v1h-47ZM191 452h47v1h-47ZM190 453h47v1h-47ZM152 451h34v4h-34ZM189 454h47v1h-47ZM152 455h35v1h-35ZM188 455h47v1h-47ZM153 456h81v1h-81ZM153 457h80v1h-80ZM153 458h79v1h-79ZM153 459h78v1h-78ZM153 460h77v1h-77ZM154 461h75v1h-75ZM154 462h74v1h-74ZM154 463h73v1h-73ZM154 464h72v1h-72ZM154 465h71v1h-71ZM154 466h70v1h-70ZM155 467h68v1h-68ZM155 468h67v1h-67ZM155 469h66v1h-66ZM155 470h65v2h-65ZM156 472h63v1h-63ZM156 473h62v1h-62ZM156 474h61v1h-61ZM156 475h60v1h-60ZM156 476h59v1h-59ZM157 477h57v1h-57ZM157 478h56v1h-56ZM157 479h55v1h-55ZM157 480h54v1h-54ZM157 481h53v1h-53ZM158 482h51v1h-51ZM158 483h50v1h-50ZM158 484h49v1h-49ZM158 485h48v1h-48ZM158 486h47v1h-47ZM159 487h45v1h-45ZM159 488h44v1h-44ZM159 489h43v1h-43ZM159 490h42v1h-42ZM160 491h40v1h-40ZM160 492h39v1h-39ZM160 493h38v1h-38ZM160 494h37v1h-37ZM160 495h36v1h-36ZM161 496h34v1h-34ZM161 497h33v1h-33ZM161 498h32v2h-32ZM161 500h31v1h-31ZM162 501h28v1h-28ZM162 502h27v1h-27ZM162 503h26v1h-26ZM162 504h24v1h-24ZM163 505h21v1h-21ZM163 506h18v1h-18ZM163 507h16v1h-16Z"/></svg>
