<svg xmlns="http://www.w3.org/2000/svg" width="477" height="546" viewBox="0 0 477 546"><path fill="#4e1601" d="M222 12h33v1h-33ZM212 13h54v1h-54ZM204 14h69v1h-69ZM198 15h81v1h-81ZM193 16h91v1h-91ZM188 17h101v1h-101ZM184 18h109v1h-109ZM180 19h117v1h-117ZM177 20h124v1h-124ZM173 21h131v1h-131ZM170 22h137v1h-137ZM167 23h143v1h-143ZM164 24h149v1h-149ZM161 25h155v1h-155ZM159 26h160v1h-160ZM156 27h166v1h-166ZM153 28h171v1h-171ZM151 29h175v1h-175ZM149 30h180v1h-180ZM146 31h185v1h-185ZM144 32h189v1h-189ZM142 33h193v1h-193ZM140 34h198v1h-198ZM138 35h202v1h-202ZM136 36h206v1h-206ZM134 37h209v1h-209ZM132 38h213v1h-213ZM130 39h217v1h-217ZM128 40h221v1h-221ZM127 41h224v1h-224ZM125 42h227v1h-227ZM123 43h231v1h-231ZM122 44h234v1h-234ZM120 45h237v1h-237ZM118 46h241v1h-241ZM117 47h244v1h-244ZM115 48h247v1h-247ZM114 49h250v1h-250ZM112 50h253v1h-253ZM111 51h256v1h-256ZM109 52h259v1h-259ZM108 53h262v1h-262ZM106 54h265v1h-265ZM105 55h267v1h-267ZM104 56h270v1h-270ZM102 57h273v1h-273ZM101 58h275v1h-275ZM100 59h278v1h-278ZM98 60h281v1h-281ZM97 61h283v1h-283ZM96 62h285v1h-285ZM95 63h288v1h-288ZM94 64h290v1h-290ZM92 65h293v1h-293ZM91 66h140v1h-140ZM247 66h139v1h-139ZM90 67h128v1h-128ZM259 67h128v1h-128ZM89 68h122v1h-122ZM266 68h123v1h-123ZM88 69h118v1h-118ZM272 69h118v1h-118ZM87 70h114v1h-114ZM277 70h114v1h-114ZM86 71h111v1h-111ZM281 71h111v1h-111ZM84 72h109v1h-109ZM285 72h108v1h-108ZM83 73h106v1h-106ZM288 73h106v1h-106ZM82 74h104v1h-104ZM291 74h104v1h-104ZM81 75h102v1h-102ZM294 75h102v1h-102ZM80 76h100v1h-100ZM297 76h100v1h-100ZM79 77h99v1h-99ZM300 77h98v1h-98ZM78 78h97v1h-97ZM302 78h97v1h-97ZM77 79h96v1h-96ZM305 79h95v1h-95ZM76 80h94v1h-94ZM307 80h94v1h-94ZM75 81h93v1h-93ZM309 81h93v1h-93ZM74 82h92v1h-92ZM312 82h91v1h-91ZM73 83h91v1h-91ZM314 83h90v1h-90ZM73 84h89v1h-89ZM316 84h89v1h-89ZM72 85h88v1h-88ZM318 85h88v1h-88ZM71 86h87v1h-87ZM320 86h87v1h-87ZM70 87h86v1h-86ZM321 87h87v1h-87ZM69 88h85v1h-85ZM323 88h86v1h-86ZM68 89h84v1h-84ZM325 89h84v1h-84ZM67 90h84v1h-84ZM327 90h83v1h-83ZM66 91h83v1h-83ZM328 91h83v1h-83ZM65 92h82v1h-82ZM330 92h82v1h-82ZM65 93h81v1h-81ZM332 93h81v1h-81ZM64 94h80v1h-80ZM333 94h81v1h-81ZM63 95h80v1h-80ZM335 95h79v1h-79ZM62 96h79v1h-79ZM336 96h79v1h-79ZM61 97h79v1h-79ZM337 97h79v1h-79ZM61 98h77v1h-77ZM339 98h78v1h-78ZM60 99h77v1h-77ZM340 99h78v1h-78ZM59 100h77v1h-77ZM342 100h76v1h-76ZM58 101h76v1h-76ZM343 101h76v1h-76ZM57 102h76v1h-76ZM344 102h76v1h-76ZM57 103h75v1h-75ZM346 103h75v1h-75ZM56 104h75v1h-75ZM347 104h74v1h-74ZM55 105h74v1h-74ZM348 105h74v1h-74ZM55 106h73v1h-73ZM349 106h74v1h-74ZM54 107h73v1h-73ZM350 107h74v1h-74ZM53 108h73v1h-73ZM352 108h72v1h-72ZM52 109h73v1h-73ZM353 109h72v1h-72ZM52 110h72v1h-72ZM354 110h72v1h-72ZM51 111h71v1h-71ZM355 111h71v1h-71ZM50 112h71v1h-71ZM356 112h71v1h-71ZM50 113h70v1h-70ZM357 113h71v1h-71ZM49 114h70v1h-70ZM358 114h70v1h-70ZM48 115h70v1h-70ZM359 115h70v1h-70ZM48 116h69v1h-69ZM360 116h70v1h-70ZM47 117h69v1h-69ZM361 117h69v1h-69ZM47 118h68v1h-68ZM362 118h69v1h-69ZM46 119h68v1h-68ZM363 119h69v1h-69ZM45 120h68v1h-68ZM364 120h68v1h-68ZM45 121h67v1h-67ZM365 121h68v1h-68ZM44 122h68v1h-68ZM366 122h67v1h-67ZM43 123h68v1h-68ZM367 123h67v1h-67ZM43 124h67v1h-67ZM368 124h67v1h-67ZM42 125h67v1h-67ZM369 125h66v1h-66ZM42 126h66v1h-66ZM369 126h67v1h-67ZM41 127h66v1h-66ZM370 127h66v1h-66ZM41 128h65v1h-65ZM371 128h66v1h-66ZM372 129h65v1h-65ZM40 129h65v2h-65ZM373 130h65v1h-65ZM39 131h65v1h-65ZM374 131h64v1h-64ZM38 132h65v1h-65ZM374 132h65v1h-65ZM38 133h64v1h-64ZM375 133h64v1h-64ZM37 134h65v1h-65ZM376 134h64v1h-64ZM37 135h64v1h-64ZM36 136h64v1h-64ZM377 135h64v2h-64ZM36 137h63v1h-63ZM378 137h64v1h-64ZM35 138h64v1h-64ZM379 138h63v1h-63ZM35 139h63v1h-63ZM379 139h64v1h-64ZM34 140h63v1h-63ZM380 140h63v1h-63ZM34 141h62v1h-62ZM381 141h62v1h-62ZM33 142h63v1h-63ZM382 142h62v2h-62ZM33 143h62v2h-62ZM383 144h62v1h-62ZM32 145h62v1h-62ZM384 145h61v1h-61ZM32 146h61v1h-61ZM384 146h62v1h-62ZM31 147h62v1h-62ZM385 147h61v1h-61ZM31 148h61v1h-61ZM385 148h62v1h-62ZM386 149h61v1h-61ZM30 149h61v2h-61ZM387 150h61v2h-61ZM29 151h61v2h-61ZM388 152h60v1h-60ZM29 153h60v1h-60ZM388 153h61v1h-61ZM389 154h60v1h-60ZM28 154h60v2h-60ZM389 155h61v1h-61ZM390 156h60v1h-60ZM27 156h60v2h-60ZM391 157h59v1h-59ZM27 158h59v1h-59ZM391 158h60v1h-60ZM26 159h60v1h-60ZM392 159h59v2h-59ZM26 160h59v2h-59ZM393 161h59v2h-59ZM25 162h59v2h-59ZM25 164h58v1h-58ZM394 163h59v2h-59ZM24 165h59v1h-59ZM395 165h58v1h-58ZM395 166h59v1h-59ZM24 166h58v2h-58ZM396 167h58v2h-58ZM227 169h22v1h-22ZM396 169h59v1h-59ZM23 168h58v3h-58ZM222 170h32v1h-32ZM219 171h39v1h-39ZM397 170h58v2h-58ZM22 171h58v2h-58ZM216 172h45v1h-45ZM398 172h57v1h-57ZM22 173h57v1h-57ZM213 173h51v1h-51ZM210 174h56v1h-56ZM398 173h58v2h-58ZM21 174h58v2h-58ZM208 175h60v1h-60ZM399 175h57v1h-57ZM206 176h64v1h-64ZM399 176h58v1h-58ZM21 176h57v2h-57ZM204 177h68v1h-68ZM203 178h71v1h-71ZM201 179h75v1h-75ZM400 177h57v3h-57ZM20 178h57v3h-57ZM200 180h77v1h-77ZM198 181h81v1h-81ZM197 182h83v1h-83ZM401 180h57v3h-57ZM19 181h57v3h-57ZM195 183h86v1h-86ZM402 183h56v1h-56ZM19 184h56v1h-56ZM194 184h88v1h-88ZM193 185h91v1h-91ZM402 184h57v2h-57ZM18 185h57v2h-57ZM192 186h93v1h-93ZM191 187h95v1h-95ZM403 186h56v2h-56ZM190 188h97v1h-97ZM403 188h57v1h-57ZM18 187h56v3h-56ZM189 189h99v1h-99ZM188 190h101v1h-101ZM187 191h103v1h-103ZM404 189h56v3h-56ZM186 192h105v1h-105ZM17 190h56v4h-56ZM185 193h107v1h-107ZM184 194h108v1h-108ZM184 195h109v1h-109ZM405 192h56v4h-56ZM183 196h111v1h-111ZM16 194h56v4h-56ZM182 197h113v1h-113ZM406 196h55v2h-55ZM181 198h114v1h-114ZM16 198h55v2h-55ZM181 199h115v1h-115ZM406 198h56v2h-56ZM180 200h117v1h-117ZM15 200h56v2h-56ZM179 201h118v1h-118ZM179 202h119v1h-119ZM407 200h55v3h-55ZM178 203h120v1h-120ZM178 204h121v1h-121ZM407 203h56v2h-56ZM15 202h55v4h-55ZM177 205h55v1h-55ZM244 205h56v1h-56ZM14 206h56v1h-56ZM177 206h51v1h-51ZM248 206h52v1h-52ZM176 207h50v1h-50ZM251 207h50v1h-50ZM176 208h48v1h-48ZM253 208h48v1h-48ZM175 209h47v1h-47ZM255 209h47v1h-47ZM175 210h45v1h-45ZM257 210h45v1h-45ZM408 205h55v6h-55ZM174 211h45v1h-45ZM258 211h44v1h-44ZM14 207h55v6h-55ZM174 212h43v1h-43ZM259 212h44v1h-44ZM14 213h54v1h-54ZM173 213h43v1h-43ZM260 213h43v1h-43ZM173 214h42v1h-42ZM261 214h43v1h-43ZM173 215h41v1h-41ZM262 215h42v1h-42ZM172 216h41v1h-41ZM263 216h41v1h-41ZM264 217h41v1h-41ZM409 211h55v7h-55ZM172 217h40v2h-40ZM265 218h40v1h-40ZM172 219h39v1h-39ZM13 214h55v7h-55ZM266 219h39v2h-39ZM410 218h54v3h-54ZM171 220h39v2h-39ZM267 221h39v2h-39ZM171 222h38v2h-38ZM268 223h38v2h-38ZM170 224h38v2h-38ZM13 221h54v6h-54ZM269 225h38v2h-38ZM170 226h37v3h-37ZM410 221h55v8h-55ZM170 229h36v1h-36ZM270 227h37v4h-37ZM169 230h37v4h-37ZM271 231h36v3h-36ZM169 234h36v8h-36ZM271 234h37v8h-37ZM271 242h36v3h-36ZM169 242h37v4h-37ZM170 246h36v1h-36ZM411 229h54v18h-54ZM12 227h55v22h-55ZM270 245h37v4h-37ZM170 247h37v3h-37ZM269 249h38v1h-38ZM269 250h37v1h-37ZM170 250h38v2h-38ZM268 251h38v2h-38ZM171 252h38v2h-38ZM267 253h39v2h-39ZM13 249h54v7h-54ZM171 254h39v2h-39ZM410 247h55v9h-55ZM172 256h39v1h-39ZM266 255h39v2h-39ZM265 257h40v1h-40ZM172 257h40v2h-40ZM264 258h41v1h-41ZM410 256h54v3h-54ZM172 259h41v1h-41ZM263 259h41v1h-41ZM173 260h41v1h-41ZM262 260h42v1h-42ZM13 256h55v6h-55ZM173 261h42v1h-42ZM261 261h43v1h-43ZM174 262h42v1h-42ZM260 262h43v1h-43ZM14 262h54v2h-54ZM174 263h43v1h-43ZM259 263h44v1h-44ZM174 264h45v1h-45ZM258 264h44v1h-44ZM175 265h45v1h-45ZM256 265h46v1h-46ZM409 259h55v7h-55ZM175 266h47v1h-47ZM255 266h46v1h-46ZM176 267h48v1h-48ZM253 267h48v1h-48ZM176 268h50v1h-50ZM251 268h50v1h-50ZM14 264h55v6h-55ZM177 269h52v1h-52ZM248 269h52v1h-52ZM177 270h56v1h-56ZM244 270h56v1h-56ZM178 271h121v1h-121ZM408 266h55v6h-55ZM178 272h120v1h-120ZM407 272h56v1h-56ZM179 273h119v1h-119ZM15 270h55v5h-55ZM179 274h118v1h-118ZM180 275h117v1h-117ZM407 273h55v3h-55ZM15 275h56v2h-56ZM181 276h115v1h-115ZM181 277h114v1h-114ZM16 277h55v2h-55ZM182 278h113v1h-113ZM406 276h56v3h-56ZM183 279h111v1h-111ZM184 280h109v1h-109ZM406 279h55v2h-55ZM16 279h56v3h-56ZM184 281h108v1h-108ZM17 282h55v1h-55ZM185 282h106v1h-106ZM186 283h105v1h-105ZM405 281h56v3h-56ZM187 284h103v1h-103ZM188 285h101v1h-101ZM17 283h56v4h-56ZM189 286h99v1h-99ZM190 287h97v1h-97ZM404 284h56v4h-56ZM191 288h95v1h-95ZM403 288h57v1h-57ZM18 287h56v3h-56ZM192 289h93v1h-93ZM18 290h57v1h-57ZM193 290h91v1h-91ZM403 289h56v2h-56ZM194 291h88v1h-88ZM19 291h56v2h-56ZM196 292h85v1h-85ZM402 291h57v2h-57ZM197 293h83v1h-83ZM402 293h56v1h-56ZM19 293h57v2h-57ZM198 294h80v1h-80ZM20 295h56v1h-56ZM200 295h77v1h-77ZM201 296h74v1h-74ZM401 294h57v3h-57ZM203 297h71v1h-71ZM20 296h57v3h-57ZM205 298h67v1h-67ZM206 299h64v1h-64ZM400 297h57v3h-57ZM21 299h57v2h-57ZM208 300h60v1h-60ZM399 300h58v1h-58ZM211 301h55v1h-55ZM399 301h57v1h-57ZM21 301h58v2h-58ZM213 302h51v1h-51ZM22 303h57v1h-57ZM216 303h45v1h-45ZM398 302h58v2h-58ZM219 304h39v1h-39ZM398 304h57v1h-57ZM22 304h58v2h-58ZM223 305h31v1h-31ZM228 306h21v1h-21ZM397 305h58v2h-58ZM23 306h58v2h-58ZM23 308h59v1h-59ZM396 307h58v2h-58ZM395 309h59v1h-59ZM24 309h58v2h-58ZM395 310h58v1h-58ZM24 311h59v1h-59ZM25 312h58v1h-58ZM394 311h59v2h-59ZM25 313h59v2h-59ZM393 313h59v2h-59ZM392 315h60v1h-60ZM26 315h59v2h-59ZM392 316h59v1h-59ZM26 317h60v1h-60ZM27 318h59v1h-59ZM391 317h60v2h-60ZM27 319h60v1h-60ZM28 320h59v1h-59ZM390 319h60v2h-60ZM28 321h60v1h-60ZM28 322h61v1h-61ZM389 321h60v2h-60ZM29 323h60v1h-60ZM388 323h61v1h-61ZM29 324h61v1h-61ZM388 324h60v1h-60ZM30 325h60v1h-60ZM387 325h61v1h-61ZM30 326h61v1h-61ZM30 327h62v1h-62ZM386 326h61v2h-61ZM31 328h61v1h-61ZM385 328h62v1h-62ZM31 329h62v1h-62ZM385 329h61v1h-61ZM32 330h61v1h-61ZM384 330h62v1h-62ZM32 331h62v1h-62ZM383 331h62v2h-62ZM33 332h62v2h-62ZM382 333h62v1h-62ZM34 334h62v1h-62ZM381 334h63v1h-63ZM34 335h63v1h-63ZM381 335h62v1h-62ZM35 336h62v1h-62ZM380 336h63v1h-63ZM35 337h63v1h-63ZM36 338h63v1h-63ZM379 337h63v2h-63ZM36 339h64v1h-64ZM378 339h63v1h-63ZM37 340h63v1h-63ZM377 340h64v1h-64ZM37 341h64v1h-64ZM38 342h64v1h-64ZM376 341h64v2h-64ZM38 343h65v1h-65ZM375 343h64v1h-64ZM39 344h64v1h-64ZM374 344h65v1h-65ZM39 345h65v1h-65ZM373 345h65v1h-65ZM40 346h65v1h-65ZM372 346h66v1h-66ZM40 347h66v1h-66ZM372 347h65v1h-65ZM371 348h66v1h-66ZM41 348h66v2h-66ZM370 349h66v1h-66ZM42 350h66v1h-66ZM369 350h67v1h-67ZM42 351h67v1h-67ZM368 351h67v1h-67ZM43 352h67v1h-67ZM44 353h67v1h-67ZM367 352h67v2h-67ZM44 354h68v1h-68ZM366 354h67v1h-67ZM45 355h68v1h-68ZM365 355h68v1h-68ZM45 356h69v1h-69ZM364 356h68v1h-68ZM46 357h69v1h-69ZM363 357h68v1h-68ZM47 358h69v1h-69ZM362 358h69v1h-69ZM47 359h70v1h-70ZM361 359h69v1h-69ZM48 360h70v1h-70ZM360 360h69v1h-69ZM49 361h70v1h-70ZM359 361h70v1h-70ZM49 362h71v1h-71ZM358 362h70v1h-70ZM50 363h71v1h-71ZM357 363h71v1h-71ZM51 364h71v1h-71ZM356 364h71v1h-71ZM51 365h72v1h-72ZM355 365h71v1h-71ZM52 366h72v1h-72ZM353 366h73v1h-73ZM53 367h72v1h-72ZM352 367h73v1h-73ZM53 368h73v1h-73ZM351 368h73v1h-73ZM54 369h73v1h-73ZM350 369h73v1h-73ZM55 370h74v1h-74ZM349 370h74v1h-74ZM55 371h75v1h-75ZM348 371h74v1h-74ZM56 372h75v1h-75ZM346 372h75v1h-75ZM57 373h75v1h-75ZM345 373h75v1h-75ZM58 374h76v1h-76ZM344 374h76v1h-76ZM58 375h77v1h-77ZM343 375h76v1h-76ZM59 376h77v1h-77ZM341 376h77v1h-77ZM60 377h78v1h-78ZM340 377h77v1h-77ZM61 378h78v1h-78ZM338 378h79v1h-79ZM62 379h78v1h-78ZM337 379h79v1h-79ZM62 380h80v1h-80ZM336 380h79v1h-79ZM63 381h80v1h-80ZM334 381h80v1h-80ZM64 382h81v1h-81ZM333 382h80v1h-80ZM65 383h81v1h-81ZM331 383h82v1h-82ZM66 384h82v1h-82ZM329 384h83v1h-83ZM66 385h83v1h-83ZM328 385h83v1h-83ZM67 386h84v1h-84ZM326 386h84v1h-84ZM68 387h85v1h-85ZM325 387h84v1h-84ZM69 388h86v1h-86ZM323 388h85v1h-85ZM70 389h86v1h-86ZM321 389h86v1h-86ZM71 390h87v1h-87ZM319 390h87v1h-87ZM72 391h88v1h-88ZM317 391h89v1h-89ZM73 392h89v1h-89ZM315 392h90v1h-90ZM74 393h90v1h-90ZM313 393h91v1h-91ZM75 394h91v1h-91ZM311 394h92v1h-92ZM76 395h93v1h-93ZM309 395h93v1h-93ZM77 396h94v1h-94ZM307 396h94v1h-94ZM78 397h95v1h-95ZM304 397h96v1h-96ZM79 398h97v1h-97ZM302 398h97v1h-97ZM80 399h98v1h-98ZM299 399h99v1h-99ZM81 400h100v1h-100ZM296 400h101v1h-101ZM82 401h102v1h-102ZM293 401h103v1h-103ZM83 402h104v1h-104ZM290 402h105v1h-105ZM84 403h106v1h-106ZM287 403h107v1h-107ZM85 404h109v1h-109ZM284 404h109v1h-109ZM86 405h112v1h-112ZM280 405h112v1h-112ZM87 406h115v1h-115ZM275 406h115v1h-115ZM88 407h119v1h-119ZM270 407h119v1h-119ZM89 408h124v1h-124ZM264 408h124v1h-124ZM90 409h131v1h-131ZM257 409h130v1h-130ZM91 410h295v1h-295ZM93 411h292v1h-292ZM94 412h290v1h-290ZM95 413h287v1h-287ZM96 414h285v1h-285ZM98 415h282v1h-282ZM99 416h280v1h-280ZM100 417h277v1h-277ZM101 418h275v1h-275ZM103 419h273v1h-273ZM104 420h273v1h-273ZM105 421h272v1h-272ZM107 422h271v1h-271ZM108 423h270v1h-270ZM107 424h272v2h-272ZM106 426h274v1h-274ZM105 427h275v1h-275ZM105 428h276v1h-276ZM104 429h277v1h-277ZM104 430h278v1h-278ZM103 431h279v1h-279ZM103 432h280v1h-280ZM102 433h281v1h-281ZM102 434h282v1h-282ZM101 435h283v1h-283ZM101 436h284v1h-284ZM100 437h286v2h-286ZM99 439h288v2h-288ZM98 441h290v1h-290ZM97 442h291v1h-291ZM97 443h292v1h-292ZM96 444h293v1h-293ZM96 445h294v1h-294ZM95 446h233v1h-233ZM331 446h59v1h-59ZM95 447h231v1h-231ZM94 448h229v1h-229ZM332 447h59v2h-59ZM94 449h59v1h-59ZM157 449h164v1h-164ZM93 450h60v1h-60ZM159 450h159v1h-159ZM333 449h59v2h-59ZM93 451h59v1h-59ZM162 451h153v1h-153ZM334 451h59v1h-59ZM165 452h148v1h-148ZM334 452h60v1h-60ZM92 452h59v2h-59ZM168 453h142v1h-142ZM335 453h59v1h-59ZM171 454h135v1h-135ZM335 454h60v1h-60ZM91 454h59v2h-59ZM174 455h129v1h-129ZM336 455h59v1h-59ZM178 456h122v1h-122ZM336 456h60v1h-60ZM90 456h59v2h-59ZM181 457h115v1h-115ZM337 457h59v1h-59ZM89 458h59v1h-59ZM185 458h107v1h-107ZM337 458h60v1h-60ZM88 459h60v1h-60ZM190 459h98v1h-98ZM338 459h59v1h-59ZM88 460h59v1h-59ZM194 460h89v1h-89ZM338 460h60v1h-60ZM87 461h60v1h-60ZM200 461h78v1h-78ZM339 461h59v1h-59ZM87 462h59v1h-59ZM206 462h65v1h-65ZM86 463h60v1h-60ZM214 463h49v1h-49ZM340 462h59v2h-59ZM86 464h59v1h-59ZM227 464h24v1h-24ZM85 465h60v1h-60ZM341 464h59v2h-59ZM85 466h59v1h-59ZM342 466h59v1h-59ZM342 467h60v1h-60ZM84 467h59v2h-59ZM343 468h59v1h-59ZM343 469h60v1h-60ZM83 469h59v2h-59ZM344 470h59v1h-59ZM344 471h60v1h-60ZM82 471h59v2h-59ZM345 472h59v1h-59ZM81 473h59v1h-59ZM345 473h60v1h-60ZM80 474h60v1h-60ZM346 474h59v1h-59ZM80 475h59v1h-59ZM346 475h60v1h-60ZM79 476h60v1h-60ZM347 476h59v1h-59ZM79 477h59v1h-59ZM78 478h60v1h-60ZM348 477h59v2h-59ZM78 479h59v1h-59ZM77 480h60v1h-60ZM349 479h59v2h-59ZM77 481h59v1h-59ZM76 482h60v1h-60ZM350 481h59v2h-59ZM76 483h59v1h-59ZM351 483h59v1h-59ZM351 484h60v1h-60ZM75 484h59v2h-59ZM352 485h59v1h-59ZM352 486h60v1h-60ZM74 486h59v2h-59ZM353 487h59v1h-59ZM353 488h60v1h-60ZM73 488h59v2h-59ZM354 489h59v1h-59ZM72 490h59v1h-59ZM354 490h60v1h-60ZM71 491h60v1h-60ZM355 491h59v1h-59ZM71 492h59v1h-59ZM70 493h60v1h-60ZM356 492h59v2h-59ZM70 494h59v1h-59ZM69 495h60v1h-60ZM357 494h59v2h-59ZM69 496h59v1h-59ZM68 497h60v1h-60ZM358 496h59v2h-59ZM68 498h59v1h-59ZM359 498h59v2h-59ZM68 499h58v2h-58ZM360 500h58v1h-58ZM360 501h59v1h-59ZM67 501h58v2h-58ZM361 502h58v2h-58ZM67 503h57v2h-57ZM362 504h57v2h-57ZM67 505h56v2h-56ZM363 506h56v2h-56ZM67 507h55v2h-55ZM364 508h55v1h-55ZM67 509h54v2h-54ZM365 509h54v2h-54ZM67 511h53v2h-53ZM366 511h53v2h-53ZM68 513h51v1h-51ZM367 513h52v1h-52ZM367 514h51v1h-51ZM68 514h50v2h-50ZM68 516h49v1h-49ZM368 515h50v2h-50ZM69 517h48v1h-48ZM69 518h47v1h-47ZM369 517h48v2h-48ZM70 519h46v1h-46ZM370 519h47v1h-47ZM70 520h45v1h-45ZM370 520h46v1h-46ZM71 521h44v1h-44ZM371 521h44v1h-44ZM72 522h42v1h-42ZM372 522h43v1h-43ZM73 523h40v1h-40ZM372 523h42v1h-42ZM73 524h39v1h-39ZM373 524h40v1h-40ZM74 525h37v1h-37ZM374 525h38v1h-38ZM75 526h35v1h-35ZM375 526h36v1h-36ZM77 527h32v1h-32ZM376 527h34v1h-34ZM78 528h30v1h-30ZM377 528h32v1h-32ZM79 529h27v1h-27ZM379 529h29v1h-29ZM81 530h23v1h-23ZM380 530h26v1h-26ZM84 531h18v1h-18ZM382 531h22v1h-22ZM87 532h12v1h-12ZM385 532h16v1h-16ZM389 533h8v1h-8Z"/></svg>
