<svg xmlns="http://www.w3.org/2000/svg" width="460" height="603" viewBox="0 0 460 603"><path fill="#4e1601" d="M226 12h9v1h-9ZM222 13h17v1h-17ZM219 14h23v1h-23ZM217 15h27v1h-27ZM215 16h31v1h-31ZM213 17h34v1h-34ZM212 18h37v1h-37ZM210 19h41v1h-41ZM208 20h44v1h-44ZM207 21h47v1h-47ZM205 22h51v1h-51ZM204 23h53v1h-53ZM202 24h57v1h-57ZM200 25h60v1h-60ZM199 26h63v1h-63ZM197 27h66v1h-66ZM196 28h69v1h-69ZM194 29h72v1h-72ZM193 30h75v1h-75ZM191 31h78v1h-78ZM190 32h81v1h-81ZM188 33h84v1h-84ZM187 34h87v1h-87ZM185 35h90v1h-90ZM184 36h93v1h-93ZM183 37h95v1h-95ZM181 38h99v1h-99ZM180 39h101v1h-101ZM178 40h104v1h-104ZM177 41h107v1h-107ZM176 42h109v1h-109ZM174 43h113v1h-113ZM173 44h115v1h-115ZM172 45h117v1h-117ZM170 46h121v1h-121ZM169 47h123v1h-123ZM167 48h126v1h-126ZM166 49h129v1h-129ZM165 50h131v1h-131ZM164 51h133v1h-133ZM162 52h137v1h-137ZM161 53h139v1h-139ZM160 54h141v1h-141ZM158 55h144v1h-144ZM157 56h147v1h-147ZM156 57h149v1h-149ZM155 58h151v1h-151ZM153 59h154v1h-154ZM152 60h157v1h-157ZM151 61h159v1h-159ZM150 62h161v1h-161ZM148 63h164v1h-164ZM147 64h167v1h-167ZM146 65h169v1h-169ZM145 66h171v1h-171ZM144 67h173v1h-173ZM143 68h175v1h-175ZM141 69h179v1h-179ZM140 70h181v1h-181ZM139 71h183v1h-183ZM138 72h185v1h-185ZM137 73h187v1h-187ZM136 74h189v1h-189ZM134 75h96v1h-96ZM231 75h96v1h-96ZM133 76h95v1h-95ZM232 76h96v1h-96ZM132 77h95v1h-95ZM234 77h95v1h-95ZM131 78h94v1h-94ZM235 78h95v1h-95ZM130 79h94v1h-94ZM237 79h94v1h-94ZM129 80h93v1h-93ZM238 80h94v1h-94ZM128 81h93v1h-93ZM240 81h93v1h-93ZM127 82h92v1h-92ZM241 82h93v1h-93ZM125 83h93v1h-93ZM243 83h92v1h-92ZM124 84h93v1h-93ZM244 84h92v1h-92ZM123 85h92v1h-92ZM246 85h92v1h-92ZM122 86h92v1h-92ZM247 86h92v1h-92ZM121 87h91v1h-91ZM248 87h92v1h-92ZM120 88h91v1h-91ZM250 88h91v1h-91ZM119 89h91v1h-91ZM251 89h91v1h-91ZM118 90h90v1h-90ZM253 90h90v1h-90ZM117 91h90v1h-90ZM254 91h90v1h-90ZM116 92h90v1h-90ZM255 92h90v1h-90ZM115 93h89v1h-89ZM257 93h89v1h-89ZM114 94h89v1h-89ZM258 94h89v1h-89ZM113 95h89v1h-89ZM259 95h89v1h-89ZM112 96h88v1h-88ZM261 96h88v1h-88ZM111 97h88v1h-88ZM262 97h88v1h-88ZM110 98h88v1h-88ZM263 98h88v1h-88ZM109 99h87v1h-87ZM265 99h87v1h-87ZM108 100h87v1h-87ZM266 100h87v1h-87ZM107 101h87v1h-87ZM267 101h87v1h-87ZM106 102h87v1h-87ZM268 102h87v1h-87ZM105 103h86v1h-86ZM270 103h86v1h-86ZM104 104h86v1h-86ZM271 104h86v1h-86ZM103 105h86v1h-86ZM272 105h86v1h-86ZM102 106h86v1h-86ZM273 106h86v1h-86ZM101 107h85v1h-85ZM275 107h85v1h-85ZM100 108h85v1h-85ZM276 108h85v1h-85ZM99 109h85v1h-85ZM277 109h85v1h-85ZM98 110h85v1h-85ZM278 110h85v1h-85ZM97 111h85v1h-85ZM279 111h84v1h-84ZM97 112h83v1h-83ZM281 112h83v1h-83ZM96 113h83v1h-83ZM282 113h83v1h-83ZM95 114h83v1h-83ZM283 114h83v1h-83ZM94 115h83v1h-83ZM284 115h83v1h-83ZM93 116h83v1h-83ZM285 116h83v1h-83ZM92 117h83v1h-83ZM286 117h83v1h-83ZM91 118h82v1h-82ZM288 118h82v1h-82ZM90 119h82v1h-82ZM289 119h82v1h-82ZM89 120h82v1h-82ZM290 120h81v1h-81ZM89 121h81v1h-81ZM291 121h81v1h-81ZM88 122h81v1h-81ZM292 122h81v1h-81ZM87 123h81v1h-81ZM293 123h81v1h-81ZM86 124h81v1h-81ZM294 124h81v1h-81ZM85 125h81v1h-81ZM295 125h81v1h-81ZM84 126h81v1h-81ZM297 126h80v1h-80ZM83 127h80v1h-80ZM298 127h79v1h-79ZM83 128h79v1h-79ZM299 128h79v1h-79ZM82 129h79v1h-79ZM300 129h79v1h-79ZM81 130h79v1h-79ZM301 130h79v1h-79ZM80 131h79v1h-79ZM302 131h79v1h-79ZM79 132h79v1h-79ZM303 132h79v1h-79ZM79 133h78v1h-78ZM304 133h78v1h-78ZM78 134h78v1h-78ZM305 134h78v1h-78ZM77 135h78v1h-78ZM306 135h78v1h-78ZM76 136h78v1h-78ZM307 136h78v1h-78ZM75 137h78v1h-78ZM308 137h77v1h-77ZM75 138h77v1h-77ZM309 138h77v1h-77ZM74 139h77v1h-77ZM310 139h77v1h-77ZM73 140h77v1h-77ZM311 140h77v1h-77ZM72 141h77v1h-77ZM312 141h77v1h-77ZM72 142h76v1h-76ZM313 142h76v1h-76ZM71 143h76v1h-76ZM314 143h76v1h-76ZM70 144h76v1h-76ZM315 144h76v1h-76ZM69 145h76v1h-76ZM316 145h76v1h-76ZM69 146h75v1h-75ZM317 146h75v1h-75ZM68 147h75v1h-75ZM318 147h75v1h-75ZM67 148h75v1h-75ZM319 148h75v1h-75ZM66 149h75v1h-75ZM320 149h74v1h-74ZM66 150h74v1h-74ZM321 150h74v1h-74ZM65 151h75v1h-75ZM321 151h75v1h-75ZM64 152h75v1h-75ZM322 152h75v1h-75ZM64 153h74v1h-74ZM323 153h74v1h-74ZM63 154h74v1h-74ZM324 154h74v1h-74ZM62 155h74v1h-74ZM325 155h74v1h-74ZM61 156h74v1h-74ZM326 156h73v1h-73ZM61 157h73v1h-73ZM327 157h73v1h-73ZM60 158h73v1h-73ZM328 158h73v1h-73ZM329 159h72v1h-72ZM59 159h73v2h-73ZM329 160h73v1h-73ZM58 161h73v1h-73ZM330 161h73v1h-73ZM57 162h73v1h-73ZM331 162h72v1h-72ZM57 163h72v1h-72ZM332 163h72v1h-72ZM56 164h72v1h-72ZM333 164h72v1h-72ZM56 165h71v1h-71ZM334 165h71v1h-71ZM55 166h71v1h-71ZM335 166h71v1h-71ZM54 167h72v1h-72ZM335 167h72v1h-72ZM54 168h71v1h-71ZM336 168h71v1h-71ZM53 169h71v1h-71ZM337 169h71v1h-71ZM52 170h71v1h-71ZM338 170h70v1h-70ZM52 171h70v1h-70ZM339 171h70v1h-70ZM51 172h71v1h-71ZM339 172h71v1h-71ZM51 173h70v1h-70ZM340 173h70v1h-70ZM50 174h70v1h-70ZM341 174h70v1h-70ZM342 175h69v1h-69ZM49 175h70v2h-70ZM342 176h70v1h-70ZM48 177h70v1h-70ZM343 177h70v1h-70ZM48 178h69v1h-69ZM344 178h69v1h-69ZM47 179h69v1h-69ZM46 180h70v1h-70ZM345 179h69v2h-69ZM46 181h69v1h-69ZM346 181h69v1h-69ZM45 182h69v1h-69ZM347 182h68v1h-68ZM45 183h68v1h-68ZM44 184h69v1h-69ZM348 183h68v2h-68ZM44 185h68v1h-68ZM349 185h68v1h-68ZM43 186h68v1h-68ZM43 187h67v1h-67ZM350 186h68v2h-68ZM42 188h68v1h-68ZM351 188h68v1h-68ZM42 189h67v1h-67ZM352 189h67v1h-67ZM41 190h67v2h-67ZM353 190h67v2h-67ZM40 192h67v1h-67ZM40 193h66v1h-66ZM354 192h67v2h-67ZM39 194h67v1h-67ZM355 194h67v1h-67ZM39 195h66v1h-66ZM356 195h66v1h-66ZM356 196h67v1h-67ZM38 196h66v2h-66ZM357 197h66v1h-66ZM37 198h66v2h-66ZM358 198h66v2h-66ZM36 200h66v1h-66ZM224 200h12v1h-12ZM359 200h66v1h-66ZM36 201h65v1h-65ZM221 201h19v1h-19ZM35 202h66v1h-66ZM218 202h24v1h-24ZM360 201h65v2h-65ZM35 203h65v1h-65ZM216 203h28v1h-28ZM34 204h66v1h-66ZM215 204h31v1h-31ZM361 203h65v2h-65ZM34 205h65v1h-65ZM213 205h34v1h-34ZM362 205h65v1h-65ZM212 206h37v1h-37ZM363 206h64v1h-64ZM33 206h65v2h-65ZM211 207h39v1h-39ZM363 207h65v1h-65ZM33 208h64v1h-64ZM143 208h6v1h-6ZM210 208h41v1h-41ZM364 208h64v1h-64ZM32 209h65v1h-65ZM138 209h16v1h-16ZM209 209h43v1h-43ZM364 209h65v1h-65ZM32 210h64v1h-64ZM135 210h22v1h-22ZM208 210h45v1h-45ZM31 211h65v1h-65ZM133 211h26v1h-26ZM207 211h46v1h-46ZM365 210h64v2h-64ZM31 212h64v1h-64ZM131 212h30v1h-30ZM206 212h48v1h-48ZM129 213h33v1h-33ZM206 213h49v1h-49ZM366 212h64v2h-64ZM30 213h64v2h-64ZM128 214h36v1h-36ZM205 214h50v1h-50ZM30 215h63v1h-63ZM127 215h38v1h-38ZM205 215h51v1h-51ZM367 214h64v2h-64ZM29 216h64v1h-64ZM126 216h40v1h-40ZM204 216h52v1h-52ZM368 216h63v1h-63ZM29 217h63v1h-63ZM125 217h42v1h-42ZM204 217h53v1h-53ZM368 217h64v1h-64ZM28 218h64v1h-64ZM124 218h44v1h-44ZM203 218h54v1h-54ZM369 218h63v1h-63ZM123 219h47v1h-47ZM369 219h64v1h-64ZM28 219h63v2h-63ZM122 220h49v1h-49ZM203 219h55v2h-55ZM122 221h50v1h-50ZM202 221h56v1h-56ZM370 220h63v2h-63ZM27 221h63v2h-63ZM121 222h52v1h-52ZM27 223h62v1h-62ZM120 223h54v1h-54ZM371 222h63v2h-63ZM26 224h63v1h-63ZM120 224h55v1h-55ZM372 224h62v1h-62ZM119 225h57v1h-57ZM202 222h57v4h-57ZM372 225h63v1h-63ZM26 225h62v2h-62ZM119 226h59v1h-59ZM119 227h60v1h-60ZM373 226h62v2h-62ZM118 228h62v1h-62ZM25 227h62v3h-62ZM118 229h63v1h-63ZM374 228h62v2h-62ZM118 230h64v1h-64ZM375 230h61v1h-61ZM24 230h62v2h-62ZM118 231h65v1h-65ZM24 232h61v1h-61ZM117 232h67v1h-67ZM375 231h62v2h-62ZM23 233h62v1h-62ZM117 233h68v1h-68ZM376 233h61v1h-61ZM117 234h70v1h-70ZM376 234h62v1h-62ZM23 234h61v2h-61ZM117 235h71v1h-71ZM22 236h62v1h-62ZM117 236h72v1h-72ZM377 235h61v2h-61ZM117 237h73v1h-73ZM22 237h61v2h-61ZM117 238h74v1h-74ZM117 239h75v1h-75ZM378 237h61v3h-61ZM117 240h76v1h-76ZM21 239h61v3h-61ZM117 241h78v1h-78ZM21 242h60v1h-60ZM117 242h79v1h-79ZM379 240h61v3h-61ZM118 243h79v1h-79ZM380 243h60v1h-60ZM20 243h61v2h-61ZM118 244h80v1h-80ZM118 245h81v1h-81ZM380 244h61v2h-61ZM20 245h60v2h-60ZM118 246h82v1h-82ZM201 226h58v21h-58ZM19 247h61v1h-61ZM381 246h60v2h-60ZM119 247h140v2h-140ZM381 248h61v1h-61ZM19 248h60v3h-60ZM120 249h139v2h-139ZM382 249h60v3h-60ZM121 251h138v2h-138ZM18 251h60v3h-60ZM122 253h137v1h-137ZM18 254h59v1h-59ZM383 252h60v3h-60ZM123 254h136v2h-136ZM124 256h135v1h-135ZM384 255h59v2h-59ZM17 255h60v3h-60ZM125 257h134v1h-134ZM126 258h133v1h-133ZM384 257h60v2h-60ZM17 258h59v2h-59ZM127 259h132v1h-132ZM16 260h60v1h-60ZM128 260h131v1h-131ZM130 261h129v1h-129ZM385 259h59v3h-59ZM131 262h128v1h-128ZM385 262h60v1h-60ZM132 263h127v1h-127ZM16 261h59v4h-59ZM133 264h126v1h-126ZM16 265h58v1h-58ZM134 265h125v1h-125ZM135 266h124v1h-124ZM386 263h59v4h-59ZM136 267h123v1h-123ZM387 267h58v1h-58ZM138 268h121v1h-121ZM15 266h59v4h-59ZM139 269h120v1h-120ZM140 270h119v1h-119ZM15 270h58v2h-58ZM141 271h118v1h-118ZM387 268h59v4h-59ZM142 272h117v1h-117ZM143 273h116v1h-116ZM144 274h115v1h-115ZM14 272h59v4h-59ZM145 275h114v1h-114ZM388 272h58v4h-58ZM147 276h112v1h-112ZM148 277h111v1h-111ZM388 276h59v2h-59ZM149 278h110v1h-110ZM150 279h109v1h-109ZM14 276h58v5h-58ZM151 280h108v1h-108ZM152 281h107v1h-107ZM13 281h59v2h-59ZM153 282h106v1h-106ZM155 283h104v1h-104ZM156 284h103v1h-103ZM157 285h102v1h-102ZM389 278h58v8h-58ZM158 286h101v1h-101ZM389 286h59v1h-59ZM159 287h100v1h-100ZM160 288h99v1h-99ZM161 289h98v1h-98ZM163 290h96v1h-96ZM164 291h95v1h-95ZM165 292h94v1h-94ZM166 293h93v1h-93ZM13 283h58v12h-58ZM167 294h92v1h-92ZM168 295h91v1h-91ZM13 295h57v2h-57ZM169 296h90v1h-90ZM170 297h89v1h-89ZM172 298h87v1h-87ZM173 299h86v1h-86ZM174 300h85v1h-85ZM175 301h84v1h-84ZM176 302h83v1h-83ZM177 303h82v1h-82ZM178 304h81v1h-81ZM309 304h14v1h-14ZM180 305h79v1h-79ZM305 305h22v1h-22ZM181 306h78v1h-78ZM303 306h26v1h-26ZM12 297h58v11h-58ZM182 307h77v1h-77ZM301 307h30v1h-30ZM183 308h76v1h-76ZM300 308h32v1h-32ZM13 308h57v2h-57ZM184 309h75v1h-75ZM298 309h36v1h-36ZM185 310h74v1h-74ZM297 310h38v1h-38ZM186 311h73v1h-73ZM296 311h40v1h-40ZM188 312h71v1h-71ZM295 312h42v1h-42ZM189 313h70v1h-70ZM293 313h45v1h-45ZM190 314h69v1h-69ZM292 314h47v1h-47ZM191 315h68v1h-68ZM291 315h48v1h-48ZM192 316h67v1h-67ZM290 316h50v1h-50ZM193 317h66v1h-66ZM289 317h52v1h-52ZM390 287h58v31h-58ZM194 318h65v1h-65ZM287 318h54v1h-54ZM389 318h59v1h-59ZM196 319h63v1h-63ZM286 319h56v1h-56ZM197 320h62v1h-62ZM285 320h57v1h-57ZM13 310h58v12h-58ZM198 321h61v1h-61ZM284 321h59v1h-59ZM199 322h60v1h-60ZM283 322h60v1h-60ZM13 322h59v2h-59ZM200 323h59v1h-59ZM281 323h63v1h-63ZM280 324h64v1h-64ZM279 325h65v1h-65ZM389 319h58v7h-58ZM278 326h66v1h-66ZM277 327h67v1h-67ZM14 324h58v5h-58ZM275 328h70v1h-70ZM388 326h59v3h-59ZM274 329h71v1h-71ZM273 330h72v1h-72ZM14 329h59v3h-59ZM272 331h73v1h-73ZM388 329h58v3h-58ZM271 332h74v1h-74ZM15 332h58v2h-58ZM269 333h76v1h-76ZM268 334h77v1h-77ZM267 335h78v1h-78ZM387 332h59v4h-59ZM266 336h79v1h-79ZM387 336h58v1h-58ZM265 337h79v1h-79ZM15 334h59v5h-59ZM263 338h81v1h-81ZM262 339h82v1h-82ZM261 340h83v1h-83ZM386 337h59v4h-59ZM201 324h58v18h-58ZM260 341h83v1h-83ZM385 341h60v1h-60ZM16 339h59v4h-59ZM16 343h60v1h-60ZM201 342h142v2h-142ZM385 342h59v3h-59ZM17 344h59v2h-59ZM201 344h141v2h-141ZM384 345h60v2h-60ZM201 346h140v2h-140ZM384 347h59v1h-59ZM17 346h60v3h-60ZM201 348h139v1h-139ZM18 349h59v1h-59ZM201 349h138v2h-138ZM383 348h60v3h-60ZM201 351h137v1h-137ZM382 351h61v1h-61ZM18 350h60v3h-60ZM201 352h136v1h-136ZM201 353h135v1h-135ZM382 352h60v2h-60ZM201 354h134v1h-134ZM19 353h60v3h-60ZM201 355h132v1h-132ZM381 354h61v2h-61ZM19 356h61v1h-61ZM201 356h131v1h-131ZM381 356h60v1h-60ZM20 357h60v1h-60ZM201 357h130v1h-130ZM201 358h129v1h-129ZM380 357h61v2h-61ZM201 359h128v1h-128ZM380 359h60v1h-60ZM20 358h61v3h-61ZM201 360h126v1h-126ZM201 361h125v1h-125ZM379 360h61v2h-61ZM201 362h124v1h-124ZM378 362h62v1h-62ZM21 361h61v3h-61ZM201 363h123v1h-123ZM21 364h62v1h-62ZM201 364h122v1h-122ZM378 363h61v2h-61ZM22 365h61v1h-61ZM201 365h120v1h-120ZM377 365h62v1h-62ZM201 366h119v1h-119ZM377 366h61v1h-61ZM22 366h62v2h-62ZM201 367h118v1h-118ZM201 368h117v1h-117ZM376 367h62v2h-62ZM23 368h62v2h-62ZM201 369h116v1h-116ZM375 369h63v1h-63ZM23 370h63v1h-63ZM201 370h114v1h-114ZM375 370h62v1h-62ZM24 371h62v1h-62ZM201 371h113v1h-113ZM201 372h112v1h-112ZM374 371h63v2h-63ZM24 372h63v2h-63ZM201 373h111v1h-111ZM201 374h110v1h-110ZM373 373h63v2h-63ZM25 374h63v2h-63ZM201 375h108v1h-108ZM25 376h64v1h-64ZM201 376h107v1h-107ZM372 375h63v2h-63ZM26 377h63v1h-63ZM201 377h106v1h-106ZM371 377h64v1h-64ZM26 378h64v1h-64ZM201 378h105v1h-105ZM371 378h63v1h-63ZM27 379h63v1h-63ZM201 379h104v1h-104ZM201 380h102v1h-102ZM370 379h64v2h-64ZM27 380h64v2h-64ZM201 381h101v1h-101ZM28 382h64v1h-64ZM201 382h100v1h-100ZM369 381h64v2h-64ZM28 383h65v1h-65ZM201 383h99v1h-99ZM368 383h64v1h-64ZM29 384h64v1h-64ZM201 384h98v1h-98ZM201 385h96v1h-96ZM367 384h65v2h-65ZM29 385h65v2h-65ZM201 386h95v1h-95ZM30 387h65v1h-65ZM201 387h94v1h-94ZM366 386h65v2h-65ZM30 388h66v1h-66ZM201 388h93v1h-93ZM365 388h65v1h-65ZM31 389h65v1h-65ZM201 389h92v1h-92ZM364 389h66v1h-66ZM31 390h66v1h-66ZM201 390h90v1h-90ZM364 390h65v1h-65ZM201 391h89v1h-89ZM363 391h66v1h-66ZM32 391h66v2h-66ZM201 392h88v1h-88ZM362 392h67v1h-67ZM32 393h67v1h-67ZM201 393h87v1h-87ZM362 393h66v1h-66ZM201 394h86v1h-86ZM361 394h67v1h-67ZM33 394h67v2h-67ZM201 395h84v1h-84ZM360 395h67v1h-67ZM34 396h67v1h-67ZM201 396h83v1h-83ZM359 396h68v1h-68ZM34 397h68v1h-68ZM201 397h82v1h-82ZM359 397h67v1h-67ZM201 398h81v1h-81ZM358 398h68v1h-68ZM35 398h68v2h-68ZM201 399h80v1h-80ZM357 399h68v1h-68ZM36 400h68v1h-68ZM201 400h78v1h-78ZM356 400h69v1h-69ZM36 401h69v1h-69ZM201 401h77v1h-77ZM356 401h68v1h-68ZM37 402h69v1h-69ZM201 402h76v1h-76ZM355 402h69v1h-69ZM37 403h70v1h-70ZM201 403h75v1h-75ZM354 403h69v1h-69ZM38 404h69v1h-69ZM201 404h74v1h-74ZM353 404h70v1h-70ZM38 405h70v1h-70ZM201 405h72v1h-72ZM39 406h70v1h-70ZM201 406h71v1h-71ZM352 405h70v2h-70ZM40 407h70v1h-70ZM201 407h70v1h-70ZM351 407h70v1h-70ZM40 408h71v1h-71ZM201 408h69v1h-69ZM350 408h70v1h-70ZM41 409h71v1h-71ZM201 409h68v1h-68ZM349 409h71v1h-71ZM41 410h72v1h-72ZM201 410h66v1h-66ZM348 410h71v1h-71ZM201 411h65v1h-65ZM347 411h72v1h-72ZM42 411h72v2h-72ZM201 412h64v1h-64ZM346 412h72v1h-72ZM43 413h72v1h-72ZM201 413h63v1h-63ZM345 413h73v1h-73ZM44 414h72v1h-72ZM201 414h62v1h-62ZM344 414h73v1h-73ZM44 415h73v1h-73ZM201 415h60v1h-60ZM343 415h73v1h-73ZM45 416h73v1h-73ZM201 416h59v1h-59ZM342 416h74v1h-74ZM45 417h74v1h-74ZM341 417h74v1h-74ZM46 418h74v1h-74ZM340 418h74v1h-74ZM47 419h75v1h-75ZM339 419h75v1h-75ZM47 420h76v1h-76ZM338 420h75v1h-75ZM48 421h76v1h-76ZM337 421h76v1h-76ZM49 422h76v1h-76ZM336 422h76v1h-76ZM49 423h77v1h-77ZM335 423h76v1h-76ZM50 424h77v1h-77ZM333 424h78v1h-78ZM51 425h77v1h-77ZM332 425h78v1h-78ZM51 426h79v1h-79ZM331 426h78v1h-78ZM52 427h79v1h-79ZM330 427h78v1h-78ZM53 428h79v1h-79ZM328 428h80v1h-80ZM54 429h79v1h-79ZM327 429h80v1h-80ZM54 430h81v1h-81ZM326 430h80v1h-80ZM55 431h81v1h-81ZM324 431h82v1h-82ZM56 432h81v1h-81ZM323 432h82v1h-82ZM56 433h83v1h-83ZM322 433h82v1h-82ZM57 434h83v1h-83ZM320 434h83v1h-83ZM58 435h84v1h-84ZM319 435h84v1h-84ZM59 436h84v1h-84ZM317 436h85v1h-85ZM60 437h85v1h-85ZM316 437h85v1h-85ZM60 438h87v1h-87ZM314 438h86v1h-86ZM61 439h87v1h-87ZM312 439h87v1h-87ZM62 440h88v1h-88ZM311 440h88v1h-88ZM63 441h89v1h-89ZM309 441h89v1h-89ZM64 442h89v1h-89ZM307 442h90v1h-90ZM65 443h90v1h-90ZM305 443h91v1h-91ZM65 444h92v1h-92ZM303 444h92v1h-92ZM66 445h93v1h-93ZM301 445h93v1h-93ZM67 446h94v1h-94ZM299 446h94v1h-94ZM68 447h95v1h-95ZM297 447h96v1h-96ZM69 448h96v1h-96ZM295 448h97v1h-97ZM70 449h98v1h-98ZM293 449h98v1h-98ZM71 450h99v1h-99ZM290 450h100v1h-100ZM72 451h101v1h-101ZM288 451h101v1h-101ZM73 452h102v1h-102ZM285 452h103v1h-103ZM74 453h104v1h-104ZM282 453h105v1h-105ZM75 454h106v1h-106ZM279 454h107v1h-107ZM76 455h108v1h-108ZM276 455h109v1h-109ZM77 456h111v1h-111ZM273 456h111v1h-111ZM78 457h114v1h-114ZM269 457h114v1h-114ZM79 458h117v1h-117ZM201 417h58v42h-58ZM265 458h117v1h-117ZM80 459h301v1h-301ZM81 460h299v1h-299ZM82 461h297v1h-297ZM83 462h295v1h-295ZM84 463h293v1h-293ZM85 464h291v1h-291ZM86 465h288v1h-288ZM87 466h286v1h-286ZM88 467h284v1h-284ZM90 468h281v1h-281ZM91 469h279v1h-279ZM92 470h277v1h-277ZM93 471h274v1h-274ZM94 472h272v1h-272ZM96 473h269v1h-269ZM97 474h267v1h-267ZM98 475h264v1h-264ZM100 476h261v1h-261ZM101 477h259v1h-259ZM102 478h256v1h-256ZM104 479h253v1h-253ZM105 480h250v1h-250ZM107 481h247v1h-247ZM108 482h245v1h-245ZM109 483h242v1h-242ZM111 484h239v1h-239ZM113 485h235v1h-235ZM114 486h232v1h-232ZM116 487h229v1h-229ZM117 488h226v1h-226ZM119 489h223v1h-223ZM121 490h219v1h-219ZM122 491h216v1h-216ZM124 492h212v1h-212ZM126 493h209v1h-209ZM128 494h205v1h-205ZM130 495h201v1h-201ZM132 496h197v1h-197ZM134 497h193v1h-193ZM136 498h189v1h-189ZM138 499h185v1h-185ZM140 500h181v1h-181ZM142 501h176v1h-176ZM144 502h172v1h-172ZM147 503h167v1h-167ZM149 504h162v1h-162ZM152 505h157v1h-157ZM154 506h152v1h-152ZM157 507h146v1h-146ZM160 508h141v1h-141ZM163 509h135v1h-135ZM166 510h128v1h-128ZM170 511h121v1h-121ZM173 512h114v1h-114ZM177 513h107v1h-107ZM181 514h99v1h-99ZM186 515h89v1h-89ZM191 516h79v1h-79ZM196 517h68v1h-68ZM201 518h58v47h-58ZM202 565h57v4h-57ZM202 569h56v1h-56ZM203 570h55v2h-55ZM203 572h54v1h-54ZM204 573h53v1h-53ZM204 574h52v1h-52ZM205 575h51v1h-51ZM205 576h50v1h-50ZM206 577h49v1h-49ZM206 578h48v1h-48ZM207 579h46v1h-46ZM208 580h45v1h-45ZM209 581h43v1h-43ZM210 582h41v1h-41ZM211 583h39v1h-39ZM212 584h37v1h-37ZM213 585h34v1h-34ZM215 586h31v1h-31ZM216 587h28v1h-28ZM218 588h24v1h-24ZM221 589h19v1h-19ZM224 590h12v1h-12Z"/></svg>
