<svg xmlns="http://www.w3.org/2000/svg" width="440" height="521" viewBox="0 0 440 521"><path fill="#4e1601" d="M343 12h9v1h-9ZM336 13h18v1h-18ZM330 14h26v1h-26ZM326 15h32v1h-32ZM322 16h37v1h-37ZM318 17h42v1h-42ZM314 18h47v1h-47ZM311 19h51v1h-51ZM308 20h54v1h-54ZM305 21h58v1h-58ZM302 22h61v1h-61ZM299 23h65v1h-65ZM296 24h68v1h-68ZM293 25h71v1h-71ZM291 26h74v1h-74ZM288 27h77v1h-77ZM286 28h79v1h-79ZM284 29h81v1h-81ZM281 30h84v1h-84ZM279 31h86v1h-86ZM277 32h88v1h-88ZM275 33h90v1h-90ZM273 34h91v1h-91ZM271 35h93v1h-93ZM269 36h95v1h-95ZM267 37h97v1h-97ZM265 38h98v1h-98ZM263 39h100v1h-100ZM262 40h101v1h-101ZM260 41h103v1h-103ZM258 42h105v1h-105ZM256 43h106v1h-106ZM255 44h107v1h-107ZM253 45h109v1h-109ZM252 46h110v1h-110ZM250 47h112v1h-112ZM248 48h113v1h-113ZM247 49h114v1h-114ZM245 50h116v1h-116ZM244 51h117v1h-117ZM243 52h118v1h-118ZM241 53h119v1h-119ZM240 54h80v1h-80ZM324 54h36v1h-36ZM238 55h79v1h-79ZM237 56h77v1h-77ZM236 57h75v1h-75ZM235 58h73v1h-73ZM323 55h37v4h-37ZM233 59h73v1h-73ZM232 60h71v1h-71ZM231 61h70v1h-70ZM230 62h68v1h-68ZM323 59h36v4h-36ZM228 63h68v1h-68ZM227 64h67v1h-67ZM226 65h66v1h-66ZM322 63h37v3h-37ZM225 66h65v1h-65ZM224 67h64v1h-64ZM223 68h63v1h-63ZM222 69h62v1h-62ZM221 70h61v1h-61ZM220 71h60v1h-60ZM322 66h36v6h-36ZM219 72h59v1h-59ZM218 73h59v1h-59ZM217 74h58v1h-58ZM321 72h37v3h-37ZM216 75h57v1h-57ZM215 76h57v1h-57ZM214 77h56v1h-56ZM213 78h56v1h-56ZM212 79h55v1h-55ZM211 80h55v1h-55ZM210 81h54v1h-54ZM209 82h54v1h-54ZM208 83h53v1h-53ZM208 84h52v1h-52ZM207 85h52v1h-52ZM206 86h51v1h-51ZM205 87h51v1h-51ZM204 88h51v1h-51ZM204 89h50v1h-50ZM203 90h50v1h-50ZM321 75h36v16h-36ZM202 91h49v1h-49ZM201 92h49v1h-49ZM200 93h49v1h-49ZM200 94h48v1h-48ZM320 91h37v4h-37ZM199 95h48v1h-48ZM198 96h48v1h-48ZM198 97h47v1h-47ZM197 98h47v1h-47ZM196 99h47v1h-47ZM196 100h46v1h-46ZM195 101h46v1h-46ZM194 102h46v1h-46ZM194 103h45v1h-45ZM193 104h45v1h-45ZM192 105h45v1h-45ZM192 106h44v1h-44ZM191 107h45v1h-45ZM191 108h44v1h-44ZM321 95h36v14h-36ZM190 109h44v1h-44ZM189 110h44v1h-44ZM189 111h43v1h-43ZM188 112h44v1h-44ZM321 109h37v4h-37ZM188 113h43v1h-43ZM187 114h43v1h-43ZM187 115h42v1h-42ZM186 116h43v1h-43ZM322 113h36v4h-36ZM186 117h42v1h-42ZM185 118h42v2h-42ZM184 120h42v1h-42ZM184 121h41v1h-41ZM322 117h37v5h-37ZM183 122h42v1h-42ZM323 122h36v1h-36ZM183 123h41v1h-41ZM182 124h41v2h-41ZM181 126h41v1h-41ZM323 123h37v5h-37ZM181 127h40v2h-40ZM180 129h40v2h-40ZM324 128h37v4h-37ZM179 131h40v2h-40ZM324 132h38v1h-38ZM179 133h39v1h-39ZM178 134h40v1h-40ZM325 133h37v2h-37ZM178 135h39v1h-39ZM177 136h40v1h-40ZM325 135h38v2h-38ZM177 137h39v2h-39ZM326 137h37v2h-37ZM176 139h39v2h-39ZM326 139h38v2h-38ZM176 141h38v1h-38ZM327 141h37v1h-37ZM80 142h10v1h-10ZM78 143h15v1h-15ZM175 142h39v2h-39ZM76 144h19v1h-19ZM175 144h38v1h-38ZM327 142h38v3h-38ZM74 145h22v1h-22ZM174 145h39v1h-39ZM73 146h24v1h-24ZM328 145h38v2h-38ZM72 147h26v1h-26ZM174 146h38v2h-38ZM328 147h39v1h-39ZM71 148h28v1h-28ZM173 148h39v1h-39ZM70 149h30v1h-30ZM329 148h38v2h-38ZM70 150h31v1h-31ZM173 149h38v2h-38ZM329 150h39v1h-39ZM69 151h32v1h-32ZM173 151h37v1h-37ZM330 151h38v1h-38ZM68 152h34v1h-34ZM67 153h35v1h-35ZM172 152h38v2h-38ZM330 152h39v2h-39ZM66 154h36v1h-36ZM172 154h37v1h-37ZM331 154h38v1h-38ZM65 155h38v2h-38ZM171 155h38v2h-38ZM331 155h39v2h-39ZM64 157h39v1h-39ZM63 158h41v1h-41ZM332 157h39v2h-39ZM171 157h37v3h-37ZM332 159h40v1h-40ZM62 159h42v2h-42ZM170 160h38v1h-38ZM333 160h39v1h-39ZM61 161h43v1h-43ZM333 161h40v1h-40ZM60 162h45v1h-45ZM334 162h39v1h-39ZM59 163h46v1h-46ZM170 161h37v3h-37ZM59 164h47v1h-47ZM169 164h38v1h-38ZM334 163h40v2h-40ZM58 165h48v1h-48ZM57 166h49v1h-49ZM335 165h40v2h-40ZM57 167h50v1h-50ZM56 168h51v1h-51ZM169 165h37v4h-37ZM336 167h40v2h-40ZM55 169h52v1h-52ZM336 169h41v1h-41ZM55 170h53v1h-53ZM337 170h40v1h-40ZM54 171h54v1h-54ZM337 171h41v1h-41ZM338 172h40v1h-40ZM53 172h56v2h-56ZM168 169h37v5h-37ZM338 173h41v1h-41ZM52 174h57v1h-57ZM339 174h40v1h-40ZM168 174h36v2h-36ZM339 175h41v1h-41ZM51 175h59v2h-59ZM50 177h61v1h-61ZM340 176h41v2h-41ZM49 178h62v1h-62ZM49 179h63v1h-63ZM167 176h37v4h-37ZM341 178h41v2h-41ZM48 180h64v1h-64ZM48 181h65v1h-65ZM342 180h41v2h-41ZM47 182h66v1h-66ZM167 180h36v4h-36ZM343 182h41v2h-41ZM46 183h68v2h-68ZM344 184h41v1h-41ZM344 185h42v1h-42ZM45 185h70v2h-70ZM166 184h37v3h-37ZM345 186h41v1h-41ZM345 187h42v1h-42ZM44 187h72v2h-72ZM346 188h41v1h-41ZM43 189h74v1h-74ZM346 189h42v1h-42ZM42 190h75v1h-75ZM347 190h41v1h-41ZM42 191h76v1h-76ZM347 191h42v1h-42ZM41 192h77v1h-77ZM348 192h42v1h-42ZM41 193h78v1h-78ZM349 193h41v1h-41ZM349 194h42v1h-42ZM40 194h80v2h-80ZM350 195h41v1h-41ZM166 187h36v10h-36ZM350 196h42v1h-42ZM39 196h82v2h-82ZM351 197h41v1h-41ZM38 198h42v1h-42ZM81 198h41v1h-41ZM351 198h42v1h-42ZM38 199h41v1h-41ZM81 199h42v1h-42ZM82 200h41v1h-41ZM352 199h42v2h-42ZM37 200h41v2h-41ZM82 201h42v1h-42ZM353 201h42v1h-42ZM165 197h37v6h-37ZM354 202h41v1h-41ZM36 202h41v2h-41ZM83 202h42v2h-42ZM354 203h42v1h-42ZM84 204h42v1h-42ZM355 204h41v1h-41ZM35 204h41v2h-41ZM84 205h43v1h-43ZM355 205h42v1h-42ZM34 206h41v1h-41ZM165 203h36v4h-36ZM85 206h43v2h-43ZM356 206h42v2h-42ZM34 207h40v2h-40ZM86 208h43v1h-43ZM357 208h42v1h-42ZM87 209h43v1h-43ZM166 207h35v3h-35ZM358 209h41v1h-41ZM33 209h40v2h-40ZM87 210h44v1h-44ZM166 210h34v1h-34ZM358 210h42v1h-42ZM88 211h43v1h-43ZM359 211h41v1h-41ZM32 211h40v2h-40ZM88 212h44v1h-44ZM167 211h33v2h-33ZM359 212h42v1h-42ZM89 213h44v1h-44ZM360 213h41v1h-41ZM31 213h40v2h-40ZM89 214h45v1h-45ZM168 213h31v2h-31ZM360 214h42v1h-42ZM31 215h39v1h-39ZM90 215h45v1h-45ZM169 215h29v1h-29ZM361 215h41v1h-41ZM30 216h40v1h-40ZM91 216h44v1h-44ZM170 216h27v1h-27ZM30 217h39v1h-39ZM91 217h45v1h-45ZM171 217h25v1h-25ZM362 216h41v2h-41ZM29 218h40v1h-40ZM92 218h45v1h-45ZM172 218h23v1h-23ZM93 219h45v1h-45ZM173 219h21v1h-21ZM363 218h41v2h-41ZM29 219h39v2h-39ZM93 220h46v1h-46ZM175 220h17v1h-17ZM28 221h40v1h-40ZM94 221h46v1h-46ZM177 221h13v1h-13ZM364 220h41v2h-41ZM95 222h46v1h-46ZM180 222h7v1h-7ZM365 222h41v1h-41ZM28 222h39v2h-39ZM95 223h47v1h-47ZM366 223h40v1h-40ZM96 224h47v1h-47ZM366 224h41v1h-41ZM27 224h39v2h-39ZM97 225h47v1h-47ZM367 225h40v1h-40ZM97 226h48v1h-48ZM367 226h41v1h-41ZM98 227h48v1h-48ZM368 227h40v1h-40ZM26 226h39v3h-39ZM99 228h48v1h-48ZM368 228h41v1h-41ZM99 229h49v1h-49ZM369 229h40v1h-40ZM25 229h39v2h-39ZM100 230h49v1h-49ZM369 230h41v1h-41ZM25 231h38v1h-38ZM101 231h49v1h-49ZM370 231h40v1h-40ZM102 232h49v1h-49ZM370 232h41v1h-41ZM24 232h39v2h-39ZM102 233h50v1h-50ZM24 234h38v1h-38ZM103 234h51v1h-51ZM371 233h40v2h-40ZM23 235h39v1h-39ZM104 235h51v1h-51ZM105 236h51v1h-51ZM372 235h40v2h-40ZM106 237h51v1h-51ZM23 236h38v3h-38ZM106 238h53v1h-53ZM373 237h40v2h-40ZM107 239h53v1h-53ZM374 239h39v1h-39ZM108 240h53v1h-53ZM374 240h40v1h-40ZM22 239h38v3h-38ZM109 241h54v1h-54ZM375 241h39v1h-39ZM110 242h54v1h-54ZM375 242h40v1h-40ZM111 243h55v1h-55ZM21 242h38v3h-38ZM112 244h55v1h-55ZM376 243h39v2h-39ZM21 245h37v1h-37ZM113 245h56v1h-56ZM113 246h57v1h-57ZM377 245h39v2h-39ZM20 246h38v2h-38ZM114 247h58v1h-58ZM378 247h38v1h-38ZM115 248h59v1h-59ZM20 248h37v2h-37ZM116 249h60v1h-60ZM378 248h39v2h-39ZM117 250h61v1h-61ZM379 250h38v1h-38ZM19 250h38v2h-38ZM118 251h62v1h-62ZM379 251h39v1h-39ZM119 252h63v1h-63ZM19 252h37v2h-37ZM120 253h64v1h-64ZM380 252h38v2h-38ZM121 254h65v1h-65ZM380 254h39v1h-39ZM18 254h38v2h-38ZM122 255h66v1h-66ZM123 256h68v1h-68ZM381 255h38v2h-38ZM125 257h68v1h-68ZM18 256h37v3h-37ZM126 258h70v1h-70ZM17 259h38v1h-38ZM127 259h72v1h-72ZM382 257h38v3h-38ZM128 260h74v1h-74ZM383 260h37v1h-37ZM129 261h76v1h-76ZM130 262h79v1h-79ZM383 261h38v2h-38ZM17 260h37v4h-37ZM132 263h82v1h-82ZM384 263h37v1h-37ZM133 264h85v1h-85ZM134 265h90v1h-90ZM384 264h38v2h-38ZM135 266h97v1h-97ZM137 267h98v1h-98ZM385 266h37v2h-37ZM16 264h37v5h-37ZM138 268h99v1h-99ZM16 269h36v1h-36ZM139 269h100v1h-100ZM385 268h38v2h-38ZM141 270h99v1h-99ZM142 271h99v1h-99ZM144 272h98v1h-98ZM386 270h37v3h-37ZM145 273h98v1h-98ZM386 273h38v1h-38ZM15 270h37v5h-37ZM147 274h96v1h-96ZM148 275h96v1h-96ZM15 275h36v2h-36ZM150 276h94v1h-94ZM151 277h94v1h-94ZM387 274h37v4h-37ZM153 278h92v1h-92ZM155 279h91v1h-91ZM14 277h37v4h-37ZM157 280h89v1h-89ZM158 281h88v1h-88ZM388 278h37v4h-37ZM160 282h86v1h-86ZM162 283h84v1h-84ZM389 282h36v2h-36ZM164 284h82v1h-82ZM14 281h36v5h-36ZM166 285h80v1h-80ZM168 286h78v1h-78ZM171 287h75v1h-75ZM389 284h37v4h-37ZM173 288h73v1h-73ZM175 289h70v1h-70ZM13 286h37v5h-37ZM178 290h67v1h-67ZM181 291h64v1h-64ZM390 288h36v4h-36ZM183 292h61v1h-61ZM186 293h58v1h-58ZM189 294h54v1h-54ZM390 292h37v3h-37ZM193 295h49v1h-49ZM196 296h45v1h-45ZM200 297h40v1h-40ZM204 298h35v1h-35ZM209 299h29v1h-29ZM214 300h22v1h-22ZM13 291h36v11h-36ZM221 301h12v1h-12ZM391 295h36v9h-36ZM391 304h37v4h-37ZM12 302h37v10h-37ZM392 308h36v14h-36ZM391 322h37v4h-37ZM13 312h36v15h-36ZM13 327h37v5h-37ZM391 326h36v9h-36ZM14 332h36v4h-36ZM390 335h37v4h-37ZM14 336h37v5h-37ZM15 341h36v2h-36ZM390 339h36v4h-36ZM389 343h37v3h-37ZM15 343h37v5h-37ZM389 346h36v2h-36ZM16 348h36v1h-36ZM388 348h37v4h-37ZM388 352h36v1h-36ZM16 349h37v5h-37ZM387 353h37v4h-37ZM17 354h37v4h-37ZM17 358h38v1h-38ZM386 357h37v4h-37ZM18 359h37v3h-37ZM385 361h38v1h-38ZM18 362h38v1h-38ZM385 362h37v2h-37ZM19 363h37v3h-37ZM384 364h38v2h-38ZM19 366h38v2h-38ZM384 366h37v2h-37ZM20 368h37v1h-37ZM383 368h38v2h-38ZM383 370h37v1h-37ZM20 369h38v3h-38ZM382 371h38v2h-38ZM21 372h38v3h-38ZM381 373h38v3h-38ZM380 376h39v1h-39ZM22 375h38v3h-38ZM22 378h39v1h-39ZM380 377h38v2h-38ZM23 379h38v1h-38ZM379 379h39v1h-39ZM379 380h38v1h-38ZM23 380h39v2h-39ZM24 382h38v1h-38ZM378 381h39v2h-39ZM24 383h39v2h-39ZM377 383h39v3h-39ZM25 385h39v2h-39ZM25 387h40v1h-40ZM376 386h39v2h-39ZM26 388h39v1h-39ZM26 389h40v1h-40ZM375 388h39v2h-39ZM27 390h39v1h-39ZM374 390h40v1h-40ZM374 391h39v1h-39ZM27 391h40v2h-40ZM373 392h40v1h-40ZM373 393h39v1h-39ZM28 393h40v2h-40ZM372 394h40v2h-40ZM29 395h40v2h-40ZM29 397h41v1h-41ZM371 396h40v2h-40ZM30 398h40v1h-40ZM370 398h40v1h-40ZM30 399h41v1h-41ZM369 399h41v1h-41ZM31 400h40v1h-40ZM369 400h40v1h-40ZM31 401h41v1h-41ZM368 401h41v1h-41ZM368 402h40v1h-40ZM32 402h41v2h-41ZM367 403h41v1h-41ZM366 404h42v1h-42ZM33 404h41v2h-41ZM366 405h41v1h-41ZM34 406h41v1h-41ZM365 406h42v1h-42ZM34 407h42v1h-42ZM365 407h41v1h-41ZM35 408h41v1h-41ZM364 408h42v1h-42ZM35 409h42v1h-42ZM363 409h42v2h-42ZM36 410h42v2h-42ZM362 411h42v1h-42ZM37 412h42v1h-42ZM361 412h43v1h-43ZM37 413h43v1h-43ZM361 413h42v1h-42ZM38 414h42v1h-42ZM360 414h42v1h-42ZM38 415h43v1h-43ZM359 415h43v1h-43ZM39 416h43v1h-43ZM39 417h44v1h-44ZM358 416h43v2h-43ZM40 418h43v1h-43ZM357 418h43v1h-43ZM40 419h44v1h-44ZM356 419h44v1h-44ZM41 420h44v1h-44ZM355 420h44v1h-44ZM355 421h43v1h-43ZM42 421h44v2h-44ZM354 422h44v1h-44ZM43 423h44v1h-44ZM353 423h44v1h-44ZM43 424h45v1h-45ZM352 424h45v1h-45ZM44 425h45v1h-45ZM351 425h45v1h-45ZM45 426h45v1h-45ZM45 427h46v1h-46ZM213 427h14v1h-14ZM350 426h45v2h-45ZM46 428h45v1h-45ZM205 428h30v1h-30ZM349 428h45v1h-45ZM47 429h45v1h-45ZM200 429h40v1h-40ZM348 429h45v1h-45ZM47 430h46v1h-46ZM196 430h49v1h-49ZM347 430h46v1h-46ZM48 431h46v1h-46ZM192 431h56v1h-56ZM346 431h46v1h-46ZM49 432h46v1h-46ZM189 432h62v1h-62ZM345 432h46v1h-46ZM49 433h47v1h-47ZM186 433h68v1h-68ZM344 433h47v1h-47ZM50 434h47v1h-47ZM184 434h72v1h-72ZM343 434h47v1h-47ZM51 435h47v1h-47ZM181 435h78v1h-78ZM342 435h47v1h-47ZM51 436h48v1h-48ZM179 436h82v1h-82ZM341 436h48v1h-48ZM52 437h48v1h-48ZM177 437h86v1h-86ZM340 437h48v1h-48ZM53 438h48v1h-48ZM175 438h90v1h-90ZM339 438h48v1h-48ZM54 439h48v1h-48ZM174 439h93v1h-93ZM338 439h48v1h-48ZM54 440h49v1h-49ZM172 440h96v1h-96ZM337 440h49v1h-49ZM55 441h49v1h-49ZM170 441h100v1h-100ZM336 441h49v1h-49ZM56 442h49v1h-49ZM169 442h103v1h-103ZM335 442h49v1h-49ZM57 443h49v1h-49ZM167 443h106v1h-106ZM334 443h49v1h-49ZM58 444h50v1h-50ZM166 444h109v1h-109ZM333 444h49v1h-49ZM58 445h51v1h-51ZM164 445h112v1h-112ZM331 445h51v1h-51ZM59 446h51v1h-51ZM163 446h114v1h-114ZM330 446h51v1h-51ZM60 447h51v1h-51ZM162 447h117v1h-117ZM329 447h51v1h-51ZM61 448h51v1h-51ZM160 448h120v1h-120ZM328 448h51v1h-51ZM62 449h52v1h-52ZM159 449h122v1h-122ZM327 449h51v1h-51ZM62 450h53v1h-53ZM158 450h124v1h-124ZM325 450h52v1h-52ZM63 451h53v1h-53ZM157 451h126v1h-126ZM324 451h53v1h-53ZM64 452h53v1h-53ZM156 452h128v1h-128ZM323 452h53v1h-53ZM65 453h54v1h-54ZM155 453h131v1h-131ZM321 453h54v1h-54ZM66 454h54v1h-54ZM154 454h133v1h-133ZM320 454h54v1h-54ZM67 455h55v1h-55ZM153 455h135v1h-135ZM319 455h54v1h-54ZM68 456h55v1h-55ZM152 456h137v1h-137ZM317 456h55v1h-55ZM69 457h56v1h-56ZM151 457h138v1h-138ZM316 457h55v1h-55ZM70 458h56v1h-56ZM150 458h140v1h-140ZM314 458h56v1h-56ZM71 459h57v1h-57ZM149 459h142v1h-142ZM313 459h56v1h-56ZM72 460h57v1h-57ZM148 460h144v1h-144ZM311 460h57v1h-57ZM73 461h58v1h-58ZM147 461h146v1h-146ZM309 461h58v1h-58ZM74 462h59v1h-59ZM146 462h148v1h-148ZM308 462h58v1h-58ZM75 463h59v1h-59ZM146 463h71v1h-71ZM223 463h72v1h-72ZM306 463h59v1h-59ZM76 464h60v1h-60ZM145 464h64v1h-64ZM231 464h64v1h-64ZM304 464h60v1h-60ZM77 465h61v1h-61ZM144 465h61v1h-61ZM235 465h61v1h-61ZM303 465h60v1h-60ZM78 466h62v1h-62ZM143 466h58v1h-58ZM239 466h58v1h-58ZM301 466h61v1h-61ZM79 467h63v1h-63ZM143 467h56v1h-56ZM241 467h57v1h-57ZM299 467h62v1h-62ZM80 468h116v1h-116ZM244 468h116v1h-116ZM81 469h113v1h-113ZM246 469h113v1h-113ZM82 470h110v1h-110ZM248 470h110v1h-110ZM83 471h107v1h-107ZM250 471h107v1h-107ZM84 472h105v1h-105ZM251 472h104v1h-104ZM86 473h101v1h-101ZM253 473h101v1h-101ZM87 474h99v1h-99ZM254 474h99v1h-99ZM88 475h96v1h-96ZM256 475h96v1h-96ZM89 476h94v1h-94ZM257 476h94v1h-94ZM91 477h91v1h-91ZM258 477h91v1h-91ZM92 478h89v1h-89ZM259 478h89v1h-89ZM93 479h87v1h-87ZM260 479h87v1h-87ZM94 480h85v1h-85ZM261 480h85v1h-85ZM96 481h82v1h-82ZM262 481h82v1h-82ZM97 482h80v1h-80ZM263 482h80v1h-80ZM98 483h78v1h-78ZM264 483h78v1h-78ZM100 484h75v1h-75ZM265 484h75v1h-75ZM101 485h73v1h-73ZM266 485h73v1h-73ZM103 486h71v1h-71ZM267 486h70v1h-70ZM104 487h69v1h-69ZM267 487h69v1h-69ZM106 488h66v1h-66ZM268 488h66v1h-66ZM107 489h64v1h-64ZM269 489h64v1h-64ZM109 490h62v1h-62ZM269 490h62v1h-62ZM110 491h60v1h-60ZM270 491h60v1h-60ZM112 492h58v1h-58ZM271 492h57v1h-57ZM114 493h55v1h-55ZM271 493h55v1h-55ZM115 494h53v1h-53ZM272 494h53v1h-53ZM117 495h51v1h-51ZM272 495h51v1h-51ZM119 496h48v1h-48ZM273 496h48v1h-48ZM121 497h46v1h-46ZM273 497h46v1h-46ZM123 498h43v1h-43ZM274 498h44v1h-44ZM125 499h41v1h-41ZM274 499h42v1h-42ZM127 500h38v1h-38ZM275 500h39v1h-39ZM129 501h36v1h-36ZM275 501h37v1h-37ZM131 502h33v1h-33ZM276 502h34v1h-34ZM133 503h30v1h-30ZM277 503h31v1h-31ZM135 504h27v1h-27ZM278 504h27v1h-27ZM137 505h24v1h-24ZM279 505h24v1h-24ZM140 506h19v1h-19ZM281 506h20v1h-20ZM142 507h16v1h-16ZM282 507h16v1h-16ZM145 508h10v1h-10ZM285 508h11v1h-11Z"/></svg>
