<svg xmlns="http://www.w3.org/2000/svg" width="580" height="530" viewBox="0 0 580 530"><path fill="#4e1601" d="M387 12h19v2h-19ZM386 14h21v1h-21ZM385 15h22v1h-22ZM384 16h23v1h-23ZM383 17h25v2h-25ZM382 19h27v1h-27ZM381 20h28v1h-28ZM380 21h30v1h-30ZM379 22h31v1h-31ZM378 23h32v1h-32ZM378 24h33v1h-33ZM377 25h34v1h-34ZM376 26h36v1h-36ZM375 27h37v1h-37ZM374 28h38v1h-38ZM374 29h39v1h-39ZM373 30h40v1h-40ZM372 31h42v1h-42ZM371 32h43v1h-43ZM370 33h45v2h-45ZM369 35h46v1h-46ZM368 36h48v1h-48ZM367 37h49v1h-49ZM366 38h51v1h-51ZM365 39h52v2h-52ZM364 41h54v1h-54ZM363 42h55v1h-55ZM362 43h57v1h-57ZM361 44h58v1h-58ZM361 45h59v1h-59ZM360 46h60v1h-60ZM359 47h61v1h-61ZM358 48h63v1h-63ZM357 49h64v1h-64ZM356 50h66v2h-66ZM355 52h67v1h-67ZM354 53h69v1h-69ZM353 54h70v1h-70ZM352 55h72v2h-72ZM351 57h74v1h-74ZM350 58h75v1h-75ZM349 59h76v1h-76ZM348 60h78v2h-78ZM347 62h80v1h-80ZM346 63h81v1h-81ZM345 64h82v1h-82ZM344 65h84v1h-84ZM343 66h85v1h-85ZM343 67h86v1h-86ZM342 68h87v1h-87ZM341 69h89v1h-89ZM340 70h90v1h-90ZM339 71h91v1h-91ZM339 72h92v1h-92ZM338 73h93v1h-93ZM337 74h95v1h-95ZM336 75h96v1h-96ZM335 76h97v1h-97ZM334 77h99v2h-99ZM333 79h101v1h-101ZM332 80h102v1h-102ZM331 81h104v1h-104ZM330 82h105v2h-105ZM329 84h107v1h-107ZM328 85h108v1h-108ZM327 86h110v1h-110ZM326 87h111v1h-111ZM325 88h112v1h-112ZM325 89h113v1h-113ZM324 90h114v1h-114ZM323 91h116v1h-116ZM322 92h117v1h-117ZM321 93h119v2h-119ZM320 95h120v1h-120ZM319 96h122v1h-122ZM318 97h123v1h-123ZM317 98h125v2h-125ZM316 100h126v1h-126ZM315 101h128v1h-128ZM314 102h129v1h-129ZM313 103h131v1h-131ZM312 104h132v1h-132ZM312 105h133v1h-133ZM311 106h134v1h-134ZM310 107h135v1h-135ZM309 108h137v1h-137ZM308 109h138v1h-138ZM308 110h139v1h-139ZM307 111h140v1h-140ZM306 112h142v1h-142ZM305 113h143v1h-143ZM304 114h144v1h-144ZM303 115h146v2h-146ZM302 117h148v1h-148ZM301 118h149v1h-149ZM300 119h150v1h-150ZM299 120h152v1h-152ZM299 121h82v1h-82ZM382 121h69v1h-69ZM298 122h82v1h-82ZM297 123h82v1h-82ZM382 122h70v2h-70ZM296 124h82v1h-82ZM383 124h70v2h-70ZM295 125h82v2h-82ZM384 126h69v1h-69ZM294 127h82v1h-82ZM384 127h70v1h-70ZM293 128h82v1h-82ZM385 128h69v1h-69ZM292 129h82v1h-82ZM291 130h82v1h-82ZM385 129h70v2h-70ZM290 131h83v1h-83ZM386 131h69v1h-69ZM290 132h82v1h-82ZM386 132h70v1h-70ZM289 133h82v1h-82ZM387 133h69v1h-69ZM288 134h82v1h-82ZM387 134h70v1h-70ZM287 135h82v1h-82ZM388 135h69v1h-69ZM286 136h82v2h-82ZM388 136h70v2h-70ZM285 138h82v1h-82ZM389 138h69v1h-69ZM284 139h82v1h-82ZM389 139h70v1h-70ZM283 140h82v1h-82ZM390 140h69v1h-69ZM282 141h82v1h-82ZM281 142h83v1h-83ZM390 141h70v2h-70ZM281 143h82v1h-82ZM391 143h69v1h-69ZM280 144h82v1h-82ZM391 144h70v1h-70ZM279 145h82v1h-82ZM392 145h69v1h-69ZM278 146h82v1h-82ZM392 146h70v1h-70ZM277 147h83v1h-83ZM393 147h69v1h-69ZM277 148h82v1h-82ZM276 149h82v1h-82ZM393 148h70v2h-70ZM275 150h82v1h-82ZM394 150h69v1h-69ZM274 151h82v1h-82ZM394 151h70v1h-70ZM395 152h69v1h-69ZM273 152h82v2h-82ZM395 153h70v1h-70ZM272 154h82v1h-82ZM271 155h82v1h-82ZM396 154h69v2h-69ZM270 156h82v1h-82ZM396 156h70v1h-70ZM269 157h82v1h-82ZM397 157h69v1h-69ZM268 158h83v1h-83ZM397 158h70v1h-70ZM268 159h82v1h-82ZM398 159h69v1h-69ZM267 160h82v1h-82ZM266 161h82v1h-82ZM398 160h70v2h-70ZM265 162h82v1h-82ZM399 162h69v1h-69ZM264 163h83v1h-83ZM399 163h70v1h-70ZM264 164h82v1h-82ZM400 164h69v1h-69ZM263 165h82v1h-82ZM400 165h70v1h-70ZM134 166h1v1h-1ZM262 166h82v1h-82ZM261 167h82v1h-82ZM401 166h69v2h-69ZM133 167h3v2h-3ZM260 168h83v1h-83ZM401 168h70v1h-70ZM132 169h5v1h-5ZM259 169h83v1h-83ZM402 169h69v1h-69ZM132 170h6v1h-6ZM259 170h82v1h-82ZM402 170h70v1h-70ZM131 171h8v1h-8ZM258 171h82v1h-82ZM403 171h69v1h-69ZM131 172h9v1h-9ZM257 172h82v1h-82ZM403 172h70v1h-70ZM130 173h11v1h-11ZM256 173h82v1h-82ZM130 174h12v1h-12ZM255 174h83v1h-83ZM404 173h69v2h-69ZM129 175h13v1h-13ZM255 175h82v1h-82ZM404 175h70v1h-70ZM128 176h15v1h-15ZM254 176h82v1h-82ZM405 176h69v1h-69ZM128 177h16v1h-16ZM253 177h82v1h-82ZM405 177h70v1h-70ZM127 178h18v1h-18ZM252 178h82v1h-82ZM127 179h19v1h-19ZM251 179h83v1h-83ZM406 178h69v2h-69ZM126 180h21v1h-21ZM251 180h82v1h-82ZM406 180h70v1h-70ZM126 181h22v1h-22ZM250 181h82v1h-82ZM407 181h69v1h-69ZM125 182h23v1h-23ZM249 182h82v1h-82ZM407 182h70v1h-70ZM125 183h24v1h-24ZM248 183h82v1h-82ZM408 183h69v1h-69ZM124 184h26v1h-26ZM247 184h83v1h-83ZM408 184h70v1h-70ZM124 185h27v1h-27ZM246 185h83v1h-83ZM123 186h29v1h-29ZM246 186h82v1h-82ZM409 185h69v2h-69ZM123 187h30v1h-30ZM245 187h82v1h-82ZM409 187h70v1h-70ZM244 188h82v1h-82ZM410 188h69v1h-69ZM122 188h32v2h-32ZM243 189h83v1h-83ZM410 189h70v1h-70ZM121 190h34v1h-34ZM242 190h83v1h-83ZM121 191h35v1h-35ZM242 191h82v1h-82ZM411 190h69v2h-69ZM120 192h37v1h-37ZM241 192h82v1h-82ZM120 193h38v1h-38ZM240 193h82v1h-82ZM412 192h69v2h-69ZM119 194h40v1h-40ZM239 194h82v1h-82ZM412 194h70v1h-70ZM119 195h41v1h-41ZM238 195h83v1h-83ZM413 195h69v1h-69ZM118 196h42v1h-42ZM237 196h83v1h-83ZM413 196h70v1h-70ZM118 197h43v1h-43ZM237 197h82v1h-82ZM117 198h45v1h-45ZM236 198h82v1h-82ZM414 197h69v2h-69ZM116 199h47v1h-47ZM235 199h82v1h-82ZM414 199h70v1h-70ZM116 200h48v1h-48ZM234 200h83v1h-83ZM415 200h69v1h-69ZM115 201h50v1h-50ZM233 201h83v1h-83ZM415 201h70v1h-70ZM115 202h51v1h-51ZM233 202h82v1h-82ZM416 202h69v1h-69ZM114 203h52v1h-52ZM232 203h82v1h-82ZM416 203h70v1h-70ZM114 204h53v1h-53ZM231 204h82v1h-82ZM113 205h55v1h-55ZM230 205h83v1h-83ZM417 204h69v2h-69ZM113 206h56v1h-56ZM229 206h83v1h-83ZM417 206h70v1h-70ZM112 207h58v1h-58ZM228 207h83v1h-83ZM418 207h69v1h-69ZM112 208h59v1h-59ZM228 208h82v1h-82ZM418 208h70v1h-70ZM227 209h82v1h-82ZM111 209h61v2h-61ZM226 210h83v1h-83ZM419 209h69v2h-69ZM110 211h63v1h-63ZM225 211h83v1h-83ZM110 212h64v1h-64ZM224 212h83v1h-83ZM420 211h69v2h-69ZM109 213h66v1h-66ZM224 213h82v1h-82ZM420 213h70v1h-70ZM109 214h67v1h-67ZM223 214h82v1h-82ZM421 214h69v1h-69ZM108 215h69v1h-69ZM222 215h82v1h-82ZM421 215h70v1h-70ZM108 216h70v1h-70ZM221 216h83v1h-83ZM107 217h71v1h-71ZM220 217h83v1h-83ZM422 216h69v2h-69ZM107 218h72v1h-72ZM220 218h82v1h-82ZM422 218h70v1h-70ZM106 219h74v1h-74ZM219 219h82v1h-82ZM423 219h69v1h-69ZM106 220h75v1h-75ZM218 220h82v1h-82ZM423 220h70v1h-70ZM105 221h77v1h-77ZM217 221h83v1h-83ZM105 222h78v1h-78ZM216 222h83v1h-83ZM424 221h69v2h-69ZM104 223h80v1h-80ZM215 223h83v1h-83ZM103 224h81v1h-81ZM215 224h82v1h-82ZM425 223h69v2h-69ZM103 225h82v1h-82ZM214 225h82v1h-82ZM425 225h70v1h-70ZM102 226h84v1h-84ZM213 226h83v1h-83ZM426 226h69v1h-69ZM102 227h85v1h-85ZM212 227h83v1h-83ZM426 227h70v1h-70ZM101 228h87v1h-87ZM211 228h83v1h-83ZM101 229h88v1h-88ZM211 229h82v1h-82ZM427 228h69v2h-69ZM210 230h82v1h-82ZM100 230h90v2h-90ZM209 231h83v1h-83ZM428 230h69v2h-69ZM99 232h92v1h-92ZM208 232h83v1h-83ZM428 232h70v1h-70ZM99 233h93v1h-93ZM207 233h83v1h-83ZM98 234h95v1h-95ZM206 234h83v1h-83ZM429 233h69v2h-69ZM98 235h96v1h-96ZM206 235h82v1h-82ZM97 236h98v1h-98ZM205 236h82v1h-82ZM430 235h69v2h-69ZM97 237h99v1h-99ZM204 237h83v1h-83ZM430 237h70v1h-70ZM96 238h100v1h-100ZM203 238h83v1h-83ZM431 238h69v1h-69ZM96 239h101v1h-101ZM202 239h83v1h-83ZM431 239h70v1h-70ZM95 240h103v1h-103ZM202 240h82v1h-82ZM95 241h104v1h-104ZM201 241h82v1h-82ZM432 240h69v2h-69ZM94 242h189v1h-189ZM94 243h188v1h-188ZM433 242h69v2h-69ZM93 244h188v1h-188ZM433 244h70v1h-70ZM93 245h187v1h-187ZM92 246h187v1h-187ZM434 245h69v2h-69ZM91 247h188v1h-188ZM91 248h187v1h-187ZM435 247h69v2h-69ZM90 249h187v1h-187ZM90 250h186v1h-186ZM436 249h69v2h-69ZM436 251h70v1h-70ZM89 251h186v2h-186ZM88 253h186v1h-186ZM437 252h69v2h-69ZM88 254h185v1h-185ZM87 255h185v1h-185ZM438 254h69v2h-69ZM87 256h184v1h-184ZM438 256h70v1h-70ZM86 257h184v2h-184ZM439 257h69v2h-69ZM85 259h184v1h-184ZM85 260h183v1h-183ZM440 259h69v2h-69ZM84 261h183v1h-183ZM84 262h182v1h-182ZM441 261h69v2h-69ZM83 263h183v1h-183ZM441 263h70v1h-70ZM83 264h182v1h-182ZM82 265h182v1h-182ZM442 264h69v2h-69ZM82 266h181v1h-181ZM443 266h69v2h-69ZM81 267h181v2h-181ZM80 269h181v1h-181ZM80 270h180v1h-180ZM444 268h69v3h-69ZM79 271h180v1h-180ZM445 271h69v2h-69ZM78 272h180v2h-180ZM77 274h180v1h-180ZM446 273h69v2h-69ZM77 275h179v1h-179ZM446 275h70v1h-70ZM76 276h179v1h-179ZM76 277h178v1h-178ZM447 276h69v2h-69ZM75 278h178v1h-178ZM75 279h74v1h-74ZM150 279h103v1h-103ZM448 278h69v2h-69ZM151 280h101v1h-101ZM74 280h74v2h-74ZM152 281h99v1h-99ZM153 282h97v1h-97ZM449 280h69v3h-69ZM73 282h74v2h-74ZM154 283h95v1h-95ZM155 284h94v1h-94ZM450 283h69v2h-69ZM72 284h74v2h-74ZM155 285h93v1h-93ZM156 286h91v1h-91ZM451 285h69v2h-69ZM71 286h74v2h-74ZM157 287h89v1h-89ZM158 288h87v1h-87ZM70 288h74v2h-74ZM159 289h86v1h-86ZM452 287h69v3h-69ZM160 290h84v1h-84ZM69 290h74v2h-74ZM160 291h83v1h-83ZM453 290h69v2h-69ZM161 292h81v1h-81ZM68 292h74v2h-74ZM162 293h81v1h-81ZM67 294h74v1h-74ZM163 294h81v1h-81ZM454 292h69v3h-69ZM66 295h75v1h-75ZM164 295h81v1h-81ZM66 296h74v1h-74ZM165 296h81v1h-81ZM455 295h69v2h-69ZM65 297h75v1h-75ZM65 298h74v1h-74ZM166 297h81v2h-81ZM456 297h69v2h-69ZM64 299h75v1h-75ZM167 299h81v1h-81ZM64 300h74v1h-74ZM168 300h81v1h-81ZM169 301h81v1h-81ZM457 299h69v3h-69ZM63 301h74v2h-74ZM170 302h81v1h-81ZM171 303h81v1h-81ZM458 302h69v2h-69ZM62 303h74v2h-74ZM172 304h81v2h-81ZM459 304h69v2h-69ZM61 305h74v2h-74ZM173 306h81v1h-81ZM174 307h81v1h-81ZM60 307h74v2h-74ZM175 308h81v1h-81ZM460 306h69v3h-69ZM176 309h81v1h-81ZM59 309h74v2h-74ZM177 310h81v1h-81ZM461 309h69v2h-69ZM58 311h74v2h-74ZM178 311h81v2h-81ZM179 313h81v1h-81ZM462 311h69v3h-69ZM57 313h74v2h-74ZM180 314h81v1h-81ZM181 315h81v1h-81ZM463 314h69v2h-69ZM56 315h74v2h-74ZM182 316h81v1h-81ZM183 317h81v1h-81ZM464 316h69v2h-69ZM55 317h74v2h-74ZM54 319h74v1h-74ZM184 318h81v2h-81ZM53 320h75v1h-75ZM185 320h81v1h-81ZM465 318h69v3h-69ZM53 321h74v1h-74ZM186 321h81v1h-81ZM52 322h75v1h-75ZM187 322h81v1h-81ZM466 321h69v2h-69ZM52 323h74v1h-74ZM188 323h81v1h-81ZM51 324h75v1h-75ZM189 324h81v1h-81ZM467 323h69v2h-69ZM51 325h74v1h-74ZM468 325h68v1h-68ZM50 326h75v1h-75ZM190 325h81v2h-81ZM50 327h74v1h-74ZM191 327h81v1h-81ZM468 326h69v2h-69ZM49 328h75v1h-75ZM192 328h81v1h-81ZM49 329h74v1h-74ZM193 329h81v1h-81ZM469 328h69v2h-69ZM194 330h81v1h-81ZM48 330h74v2h-74ZM195 331h81v1h-81ZM196 332h80v1h-80ZM470 330h69v3h-69ZM47 332h74v2h-74ZM196 333h81v1h-81ZM197 334h81v1h-81ZM471 333h69v2h-69ZM46 334h74v2h-74ZM198 335h81v1h-81ZM199 336h81v1h-81ZM472 335h69v2h-69ZM45 336h74v2h-74ZM200 337h81v1h-81ZM473 337h68v1h-68ZM44 338h74v2h-74ZM201 338h81v2h-81ZM473 338h69v2h-69ZM202 340h81v1h-81ZM43 340h74v2h-74ZM203 341h81v1h-81ZM474 340h69v2h-69ZM42 342h74v1h-74ZM204 342h81v1h-81ZM41 343h75v1h-75ZM205 343h81v1h-81ZM475 342h69v2h-69ZM41 344h74v1h-74ZM206 344h81v1h-81ZM476 344h68v1h-68ZM40 345h75v1h-75ZM40 346h74v1h-74ZM207 345h81v2h-81ZM476 345h69v2h-69ZM39 347h75v1h-75ZM208 347h81v1h-81ZM39 348h74v1h-74ZM209 348h81v1h-81ZM477 347h69v2h-69ZM38 349h75v1h-75ZM210 349h81v1h-81ZM478 349h68v1h-68ZM38 350h74v1h-74ZM211 350h81v1h-81ZM37 351h75v1h-75ZM212 351h81v1h-81ZM478 350h69v2h-69ZM37 352h74v1h-74ZM36 353h75v1h-75ZM213 352h81v2h-81ZM479 352h69v2h-69ZM36 354h74v1h-74ZM214 354h81v1h-81ZM35 355h75v1h-75ZM215 355h81v1h-81ZM480 354h69v2h-69ZM35 356h74v1h-74ZM216 356h81v1h-81ZM481 356h68v1h-68ZM34 357h75v1h-75ZM217 357h81v1h-81ZM34 358h74v1h-74ZM218 358h81v1h-81ZM481 357h69v2h-69ZM33 359h74v2h-74ZM219 359h81v2h-81ZM482 359h69v2h-69ZM220 361h81v1h-81ZM483 361h68v1h-68ZM32 361h74v2h-74ZM221 362h81v1h-81ZM483 362h69v1h-69ZM222 363h81v1h-81ZM484 363h68v1h-68ZM31 363h74v2h-74ZM223 364h81v1h-81ZM30 365h74v1h-74ZM224 365h81v1h-81ZM484 364h69v2h-69ZM29 366h75v1h-75ZM29 367h74v1h-74ZM225 366h81v2h-81ZM485 366h69v2h-69ZM28 368h75v1h-75ZM226 368h81v1h-81ZM486 368h68v1h-68ZM28 369h74v1h-74ZM227 369h81v1h-81ZM27 370h75v1h-75ZM228 370h81v1h-81ZM486 369h69v2h-69ZM27 371h74v1h-74ZM229 371h81v1h-81ZM26 372h75v1h-75ZM230 372h81v1h-81ZM487 371h69v2h-69ZM26 373h74v1h-74ZM231 373h80v1h-80ZM488 373h68v1h-68ZM25 374h75v1h-75ZM231 374h81v1h-81ZM488 374h69v1h-69ZM25 375h74v1h-74ZM232 375h81v1h-81ZM489 375h68v1h-68ZM24 376h75v1h-75ZM233 376h81v1h-81ZM24 377h74v1h-74ZM234 377h81v1h-81ZM489 376h69v2h-69ZM23 378h75v1h-75ZM235 378h81v1h-81ZM23 379h74v1h-74ZM236 379h81v1h-81ZM490 378h69v2h-69ZM22 380h75v1h-75ZM237 380h80v1h-80ZM491 380h68v1h-68ZM22 381h74v1h-74ZM237 381h81v1h-81ZM491 381h69v1h-69ZM21 382h75v1h-75ZM238 382h81v1h-81ZM492 382h68v1h-68ZM21 383h74v1h-74ZM239 383h81v1h-81ZM20 384h75v1h-75ZM240 384h81v1h-81ZM492 383h69v2h-69ZM20 385h74v1h-74ZM241 385h81v1h-81ZM493 385h68v1h-68ZM19 386h75v1h-75ZM493 386h69v1h-69ZM19 387h74v1h-74ZM242 386h81v2h-81ZM494 387h68v1h-68ZM243 388h81v1h-81ZM494 388h69v1h-69ZM18 388h74v2h-74ZM244 389h81v1h-81ZM495 389h68v1h-68ZM17 390h74v1h-74ZM245 390h81v1h-81ZM16 391h75v1h-75ZM246 391h81v1h-81ZM495 390h69v2h-69ZM16 392h74v1h-74ZM247 392h81v1h-81ZM496 392h68v1h-68ZM15 393h75v1h-75ZM496 393h69v1h-69ZM15 394h74v1h-74ZM248 393h81v2h-81ZM497 394h68v1h-68ZM14 395h75v1h-75ZM249 395h81v1h-81ZM14 396h74v1h-74ZM250 396h81v1h-81ZM497 395h69v2h-69ZM13 397h75v1h-75ZM251 397h81v1h-81ZM13 398h74v1h-74ZM252 398h81v1h-81ZM498 397h69v2h-69ZM12 399h75v1h-75ZM253 399h81v1h-81ZM499 399h68v1h-68ZM499 400h69v1h-69ZM12 400h74v2h-74ZM254 400h81v2h-81ZM255 402h81v1h-81ZM12 402h73v2h-73ZM256 403h81v1h-81ZM500 401h68v3h-68ZM257 404h81v1h-81ZM12 404h72v2h-72ZM258 405h81v1h-81ZM501 404h67v2h-67ZM259 406h81v1h-81ZM12 406h71v2h-71ZM502 406h66v2h-66ZM260 407h81v2h-81ZM12 408h70v2h-70ZM261 409h81v1h-81ZM262 410h81v1h-81ZM503 408h65v3h-65ZM12 410h69v2h-69ZM263 411h81v1h-81ZM264 412h81v1h-81ZM504 411h64v2h-64ZM12 412h68v2h-68ZM265 413h81v1h-81ZM266 414h80v1h-80ZM12 414h67v2h-67ZM266 415h81v1h-81ZM505 413h63v3h-63ZM12 416h66v1h-66ZM267 416h81v1h-81ZM268 417h81v1h-81ZM506 416h62v2h-62ZM12 417h65v2h-65ZM269 418h81v1h-81ZM12 419h64v1h-64ZM270 419h81v1h-81ZM507 418h61v2h-61ZM39 459h502v59h-502Z"/></svg>
