<svg xmlns="http://www.w3.org/2000/svg" width="546" height="545" viewBox="0 0 546 545"><path fill="#4e1601" d="M66 12h14v1h-14ZM465 12h14v1h-14ZM61 13h23v1h-23ZM461 13h23v1h-23ZM58 14h29v1h-29ZM458 14h30v1h-30ZM55 15h36v1h-36ZM454 15h36v1h-36ZM52 16h43v1h-43ZM450 16h43v1h-43ZM50 17h48v1h-48ZM447 17h48v1h-48ZM48 18h54v1h-54ZM443 18h54v1h-54ZM46 19h60v1h-60ZM439 19h60v1h-60ZM44 20h65v1h-65ZM436 20h65v1h-65ZM42 21h71v1h-71ZM432 21h71v1h-71ZM41 22h76v1h-76ZM428 22h76v1h-76ZM39 23h81v1h-81ZM425 23h81v1h-81ZM38 24h86v1h-86ZM421 24h86v1h-86ZM37 25h90v1h-90ZM417 25h91v1h-91ZM35 26h96v1h-96ZM414 26h96v1h-96ZM34 27h101v1h-101ZM410 27h101v1h-101ZM33 28h105v1h-105ZM406 28h106v1h-106ZM32 29h110v1h-110ZM403 29h110v1h-110ZM31 30h115v1h-115ZM399 30h115v1h-115ZM30 31h119v1h-119ZM395 31h120v1h-120ZM29 32h124v1h-124ZM392 32h124v1h-124ZM28 33h129v1h-129ZM388 33h129v1h-129ZM27 34h133v1h-133ZM384 34h134v1h-134ZM26 35h138v1h-138ZM381 35h138v1h-138ZM26 36h142v1h-142ZM377 36h142v1h-142ZM25 37h146v1h-146ZM373 37h147v1h-147ZM24 38h151v1h-151ZM370 38h151v1h-151ZM23 39h156v1h-156ZM366 39h156v1h-156ZM23 40h159v1h-159ZM362 40h160v1h-160ZM22 41h164v1h-164ZM358 41h165v1h-165ZM21 42h169v1h-169ZM355 42h169v1h-169ZM21 43h172v1h-172ZM351 43h173v1h-173ZM20 44h55v1h-55ZM77 44h120v1h-120ZM347 44h121v1h-121ZM470 44h55v1h-55ZM20 45h49v1h-49ZM81 45h120v1h-120ZM344 45h120v1h-120ZM476 45h49v1h-49ZM19 46h47v1h-47ZM85 46h119v1h-119ZM340 46h121v1h-121ZM480 46h46v1h-46ZM19 47h44v1h-44ZM88 47h120v1h-120ZM336 47h121v1h-121ZM482 47h44v1h-44ZM18 48h43v1h-43ZM92 48h120v1h-120ZM333 48h120v1h-120ZM484 48h43v1h-43ZM18 49h42v1h-42ZM96 49h119v1h-119ZM329 49h121v1h-121ZM486 49h41v1h-41ZM17 50h41v1h-41ZM99 50h120v1h-120ZM325 50h121v1h-121ZM487 50h41v1h-41ZM17 51h40v1h-40ZM103 51h120v1h-120ZM321 51h121v1h-121ZM489 51h39v1h-39ZM16 52h40v1h-40ZM107 52h120v1h-120ZM318 52h121v1h-121ZM490 52h39v1h-39ZM16 53h39v1h-39ZM110 53h120v1h-120ZM314 53h121v1h-121ZM491 53h38v1h-38ZM16 54h38v1h-38ZM114 54h120v1h-120ZM310 54h121v1h-121ZM492 54h38v1h-38ZM15 55h38v1h-38ZM118 55h120v1h-120ZM306 55h122v1h-122ZM493 55h37v1h-37ZM15 56h37v1h-37ZM121 56h120v1h-120ZM303 56h121v1h-121ZM494 56h36v1h-36ZM15 57h36v1h-36ZM125 57h120v1h-120ZM299 57h121v1h-121ZM494 57h37v1h-37ZM129 58h120v1h-120ZM295 58h122v1h-122ZM495 58h36v1h-36ZM14 58h36v2h-36ZM132 59h120v1h-120ZM292 59h121v1h-121ZM14 60h35v1h-35ZM136 60h129v1h-129ZM286 60h123v1h-123ZM496 59h35v2h-35ZM14 61h34v1h-34ZM140 61h265v1h-265ZM497 61h35v1h-35ZM13 62h35v1h-35ZM143 62h259v1h-259ZM147 63h251v1h-251ZM151 64h243v1h-243ZM498 62h34v3h-34ZM13 63h34v3h-34ZM154 65h237v1h-237ZM499 65h33v1h-33ZM13 66h33v1h-33ZM158 66h229v1h-229ZM499 66h34v1h-34ZM162 67h221v1h-221ZM12 67h34v2h-34ZM165 68h215v1h-215ZM169 69h207v1h-207ZM173 70h199v1h-199ZM176 71h193v1h-193ZM500 67h33v5h-33ZM180 72h185v1h-185ZM184 73h177v1h-177ZM187 74h171v1h-171ZM191 75h163v1h-163ZM195 76h155v1h-155ZM501 72h32v5h-32ZM199 77h148v1h-148ZM202 78h141v1h-141ZM206 79h133v1h-133ZM210 80h126v1h-126ZM213 81h119v1h-119ZM217 82h111v1h-111ZM221 83h104v1h-104ZM224 84h97v1h-97ZM228 85h89v1h-89ZM232 86h82v1h-82ZM235 87h75v1h-75ZM239 88h67v1h-67ZM243 89h60v1h-60ZM246 90h53v1h-53ZM250 91h45v1h-45ZM254 92h38v1h-38ZM439 115h13v1h-13ZM435 116h20v1h-20ZM431 117h26v1h-26ZM427 118h32v1h-32ZM423 119h37v1h-37ZM419 120h42v1h-42ZM415 121h48v1h-48ZM411 122h53v1h-53ZM407 123h58v1h-58ZM403 124h62v1h-62ZM399 125h67v1h-67ZM395 126h72v1h-72ZM391 127h77v1h-77ZM387 128h81v1h-81ZM384 129h85v1h-85ZM380 130h89v1h-89ZM376 131h93v1h-93ZM372 132h98v1h-98ZM368 133h102v1h-102ZM364 134h106v1h-106ZM360 135h111v1h-111ZM356 136h115v1h-115ZM352 137h119v1h-119ZM348 138h123v1h-123ZM344 139h127v1h-127ZM340 140h131v1h-131ZM338 141h133v1h-133ZM336 142h135v1h-135ZM334 143h137v1h-137ZM332 144h139v1h-139ZM331 145h140v1h-140ZM330 146h141v1h-141ZM329 147h141v1h-141ZM328 148h142v1h-142ZM327 149h143v1h-143ZM327 150h142v1h-142ZM326 151h143v1h-143ZM325 152h143v2h-143ZM324 154h143v2h-143ZM323 156h143v1h-143ZM323 157h142v1h-142ZM323 158h141v1h-141ZM323 159h140v1h-140ZM322 160h140v1h-140ZM322 161h139v1h-139ZM322 162h137v1h-137ZM322 163h136v1h-136ZM322 164h133v1h-133ZM322 165h131v1h-131ZM322 166h127v1h-127ZM322 167h123v1h-123ZM322 168h119v1h-119ZM322 169h115v1h-115ZM322 170h111v1h-111ZM323 171h106v1h-106ZM323 172h102v1h-102ZM323 173h98v1h-98ZM324 174h94v1h-94ZM324 175h90v1h-90ZM324 176h86v1h-86ZM325 177h81v1h-81ZM326 178h76v1h-76ZM326 179h72v1h-72ZM327 180h67v1h-67ZM328 181h62v1h-62ZM328 182h58v1h-58ZM329 183h53v1h-53ZM330 184h48v1h-48ZM332 185h42v1h-42ZM333 186h37v1h-37ZM334 187h32v1h-32ZM336 188h26v1h-26ZM339 189h19v1h-19ZM342 190h12v1h-12ZM444 216h3v1h-3ZM438 217h14v1h-14ZM434 218h21v1h-21ZM430 219h27v1h-27ZM426 220h33v1h-33ZM422 221h39v1h-39ZM418 222h44v1h-44ZM414 223h49v1h-49ZM410 224h54v1h-54ZM406 225h59v1h-59ZM402 226h64v1h-64ZM398 227h68v1h-68ZM394 228h73v1h-73ZM391 229h77v1h-77ZM387 230h81v1h-81ZM383 231h86v1h-86ZM379 232h90v1h-90ZM375 233h95v1h-95ZM371 234h99v1h-99ZM367 235h103v1h-103ZM363 236h107v1h-107ZM359 237h112v1h-112ZM355 238h116v1h-116ZM351 239h120v1h-120ZM347 240h124v1h-124ZM343 241h128v1h-128ZM340 242h131v1h-131ZM337 243h134v1h-134ZM335 244h136v1h-136ZM333 245h138v1h-138ZM332 246h139v1h-139ZM331 247h140v1h-140ZM330 248h141v1h-141ZM329 249h141v1h-141ZM328 250h142v1h-142ZM327 251h143v1h-143ZM326 252h143v2h-143ZM325 254h143v2h-143ZM324 256h143v1h-143ZM324 257h142v1h-142ZM323 258h143v1h-143ZM323 259h142v1h-142ZM323 260h141v1h-141ZM323 261h140v1h-140ZM322 262h140v1h-140ZM322 263h138v1h-138ZM322 264h137v1h-137ZM322 265h135v1h-135ZM322 266h133v1h-133ZM322 267h130v1h-130ZM322 268h126v1h-126ZM322 269h122v1h-122ZM322 270h118v1h-118ZM322 271h114v1h-114ZM322 272h110v1h-110ZM323 273h105v1h-105ZM323 274h102v1h-102ZM323 275h98v1h-98ZM324 276h93v1h-93ZM324 277h89v1h-89ZM325 278h84v1h-84ZM325 279h80v1h-80ZM326 280h75v1h-75ZM326 281h71v1h-71ZM327 282h66v1h-66ZM328 283h61v1h-61ZM329 284h56v1h-56ZM330 285h51v1h-51ZM331 286h46v1h-46ZM332 287h41v1h-41ZM333 288h36v1h-36ZM335 289h30v1h-30ZM337 290h25v1h-25ZM339 291h19v1h-19ZM342 292h11v1h-11ZM501 77h33v342h-33ZM501 419h32v5h-32ZM12 69h33v358h-33ZM500 424h33v4h-33ZM12 427h34v2h-34ZM13 429h33v1h-33ZM499 428h34v2h-34ZM499 430h33v1h-33ZM13 430h34v2h-34ZM498 431h34v2h-34ZM13 432h35v2h-35ZM497 433h35v1h-35ZM14 434h35v2h-35ZM496 434h35v2h-35ZM14 436h36v1h-36ZM495 436h36v1h-36ZM15 437h36v1h-36ZM494 437h37v1h-37ZM15 438h37v1h-37ZM493 438h37v1h-37ZM15 439h38v1h-38ZM492 439h38v1h-38ZM16 440h38v1h-38ZM491 440h38v1h-38ZM16 441h39v1h-39ZM490 441h39v1h-39ZM17 442h39v1h-39ZM488 442h41v1h-41ZM17 443h40v1h-40ZM487 443h41v1h-41ZM18 444h41v1h-41ZM485 444h43v1h-43ZM18 445h43v1h-43ZM484 445h43v1h-43ZM19 446h43v1h-43ZM482 446h44v1h-44ZM19 447h45v1h-45ZM480 447h46v1h-46ZM20 448h47v1h-47ZM477 448h48v1h-48ZM21 449h48v1h-48ZM475 449h50v1h-50ZM21 450h51v1h-51ZM472 450h52v1h-52ZM22 451h53v1h-53ZM469 451h54v1h-54ZM23 452h56v1h-56ZM466 452h57v1h-57ZM24 453h58v1h-58ZM462 453h60v1h-60ZM25 454h61v1h-61ZM458 454h63v1h-63ZM25 455h64v1h-64ZM455 455h65v1h-65ZM26 456h67v1h-67ZM451 456h68v1h-68ZM27 457h70v1h-70ZM448 457h70v1h-70ZM28 458h72v1h-72ZM444 458h73v1h-73ZM29 459h75v1h-75ZM440 459h76v1h-76ZM31 460h77v1h-77ZM437 460h78v1h-78ZM32 461h79v1h-79ZM433 461h81v1h-81ZM33 462h82v1h-82ZM429 462h84v1h-84ZM34 463h85v1h-85ZM426 463h86v1h-86ZM35 464h87v1h-87ZM422 464h89v1h-89ZM37 465h89v1h-89ZM418 465h92v1h-92ZM38 466h91v1h-91ZM415 466h93v1h-93ZM40 467h93v1h-93ZM411 467h96v1h-96ZM41 468h96v1h-96ZM407 468h98v1h-98ZM43 469h97v1h-97ZM404 469h100v1h-100ZM44 470h100v1h-100ZM400 470h102v1h-102ZM46 471h102v1h-102ZM396 471h105v1h-105ZM48 472h103v1h-103ZM393 472h106v1h-106ZM50 473h105v1h-105ZM389 473h108v1h-108ZM52 474h107v1h-107ZM385 474h110v1h-110ZM54 475h109v1h-109ZM382 475h111v1h-111ZM56 476h110v1h-110ZM378 476h113v1h-113ZM58 477h112v1h-112ZM374 477h115v1h-115ZM61 478h113v1h-113ZM370 478h117v1h-117ZM63 479h114v1h-114ZM367 479h117v1h-117ZM65 480h116v1h-116ZM363 480h118v1h-118ZM68 481h117v1h-117ZM359 481h120v1h-120ZM71 482h117v1h-117ZM356 482h120v1h-120ZM74 483h118v1h-118ZM352 483h120v1h-120ZM77 484h119v1h-119ZM348 484h121v1h-121ZM80 485h119v1h-119ZM344 485h121v1h-121ZM84 486h119v1h-119ZM341 486h120v1h-120ZM88 487h119v1h-119ZM337 487h121v1h-121ZM91 488h119v1h-119ZM333 488h121v1h-121ZM95 489h119v1h-119ZM330 489h120v1h-120ZM98 490h120v1h-120ZM326 490h121v1h-121ZM102 491h120v1h-120ZM322 491h121v1h-121ZM106 492h119v1h-119ZM318 492h122v1h-122ZM109 493h120v1h-120ZM314 493h122v1h-122ZM113 494h120v1h-120ZM311 494h121v1h-121ZM117 495h119v1h-119ZM307 495h122v1h-122ZM120 496h120v1h-120ZM303 496h122v1h-122ZM124 497h120v1h-120ZM299 497h122v1h-122ZM127 498h121v1h-121ZM296 498h122v1h-122ZM131 499h120v1h-120ZM256 93h33v407h-33ZM292 499h122v1h-122ZM135 500h120v1h-120ZM256 500h154v1h-154ZM138 501h269v1h-269ZM142 502h261v1h-261ZM146 503h253v1h-253ZM149 504h247v1h-247ZM153 505h239v1h-239ZM157 506h231v1h-231ZM160 507h225v1h-225ZM164 508h217v1h-217ZM168 509h209v1h-209ZM171 510h203v1h-203ZM175 511h195v1h-195ZM179 512h187v1h-187ZM182 513h181v1h-181ZM186 514h173v1h-173ZM190 515h165v1h-165ZM193 516h159v1h-159ZM197 517h151v1h-151ZM201 518h143v1h-143ZM204 519h137v1h-137ZM208 520h129v1h-129ZM212 521h121v1h-121ZM216 522h113v1h-113ZM219 523h107v1h-107ZM223 524h99v1h-99ZM227 525h91v1h-91ZM230 526h84v1h-84ZM234 527h77v1h-77ZM238 528h69v1h-69ZM241 529h62v1h-62ZM245 530h55v1h-55ZM249 531h47v1h-47ZM252 532h40v1h-40Z"/></svg>
