<svg xmlns="http://www.w3.org/2000/svg" width="715" height="258" viewBox="0 0 715 258"><path fill="#4e1601" d="M39 12h3v1h-3ZM33 13h16v1h-16ZM668 13h12v1h-12ZM30 14h22v1h-22ZM665 14h19v1h-19ZM28 15h26v1h-26ZM662 15h24v1h-24ZM26 16h30v1h-30ZM660 16h28v1h-28ZM25 17h32v1h-32ZM659 17h31v1h-31ZM23 18h36v1h-36ZM657 18h34v1h-34ZM22 19h38v1h-38ZM656 19h37v1h-37ZM21 20h40v1h-40ZM655 20h39v1h-39ZM20 21h42v1h-42ZM654 21h41v1h-41ZM19 22h44v1h-44ZM653 22h43v1h-43ZM18 23h46v1h-46ZM652 23h45v1h-45ZM17 24h48v1h-48ZM651 24h46v1h-46ZM17 25h49v1h-49ZM650 25h48v1h-48ZM16 26h51v1h-51ZM649 26h50v1h-50ZM16 27h52v1h-52ZM648 27h51v1h-51ZM15 28h54v1h-54ZM647 28h53v1h-53ZM15 29h55v1h-55ZM646 29h54v1h-54ZM14 30h57v1h-57ZM645 30h56v1h-56ZM14 31h58v1h-58ZM644 31h57v1h-57ZM13 32h60v1h-60ZM643 32h59v1h-59ZM13 33h61v1h-61ZM642 33h60v1h-60ZM13 34h62v1h-62ZM641 34h61v1h-61ZM13 35h63v1h-63ZM640 35h63v1h-63ZM12 36h65v1h-65ZM639 36h64v1h-64ZM12 37h66v1h-66ZM638 37h65v1h-65ZM12 38h67v1h-67ZM637 38h66v1h-66ZM12 39h68v1h-68ZM636 39h67v1h-67ZM12 40h69v1h-69ZM634 40h69v1h-69ZM12 41h70v1h-70ZM633 41h70v1h-70ZM12 42h72v1h-72ZM632 42h71v1h-71ZM12 43h73v1h-73ZM631 43h72v1h-72ZM12 44h74v1h-74ZM630 44h73v1h-73ZM12 45h76v1h-76ZM628 45h75v1h-75ZM12 46h77v1h-77ZM627 46h76v1h-76ZM13 47h78v1h-78ZM625 47h78v1h-78ZM13 48h80v1h-80ZM623 48h80v1h-80ZM13 49h82v1h-82ZM621 49h81v1h-81ZM13 50h84v1h-84ZM619 50h83v1h-83ZM14 51h85v1h-85ZM617 51h85v1h-85ZM14 52h88v1h-88ZM614 52h87v1h-87ZM15 53h90v1h-90ZM611 53h90v1h-90ZM15 54h94v1h-94ZM607 54h93v1h-93ZM16 55h99v1h-99ZM600 55h100v1h-100ZM16 56h683v1h-683ZM17 57h682v1h-682ZM17 58h681v1h-681ZM18 59h679v1h-679ZM19 60h678v1h-678ZM20 61h676v1h-676ZM21 62h674v1h-674ZM22 63h672v1h-672ZM23 64h670v1h-670ZM24 65h668v1h-668ZM25 66h666v1h-666ZM26 67h664v1h-664ZM27 68h662v1h-662ZM28 69h660v1h-660ZM29 70h658v1h-658ZM30 71h656v1h-656ZM31 72h654v1h-654ZM32 73h652v1h-652ZM33 74h650v1h-650ZM34 75h648v1h-648ZM35 76h646v1h-646ZM36 77h644v1h-644ZM37 78h642v1h-642ZM38 79h640v1h-640ZM39 80h638v1h-638ZM40 81h636v1h-636ZM41 82h634v1h-634ZM42 83h632v1h-632ZM43 84h629v1h-629ZM45 85h626v1h-626ZM46 86h624v1h-624ZM47 87h622v1h-622ZM48 88h620v1h-620ZM50 89h616v1h-616ZM51 90h614v1h-614ZM52 91h612v1h-612ZM54 92h608v1h-608ZM55 93h606v1h-606ZM57 94h602v1h-602ZM58 95h600v1h-600ZM60 96h596v1h-596ZM61 97h594v1h-594ZM63 98h590v1h-590ZM65 99h586v1h-586ZM67 100h582v1h-582ZM69 101h578v1h-578ZM71 102h574v1h-574ZM73 103h570v1h-570ZM75 104h566v1h-566ZM78 105h561v1h-561ZM80 106h556v1h-556ZM83 107h550v1h-550ZM86 108h544v1h-544ZM89 109h538v1h-538ZM93 110h530v1h-530ZM97 111h522v1h-522ZM102 112h512v1h-512ZM109 113h498v1h-498ZM195 176h16v1h-16ZM192 177h23v1h-23ZM476 177h5v1h-5ZM189 178h28v1h-28ZM470 178h17v1h-17ZM187 179h32v1h-32ZM467 179h23v1h-23ZM186 180h35v1h-35ZM464 180h29v1h-29ZM184 181h39v1h-39ZM462 181h33v1h-33ZM183 182h41v1h-41ZM461 182h36v1h-36ZM181 183h44v1h-44ZM459 183h39v1h-39ZM180 184h46v1h-46ZM458 184h42v1h-42ZM179 185h48v1h-48ZM456 185h45v1h-45ZM178 186h50v1h-50ZM455 186h47v1h-47ZM177 187h52v1h-52ZM454 187h49v1h-49ZM176 188h54v1h-54ZM453 188h51v1h-51ZM176 189h55v1h-55ZM452 189h53v1h-53ZM175 190h57v1h-57ZM452 190h54v1h-54ZM174 191h58v1h-58ZM451 191h55v1h-55ZM174 192h59v1h-59ZM450 192h57v1h-57ZM173 193h60v1h-60ZM450 193h58v1h-58ZM173 194h61v1h-61ZM449 194h59v1h-59ZM172 195h62v1h-62ZM172 196h63v1h-63ZM448 195h61v2h-61ZM171 197h64v1h-64ZM447 197h63v2h-63ZM171 198h65v2h-65ZM447 199h64v1h-64ZM170 200h66v1h-66ZM446 200h65v2h-65ZM446 202h66v1h-66ZM170 201h67v3h-67ZM445 203h67v3h-67ZM169 204h68v3h-68ZM445 206h68v2h-68ZM169 207h69v7h-69ZM169 214h68v2h-68ZM444 208h69v8h-69ZM445 216h68v2h-68ZM170 216h67v3h-67ZM170 219h66v1h-66ZM445 218h67v3h-67ZM171 220h65v2h-65ZM446 221h66v1h-66ZM171 222h64v1h-64ZM446 222h65v2h-65ZM172 223h63v2h-63ZM447 224h64v1h-64ZM447 225h63v1h-63ZM173 225h61v2h-61ZM448 226h62v1h-62ZM174 227h59v1h-59ZM448 227h61v1h-61ZM174 228h58v1h-58ZM449 228h60v1h-60ZM175 229h57v1h-57ZM449 229h59v1h-59ZM176 230h55v1h-55ZM450 230h58v1h-58ZM176 231h54v1h-54ZM450 231h57v1h-57ZM177 232h52v1h-52ZM451 232h55v1h-55ZM178 233h50v1h-50ZM452 233h53v1h-53ZM179 234h48v1h-48ZM453 234h52v1h-52ZM180 235h46v1h-46ZM454 235h50v1h-50ZM181 236h44v1h-44ZM455 236h48v1h-48ZM183 237h41v1h-41ZM456 237h46v1h-46ZM184 238h38v1h-38ZM457 238h43v1h-43ZM186 239h35v1h-35ZM458 239h41v1h-41ZM188 240h31v1h-31ZM460 240h38v1h-38ZM190 241h27v1h-27ZM461 241h35v1h-35ZM192 242h22v1h-22ZM463 242h31v1h-31ZM196 243h15v1h-15ZM465 243h27v1h-27ZM468 244h21v1h-21ZM472 245h14v1h-14Z"/></svg>
