<svg xmlns="http://www.w3.org/2000/svg" width="625" height="489" viewBox="0 0 625 489"><path fill="#4e1601" d="M73 12h479v1h-479ZM62 13h501v1h-501ZM58 14h509v1h-509ZM54 15h517v1h-517ZM52 16h522v1h-522ZM49 17h527v1h-527ZM47 18h531v1h-531ZM45 19h535v1h-535ZM43 20h539v1h-539ZM41 21h543v1h-543ZM40 22h545v1h-545ZM38 23h549v1h-549ZM37 24h551v1h-551ZM36 25h554v1h-554ZM34 26h557v1h-557ZM33 27h559v1h-559ZM32 28h561v1h-561ZM31 29h563v1h-563ZM30 30h565v1h-565ZM29 31h567v1h-567ZM28 32h569v1h-569ZM27 33h571v1h-571ZM26 34h573v1h-573ZM26 35h574v1h-574ZM25 36h575v1h-575ZM24 37h577v1h-577ZM23 38h579v1h-579ZM23 39h580v1h-580ZM22 40h581v1h-581ZM21 41h583v1h-583ZM21 42h584v1h-584ZM20 43h585v1h-585ZM20 44h586v1h-586ZM19 45h587v1h-587ZM19 46h588v1h-588ZM18 47h589v1h-589ZM18 48h590v1h-590ZM17 49h591v2h-591ZM16 51h593v2h-593ZM16 53h594v1h-594ZM15 54h595v2h-595ZM15 56h596v1h-596ZM14 57h597v3h-597ZM14 60h598v1h-598ZM13 61h599v5h-599ZM13 66h600v2h-600ZM12 68h601v3h-601ZM12 71h59v1h-59ZM555 71h58v1h-58ZM12 72h57v1h-57ZM556 72h57v1h-57ZM557 73h56v1h-56ZM12 73h56v2h-56ZM133 87h4v1h-4ZM304 87h5v1h-5ZM493 87h6v1h-6ZM127 88h16v1h-16ZM214 88h14v1h-14ZM298 88h17v1h-17ZM487 88h19v1h-19ZM124 89h21v1h-21ZM211 89h21v1h-21ZM295 89h23v1h-23ZM483 89h26v1h-26ZM122 90h25v1h-25ZM209 90h25v1h-25ZM293 90h27v1h-27ZM481 90h31v1h-31ZM121 91h28v1h-28ZM207 91h29v1h-29ZM291 91h31v1h-31ZM479 91h35v1h-35ZM119 92h31v1h-31ZM205 92h33v1h-33ZM290 92h34v1h-34ZM477 92h38v1h-38ZM118 93h33v1h-33ZM204 93h35v1h-35ZM289 93h36v1h-36ZM476 93h40v1h-40ZM117 94h35v1h-35ZM203 94h37v1h-37ZM288 94h38v1h-38ZM475 94h43v1h-43ZM116 95h37v1h-37ZM202 95h39v1h-39ZM287 95h40v1h-40ZM474 95h44v1h-44ZM115 96h39v1h-39ZM201 96h41v1h-41ZM286 96h42v1h-42ZM473 96h46v1h-46ZM114 97h41v1h-41ZM200 97h43v1h-43ZM285 97h44v1h-44ZM472 97h48v1h-48ZM113 98h42v1h-42ZM199 98h45v1h-45ZM284 98h45v1h-45ZM198 99h46v1h-46ZM471 98h50v2h-50ZM112 99h44v2h-44ZM198 100h47v1h-47ZM283 99h47v2h-47ZM470 100h51v1h-51ZM197 101h48v1h-48ZM470 101h52v1h-52ZM111 101h46v2h-46ZM197 102h49v1h-49ZM282 101h49v2h-49ZM110 103h47v1h-47ZM469 102h53v2h-53ZM110 104h48v1h-48ZM196 103h50v2h-50ZM281 103h51v2h-51ZM469 104h54v1h-54ZM109 105h49v2h-49ZM280 105h52v2h-52ZM195 105h52v3h-52ZM109 107h50v2h-50ZM280 107h53v2h-53ZM194 108h54v7h-54ZM468 105h55v149h-55ZM468 254h54v2h-54ZM469 256h53v1h-53ZM469 257h52v2h-52ZM470 259h50v2h-50ZM471 261h48v1h-48ZM471 262h47v1h-47ZM472 263h46v1h-46ZM473 264h44v1h-44ZM474 265h42v1h-42ZM475 266h40v1h-40ZM476 267h38v1h-38ZM477 268h36v1h-36ZM479 269h32v1h-32ZM481 270h28v1h-28ZM484 271h23v1h-23ZM487 272h17v1h-17ZM493 273h5v1h-5ZM193 115h55v194h-55ZM194 309h54v6h-54ZM194 315h53v2h-53ZM195 317h52v2h-52ZM195 319h51v1h-51ZM196 320h50v1h-50ZM196 321h49v1h-49ZM197 322h48v1h-48ZM197 323h47v1h-47ZM198 324h46v1h-46ZM199 325h44v1h-44ZM199 326h43v1h-43ZM200 327h41v1h-41ZM201 328h40v1h-40ZM202 329h38v1h-38ZM203 330h35v1h-35ZM205 331h32v1h-32ZM206 332h30v1h-30ZM208 333h26v1h-26ZM210 334h22v1h-22ZM213 335h16v1h-16ZM217 336h8v1h-8ZM279 109h54v238h-54ZM279 347h53v3h-53ZM280 350h51v3h-51ZM281 353h49v2h-49ZM281 355h48v1h-48ZM282 356h47v1h-47ZM282 357h46v1h-46ZM283 358h44v1h-44ZM284 359h43v1h-43ZM285 360h41v1h-41ZM285 361h40v1h-40ZM286 362h38v1h-38ZM287 363h37v1h-37ZM288 364h34v1h-34ZM290 365h31v1h-31ZM291 366h29v1h-29ZM293 367h25v1h-25ZM295 368h22v1h-22ZM298 369h16v1h-16ZM302 370h8v1h-8ZM108 109h51v275h-51ZM109 384h49v3h-49ZM110 387h48v1h-48ZM110 388h47v2h-47ZM111 390h46v1h-46ZM112 391h44v2h-44ZM113 393h42v1h-42ZM114 394h41v1h-41ZM114 395h40v1h-40ZM115 396h38v1h-38ZM116 397h36v1h-36ZM117 398h34v1h-34ZM119 399h31v1h-31ZM120 400h29v1h-29ZM122 401h26v1h-26ZM124 402h22v1h-22ZM127 403h16v1h-16ZM131 404h9v1h-9ZM558 74h55v346h-55ZM12 75h55v346h-55ZM13 421h54v1h-54ZM558 420h54v2h-54ZM13 422h55v1h-55ZM557 422h55v1h-55ZM13 423h56v1h-56ZM556 423h56v1h-56ZM13 424h57v1h-57ZM555 424h57v1h-57ZM13 425h60v1h-60ZM552 425h60v1h-60ZM13 426h598v2h-598ZM14 428h597v2h-597ZM14 430h596v2h-596ZM15 432h595v1h-595ZM15 433h594v2h-594ZM16 435h593v1h-593ZM16 436h592v2h-592ZM17 438h591v1h-591ZM17 439h590v1h-590ZM18 440h589v1h-589ZM18 441h588v2h-588ZM19 443h587v1h-587ZM20 444h585v2h-585ZM21 446h583v1h-583ZM21 447h582v1h-582ZM22 448h581v1h-581ZM23 449h579v2h-579ZM24 451h577v1h-577ZM25 452h575v2h-575ZM26 454h573v1h-573ZM27 455h571v1h-571ZM28 456h569v1h-569ZM29 457h567v1h-567ZM30 458h565v1h-565ZM31 459h563v1h-563ZM32 460h561v1h-561ZM33 461h559v1h-559ZM34 462h557v1h-557ZM36 463h554v1h-554ZM37 464h552v1h-552ZM38 465h549v1h-549ZM40 466h546v1h-546ZM41 467h544v1h-544ZM43 468h540v1h-540ZM45 469h536v1h-536ZM47 470h532v1h-532ZM49 471h528v1h-528ZM51 472h524v1h-524ZM54 473h518v1h-518ZM58 474h510v1h-510ZM62 475h502v1h-502ZM71 476h483v1h-483Z"/></svg>
