<svg xmlns="http://www.w3.org/2000/svg" width="594" height="592" viewBox="0 0 594 592"><path fill="#4e1601" d="M354 12h10v1h-10ZM350 13h19v1h-19ZM347 14h25v1h-25ZM344 15h30v1h-30ZM343 16h33v1h-33ZM341 17h36v1h-36ZM340 18h39v1h-39ZM338 19h42v1h-42ZM337 20h44v1h-44ZM336 21h46v1h-46ZM335 22h48v1h-48ZM334 23h50v1h-50ZM333 24h52v1h-52ZM332 25h54v2h-54ZM331 27h56v1h-56ZM330 28h58v2h-58ZM329 30h60v1h-60ZM328 31h61v1h-61ZM328 32h62v1h-62ZM327 33h63v2h-63ZM326 35h65v1h-65ZM325 36h66v2h-66ZM324 38h67v1h-67ZM323 39h69v2h-69ZM322 41h70v1h-70ZM321 42h71v2h-71ZM320 44h72v1h-72ZM319 45h73v2h-73ZM318 47h74v1h-74ZM317 48h75v2h-75ZM316 50h75v1h-75ZM315 51h76v2h-76ZM314 53h77v2h-77ZM313 55h77v1h-77ZM312 56h78v1h-78ZM312 57h77v1h-77ZM311 58h78v1h-78ZM310 59h78v2h-78ZM309 61h78v1h-78ZM308 62h79v1h-79ZM308 63h78v1h-78ZM307 64h78v1h-78ZM306 65h79v1h-79ZM306 66h78v1h-78ZM305 67h79v1h-79ZM304 68h79v1h-79ZM304 69h78v1h-78ZM303 70h79v1h-79ZM302 71h79v1h-79ZM302 72h78v1h-78ZM301 73h79v1h-79ZM300 74h79v1h-79ZM300 75h78v1h-78ZM299 76h79v1h-79ZM299 77h78v1h-78ZM298 78h78v1h-78ZM297 79h79v1h-79ZM297 80h78v1h-78ZM296 81h78v1h-78ZM295 82h79v1h-79ZM295 83h78v1h-78ZM294 84h78v1h-78ZM293 85h79v1h-79ZM293 86h78v1h-78ZM292 87h79v1h-79ZM291 88h79v1h-79ZM291 89h78v1h-78ZM290 90h79v1h-79ZM289 91h79v1h-79ZM289 92h78v1h-78ZM288 93h79v1h-79ZM287 94h79v1h-79ZM287 95h78v1h-78ZM286 96h79v1h-79ZM285 97h79v1h-79ZM285 98h78v1h-78ZM284 99h79v1h-79ZM284 100h78v1h-78ZM283 101h78v1h-78ZM282 102h79v1h-79ZM282 103h78v1h-78ZM281 104h78v1h-78ZM280 105h79v1h-79ZM280 106h78v1h-78ZM279 107h79v1h-79ZM278 108h79v1h-79ZM278 109h78v1h-78ZM277 110h79v1h-79ZM276 111h79v1h-79ZM276 112h78v1h-78ZM275 113h79v1h-79ZM274 114h79v1h-79ZM274 115h78v1h-78ZM273 116h79v1h-79ZM272 117h79v1h-79ZM272 118h78v1h-78ZM271 119h79v1h-79ZM271 120h78v1h-78ZM270 121h78v1h-78ZM269 122h79v1h-79ZM269 123h78v1h-78ZM268 124h79v1h-79ZM267 125h79v1h-79ZM267 126h78v1h-78ZM266 127h79v1h-79ZM265 128h79v1h-79ZM265 129h78v1h-78ZM264 130h79v1h-79ZM263 131h79v1h-79ZM263 132h78v1h-78ZM262 133h79v1h-79ZM261 134h79v1h-79ZM261 135h78v1h-78ZM260 136h79v1h-79ZM259 137h79v1h-79ZM259 138h78v1h-78ZM258 139h79v1h-79ZM257 140h79v1h-79ZM257 141h78v1h-78ZM256 142h79v1h-79ZM256 143h78v1h-78ZM255 144h79v1h-79ZM254 145h79v1h-79ZM254 146h78v1h-78ZM253 147h79v1h-79ZM252 148h79v1h-79ZM252 149h78v1h-78ZM251 150h79v1h-79ZM250 151h79v1h-79ZM250 152h78v1h-78ZM249 153h79v1h-79ZM248 154h79v1h-79ZM248 155h78v1h-78ZM247 156h79v1h-79ZM246 157h79v1h-79ZM246 158h78v1h-78ZM245 159h79v1h-79ZM244 160h79v1h-79ZM244 161h78v1h-78ZM243 162h79v1h-79ZM243 163h78v1h-78ZM242 164h79v1h-79ZM241 165h79v1h-79ZM241 166h78v1h-78ZM240 167h79v1h-79ZM239 168h79v1h-79ZM239 169h78v1h-78ZM238 170h79v1h-79ZM237 171h79v1h-79ZM237 172h78v1h-78ZM236 173h79v1h-79ZM235 174h79v1h-79ZM235 175h78v1h-78ZM234 176h79v1h-79ZM233 177h79v1h-79ZM233 178h78v1h-78ZM232 179h79v1h-79ZM231 180h79v1h-79ZM231 181h78v1h-78ZM230 182h79v1h-79ZM229 183h79v2h-79ZM228 185h79v1h-79ZM228 186h78v1h-78ZM227 187h79v1h-79ZM226 188h79v1h-79ZM226 189h78v1h-78ZM225 190h79v1h-79ZM224 191h79v1h-79ZM224 192h78v1h-78ZM223 193h79v1h-79ZM222 194h79v1h-79ZM222 195h78v1h-78ZM221 196h79v1h-79ZM220 197h79v1h-79ZM220 198h78v1h-78ZM219 199h79v1h-79ZM218 200h79v2h-79ZM217 202h79v1h-79ZM216 203h79v2h-79ZM215 205h79v1h-79ZM214 206h79v2h-79ZM213 208h79v1h-79ZM213 209h78v1h-78ZM212 210h79v1h-79ZM211 211h79v1h-79ZM211 212h78v1h-78ZM210 213h79v1h-79ZM209 214h79v1h-79ZM209 215h78v1h-78ZM208 216h79v1h-79ZM207 217h79v1h-79ZM207 218h78v1h-78ZM206 219h79v1h-79ZM205 220h79v2h-79ZM204 222h79v1h-79ZM203 223h79v2h-79ZM202 225h79v1h-79ZM201 226h79v2h-79ZM200 228h79v1h-79ZM200 229h78v1h-78ZM199 230h79v1h-79ZM198 231h79v1h-79ZM198 232h78v1h-78ZM197 233h79v1h-79ZM196 234h79v1h-79ZM196 235h78v1h-78ZM195 236h79v1h-79ZM194 237h79v1h-79ZM194 238h78v1h-78ZM193 239h79v1h-79ZM192 240h79v2h-79ZM191 242h79v1h-79ZM190 243h79v2h-79ZM189 245h79v1h-79ZM188 246h79v2h-79ZM187 248h79v1h-79ZM186 249h79v2h-79ZM185 251h79v1h-79ZM185 252h78v1h-78ZM184 253h79v1h-79ZM183 254h79v1h-79ZM183 255h78v1h-78ZM182 256h79v1h-79ZM181 257h79v1h-79ZM181 258h78v1h-78ZM180 259h79v1h-79ZM179 260h79v2h-79ZM178 262h79v1h-79ZM177 263h79v2h-79ZM176 265h79v1h-79ZM175 266h79v2h-79ZM174 268h79v1h-79ZM173 269h79v2h-79ZM172 271h79v1h-79ZM172 272h78v1h-78ZM171 273h79v1h-79ZM170 274h79v1h-79ZM170 275h78v1h-78ZM169 276h79v1h-79ZM168 277h79v1h-79ZM168 278h78v1h-78ZM167 279h79v1h-79ZM166 280h79v2h-79ZM165 282h79v1h-79ZM164 283h79v2h-79ZM163 285h79v1h-79ZM162 286h79v2h-79ZM161 288h79v1h-79ZM160 289h79v2h-79ZM159 291h79v1h-79ZM158 292h79v2h-79ZM157 294h79v1h-79ZM157 295h78v1h-78ZM156 296h79v1h-79ZM155 297h79v2h-79ZM154 299h79v1h-79ZM153 300h79v2h-79ZM152 302h79v1h-79ZM151 303h79v1h-79ZM151 304h81v1h-81ZM150 305h83v1h-83ZM149 306h86v1h-86ZM149 307h87v1h-87ZM148 308h90v1h-90ZM147 309h92v1h-92ZM147 310h93v1h-93ZM146 311h96v1h-96ZM145 312h98v1h-98ZM145 313h99v1h-99ZM144 314h102v1h-102ZM144 315h103v1h-103ZM143 316h105v1h-105ZM142 317h108v1h-108ZM142 318h109v1h-109ZM141 319h111v1h-111ZM140 320h113v1h-113ZM140 321h114v1h-114ZM139 322h117v1h-117ZM138 323h119v1h-119ZM138 324h120v1h-120ZM137 325h122v1h-122ZM136 326h124v1h-124ZM136 327h125v1h-125ZM135 328h127v1h-127ZM134 329h129v1h-129ZM134 330h130v1h-130ZM133 331h132v1h-132ZM132 332h134v1h-134ZM132 333h135v1h-135ZM131 334h137v1h-137ZM130 335h139v1h-139ZM130 336h140v1h-140ZM129 337h142v1h-142ZM129 338h143v1h-143ZM128 339h145v1h-145ZM127 340h147v1h-147ZM127 341h148v1h-148ZM126 342h150v1h-150ZM125 343h151v1h-151ZM125 344h152v1h-152ZM124 345h154v1h-154ZM123 346h156v1h-156ZM123 347h157v1h-157ZM122 348h159v1h-159ZM121 349h160v1h-160ZM121 350h161v1h-161ZM120 351h163v1h-163ZM119 352h165v1h-165ZM119 353h166v1h-166ZM118 354h167v1h-167ZM117 355h169v1h-169ZM117 356h170v1h-170ZM116 357h171v1h-171ZM115 358h173v1h-173ZM115 359h79v1h-79ZM197 359h92v1h-92ZM198 360h92v1h-92ZM114 360h79v2h-79ZM200 361h90v1h-90ZM113 362h79v1h-79ZM201 362h90v1h-90ZM203 363h89v1h-89ZM112 363h79v2h-79ZM204 364h88v1h-88ZM111 365h79v1h-79ZM206 365h87v1h-87ZM207 366h86v1h-86ZM110 366h79v2h-79ZM208 367h86v1h-86ZM109 368h79v1h-79ZM209 368h86v1h-86ZM211 369h84v1h-84ZM108 369h79v2h-79ZM212 370h84v1h-84ZM107 371h79v1h-79ZM213 371h84v1h-84ZM214 372h83v1h-83ZM106 372h79v2h-79ZM215 373h83v1h-83ZM105 374h79v1h-79ZM216 374h82v1h-82ZM104 375h80v1h-80ZM217 375h82v1h-82ZM104 376h79v1h-79ZM218 376h81v1h-81ZM103 377h79v1h-79ZM219 377h81v1h-81ZM102 378h80v1h-80ZM220 378h80v1h-80ZM102 379h79v1h-79ZM221 379h80v1h-80ZM222 380h80v1h-80ZM101 380h79v2h-79ZM223 381h79v1h-79ZM100 382h79v1h-79ZM224 382h79v1h-79ZM225 383h78v1h-78ZM99 383h79v2h-79ZM226 384h78v1h-78ZM98 385h79v1h-79ZM227 385h77v1h-77ZM97 386h79v2h-79ZM228 386h77v2h-77ZM96 388h79v1h-79ZM229 388h76v1h-76ZM230 389h76v1h-76ZM95 389h79v2h-79ZM231 390h75v1h-75ZM94 391h79v1h-79ZM232 391h75v2h-75ZM93 392h79v2h-79ZM233 393h75v1h-75ZM92 394h79v1h-79ZM234 394h74v1h-74ZM91 395h80v1h-80ZM91 396h79v1h-79ZM235 395h74v2h-74ZM90 397h79v1h-79ZM236 397h73v1h-73ZM89 398h80v1h-80ZM89 399h79v1h-79ZM237 398h73v2h-73ZM88 400h79v1h-79ZM87 401h80v1h-80ZM238 400h73v2h-73ZM87 402h79v1h-79ZM239 402h72v1h-72ZM86 403h79v2h-79ZM240 403h72v2h-72ZM85 405h79v1h-79ZM241 405h71v1h-71ZM241 406h72v1h-72ZM84 406h79v2h-79ZM83 408h79v1h-79ZM242 407h71v2h-71ZM82 409h79v2h-79ZM243 409h71v2h-71ZM81 411h79v1h-79ZM244 411h70v1h-70ZM244 412h71v1h-71ZM80 412h79v2h-79ZM79 414h79v1h-79ZM245 413h70v2h-70ZM78 415h80v1h-80ZM78 416h79v1h-79ZM246 415h70v2h-70ZM77 417h79v1h-79ZM247 417h69v1h-69ZM76 418h80v1h-80ZM247 418h70v1h-70ZM76 419h79v1h-79ZM75 420h79v1h-79ZM74 421h80v1h-80ZM248 419h69v3h-69ZM74 422h79v1h-79ZM249 422h69v2h-69ZM73 423h79v2h-79ZM72 425h79v1h-79ZM250 424h68v2h-68ZM250 426h69v1h-69ZM71 426h79v2h-79ZM70 428h79v1h-79ZM251 427h68v3h-68ZM69 429h79v2h-79ZM68 431h79v1h-79ZM67 432h79v2h-79ZM252 430h68v4h-68ZM66 434h79v1h-79ZM253 434h67v1h-67ZM65 435h80v1h-80ZM65 436h79v1h-79ZM253 435h68v2h-68ZM64 437h79v1h-79ZM63 438h80v1h-80ZM63 439h79v1h-79ZM254 437h67v3h-67ZM62 440h79v1h-79ZM61 441h80v1h-80ZM254 440h68v2h-68ZM61 442h79v1h-79ZM60 443h79v1h-79ZM59 444h80v1h-80ZM59 445h79v1h-79ZM255 442h67v4h-67ZM256 446h66v1h-66ZM58 446h79v2h-79ZM57 448h79v1h-79ZM56 449h79v2h-79ZM55 451h79v1h-79ZM256 447h67v5h-67ZM54 452h80v1h-80ZM54 453h79v1h-79ZM53 454h79v1h-79ZM257 452h66v3h-66ZM52 455h80v1h-80ZM52 456h79v1h-79ZM51 457h79v1h-79ZM50 458h80v1h-80ZM257 455h67v4h-67ZM50 459h79v1h-79ZM49 460h79v1h-79ZM48 461h80v1h-80ZM48 462h79v1h-79ZM47 463h79v1h-79ZM46 464h80v1h-80ZM46 465h79v1h-79ZM258 459h66v8h-66ZM45 466h79v2h-79ZM44 468h79v1h-79ZM43 469h79v2h-79ZM42 471h79v1h-79ZM41 472h80v1h-80ZM258 467h67v6h-67ZM41 473h79v1h-79ZM40 474h79v1h-79ZM39 475h80v1h-80ZM39 476h79v1h-79ZM38 477h79v1h-79ZM37 478h80v1h-80ZM37 479h79v1h-79ZM36 480h79v1h-79ZM35 481h80v1h-80ZM35 482h79v1h-79ZM34 483h79v1h-79ZM33 484h80v1h-80ZM33 485h79v1h-79ZM32 486h79v1h-79ZM259 473h66v14h-66ZM31 487h80v1h-80ZM31 488h79v1h-79ZM30 489h79v2h-79ZM29 491h79v1h-79ZM28 492h80v1h-80ZM28 493h79v1h-79ZM258 487h67v7h-67ZM27 494h79v1h-79ZM26 495h80v1h-80ZM26 496h79v1h-79ZM25 497h79v1h-79ZM24 498h80v1h-80ZM24 499h79v1h-79ZM23 500h79v1h-79ZM22 501h80v1h-80ZM258 494h66v8h-66ZM22 502h79v1h-79ZM21 503h79v1h-79ZM20 504h80v1h-80ZM20 505h79v1h-79ZM19 506h79v2h-79ZM257 502h67v6h-67ZM18 508h79v1h-79ZM257 508h66v2h-66ZM17 509h79v2h-79ZM16 511h79v2h-79ZM16 513h78v1h-78ZM256 510h67v4h-67ZM15 514h539v1h-539ZM15 515h543v1h-543ZM14 516h547v1h-547ZM14 517h550v1h-550ZM14 518h552v1h-552ZM14 519h553v1h-553ZM13 520h556v1h-556ZM13 521h557v1h-557ZM13 522h558v1h-558ZM13 523h559v1h-559ZM13 524h560v1h-560ZM12 525h562v1h-562ZM12 526h563v1h-563ZM12 527h564v2h-564ZM12 529h565v1h-565ZM12 530h566v2h-566ZM12 532h567v2h-567ZM12 534h568v3h-568ZM12 537h569v2h-569ZM13 539h568v2h-568ZM13 541h569v3h-569ZM14 544h568v3h-568ZM15 547h567v3h-567ZM16 550h566v2h-566ZM17 552h565v1h-565ZM17 553h564v1h-564ZM18 554h563v2h-563ZM19 556h562v1h-562ZM19 557h561v1h-561ZM20 558h560v1h-560ZM21 559h559v1h-559ZM21 560h558v1h-558ZM22 561h557v1h-557ZM23 562h555v1h-555ZM24 563h554v1h-554ZM24 564h553v1h-553ZM25 565h551v1h-551ZM26 566h550v1h-550ZM27 567h548v1h-548ZM28 568h546v1h-546ZM30 569h543v1h-543ZM31 570h541v1h-541ZM32 571h539v1h-539ZM34 572h536v1h-536ZM35 573h534v1h-534ZM37 574h530v1h-530ZM39 575h527v1h-527ZM41 576h523v1h-523ZM44 577h518v1h-518ZM47 578h512v1h-512ZM52 579h502v1h-502Z"/></svg>
