<svg xmlns="http://www.w3.org/2000/svg" width="686" height="618" viewBox="0 0 686 618"><path fill="#4e1601" d="M337 12h11v1h-11ZM330 13h26v1h-26ZM325 14h36v1h-36ZM321 15h44v1h-44ZM318 16h50v1h-50ZM315 17h56v1h-56ZM313 18h60v1h-60ZM311 19h64v1h-64ZM309 20h68v1h-68ZM307 21h72v1h-72ZM305 22h76v1h-76ZM304 23h78v1h-78ZM302 24h82v1h-82ZM301 25h84v1h-84ZM299 26h88v1h-88ZM298 27h90v1h-90ZM297 28h92v1h-92ZM295 29h96v1h-96ZM294 30h98v1h-98ZM293 31h100v1h-100ZM292 32h102v1h-102ZM291 33h104v1h-104ZM290 34h106v1h-106ZM289 35h108v1h-108ZM288 36h110v1h-110ZM287 37h112v1h-112ZM286 38h114v2h-114ZM285 40h116v1h-116ZM284 41h118v1h-118ZM283 42h120v1h-120ZM282 43h121v1h-121ZM282 44h122v1h-122ZM281 45h124v1h-124ZM280 46h126v2h-126ZM279 48h128v2h-128ZM278 50h130v2h-130ZM277 52h132v1h-132ZM276 53h134v2h-134ZM275 55h136v2h-136ZM274 57h138v1h-138ZM273 58h140v2h-140ZM272 60h142v2h-142ZM271 62h144v2h-144ZM270 64h146v1h-146ZM269 65h148v2h-148ZM268 67h150v2h-150ZM267 69h152v2h-152ZM266 71h154v1h-154ZM265 72h73v1h-73ZM348 72h73v1h-73ZM265 73h71v1h-71ZM350 73h71v1h-71ZM264 74h70v1h-70ZM352 74h70v1h-70ZM264 75h69v1h-69ZM353 75h69v1h-69ZM263 76h69v1h-69ZM354 76h69v1h-69ZM355 77h68v1h-68ZM262 77h69v2h-69ZM355 78h69v1h-69ZM261 79h69v1h-69ZM356 79h69v1h-69ZM261 80h68v1h-68ZM357 80h68v1h-68ZM260 81h69v1h-69ZM357 81h69v1h-69ZM260 82h68v1h-68ZM358 82h68v1h-68ZM259 83h69v1h-69ZM358 83h69v1h-69ZM258 84h69v1h-69ZM258 85h68v1h-68ZM359 84h69v2h-69ZM257 86h69v1h-69ZM360 86h69v1h-69ZM257 87h68v1h-68ZM361 87h68v1h-68ZM256 88h69v1h-69ZM361 88h69v1h-69ZM256 89h68v1h-68ZM362 89h68v1h-68ZM255 90h69v1h-69ZM362 90h69v1h-69ZM254 91h69v1h-69ZM363 91h69v1h-69ZM254 92h68v1h-68ZM364 92h68v1h-68ZM253 93h69v1h-69ZM364 93h69v1h-69ZM253 94h68v1h-68ZM365 94h68v1h-68ZM252 95h69v1h-69ZM365 95h69v1h-69ZM252 96h68v1h-68ZM366 96h68v1h-68ZM251 97h69v1h-69ZM366 97h69v1h-69ZM250 98h69v1h-69ZM367 98h69v1h-69ZM250 99h68v1h-68ZM368 99h68v1h-68ZM249 100h69v1h-69ZM368 100h69v1h-69ZM249 101h68v1h-68ZM369 101h68v1h-68ZM248 102h69v1h-69ZM369 102h69v1h-69ZM247 103h69v1h-69ZM370 103h68v1h-68ZM247 104h68v1h-68ZM370 104h69v1h-69ZM246 105h69v1h-69ZM371 105h69v1h-69ZM246 106h68v1h-68ZM372 106h68v1h-68ZM245 107h69v1h-69ZM372 107h69v1h-69ZM245 108h68v1h-68ZM373 108h68v1h-68ZM244 109h69v1h-69ZM373 109h69v1h-69ZM243 110h69v1h-69ZM243 111h68v1h-68ZM374 110h69v2h-69ZM242 112h69v1h-69ZM375 112h69v1h-69ZM242 113h68v1h-68ZM376 113h68v1h-68ZM241 114h69v1h-69ZM376 114h69v1h-69ZM241 115h68v1h-68ZM377 115h68v1h-68ZM240 116h69v1h-69ZM377 116h69v1h-69ZM239 117h69v1h-69ZM378 117h69v1h-69ZM239 118h68v1h-68ZM379 118h68v1h-68ZM238 119h69v1h-69ZM379 119h69v1h-69ZM238 120h68v1h-68ZM380 120h68v1h-68ZM237 121h69v1h-69ZM380 121h69v1h-69ZM237 122h68v1h-68ZM381 122h68v1h-68ZM236 123h69v1h-69ZM381 123h69v1h-69ZM235 124h69v1h-69ZM382 124h69v1h-69ZM235 125h68v1h-68ZM383 125h68v1h-68ZM234 126h69v1h-69ZM383 126h69v1h-69ZM234 127h68v1h-68ZM384 127h68v1h-68ZM233 128h69v1h-69ZM384 128h69v1h-69ZM232 129h69v1h-69ZM385 129h68v1h-68ZM232 130h68v1h-68ZM385 130h69v1h-69ZM231 131h69v1h-69ZM386 131h69v1h-69ZM231 132h68v1h-68ZM387 132h68v1h-68ZM230 133h69v1h-69ZM387 133h69v1h-69ZM230 134h68v1h-68ZM388 134h68v1h-68ZM229 135h69v1h-69ZM388 135h69v1h-69ZM228 136h69v1h-69ZM228 137h68v1h-68ZM389 136h69v2h-69ZM227 138h69v1h-69ZM390 138h69v1h-69ZM227 139h68v1h-68ZM391 139h68v1h-68ZM226 140h69v1h-69ZM391 140h69v1h-69ZM226 141h68v1h-68ZM392 141h68v1h-68ZM225 142h69v1h-69ZM392 142h69v1h-69ZM224 143h69v1h-69ZM393 143h69v1h-69ZM224 144h68v1h-68ZM394 144h68v1h-68ZM223 145h69v1h-69ZM394 145h69v1h-69ZM223 146h68v1h-68ZM395 146h68v1h-68ZM222 147h69v1h-69ZM395 147h69v1h-69ZM222 148h68v1h-68ZM396 148h68v1h-68ZM221 149h69v1h-69ZM396 149h69v1h-69ZM220 150h69v1h-69ZM397 150h69v1h-69ZM220 151h68v1h-68ZM398 151h68v1h-68ZM219 152h69v1h-69ZM398 152h69v1h-69ZM219 153h68v1h-68ZM399 153h68v1h-68ZM218 154h69v1h-69ZM399 154h69v1h-69ZM217 155h69v1h-69ZM400 155h68v1h-68ZM217 156h68v1h-68ZM400 156h69v1h-69ZM216 157h69v1h-69ZM401 157h69v1h-69ZM216 158h68v1h-68ZM402 158h68v1h-68ZM215 159h69v1h-69ZM402 159h69v1h-69ZM215 160h68v1h-68ZM403 160h68v1h-68ZM214 161h69v1h-69ZM403 161h69v1h-69ZM213 162h69v1h-69ZM213 163h68v1h-68ZM404 162h69v2h-69ZM212 164h69v1h-69ZM405 164h69v1h-69ZM212 165h68v1h-68ZM406 165h68v1h-68ZM211 166h69v1h-69ZM406 166h69v1h-69ZM211 167h68v1h-68ZM407 167h68v1h-68ZM210 168h69v1h-69ZM407 168h69v1h-69ZM209 169h69v1h-69ZM408 169h69v1h-69ZM209 170h68v1h-68ZM409 170h68v1h-68ZM208 171h69v1h-69ZM409 171h69v1h-69ZM208 172h68v1h-68ZM410 172h68v1h-68ZM207 173h69v1h-69ZM410 173h69v1h-69ZM207 174h68v1h-68ZM411 174h68v1h-68ZM206 175h69v1h-69ZM411 175h69v1h-69ZM205 176h69v1h-69ZM412 176h69v1h-69ZM205 177h68v1h-68ZM413 177h68v1h-68ZM204 178h69v1h-69ZM413 178h69v1h-69ZM204 179h68v1h-68ZM414 179h68v1h-68ZM203 180h69v1h-69ZM414 180h69v1h-69ZM202 181h69v1h-69ZM415 181h68v1h-68ZM202 182h68v1h-68ZM415 182h69v1h-69ZM201 183h69v1h-69ZM416 183h69v1h-69ZM201 184h68v1h-68ZM333 184h20v1h-20ZM417 184h68v1h-68ZM200 185h69v1h-69ZM326 185h34v1h-34ZM417 185h69v1h-69ZM200 186h68v1h-68ZM321 186h44v1h-44ZM418 186h68v1h-68ZM199 187h69v1h-69ZM317 187h52v1h-52ZM418 187h69v1h-69ZM198 188h69v1h-69ZM313 188h60v1h-60ZM198 189h68v1h-68ZM310 189h66v1h-66ZM419 188h69v2h-69ZM197 190h69v1h-69ZM307 190h72v1h-72ZM420 190h69v1h-69ZM197 191h68v1h-68ZM305 191h76v1h-76ZM421 191h68v1h-68ZM196 192h69v1h-69ZM303 192h80v1h-80ZM421 192h69v1h-69ZM196 193h68v1h-68ZM300 193h86v1h-86ZM422 193h68v1h-68ZM195 194h69v1h-69ZM298 194h90v1h-90ZM422 194h69v1h-69ZM194 195h69v1h-69ZM296 195h94v1h-94ZM423 195h69v1h-69ZM194 196h68v1h-68ZM295 196h97v1h-97ZM424 196h68v1h-68ZM193 197h69v1h-69ZM293 197h100v1h-100ZM424 197h69v1h-69ZM193 198h68v1h-68ZM291 198h104v1h-104ZM425 198h68v1h-68ZM192 199h69v1h-69ZM289 199h108v1h-108ZM425 199h69v1h-69ZM192 200h68v1h-68ZM288 200h110v1h-110ZM426 200h68v1h-68ZM191 201h69v1h-69ZM286 201h114v1h-114ZM426 201h69v1h-69ZM190 202h69v1h-69ZM285 202h116v1h-116ZM427 202h69v1h-69ZM190 203h68v1h-68ZM284 203h118v1h-118ZM428 203h68v1h-68ZM189 204h69v1h-69ZM282 204h122v1h-122ZM428 204h69v1h-69ZM189 205h68v1h-68ZM281 205h124v1h-124ZM429 205h68v1h-68ZM188 206h69v1h-69ZM280 206h126v1h-126ZM429 206h69v1h-69ZM187 207h69v1h-69ZM279 207h128v1h-128ZM430 207h68v1h-68ZM187 208h68v1h-68ZM277 208h132v1h-132ZM430 208h69v1h-69ZM186 209h69v1h-69ZM276 209h134v1h-134ZM431 209h69v1h-69ZM186 210h68v1h-68ZM275 210h136v1h-136ZM432 210h68v1h-68ZM185 211h69v1h-69ZM274 211h138v1h-138ZM432 211h69v1h-69ZM185 212h68v1h-68ZM273 212h140v1h-140ZM433 212h68v1h-68ZM184 213h69v1h-69ZM272 213h142v1h-142ZM433 213h69v1h-69ZM183 214h69v1h-69ZM271 214h144v1h-144ZM183 215h68v1h-68ZM270 215h146v1h-146ZM434 214h69v2h-69ZM182 216h69v1h-69ZM269 216h148v1h-148ZM435 216h69v1h-69ZM182 217h68v1h-68ZM268 217h150v1h-150ZM436 217h68v1h-68ZM181 218h69v1h-69ZM267 218h152v1h-152ZM436 218h69v1h-69ZM181 219h68v1h-68ZM266 219h154v1h-154ZM437 219h68v1h-68ZM180 220h69v1h-69ZM265 220h156v1h-156ZM437 220h69v1h-69ZM179 221h69v1h-69ZM264 221h158v1h-158ZM438 221h69v1h-69ZM179 222h68v1h-68ZM263 222h160v1h-160ZM439 222h68v1h-68ZM178 223h69v1h-69ZM262 223h162v1h-162ZM439 223h69v1h-69ZM178 224h68v1h-68ZM261 224h164v1h-164ZM440 224h68v1h-68ZM177 225h69v1h-69ZM260 225h166v1h-166ZM440 225h69v1h-69ZM177 226h68v1h-68ZM259 226h168v1h-168ZM441 226h68v1h-68ZM176 227h69v1h-69ZM258 227h170v1h-170ZM441 227h69v1h-69ZM175 228h69v1h-69ZM257 228h172v1h-172ZM442 228h69v1h-69ZM175 229h68v1h-68ZM256 229h174v1h-174ZM443 229h68v1h-68ZM174 230h69v1h-69ZM255 230h176v1h-176ZM443 230h69v1h-69ZM174 231h68v1h-68ZM254 231h178v1h-178ZM444 231h68v1h-68ZM173 232h69v1h-69ZM253 232h180v1h-180ZM444 232h69v1h-69ZM172 233h69v1h-69ZM252 233h182v1h-182ZM445 233h68v1h-68ZM172 234h68v1h-68ZM251 234h184v1h-184ZM445 234h69v1h-69ZM171 235h69v1h-69ZM250 235h186v1h-186ZM446 235h69v1h-69ZM171 236h68v1h-68ZM249 236h87v1h-87ZM350 236h87v1h-87ZM447 236h68v1h-68ZM170 237h69v1h-69ZM248 237h83v1h-83ZM355 237h83v1h-83ZM447 237h69v1h-69ZM170 238h68v1h-68ZM247 238h81v1h-81ZM358 238h81v1h-81ZM448 238h68v1h-68ZM169 239h69v1h-69ZM246 239h79v1h-79ZM361 239h79v1h-79ZM448 239h69v1h-69ZM168 240h69v1h-69ZM245 240h78v1h-78ZM363 240h78v1h-78ZM168 241h68v1h-68ZM244 241h77v1h-77ZM365 241h77v1h-77ZM449 240h69v2h-69ZM167 242h69v1h-69ZM243 242h76v1h-76ZM367 242h76v1h-76ZM450 242h69v1h-69ZM167 243h68v1h-68ZM242 243h75v1h-75ZM369 243h75v1h-75ZM451 243h68v1h-68ZM166 244h69v1h-69ZM241 244h75v1h-75ZM370 244h75v1h-75ZM451 244h69v1h-69ZM166 245h68v1h-68ZM240 245h74v1h-74ZM372 245h74v1h-74ZM452 245h68v1h-68ZM165 246h69v1h-69ZM239 246h74v1h-74ZM373 246h74v1h-74ZM452 246h69v1h-69ZM164 247h69v1h-69ZM238 247h74v1h-74ZM374 247h74v1h-74ZM453 247h69v1h-69ZM164 248h68v1h-68ZM237 248h74v1h-74ZM375 248h74v1h-74ZM454 248h68v1h-68ZM163 249h69v1h-69ZM236 249h74v1h-74ZM376 249h74v1h-74ZM454 249h69v1h-69ZM163 250h68v1h-68ZM235 250h74v1h-74ZM378 250h73v1h-73ZM455 250h68v1h-68ZM162 251h69v1h-69ZM234 251h74v1h-74ZM379 251h73v1h-73ZM455 251h69v1h-69ZM162 252h68v1h-68ZM233 252h74v1h-74ZM380 252h73v1h-73ZM456 252h68v1h-68ZM161 253h69v1h-69ZM232 253h74v1h-74ZM381 253h73v1h-73ZM456 253h69v1h-69ZM160 254h69v1h-69ZM231 254h74v1h-74ZM382 254h73v1h-73ZM457 254h69v1h-69ZM160 255h68v1h-68ZM230 255h74v1h-74ZM383 255h73v1h-73ZM458 255h68v1h-68ZM159 256h69v1h-69ZM229 256h74v1h-74ZM384 256h73v1h-73ZM458 256h69v1h-69ZM159 257h68v1h-68ZM228 257h74v1h-74ZM385 257h73v1h-73ZM459 257h68v1h-68ZM158 258h143v1h-143ZM386 258h142v1h-142ZM157 259h143v1h-143ZM387 259h141v1h-141ZM157 260h142v1h-142ZM388 260h141v1h-141ZM156 261h142v1h-142ZM389 261h141v1h-141ZM156 262h141v1h-141ZM390 262h140v1h-140ZM155 263h141v1h-141ZM391 263h140v1h-140ZM155 264h140v1h-140ZM392 264h139v1h-139ZM154 265h140v1h-140ZM393 265h139v1h-139ZM153 266h140v1h-140ZM394 266h139v1h-139ZM153 267h139v1h-139ZM395 267h138v1h-138ZM152 268h139v1h-139ZM395 268h139v1h-139ZM152 269h138v1h-138ZM396 269h138v1h-138ZM151 270h138v1h-138ZM397 270h138v1h-138ZM151 271h137v1h-137ZM398 271h137v1h-137ZM150 272h137v1h-137ZM399 272h137v1h-137ZM149 273h137v1h-137ZM400 273h137v1h-137ZM149 274h136v1h-136ZM401 274h136v1h-136ZM148 275h136v1h-136ZM402 275h136v1h-136ZM148 276h135v1h-135ZM403 276h135v1h-135ZM147 277h135v1h-135ZM404 277h135v1h-135ZM147 278h134v1h-134ZM405 278h134v1h-134ZM146 279h134v1h-134ZM406 279h134v1h-134ZM145 280h134v1h-134ZM407 280h134v1h-134ZM145 281h133v1h-133ZM408 281h133v1h-133ZM144 282h133v1h-133ZM409 282h133v1h-133ZM144 283h132v1h-132ZM410 283h132v1h-132ZM143 284h132v1h-132ZM411 284h132v1h-132ZM142 285h132v1h-132ZM412 285h131v1h-131ZM142 286h131v1h-131ZM413 286h131v1h-131ZM141 287h131v1h-131ZM414 287h131v1h-131ZM141 288h130v1h-130ZM415 288h130v1h-130ZM140 289h130v1h-130ZM416 289h130v1h-130ZM140 290h129v1h-129ZM417 290h129v1h-129ZM139 291h129v1h-129ZM418 291h129v1h-129ZM138 292h129v1h-129ZM419 292h129v1h-129ZM138 293h128v1h-128ZM420 293h128v1h-128ZM137 294h128v1h-128ZM421 294h128v1h-128ZM137 295h127v1h-127ZM422 295h127v1h-127ZM136 296h127v1h-127ZM423 296h127v1h-127ZM136 297h126v1h-126ZM424 297h126v1h-126ZM135 298h126v1h-126ZM425 298h126v1h-126ZM134 299h126v1h-126ZM426 299h126v1h-126ZM134 300h125v1h-125ZM427 300h125v1h-125ZM133 301h125v1h-125ZM428 301h125v1h-125ZM133 302h124v1h-124ZM429 302h124v1h-124ZM132 303h124v1h-124ZM430 303h124v1h-124ZM131 304h124v1h-124ZM431 304h123v1h-123ZM131 305h123v1h-123ZM432 305h123v1h-123ZM130 306h123v1h-123ZM433 306h123v1h-123ZM130 307h122v1h-122ZM434 307h122v1h-122ZM129 308h122v1h-122ZM435 308h122v1h-122ZM129 309h121v1h-121ZM436 309h121v1h-121ZM128 310h121v1h-121ZM437 310h121v1h-121ZM127 311h121v1h-121ZM438 311h120v1h-120ZM127 312h120v1h-120ZM439 312h120v1h-120ZM126 313h120v1h-120ZM440 313h120v1h-120ZM126 314h119v1h-119ZM441 314h119v1h-119ZM125 315h119v1h-119ZM442 315h119v1h-119ZM125 316h118v1h-118ZM443 316h118v1h-118ZM124 317h118v1h-118ZM444 317h118v1h-118ZM123 318h118v1h-118ZM445 318h118v1h-118ZM123 319h117v1h-117ZM446 319h117v1h-117ZM122 320h117v1h-117ZM447 320h117v1h-117ZM122 321h116v1h-116ZM448 321h116v1h-116ZM121 322h116v1h-116ZM449 322h116v1h-116ZM121 323h115v1h-115ZM450 323h115v1h-115ZM120 324h115v1h-115ZM451 324h115v1h-115ZM119 325h115v1h-115ZM452 325h115v1h-115ZM119 326h114v1h-114ZM453 326h114v1h-114ZM118 327h114v1h-114ZM454 327h114v1h-114ZM118 328h113v1h-113ZM455 328h113v1h-113ZM117 329h113v1h-113ZM456 329h113v1h-113ZM116 330h113v1h-113ZM457 330h112v1h-112ZM116 331h112v1h-112ZM458 331h112v1h-112ZM115 332h112v1h-112ZM459 332h112v1h-112ZM115 333h111v1h-111ZM460 333h111v1h-111ZM114 334h111v1h-111ZM461 334h111v1h-111ZM114 335h110v1h-110ZM462 335h110v1h-110ZM113 336h110v1h-110ZM463 336h110v1h-110ZM112 337h110v1h-110ZM464 337h109v1h-109ZM112 338h109v1h-109ZM465 338h109v1h-109ZM111 339h109v1h-109ZM466 339h109v1h-109ZM111 340h108v1h-108ZM467 340h108v1h-108ZM110 341h108v1h-108ZM468 341h108v1h-108ZM110 342h107v1h-107ZM469 342h107v1h-107ZM109 343h107v1h-107ZM470 343h107v1h-107ZM108 344h107v1h-107ZM471 344h107v1h-107ZM108 345h106v1h-106ZM472 345h106v1h-106ZM107 346h106v1h-106ZM473 346h106v1h-106ZM107 347h105v1h-105ZM474 347h105v1h-105ZM106 348h105v1h-105ZM475 348h105v1h-105ZM106 349h104v1h-104ZM476 349h104v1h-104ZM105 350h104v1h-104ZM477 350h104v1h-104ZM104 351h104v1h-104ZM478 351h104v1h-104ZM104 352h103v1h-103ZM479 352h103v1h-103ZM103 353h103v1h-103ZM480 353h103v1h-103ZM103 354h102v1h-102ZM481 354h102v1h-102ZM102 355h102v1h-102ZM482 355h102v1h-102ZM101 356h102v1h-102ZM483 356h101v1h-101ZM101 357h101v1h-101ZM484 357h101v1h-101ZM100 358h101v1h-101ZM485 358h101v1h-101ZM100 359h100v1h-100ZM486 359h100v1h-100ZM99 360h100v1h-100ZM487 360h100v1h-100ZM99 361h99v1h-99ZM488 361h99v1h-99ZM98 362h99v1h-99ZM489 362h99v1h-99ZM97 363h99v1h-99ZM490 363h98v1h-98ZM97 364h98v1h-98ZM491 364h98v1h-98ZM96 365h98v1h-98ZM492 365h98v1h-98ZM96 366h97v1h-97ZM493 366h97v1h-97ZM95 367h97v1h-97ZM494 367h97v1h-97ZM95 368h96v1h-96ZM495 368h96v1h-96ZM94 369h96v1h-96ZM496 369h96v1h-96ZM93 370h96v1h-96ZM497 370h96v1h-96ZM93 371h95v1h-95ZM498 371h95v1h-95ZM92 372h95v1h-95ZM499 372h95v1h-95ZM92 373h94v1h-94ZM500 373h94v1h-94ZM91 374h94v1h-94ZM501 374h94v1h-94ZM91 375h93v1h-93ZM502 375h93v1h-93ZM90 376h93v1h-93ZM503 376h93v1h-93ZM89 377h93v1h-93ZM504 377h93v1h-93ZM89 378h92v1h-92ZM505 378h92v1h-92ZM88 379h92v1h-92ZM506 379h92v1h-92ZM88 380h91v1h-91ZM507 380h91v1h-91ZM87 381h91v1h-91ZM508 381h91v1h-91ZM86 382h91v1h-91ZM509 382h90v1h-90ZM86 383h90v1h-90ZM510 383h90v1h-90ZM85 384h90v1h-90ZM511 384h90v1h-90ZM85 385h89v1h-89ZM512 385h89v1h-89ZM84 386h89v1h-89ZM513 386h89v1h-89ZM84 387h88v1h-88ZM514 387h88v1h-88ZM83 388h88v1h-88ZM515 388h88v1h-88ZM82 389h88v1h-88ZM516 389h87v1h-87ZM82 390h87v1h-87ZM517 390h87v1h-87ZM81 391h87v1h-87ZM518 391h87v1h-87ZM81 392h86v1h-86ZM519 392h86v1h-86ZM80 393h86v1h-86ZM520 393h86v1h-86ZM80 394h85v1h-85ZM521 394h85v1h-85ZM79 395h85v1h-85ZM522 395h85v1h-85ZM78 396h85v1h-85ZM523 396h85v1h-85ZM78 397h84v1h-84ZM524 397h84v1h-84ZM77 398h84v1h-84ZM525 398h84v1h-84ZM77 399h83v1h-83ZM526 399h83v1h-83ZM76 400h83v1h-83ZM527 400h83v1h-83ZM76 401h82v1h-82ZM528 401h82v1h-82ZM75 402h82v1h-82ZM529 402h82v1h-82ZM74 403h82v1h-82ZM530 403h82v1h-82ZM74 404h81v1h-81ZM531 404h81v1h-81ZM73 405h81v1h-81ZM532 405h81v1h-81ZM73 406h80v1h-80ZM533 406h80v1h-80ZM72 407h80v1h-80ZM534 407h80v1h-80ZM71 408h80v1h-80ZM535 408h79v1h-79ZM71 409h79v1h-79ZM536 409h79v1h-79ZM70 410h79v1h-79ZM537 410h79v1h-79ZM70 411h78v1h-78ZM538 411h78v1h-78ZM69 412h78v1h-78ZM539 412h78v1h-78ZM69 413h77v1h-77ZM540 413h77v1h-77ZM68 414h77v1h-77ZM541 414h77v1h-77ZM67 415h77v1h-77ZM542 415h76v1h-76ZM67 416h76v1h-76ZM543 416h76v1h-76ZM66 417h76v1h-76ZM544 417h76v1h-76ZM66 418h75v1h-75ZM545 418h75v1h-75ZM65 419h75v1h-75ZM546 419h75v1h-75ZM65 420h74v1h-74ZM547 420h74v1h-74ZM64 421h74v1h-74ZM548 421h74v1h-74ZM63 422h74v1h-74ZM549 422h74v1h-74ZM63 423h73v1h-73ZM550 423h73v1h-73ZM62 424h73v1h-73ZM551 424h73v1h-73ZM62 425h72v1h-72ZM552 425h72v1h-72ZM61 426h72v1h-72ZM553 426h72v1h-72ZM61 427h71v1h-71ZM554 427h71v1h-71ZM60 428h71v1h-71ZM555 428h71v1h-71ZM59 429h71v1h-71ZM556 429h71v1h-71ZM59 430h70v1h-70ZM557 430h70v1h-70ZM58 431h70v1h-70ZM558 431h70v1h-70ZM58 432h69v1h-69ZM559 432h69v1h-69ZM57 433h69v1h-69ZM560 433h69v1h-69ZM56 434h69v1h-69ZM561 434h68v1h-68ZM56 435h68v1h-68ZM561 435h69v1h-69ZM55 436h69v1h-69ZM562 436h69v1h-69ZM55 437h68v1h-68ZM563 437h68v1h-68ZM54 438h69v1h-69ZM563 438h69v1h-69ZM54 439h68v1h-68ZM564 439h68v1h-68ZM53 440h69v1h-69ZM564 440h69v1h-69ZM52 441h69v1h-69ZM565 441h68v1h-68ZM52 442h68v1h-68ZM565 442h69v1h-69ZM51 443h69v1h-69ZM566 443h69v1h-69ZM51 444h68v1h-68ZM567 444h68v1h-68ZM50 445h69v1h-69ZM567 445h69v1h-69ZM50 446h68v1h-68ZM568 446h68v1h-68ZM49 447h69v1h-69ZM568 447h69v1h-69ZM48 448h69v1h-69ZM569 448h69v1h-69ZM48 449h68v1h-68ZM570 449h68v1h-68ZM47 450h69v1h-69ZM570 450h69v1h-69ZM47 451h68v1h-68ZM571 451h68v1h-68ZM46 452h69v1h-69ZM571 452h69v1h-69ZM46 453h68v1h-68ZM572 453h68v1h-68ZM45 454h69v1h-69ZM572 454h69v1h-69ZM44 455h69v1h-69ZM573 455h69v1h-69ZM44 456h68v1h-68ZM574 456h68v1h-68ZM43 457h69v1h-69ZM574 457h69v1h-69ZM43 458h68v1h-68ZM575 458h68v1h-68ZM42 459h69v1h-69ZM575 459h69v1h-69ZM41 460h69v1h-69ZM576 460h68v1h-68ZM41 461h68v1h-68ZM576 461h69v1h-69ZM40 462h69v1h-69ZM577 462h69v1h-69ZM40 463h68v1h-68ZM578 463h68v1h-68ZM39 464h69v1h-69ZM578 464h69v1h-69ZM39 465h68v1h-68ZM579 465h68v1h-68ZM38 466h69v1h-69ZM579 466h69v1h-69ZM37 467h69v1h-69ZM580 467h68v1h-68ZM37 468h68v1h-68ZM581 468h68v1h-68ZM36 469h69v1h-69ZM581 469h69v1h-69ZM36 470h68v1h-68ZM582 470h68v1h-68ZM35 471h69v1h-69ZM582 471h69v1h-69ZM35 472h68v1h-68ZM583 472h68v1h-68ZM34 473h69v1h-69ZM583 473h69v1h-69ZM33 474h69v1h-69ZM584 474h69v1h-69ZM33 475h68v1h-68ZM585 475h68v1h-68ZM32 476h69v1h-69ZM585 476h69v1h-69ZM32 477h68v1h-68ZM586 477h68v1h-68ZM31 478h69v1h-69ZM586 478h69v1h-69ZM31 479h68v1h-68ZM587 479h68v1h-68ZM30 480h69v1h-69ZM587 480h69v1h-69ZM29 481h69v1h-69ZM588 481h69v1h-69ZM29 482h68v1h-68ZM589 482h68v1h-68ZM28 483h69v1h-69ZM589 483h69v1h-69ZM28 484h68v1h-68ZM590 484h68v1h-68ZM27 485h69v1h-69ZM590 485h69v1h-69ZM26 486h69v1h-69ZM591 486h68v1h-68ZM26 487h68v1h-68ZM591 487h69v1h-69ZM25 488h69v1h-69ZM592 488h69v1h-69ZM25 489h68v1h-68ZM593 489h68v1h-68ZM24 490h69v1h-69ZM593 490h69v1h-69ZM24 491h68v1h-68ZM594 491h68v1h-68ZM23 492h69v1h-69ZM594 492h69v1h-69ZM22 493h69v1h-69ZM595 493h68v1h-68ZM22 494h68v1h-68ZM596 494h68v1h-68ZM21 495h69v1h-69ZM596 495h69v1h-69ZM21 496h68v1h-68ZM597 496h68v1h-68ZM20 497h69v1h-69ZM597 497h69v1h-69ZM20 498h68v1h-68ZM598 498h68v1h-68ZM19 499h69v1h-69ZM598 499h69v1h-69ZM19 500h68v1h-68ZM599 500h68v1h-68ZM18 501h68v2h-68ZM600 501h68v2h-68ZM601 503h67v1h-67ZM17 503h68v2h-68ZM601 504h68v1h-68ZM17 505h67v1h-67ZM602 505h67v1h-67ZM16 506h68v1h-68ZM602 506h68v1h-68ZM16 507h67v1h-67ZM603 507h67v1h-67ZM16 508h66v1h-66ZM604 508h66v1h-66ZM15 509h67v1h-67ZM604 509h67v1h-67ZM15 510h66v2h-66ZM605 510h66v2h-66ZM14 512h66v1h-66ZM606 512h66v2h-66ZM14 513h65v2h-65ZM607 514h65v1h-65ZM14 515h64v1h-64ZM13 516h65v1h-65ZM608 515h64v2h-64ZM13 517h64v2h-64ZM609 517h64v2h-64ZM13 519h63v1h-63ZM610 519h63v1h-63ZM13 520h62v2h-62ZM611 520h62v2h-62ZM612 522h61v1h-61ZM12 522h62v2h-62ZM612 523h62v1h-62ZM12 524h61v2h-61ZM613 524h61v2h-61ZM12 526h60v4h-60ZM614 526h60v4h-60ZM615 530h59v3h-59ZM12 530h59v4h-59ZM12 534h60v3h-60ZM614 533h60v4h-60ZM12 537h61v2h-61ZM613 537h61v2h-61ZM612 539h62v1h-62ZM12 539h62v2h-62ZM612 540h61v1h-61ZM13 541h62v1h-62ZM611 541h62v1h-62ZM13 542h63v1h-63ZM610 542h63v1h-63ZM13 543h64v1h-64ZM609 543h64v1h-64ZM13 544h66v1h-66ZM607 544h66v1h-66ZM13 545h68v1h-68ZM605 545h68v1h-68ZM13 546h659v1h-659ZM14 547h658v4h-658ZM15 551h656v3h-656ZM16 554h654v3h-654ZM17 557h652v2h-652ZM17 559h651v1h-651ZM18 560h650v2h-650ZM19 562h648v2h-648ZM20 564h646v2h-646ZM21 566h644v2h-644ZM22 568h642v1h-642ZM22 569h641v1h-641ZM23 570h640v1h-640ZM24 571h638v2h-638ZM25 573h636v1h-636ZM26 574h634v2h-634ZM27 576h632v1h-632ZM28 577h630v1h-630ZM29 578h628v1h-628ZM30 579h626v2h-626ZM31 581h624v1h-624ZM32 582h622v1h-622ZM33 583h620v1h-620ZM34 584h618v1h-618ZM35 585h616v1h-616ZM36 586h614v1h-614ZM37 587h612v1h-612ZM39 588h608v1h-608ZM40 589h606v1h-606ZM41 590h604v1h-604ZM42 591h602v1h-602ZM44 592h598v1h-598ZM45 593h596v1h-596ZM47 594h592v1h-592ZM48 595h590v1h-590ZM50 596h586v1h-586ZM52 597h582v1h-582ZM54 598h578v1h-578ZM56 599h574v1h-574ZM58 600h569v1h-569ZM61 601h564v1h-564ZM64 602h558v1h-558ZM68 603h550v1h-550ZM72 604h541v1h-541ZM80 605h526v1h-526Z"/></svg>
