<svg xmlns="http://www.w3.org/2000/svg" width="581" height="498" viewBox="0 0 581 498"><path fill="#4e1601" d="M285 12h13v1h-13ZM280 13h23v1h-23ZM277 14h29v1h-29ZM275 15h33v1h-33ZM273 16h37v1h-37ZM271 17h41v1h-41ZM270 18h43v1h-43ZM268 19h47v1h-47ZM267 20h49v1h-49ZM265 21h52v1h-52ZM264 22h54v1h-54ZM263 23h56v1h-56ZM262 24h58v1h-58ZM261 25h60v1h-60ZM260 26h62v1h-62ZM259 27h64v1h-64ZM258 28h66v1h-66ZM257 29h68v1h-68ZM256 30h70v1h-70ZM255 31h73v1h-73ZM254 32h75v1h-75ZM253 33h77v1h-77ZM252 34h79v1h-79ZM251 35h81v1h-81ZM250 36h83v1h-83ZM248 37h86v1h-86ZM247 38h89v1h-89ZM246 39h91v1h-91ZM245 40h93v1h-93ZM244 41h95v1h-95ZM243 42h97v1h-97ZM242 43h99v1h-99ZM241 44h101v1h-101ZM240 45h103v1h-103ZM238 46h107v1h-107ZM237 47h109v1h-109ZM236 48h111v1h-111ZM235 49h113v1h-113ZM234 50h115v1h-115ZM233 51h117v1h-117ZM232 52h120v1h-120ZM231 53h122v1h-122ZM230 54h124v1h-124ZM228 55h62v1h-62ZM292 55h63v1h-63ZM227 56h62v1h-62ZM293 56h63v1h-63ZM226 57h62v1h-62ZM294 57h63v1h-63ZM225 58h62v1h-62ZM295 58h64v1h-64ZM224 59h62v1h-62ZM297 59h63v1h-63ZM223 60h61v1h-61ZM298 60h63v1h-63ZM221 61h62v1h-62ZM299 61h63v1h-63ZM220 62h62v1h-62ZM300 62h63v1h-63ZM219 63h62v1h-62ZM301 63h64v1h-64ZM218 64h62v1h-62ZM303 64h63v1h-63ZM217 65h62v1h-62ZM304 65h63v1h-63ZM216 66h62v1h-62ZM305 66h63v1h-63ZM215 67h62v1h-62ZM306 67h63v1h-63ZM213 68h63v1h-63ZM307 68h63v1h-63ZM212 69h63v1h-63ZM308 69h64v1h-64ZM211 70h63v1h-63ZM309 70h64v1h-64ZM210 71h63v1h-63ZM311 71h63v1h-63ZM209 72h62v1h-62ZM312 72h63v1h-63ZM207 73h63v1h-63ZM313 73h63v1h-63ZM206 74h63v1h-63ZM314 74h63v1h-63ZM205 75h63v1h-63ZM315 75h63v1h-63ZM204 76h63v1h-63ZM316 76h64v1h-64ZM203 77h63v1h-63ZM317 77h64v1h-64ZM201 78h64v1h-64ZM318 78h64v1h-64ZM200 79h64v1h-64ZM320 79h63v1h-63ZM199 80h63v1h-63ZM321 80h63v1h-63ZM198 81h63v1h-63ZM322 81h64v1h-64ZM196 82h64v1h-64ZM323 82h64v1h-64ZM195 83h64v1h-64ZM324 83h64v1h-64ZM194 84h64v1h-64ZM325 84h64v1h-64ZM192 85h65v1h-65ZM327 85h64v1h-64ZM191 86h65v1h-65ZM328 86h64v1h-64ZM190 87h65v1h-65ZM329 87h64v1h-64ZM189 88h64v1h-64ZM330 88h64v1h-64ZM187 89h65v1h-65ZM331 89h65v1h-65ZM186 90h65v1h-65ZM332 90h65v1h-65ZM185 91h65v1h-65ZM334 91h64v1h-64ZM183 92h66v1h-66ZM335 92h65v1h-65ZM182 93h66v1h-66ZM336 93h65v1h-65ZM181 94h66v1h-66ZM337 94h65v1h-65ZM179 95h66v1h-66ZM338 95h66v1h-66ZM178 96h66v1h-66ZM340 96h65v1h-65ZM176 97h67v1h-67ZM341 97h65v1h-65ZM175 98h67v1h-67ZM342 98h66v1h-66ZM174 99h67v1h-67ZM343 99h66v1h-66ZM172 100h68v1h-68ZM344 100h66v1h-66ZM171 101h67v1h-67ZM345 101h67v1h-67ZM170 102h67v1h-67ZM346 102h67v1h-67ZM168 103h68v1h-68ZM348 103h67v1h-67ZM167 104h68v1h-68ZM349 104h67v1h-67ZM165 105h69v1h-69ZM350 105h67v1h-67ZM164 106h68v1h-68ZM351 106h68v1h-68ZM163 107h68v1h-68ZM352 107h68v1h-68ZM161 108h69v1h-69ZM353 108h68v1h-68ZM160 109h69v1h-69ZM355 109h68v1h-68ZM158 110h69v1h-69ZM356 110h68v1h-68ZM157 111h69v1h-69ZM357 111h69v1h-69ZM155 112h70v1h-70ZM358 112h69v1h-69ZM154 113h70v1h-70ZM359 113h69v1h-69ZM153 114h69v1h-69ZM361 114h69v1h-69ZM151 115h70v1h-70ZM362 115h69v1h-69ZM150 116h70v1h-70ZM363 116h70v1h-70ZM148 117h71v1h-71ZM364 117h70v1h-70ZM147 118h70v1h-70ZM366 118h69v1h-69ZM145 119h71v1h-71ZM367 119h70v1h-70ZM144 120h71v1h-71ZM368 120h70v1h-70ZM142 121h71v1h-71ZM370 121h69v1h-69ZM141 122h71v1h-71ZM371 122h70v1h-70ZM140 123h71v1h-71ZM372 123h70v1h-70ZM138 124h71v1h-71ZM373 124h71v1h-71ZM137 125h71v1h-71ZM375 125h70v1h-70ZM135 126h72v1h-72ZM376 126h71v1h-71ZM134 127h71v1h-71ZM377 127h71v1h-71ZM132 128h72v1h-72ZM379 128h71v1h-71ZM131 129h72v1h-72ZM380 129h71v1h-71ZM129 130h72v1h-72ZM381 130h71v1h-71ZM128 131h72v1h-72ZM383 131h71v1h-71ZM126 132h73v1h-73ZM384 132h71v1h-71ZM125 133h72v1h-72ZM385 133h72v1h-72ZM123 134h73v1h-73ZM387 134h71v1h-71ZM122 135h72v1h-72ZM388 135h72v1h-72ZM120 136h73v1h-73ZM390 136h71v1h-71ZM119 137h73v1h-73ZM391 137h72v1h-72ZM117 138h73v1h-73ZM392 138h72v1h-72ZM116 139h73v1h-73ZM394 139h72v1h-72ZM114 140h73v1h-73ZM395 140h72v1h-72ZM113 141h73v1h-73ZM397 141h72v1h-72ZM111 142h74v1h-74ZM398 142h72v1h-72ZM110 143h73v1h-73ZM399 143h73v1h-73ZM108 144h74v1h-74ZM401 144h72v1h-72ZM107 145h73v1h-73ZM402 145h73v1h-73ZM105 146h74v1h-74ZM404 146h73v1h-73ZM104 147h74v1h-74ZM405 147h73v1h-73ZM102 148h74v1h-74ZM406 148h73v1h-73ZM101 149h74v1h-74ZM408 149h73v1h-73ZM100 150h73v1h-73ZM409 150h73v1h-73ZM99 151h73v1h-73ZM410 151h73v1h-73ZM98 152h72v1h-72ZM412 152h72v1h-72ZM97 153h72v1h-72ZM413 153h72v1h-72ZM96 154h71v1h-71ZM414 154h72v1h-72ZM95 155h71v1h-71ZM415 155h72v1h-72ZM94 156h71v1h-71ZM416 156h71v1h-71ZM93 157h70v1h-70ZM418 157h70v1h-70ZM93 158h69v1h-69ZM419 158h70v1h-70ZM92 159h68v1h-68ZM420 159h69v1h-69ZM92 160h67v1h-67ZM422 160h68v1h-68ZM91 161h66v1h-66ZM424 161h67v1h-67ZM90 162h66v1h-66ZM426 162h65v1h-65ZM90 163h64v1h-64ZM427 163h65v1h-65ZM89 164h64v1h-64ZM429 164h63v1h-63ZM89 165h62v1h-62ZM430 165h62v1h-62ZM89 166h61v1h-61ZM432 166h61v1h-61ZM88 167h60v1h-60ZM433 167h60v1h-60ZM88 168h59v1h-59ZM435 168h58v1h-58ZM88 169h57v1h-57ZM436 169h58v1h-58ZM87 170h57v1h-57ZM438 170h56v1h-56ZM87 171h55v1h-55ZM439 171h55v1h-55ZM87 172h54v1h-54ZM441 172h53v1h-53ZM87 173h52v1h-52ZM442 173h53v1h-53ZM87 174h51v1h-51ZM444 174h51v1h-51ZM86 175h50v1h-50ZM445 175h50v1h-50ZM86 176h49v1h-49ZM447 176h48v1h-48ZM86 177h47v1h-47ZM448 177h47v1h-47ZM86 178h46v1h-46ZM450 178h45v1h-45ZM86 179h44v1h-44ZM451 179h45v1h-45ZM86 180h43v1h-43ZM453 180h43v1h-43ZM86 181h41v1h-41ZM454 181h42v4h-42ZM85 182h42v5h-42ZM455 185h41v2h-41ZM85 187h41v2h-41ZM455 187h42v5h-42ZM456 192h41v2h-41ZM84 189h42v6h-42ZM84 195h41v2h-41ZM456 194h42v5h-42ZM457 199h41v2h-41ZM83 197h42v5h-42ZM83 202h41v2h-41ZM457 201h42v5h-42ZM458 206h41v2h-41ZM82 204h42v5h-42ZM82 209h41v2h-41ZM458 208h42v6h-42ZM81 211h42v5h-42ZM459 214h41v2h-41ZM81 216h41v2h-41ZM459 216h42v5h-42ZM460 221h41v2h-41ZM80 218h42v6h-42ZM80 224h41v2h-41ZM460 223h42v5h-42ZM461 228h41v2h-41ZM79 226h42v5h-42ZM79 231h41v2h-41ZM306 232h3v1h-3ZM298 233h11v1h-11ZM290 234h19v1h-19ZM461 230h42v5h-42ZM282 235h27v1h-27ZM462 235h41v2h-41ZM78 233h42v5h-42ZM274 236h35v2h-35ZM78 238h41v2h-41ZM462 237h42v6h-42ZM274 238h36v6h-36ZM77 240h42v5h-42ZM463 243h41v2h-41ZM275 244h35v2h-35ZM77 245h41v2h-41ZM463 245h42v5h-42ZM76 247h42v5h-42ZM275 246h36v6h-36ZM464 250h41v2h-41ZM76 252h41v2h-41ZM276 252h35v2h-35ZM276 254h36v3h-36ZM464 252h42v5h-42ZM276 257h37v1h-37ZM465 257h41v2h-41ZM75 254h42v6h-42ZM275 258h38v2h-38ZM275 260h39v1h-39ZM75 260h41v2h-41ZM274 261h40v1h-40ZM274 262h41v1h-41ZM465 259h42v5h-42ZM273 263h42v2h-42ZM273 265h43v1h-43ZM466 264h41v2h-41ZM74 262h42v5h-42ZM272 266h44v2h-44ZM74 267h41v2h-41ZM272 268h45v1h-45ZM271 269h46v2h-46ZM271 271h47v1h-47ZM466 266h42v6h-42ZM73 269h42v5h-42ZM270 272h48v2h-48ZM467 272h41v2h-41ZM270 274h49v1h-49ZM73 274h41v2h-41ZM269 275h50v2h-50ZM269 277h51v1h-51ZM268 278h52v1h-52ZM467 274h42v5h-42ZM268 279h53v1h-53ZM72 276h42v5h-42ZM468 279h41v2h-41ZM267 280h54v2h-54ZM72 281h41v2h-41ZM267 282h55v1h-55ZM266 283h56v2h-56ZM266 285h57v1h-57ZM468 281h42v5h-42ZM71 283h42v5h-42ZM265 286h58v2h-58ZM469 286h41v2h-41ZM265 288h59v1h-59ZM71 288h41v2h-41ZM264 289h60v1h-60ZM264 290h61v1h-61ZM263 291h62v2h-62ZM469 288h42v5h-42ZM263 293h63v1h-63ZM70 290h42v6h-42ZM262 294h64v2h-64ZM470 293h41v3h-41ZM262 296h65v1h-65ZM70 296h41v2h-41ZM261 297h66v1h-66ZM261 298h67v2h-67ZM260 300h68v1h-68ZM470 296h42v5h-42ZM260 301h69v1h-69ZM69 298h42v5h-42ZM471 301h41v2h-41ZM259 302h70v2h-70ZM69 303h41v2h-41ZM259 304h71v1h-71ZM258 305h72v1h-72ZM258 306h73v1h-73ZM471 303h42v5h-42ZM257 307h74v2h-74ZM68 305h42v5h-42ZM257 309h75v1h-75ZM472 308h41v2h-41ZM256 310h76v1h-76ZM68 310h41v2h-41ZM256 311h38v1h-38ZM256 312h37v1h-37ZM295 311h38v3h-38ZM255 313h38v2h-38ZM472 310h42v5h-42ZM296 314h38v2h-38ZM67 312h42v5h-42ZM473 315h41v2h-41ZM254 315h38v3h-38ZM67 317h41v2h-41ZM297 316h38v3h-38ZM253 318h38v2h-38ZM298 319h38v2h-38ZM252 320h38v2h-38ZM298 321h39v1h-39ZM251 322h39v1h-39ZM473 317h42v6h-42ZM299 322h38v2h-38ZM66 319h42v6h-42ZM251 323h38v2h-38ZM474 323h41v2h-41ZM300 324h38v2h-38ZM66 325h41v2h-41ZM250 325h38v2h-38ZM300 326h39v1h-39ZM249 327h39v1h-39ZM301 327h38v2h-38ZM249 328h38v2h-38ZM474 325h42v5h-42ZM248 330h39v1h-39ZM302 329h38v2h-38ZM65 327h42v5h-42ZM248 331h38v1h-38ZM302 331h39v1h-39ZM475 330h41v2h-41ZM247 332h39v1h-39ZM65 332h41v2h-41ZM247 333h38v1h-38ZM303 332h38v2h-38ZM246 334h39v1h-39ZM304 334h38v2h-38ZM246 335h38v2h-38ZM304 336h39v1h-39ZM475 332h42v5h-42ZM245 337h39v1h-39ZM305 337h38v1h-38ZM64 334h42v5h-42ZM245 338h38v1h-38ZM305 338h39v1h-39ZM476 337h41v2h-41ZM244 339h39v1h-39ZM64 339h41v2h-41ZM244 340h38v1h-38ZM306 339h38v2h-38ZM306 341h39v1h-39ZM243 341h39v2h-39ZM307 342h38v1h-38ZM307 343h39v1h-39ZM476 339h42v5h-42ZM242 343h39v2h-39ZM308 344h38v1h-38ZM63 341h42v5h-42ZM242 345h38v1h-38ZM308 345h39v1h-39ZM477 344h41v2h-41ZM241 346h39v1h-39ZM309 346h38v1h-38ZM63 346h41v2h-41ZM241 347h38v1h-38ZM309 347h39v2h-39ZM240 348h39v2h-39ZM310 349h39v2h-39ZM239 350h39v2h-39ZM311 351h38v1h-38ZM477 346h42v6h-42ZM62 348h42v5h-42ZM238 352h39v2h-39ZM311 352h39v2h-39ZM478 352h41v2h-41ZM62 353h41v2h-41ZM237 354h39v2h-39ZM312 354h39v2h-39ZM236 356h40v1h-40ZM236 357h39v1h-39ZM313 356h39v2h-39ZM235 358h40v1h-40ZM478 354h42v5h-42ZM235 359h39v1h-39ZM314 358h39v2h-39ZM61 355h42v6h-42ZM234 360h40v1h-40ZM479 359h41v2h-41ZM234 361h39v1h-39ZM315 360h39v2h-39ZM61 361h41v2h-41ZM233 362h40v1h-40ZM315 362h40v1h-40ZM233 363h39v1h-39ZM316 363h39v1h-39ZM232 364h40v1h-40ZM316 364h40v1h-40ZM232 365h39v1h-39ZM317 365h39v1h-39ZM479 361h42v5h-42ZM231 366h40v1h-40ZM317 366h40v1h-40ZM60 363h42v5h-42ZM231 367h39v1h-39ZM318 367h39v1h-39ZM480 366h41v2h-41ZM318 368h40v1h-40ZM60 368h41v2h-41ZM230 368h40v2h-40ZM319 369h39v1h-39ZM319 370h40v1h-40ZM229 370h40v2h-40ZM320 371h39v1h-39ZM320 372h40v1h-40ZM480 368h42v5h-42ZM228 372h40v2h-40ZM321 373h39v1h-39ZM59 370h42v5h-42ZM321 374h40v1h-40ZM481 373h41v2h-41ZM227 374h40v2h-40ZM59 375h41v2h-41ZM322 375h40v2h-40ZM226 376h40v2h-40ZM323 377h40v2h-40ZM225 378h40v2h-40ZM324 379h40v2h-40ZM481 375h42v6h-42ZM58 377h42v5h-42ZM224 380h40v2h-40ZM223 382h40v1h-40ZM325 381h40v2h-40ZM482 381h41v2h-41ZM58 382h41v2h-41ZM222 383h41v1h-41ZM222 384h40v1h-40ZM326 383h40v2h-40ZM221 385h41v1h-41ZM221 386h40v1h-40ZM327 385h40v2h-40ZM328 387h40v1h-40ZM482 383h42v5h-42ZM220 387h40v2h-40ZM328 388h41v1h-41ZM57 384h42v6h-42ZM329 389h40v1h-40ZM483 388h41v2h-41ZM219 389h40v2h-40ZM329 390h41v1h-41ZM57 390h41v2h-41ZM330 391h40v1h-40ZM218 391h40v2h-40ZM330 392h41v1h-41ZM217 393h40v1h-40ZM331 393h40v1h-40ZM216 394h41v1h-41ZM331 394h41v1h-41ZM483 390h42v5h-42ZM216 395h40v1h-40ZM332 395h40v1h-40ZM56 392h42v5h-42ZM215 396h41v1h-41ZM333 396h40v1h-40ZM484 395h41v2h-41ZM215 397h40v1h-40ZM333 397h41v1h-41ZM56 397h41v2h-41ZM214 398h41v1h-41ZM334 398h40v1h-40ZM214 399h40v1h-40ZM334 399h41v1h-41ZM213 400h41v1h-41ZM335 400h40v1h-40ZM335 401h41v1h-41ZM484 397h42v5h-42ZM212 401h41v2h-41ZM336 402h40v1h-40ZM55 399h42v5h-42ZM211 403h41v1h-41ZM336 403h41v1h-41ZM485 402h41v2h-41ZM211 404h40v1h-40ZM55 404h41v2h-41ZM210 405h41v1h-41ZM337 404h41v2h-41ZM210 406h40v1h-40ZM338 406h41v1h-41ZM54 406h42v2h-42ZM209 407h41v1h-41ZM339 407h40v1h-40ZM485 404h42v4h-42ZM36 408h60v1h-60ZM339 408h41v1h-41ZM485 408h60v1h-60ZM33 409h63v1h-63ZM208 408h41v2h-41ZM340 409h40v1h-40ZM485 409h64v1h-64ZM30 410h66v1h-66ZM340 410h41v1h-41ZM486 410h65v1h-65ZM28 411h67v1h-67ZM207 410h41v2h-41ZM486 411h67v1h-67ZM26 412h69v1h-69ZM206 412h41v1h-41ZM341 411h41v2h-41ZM486 412h69v1h-69ZM25 413h70v1h-70ZM206 413h40v1h-40ZM486 413h70v1h-70ZM23 414h72v1h-72ZM205 414h41v1h-41ZM342 413h41v2h-41ZM486 414h72v1h-72ZM22 415h73v1h-73ZM343 415h41v1h-41ZM486 415h73v1h-73ZM21 416h74v1h-74ZM204 415h41v2h-41ZM486 416h74v1h-74ZM20 417h75v1h-75ZM344 416h41v2h-41ZM487 417h74v1h-74ZM203 417h41v2h-41ZM487 418h75v1h-75ZM19 418h75v2h-75ZM202 419h41v1h-41ZM345 418h41v2h-41ZM18 420h76v1h-76ZM487 419h76v2h-76ZM201 420h41v2h-41ZM346 420h41v2h-41ZM487 421h77v1h-77ZM17 421h77v2h-77ZM347 422h41v1h-41ZM16 423h78v1h-78ZM200 422h41v2h-41ZM487 422h78v2h-78ZM199 424h41v1h-41ZM348 423h41v2h-41ZM15 424h79v2h-79ZM198 425h42v1h-42ZM488 424h78v2h-78ZM15 426h78v1h-78ZM198 426h41v1h-41ZM349 425h41v2h-41ZM350 427h41v1h-41ZM197 427h41v2h-41ZM350 428h42v1h-42ZM488 426h79v3h-79ZM14 427h79v3h-79ZM196 429h41v1h-41ZM351 429h41v1h-41ZM195 430h42v1h-42ZM488 429h80v2h-80ZM195 431h41v1h-41ZM352 430h41v2h-41ZM13 430h80v3h-80ZM353 432h41v1h-41ZM194 432h41v2h-41ZM353 433h42v1h-42ZM489 431h79v3h-79ZM13 433h79v2h-79ZM193 434h41v1h-41ZM354 434h41v1h-41ZM192 435h42v1h-42ZM192 436h41v1h-41ZM355 435h41v2h-41ZM191 437h42v1h-42ZM356 437h41v1h-41ZM191 438h41v1h-41ZM356 438h42v1h-42ZM489 434h80v5h-80ZM12 435h80v5h-80ZM190 439h41v1h-41ZM357 439h41v1h-41ZM189 440h42v1h-42ZM358 440h41v1h-41ZM189 441h41v1h-41ZM358 441h42v1h-42ZM188 442h42v1h-42ZM359 442h41v1h-41ZM12 440h79v4h-79ZM188 443h41v1h-41ZM359 443h42v1h-42ZM490 439h79v5h-79ZM12 444h557v14h-557ZM13 458h556v2h-556ZM13 460h555v4h-555ZM14 464h554v1h-554ZM14 465h553v2h-553ZM15 467h551v2h-551ZM16 469h550v1h-550ZM16 470h549v1h-549ZM17 471h547v2h-547ZM18 473h545v1h-545ZM19 474h543v1h-543ZM20 475h541v1h-541ZM21 476h540v1h-540ZM22 477h538v1h-538ZM23 478h535v1h-535ZM24 479h533v1h-533ZM25 480h531v1h-531ZM27 481h527v1h-527ZM29 482h523v1h-523ZM31 483h519v1h-519ZM34 484h513v1h-513ZM39 485h503v1h-503Z"/></svg>
