<svg xmlns="http://www.w3.org/2000/svg" width="641" height="504" viewBox="0 0 641 504"><path fill="#4e1601" d="M302 12h37v1h-37ZM289 13h63v1h-63ZM281 14h79v1h-79ZM273 15h95v1h-95ZM267 16h107v1h-107ZM262 17h117v1h-117ZM257 18h127v1h-127ZM252 19h137v1h-137ZM248 20h145v1h-145ZM244 21h153v1h-153ZM240 22h161v1h-161ZM237 23h167v1h-167ZM233 24h175v1h-175ZM230 25h181v1h-181ZM227 26h187v1h-187ZM224 27h193v1h-193ZM221 28h199v1h-199ZM218 29h205v1h-205ZM215 30h211v1h-211ZM212 31h217v1h-217ZM210 32h221v1h-221ZM207 33h227v1h-227ZM204 34h233v1h-233ZM202 35h237v1h-237ZM200 36h241v1h-241ZM197 37h247v1h-247ZM195 38h251v1h-251ZM193 39h255v1h-255ZM191 40h259v1h-259ZM189 41h263v1h-263ZM186 42h269v1h-269ZM184 43h273v1h-273ZM182 44h277v1h-277ZM180 45h281v1h-281ZM178 46h133v1h-133ZM330 46h133v1h-133ZM177 47h118v1h-118ZM344 47h120v1h-120ZM175 48h111v1h-111ZM353 48h113v1h-113ZM173 49h106v1h-106ZM355 49h113v1h-113ZM171 50h102v1h-102ZM355 50h115v1h-115ZM169 51h98v1h-98ZM355 51h117v1h-117ZM167 52h96v1h-96ZM355 52h119v1h-119ZM166 53h92v1h-92ZM355 53h120v1h-120ZM164 54h90v1h-90ZM355 54h122v1h-122ZM162 55h88v1h-88ZM390 55h89v1h-89ZM161 56h86v1h-86ZM393 56h87v1h-87ZM159 57h84v1h-84ZM397 57h85v1h-85ZM157 58h83v1h-83ZM400 58h84v1h-84ZM156 59h81v1h-81ZM404 59h81v1h-81ZM154 60h80v1h-80ZM407 60h80v1h-80ZM153 61h78v1h-78ZM410 61h78v1h-78ZM151 62h77v1h-77ZM412 62h78v1h-78ZM150 63h75v1h-75ZM415 63h76v1h-76ZM148 64h74v1h-74ZM418 64h75v1h-75ZM147 65h73v1h-73ZM420 65h74v1h-74ZM145 66h72v1h-72ZM423 66h73v1h-73ZM144 67h71v1h-71ZM425 67h72v1h-72ZM142 68h71v1h-71ZM428 68h71v1h-71ZM141 69h69v1h-69ZM430 69h70v1h-70ZM140 70h68v1h-68ZM432 70h69v1h-69ZM138 71h68v1h-68ZM435 71h68v1h-68ZM137 72h67v1h-67ZM437 72h67v1h-67ZM136 73h66v1h-66ZM439 73h66v1h-66ZM134 74h66v1h-66ZM441 74h66v1h-66ZM133 75h65v1h-65ZM443 75h65v1h-65ZM132 76h64v1h-64ZM445 76h64v1h-64ZM130 77h64v1h-64ZM447 77h64v1h-64ZM129 78h63v1h-63ZM449 78h63v1h-63ZM128 79h62v1h-62ZM451 79h62v1h-62ZM127 80h61v1h-61ZM452 80h62v1h-62ZM125 81h61v1h-61ZM454 81h62v1h-62ZM124 82h61v1h-61ZM456 82h61v1h-61ZM123 83h60v1h-60ZM458 83h60v1h-60ZM122 84h59v1h-59ZM459 84h60v1h-60ZM121 85h59v1h-59ZM461 85h59v1h-59ZM119 86h59v1h-59ZM463 86h59v1h-59ZM118 87h58v1h-58ZM464 87h59v1h-59ZM117 88h58v1h-58ZM466 88h58v1h-58ZM116 89h57v1h-57ZM468 89h57v1h-57ZM115 90h57v1h-57ZM469 90h57v1h-57ZM114 91h56v1h-56ZM471 91h56v1h-56ZM113 92h56v1h-56ZM472 92h56v1h-56ZM112 93h55v1h-55ZM474 93h55v1h-55ZM110 94h56v1h-56ZM475 94h56v1h-56ZM109 95h55v1h-55ZM477 95h55v1h-55ZM108 96h55v1h-55ZM478 96h55v1h-55ZM107 97h54v1h-54ZM479 97h55v1h-55ZM106 98h54v1h-54ZM481 98h54v1h-54ZM105 99h54v1h-54ZM482 99h54v1h-54ZM104 100h53v1h-53ZM484 100h53v1h-53ZM103 101h53v1h-53ZM485 101h53v1h-53ZM102 102h53v1h-53ZM486 102h53v1h-53ZM101 103h52v1h-52ZM488 103h52v1h-52ZM100 104h52v1h-52ZM489 104h52v1h-52ZM99 105h52v1h-52ZM490 105h52v1h-52ZM98 106h52v1h-52ZM491 106h52v1h-52ZM97 107h51v1h-51ZM493 107h51v1h-51ZM96 108h51v1h-51ZM494 108h51v1h-51ZM95 109h51v1h-51ZM495 109h51v1h-51ZM94 110h51v1h-51ZM496 110h51v1h-51ZM94 111h49v1h-49ZM497 111h50v1h-50ZM93 112h49v1h-49ZM499 112h49v1h-49ZM92 113h49v1h-49ZM500 113h49v1h-49ZM91 114h49v1h-49ZM501 114h49v1h-49ZM90 115h49v1h-49ZM502 115h49v1h-49ZM89 116h49v1h-49ZM503 116h49v1h-49ZM88 117h49v1h-49ZM504 117h49v1h-49ZM87 118h49v1h-49ZM505 118h49v1h-49ZM86 119h49v1h-49ZM506 119h49v1h-49ZM86 120h47v1h-47ZM508 120h47v1h-47ZM85 121h47v1h-47ZM509 121h47v1h-47ZM84 122h47v1h-47ZM510 122h47v1h-47ZM83 123h47v1h-47ZM511 123h47v1h-47ZM82 124h47v1h-47ZM512 124h47v1h-47ZM81 125h47v1h-47ZM513 125h47v1h-47ZM81 126h46v1h-46ZM514 126h46v1h-46ZM80 127h46v1h-46ZM515 127h46v1h-46ZM79 128h46v1h-46ZM516 128h46v1h-46ZM78 129h46v1h-46ZM517 129h46v1h-46ZM77 130h46v1h-46ZM518 130h46v1h-46ZM77 131h45v1h-45ZM519 131h45v1h-45ZM76 132h45v1h-45ZM520 132h45v1h-45ZM75 133h45v1h-45ZM521 133h45v1h-45ZM74 134h46v1h-46ZM521 134h46v1h-46ZM74 135h45v1h-45ZM522 135h45v1h-45ZM73 136h45v1h-45ZM523 136h45v1h-45ZM72 137h45v1h-45ZM524 137h45v1h-45ZM71 138h45v1h-45ZM525 138h45v1h-45ZM71 139h44v1h-44ZM526 139h44v1h-44ZM70 140h44v1h-44ZM527 140h44v1h-44ZM69 141h44v1h-44ZM528 141h44v1h-44ZM68 142h44v2h-44ZM529 142h44v2h-44ZM67 144h44v1h-44ZM530 144h44v1h-44ZM66 145h44v1h-44ZM531 145h44v1h-44ZM66 146h43v1h-43ZM532 146h43v1h-43ZM65 147h43v1h-43ZM533 147h43v1h-43ZM64 148h43v1h-43ZM355 55h34v94h-34ZM534 148h43v1h-43ZM64 149h513v1h-513ZM63 150h515v1h-515ZM62 151h517v2h-517ZM61 153h519v1h-519ZM60 154h521v2h-521ZM59 156h523v2h-523ZM58 158h525v1h-525ZM57 159h527v2h-527ZM56 161h529v1h-529ZM55 162h531v2h-531ZM54 164h533v2h-533ZM53 166h535v2h-535ZM52 168h537v1h-537ZM51 169h539v2h-539ZM50 171h541v2h-541ZM49 173h543v2h-543ZM48 175h545v2h-545ZM47 177h547v2h-547ZM46 179h549v2h-549ZM45 181h551v2h-551ZM44 183h40v1h-40ZM114 183h36v1h-36ZM491 183h36v1h-36ZM557 183h40v1h-40ZM44 184h39v1h-39ZM558 184h39v1h-39ZM43 185h39v2h-39ZM559 185h39v2h-39ZM42 187h39v2h-39ZM560 187h39v2h-39ZM41 189h39v1h-39ZM561 189h39v1h-39ZM41 190h38v1h-38ZM562 190h38v1h-38ZM40 191h39v1h-39ZM562 191h39v1h-39ZM40 192h38v1h-38ZM563 192h38v1h-38ZM39 193h39v1h-39ZM563 193h39v1h-39ZM39 194h38v1h-38ZM564 194h38v1h-38ZM38 195h39v1h-39ZM564 195h39v1h-39ZM38 196h38v2h-38ZM565 196h38v2h-38ZM37 198h38v2h-38ZM566 198h38v2h-38ZM36 200h38v2h-38ZM567 200h38v2h-38ZM35 202h38v2h-38ZM568 202h38v2h-38ZM35 204h37v1h-37ZM569 204h37v1h-37ZM34 205h38v1h-38ZM569 205h38v1h-38ZM34 206h37v1h-37ZM570 206h37v1h-37ZM33 207h38v2h-38ZM570 207h38v2h-38ZM33 209h37v1h-37ZM571 209h37v1h-37ZM32 210h38v1h-38ZM571 210h38v1h-38ZM32 211h37v1h-37ZM572 211h37v1h-37ZM31 212h38v1h-38ZM572 212h38v1h-38ZM31 213h37v2h-37ZM573 213h37v2h-37ZM30 215h37v3h-37ZM574 215h37v3h-37ZM29 218h37v2h-37ZM575 218h37v2h-37ZM29 220h36v1h-36ZM576 220h36v1h-36ZM28 221h37v2h-37ZM576 221h37v2h-37ZM28 223h36v1h-36ZM577 223h36v1h-36ZM27 224h37v2h-37ZM577 224h37v2h-37ZM27 226h36v1h-36ZM578 226h36v1h-36ZM26 227h37v1h-37ZM578 227h37v1h-37ZM26 228h36v2h-36ZM579 228h36v2h-36ZM25 230h37v1h-37ZM579 230h37v1h-37ZM25 231h36v2h-36ZM580 231h36v2h-36ZM24 233h37v1h-37ZM580 233h37v1h-37ZM24 234h36v3h-36ZM581 234h36v3h-36ZM23 237h36v3h-36ZM582 237h36v3h-36ZM23 240h35v1h-35ZM583 240h35v1h-35ZM22 241h36v3h-36ZM583 241h36v3h-36ZM21 244h36v3h-36ZM584 244h36v3h-36ZM21 247h35v1h-35ZM585 247h35v1h-35ZM20 248h36v3h-36ZM585 248h36v3h-36ZM20 251h35v2h-35ZM309 252h23v1h-23ZM586 251h35v2h-35ZM300 253h41v1h-41ZM19 253h36v2h-36ZM294 254h53v1h-53ZM586 253h36v2h-36ZM290 255h61v1h-61ZM19 255h35v2h-35ZM286 256h69v1h-69ZM587 255h35v2h-35ZM282 257h77v1h-77ZM18 257h36v2h-36ZM279 258h83v1h-83ZM587 257h36v2h-36ZM276 259h89v1h-89ZM273 260h95v1h-95ZM18 259h35v3h-35ZM271 261h99v1h-99ZM588 259h35v3h-35ZM17 262h36v1h-36ZM268 262h105v1h-105ZM588 262h36v1h-36ZM266 263h109v1h-109ZM264 264h113v1h-113ZM262 265h117v1h-117ZM259 266h123v1h-123ZM17 263h35v5h-35ZM258 267h125v1h-125ZM589 263h35v5h-35ZM256 268h129v1h-129ZM254 269h133v1h-133ZM252 270h137v1h-137ZM251 271h139v1h-139ZM16 268h35v5h-35ZM249 272h143v1h-143ZM590 268h35v5h-35ZM16 273h34v1h-34ZM247 273h147v1h-147ZM591 273h34v1h-34ZM246 274h149v1h-149ZM244 275h153v1h-153ZM243 276h155v1h-155ZM241 277h159v1h-159ZM240 278h161v1h-161ZM15 274h35v6h-35ZM239 279h163v1h-163ZM591 274h35v6h-35ZM15 280h34v1h-34ZM237 280h167v1h-167ZM592 280h34v1h-34ZM236 281h169v1h-169ZM235 282h171v1h-171ZM234 283h173v1h-173ZM233 284h175v1h-175ZM231 285h179v1h-179ZM14 281h35v6h-35ZM230 286h85v1h-85ZM326 286h85v1h-85ZM592 281h35v6h-35ZM229 287h76v1h-76ZM336 287h76v1h-76ZM228 288h71v1h-71ZM342 288h71v1h-71ZM14 287h34v3h-34ZM227 289h68v1h-68ZM346 289h68v1h-68ZM593 287h34v3h-34ZM226 290h66v1h-66ZM349 290h66v1h-66ZM225 291h63v1h-63ZM353 291h63v1h-63ZM224 292h61v1h-61ZM356 292h61v1h-61ZM223 293h60v1h-60ZM358 293h60v1h-60ZM222 294h58v1h-58ZM361 294h58v1h-58ZM13 290h35v6h-35ZM221 295h57v1h-57ZM363 295h57v1h-57ZM593 290h35v6h-35ZM220 296h56v1h-56ZM365 296h56v1h-56ZM219 297h55v1h-55ZM367 297h55v1h-55ZM218 298h54v1h-54ZM369 298h54v1h-54ZM217 299h53v1h-53ZM371 299h53v1h-53ZM217 300h51v1h-51ZM373 300h51v1h-51ZM216 301h51v1h-51ZM374 301h51v1h-51ZM215 302h50v1h-50ZM376 302h50v1h-50ZM13 296h34v8h-34ZM214 303h50v1h-50ZM377 303h50v1h-50ZM594 296h34v8h-34ZM213 304h49v1h-49ZM379 304h49v1h-49ZM213 305h48v1h-48ZM380 305h48v1h-48ZM212 306h47v1h-47ZM382 306h47v1h-47ZM211 307h47v1h-47ZM383 307h47v1h-47ZM210 308h47v1h-47ZM384 308h47v1h-47ZM210 309h46v1h-46ZM385 309h46v1h-46ZM209 310h45v1h-45ZM387 310h45v1h-45ZM208 311h45v1h-45ZM388 311h45v1h-45ZM208 312h44v1h-44ZM389 312h44v1h-44ZM12 304h35v10h-35ZM207 313h44v1h-44ZM390 313h44v1h-44ZM594 304h35v10h-35ZM206 314h44v1h-44ZM391 314h44v1h-44ZM206 315h43v1h-43ZM392 315h43v1h-43ZM205 316h43v1h-43ZM393 316h43v1h-43ZM204 317h43v1h-43ZM394 317h43v1h-43ZM204 318h42v1h-42ZM395 318h42v1h-42ZM12 314h34v6h-34ZM115 184h34v136h-34ZM203 319h42v1h-42ZM396 319h42v1h-42ZM492 184h34v136h-34ZM595 314h34v6h-34ZM12 320h35v1h-35ZM114 320h36v1h-36ZM202 320h42v1h-42ZM397 320h42v1h-42ZM491 320h36v1h-36ZM594 320h35v1h-35ZM12 321h231v1h-231ZM398 321h231v1h-231ZM12 322h230v1h-230ZM399 322h230v1h-230ZM12 323h229v2h-229ZM400 323h229v2h-229ZM12 325h228v1h-228ZM401 325h228v1h-228ZM12 326h227v1h-227ZM402 326h227v1h-227ZM12 327h226v2h-226ZM403 327h226v2h-226ZM12 329h225v1h-225ZM404 329h225v1h-225ZM12 330h224v1h-224ZM405 330h224v1h-224ZM12 331h223v2h-223ZM406 331h223v2h-223ZM12 333h222v1h-222ZM407 333h222v1h-222ZM12 334h221v2h-221ZM408 334h221v2h-221ZM12 336h220v2h-220ZM409 336h220v2h-220ZM12 338h219v2h-219ZM410 338h219v2h-219ZM12 340h218v1h-218ZM411 340h218v1h-218ZM12 341h217v2h-217ZM412 341h217v2h-217ZM12 343h216v2h-216ZM413 343h216v2h-216ZM12 345h215v3h-215ZM414 345h215v3h-215ZM12 348h214v2h-214ZM415 348h214v2h-214ZM12 350h213v2h-213ZM416 350h213v2h-213ZM12 352h212v3h-212ZM417 352h212v3h-212ZM188 355h35v3h-35ZM418 355h35v3h-35ZM187 358h35v4h-35ZM419 358h35v4h-35ZM186 362h35v3h-35ZM420 362h35v3h-35ZM186 365h34v2h-34ZM421 365h34v2h-34ZM185 367h35v3h-35ZM421 367h35v3h-35ZM185 370h34v3h-34ZM422 370h34v4h-34ZM184 373h35v4h-35ZM422 374h35v3h-35ZM184 377h34v7h-34ZM423 377h34v7h-34ZM12 355h34v102h-34ZM595 355h34v102h-34ZM12 457h35v1h-35ZM183 384h35v74h-35ZM423 384h35v74h-35ZM594 457h35v1h-35ZM12 458h617v5h-617ZM13 463h615v5h-615ZM14 468h613v3h-613ZM15 471h611v2h-611ZM16 473h609v2h-609ZM17 475h607v1h-607ZM18 476h605v2h-605ZM19 478h603v1h-603ZM20 479h601v1h-601ZM21 480h599v1h-599ZM22 481h597v1h-597ZM23 482h595v1h-595ZM24 483h593v1h-593ZM25 484h591v1h-591ZM26 485h589v1h-589ZM28 486h585v1h-585ZM29 487h583v1h-583ZM31 488h579v1h-579ZM33 489h575v1h-575ZM36 490h569v1h-569ZM40 491h561v1h-561Z"/></svg>
