<svg xmlns="http://www.w3.org/2000/svg" width="443" height="507" viewBox="0 0 443 507"><path fill="#4e1601" d="M41 12h63v1h-63ZM178 12h86v1h-86ZM339 12h63v1h-63ZM36 13h73v1h-73ZM173 13h97v1h-97ZM334 13h73v1h-73ZM33 14h79v1h-79ZM170 14h103v1h-103ZM331 14h79v1h-79ZM30 15h84v1h-84ZM167 15h108v1h-108ZM329 15h83v1h-83ZM28 16h88v1h-88ZM165 16h112v1h-112ZM327 16h87v1h-87ZM27 17h91v1h-91ZM164 17h115v1h-115ZM325 17h91v1h-91ZM25 18h94v1h-94ZM162 18h118v1h-118ZM324 18h93v1h-93ZM24 19h97v1h-97ZM161 19h121v1h-121ZM322 19h97v1h-97ZM23 20h99v1h-99ZM160 20h123v1h-123ZM321 20h99v1h-99ZM22 21h101v1h-101ZM159 21h125v1h-125ZM320 21h101v1h-101ZM21 22h103v1h-103ZM158 22h127v1h-127ZM319 22h103v1h-103ZM20 23h105v1h-105ZM157 23h129v1h-129ZM318 23h105v1h-105ZM19 24h107v1h-107ZM156 24h131v1h-131ZM18 25h108v1h-108ZM155 25h132v1h-132ZM317 24h107v2h-107ZM18 26h109v1h-109ZM155 26h133v1h-133ZM316 26h109v1h-109ZM17 27h111v1h-111ZM16 28h112v1h-112ZM154 27h135v2h-135ZM315 27h111v2h-111ZM16 29h113v1h-113ZM153 29h137v1h-137ZM15 30h114v1h-114ZM152 30h138v1h-138ZM314 29h113v2h-113ZM15 31h115v2h-115ZM152 31h139v2h-139ZM313 31h115v2h-115ZM151 33h140v1h-140ZM312 33h116v1h-116ZM14 33h117v3h-117ZM151 34h141v2h-141ZM13 36h118v1h-118ZM150 36h142v1h-142ZM312 34h117v3h-117ZM311 37h118v1h-118ZM13 37h119v5h-119ZM12 42h120v1h-120ZM150 37h143v6h-143ZM311 38h119v5h-119ZM12 43h32v1h-32ZM149 43h32v1h-32ZM101 43h31v34h-31ZM149 44h31v33h-31ZM262 43h31v34h-31ZM311 43h31v34h-31ZM101 77h79v30h-79ZM262 77h80v30h-80ZM102 107h78v1h-78ZM263 107h78v1h-78ZM219 205h5v1h-5ZM212 206h19v1h-19ZM208 207h27v1h-27ZM205 208h33v1h-33ZM202 209h39v1h-39ZM12 44h31v167h-31ZM200 210h43v1h-43ZM12 211h32v1h-32ZM198 211h47v1h-47ZM399 43h31v169h-31ZM12 212h34v1h-34ZM197 212h49v1h-49ZM397 212h33v1h-33ZM12 213h36v1h-36ZM195 213h53v1h-53ZM395 213h35v1h-35ZM12 214h38v1h-38ZM194 214h55v1h-55ZM393 214h37v1h-37ZM12 215h40v1h-40ZM192 215h59v1h-59ZM391 215h39v1h-39ZM12 216h42v1h-42ZM191 216h61v1h-61ZM389 216h41v1h-41ZM12 217h44v1h-44ZM190 217h63v1h-63ZM387 217h43v1h-43ZM12 218h46v1h-46ZM189 218h65v1h-65ZM385 218h45v1h-45ZM12 219h48v1h-48ZM188 219h67v1h-67ZM383 219h47v1h-47ZM12 220h50v1h-50ZM187 220h69v1h-69ZM381 220h49v1h-49ZM12 221h52v1h-52ZM186 221h71v1h-71ZM379 221h51v1h-51ZM12 222h54v1h-54ZM185 222h73v1h-73ZM377 222h53v1h-53ZM12 223h56v1h-56ZM184 223h75v1h-75ZM375 223h55v1h-55ZM12 224h58v1h-58ZM373 224h57v1h-57ZM12 225h60v1h-60ZM183 224h77v2h-77ZM371 225h59v1h-59ZM12 226h62v1h-62ZM182 226h79v1h-79ZM369 226h61v1h-61ZM12 227h64v1h-64ZM367 227h63v1h-63ZM12 228h66v1h-66ZM181 227h81v2h-81ZM365 228h65v1h-65ZM12 229h68v1h-68ZM363 229h67v1h-67ZM13 230h69v1h-69ZM180 229h83v2h-83ZM361 230h69v1h-69ZM14 231h70v1h-70ZM359 231h69v1h-69ZM16 232h70v1h-70ZM179 231h85v2h-85ZM357 232h69v1h-69ZM18 233h70v1h-70ZM355 233h69v1h-69ZM20 234h70v1h-70ZM178 233h87v2h-87ZM353 234h69v1h-69ZM22 235h70v1h-70ZM177 235h89v1h-89ZM351 235h69v1h-69ZM25 236h69v1h-69ZM177 236h42v1h-42ZM224 236h42v1h-42ZM349 236h69v1h-69ZM27 237h69v1h-69ZM176 237h39v1h-39ZM228 237h39v1h-39ZM347 237h69v1h-69ZM29 238h69v1h-69ZM176 238h37v1h-37ZM230 238h37v1h-37ZM344 238h70v1h-70ZM31 239h69v1h-69ZM176 239h36v1h-36ZM231 239h36v1h-36ZM342 239h70v1h-70ZM33 240h69v1h-69ZM176 240h35v1h-35ZM232 240h35v1h-35ZM340 240h70v1h-70ZM35 241h69v1h-69ZM338 241h70v1h-70ZM37 242h69v1h-69ZM175 241h34v2h-34ZM234 241h34v2h-34ZM336 242h70v1h-70ZM39 243h69v1h-69ZM175 243h33v1h-33ZM235 243h33v1h-33ZM335 243h69v1h-69ZM41 244h67v1h-67ZM175 244h32v1h-32ZM236 244h32v1h-32ZM335 244h67v1h-67ZM43 245h65v1h-65ZM174 245h33v1h-33ZM236 245h33v1h-33ZM335 245h65v1h-65ZM45 246h63v1h-63ZM335 246h63v1h-63ZM47 247h61v1h-61ZM174 246h32v2h-32ZM237 246h32v2h-32ZM335 247h61v1h-61ZM49 248h59v1h-59ZM335 248h59v1h-59ZM51 249h57v1h-57ZM335 249h57v1h-57ZM53 250h55v1h-55ZM335 250h55v1h-55ZM55 251h53v1h-53ZM335 251h53v1h-53ZM57 252h51v1h-51ZM335 252h51v1h-51ZM59 253h49v1h-49ZM335 253h49v1h-49ZM61 254h47v1h-47ZM335 254h47v1h-47ZM63 255h45v1h-45ZM335 255h45v1h-45ZM65 256h43v1h-43ZM335 256h43v1h-43ZM67 257h41v1h-41ZM335 257h41v1h-41ZM69 258h39v1h-39ZM335 258h39v1h-39ZM71 259h37v1h-37ZM335 259h37v1h-37ZM73 260h35v1h-35ZM335 260h35v1h-35ZM75 261h33v1h-33ZM335 261h33v1h-33ZM77 262h31v26h-31ZM77 288h30v2h-30ZM174 248h31v54h-31ZM238 248h31v54h-31ZM335 262h31v41h-31ZM336 303h30v1h-30ZM76 290h31v23h-31ZM76 313h30v1h-30ZM336 304h31v18h-31ZM75 314h31v15h-31ZM174 302h95v31h-95ZM337 322h31v14h-31ZM74 329h31v12h-31ZM73 341h32v1h-32ZM338 336h31v10h-31ZM338 346h32v1h-32ZM73 342h31v9h-31ZM72 351h32v1h-32ZM339 347h31v9h-31ZM339 356h32v1h-32ZM72 352h31v8h-31ZM71 360h32v1h-32ZM340 357h31v7h-31ZM340 364h32v2h-32ZM71 361h31v7h-31ZM70 368h32v2h-32ZM341 366h31v6h-31ZM341 372h32v2h-32ZM70 370h31v6h-31ZM69 376h32v1h-32ZM342 374h31v5h-31ZM342 379h32v2h-32ZM69 377h31v6h-31ZM68 383h32v1h-32ZM343 381h31v5h-31ZM343 386h32v2h-32ZM68 384h31v5h-31ZM67 389h32v2h-32ZM344 388h31v5h-31ZM344 393h32v2h-32ZM67 391h31v5h-31ZM66 396h32v3h-32ZM345 395h31v4h-31ZM66 399h311v1h-311ZM38 400h367v1h-367ZM34 401h375v1h-375ZM32 402h379v1h-379ZM30 403h383v1h-383ZM28 404h387v1h-387ZM26 405h391v1h-391ZM25 406h393v1h-393ZM24 407h395v1h-395ZM23 408h397v1h-397ZM22 409h400v1h-400ZM21 410h401v1h-401ZM20 411h403v1h-403ZM19 412h405v1h-405ZM18 413h407v2h-407ZM17 415h409v1h-409ZM16 416h411v2h-411ZM15 418h413v3h-413ZM14 421h415v3h-415ZM13 424h417v6h-417ZM13 430h418v1h-418ZM13 431h31v33h-31ZM400 431h31v33h-31ZM13 464h418v2h-418ZM13 466h417v5h-417ZM14 471h416v1h-416ZM14 472h415v2h-415ZM15 474h414v1h-414ZM15 475h413v2h-413ZM16 477h411v2h-411ZM17 479h409v1h-409ZM18 480h408v1h-408ZM18 481h407v1h-407ZM19 482h405v1h-405ZM20 483h404v1h-404ZM21 484h402v1h-402ZM21 485h401v1h-401ZM22 486h399v1h-399ZM24 487h396v1h-396ZM25 488h393v1h-393ZM26 489h391v1h-391ZM28 490h388v1h-388ZM29 491h385v1h-385ZM32 492h380v1h-380ZM34 493h375v1h-375ZM38 494h367v1h-367Z"/></svg>
