<svg xmlns="http://www.w3.org/2000/svg" width="541" height="541" viewBox="0 0 541 541"><path fill="#4e1601" d="M108 12h277v1h-277ZM96 13h303v1h-303ZM90 14h316v1h-316ZM86 15h325v1h-325ZM82 16h334v1h-334ZM79 17h341v1h-341ZM76 18h347v1h-347ZM74 19h352v1h-352ZM71 20h358v1h-358ZM69 21h363v1h-363ZM67 22h368v1h-368ZM65 23h372v1h-372ZM63 24h377v1h-377ZM61 25h381v1h-381ZM59 26h385v1h-385ZM58 27h388v1h-388ZM56 28h392v1h-392ZM55 29h395v1h-395ZM53 30h399v1h-399ZM52 31h402v1h-402ZM51 32h405v1h-405ZM49 33h408v1h-408ZM48 34h411v1h-411ZM47 35h414v1h-414ZM46 36h416v1h-416ZM44 37h420v1h-420ZM43 38h422v1h-422ZM42 39h425v1h-425ZM41 40h427v1h-427ZM40 41h429v1h-429ZM39 42h432v1h-432ZM38 43h434v1h-434ZM37 44h436v1h-436ZM36 45h438v1h-438ZM36 46h440v1h-440ZM35 47h442v1h-442ZM34 48h444v1h-444ZM33 49h446v1h-446ZM32 50h448v1h-448ZM32 51h449v1h-449ZM31 52h451v1h-451ZM30 53h454v1h-454ZM29 54h456v1h-456ZM29 55h457v1h-457ZM28 56h459v1h-459ZM27 57h76v1h-76ZM392 57h96v1h-96ZM27 58h71v1h-71ZM399 58h89v1h-89ZM26 59h68v1h-68ZM404 59h85v1h-85ZM25 60h66v1h-66ZM408 60h82v1h-82ZM25 61h64v1h-64ZM412 61h79v1h-79ZM24 62h63v1h-63ZM415 62h77v1h-77ZM24 63h61v1h-61ZM418 63h75v1h-75ZM23 64h60v1h-60ZM420 64h74v1h-74ZM23 65h58v1h-58ZM423 65h72v1h-72ZM22 66h58v1h-58ZM425 66h71v1h-71ZM22 67h57v1h-57ZM427 67h69v1h-69ZM21 68h56v1h-56ZM429 68h68v1h-68ZM21 69h55v1h-55ZM431 69h67v1h-67ZM20 70h55v1h-55ZM433 70h66v1h-66ZM20 71h54v1h-54ZM434 71h65v1h-65ZM19 72h54v1h-54ZM436 72h64v1h-64ZM19 73h53v1h-53ZM438 73h63v1h-63ZM19 74h52v1h-52ZM439 74h63v1h-63ZM18 75h52v1h-52ZM441 75h61v1h-61ZM18 76h51v1h-51ZM442 76h61v1h-61ZM17 77h51v1h-51ZM443 77h61v1h-61ZM445 78h59v1h-59ZM17 78h50v2h-50ZM446 79h59v1h-59ZM16 80h50v1h-50ZM447 80h59v1h-59ZM448 81h58v1h-58ZM16 81h49v2h-49ZM449 82h58v1h-58ZM451 83h57v1h-57ZM15 83h49v2h-49ZM452 84h56v1h-56ZM15 85h48v1h-48ZM453 85h56v1h-56ZM15 86h47v1h-47ZM454 86h55v1h-55ZM455 87h55v1h-55ZM14 87h48v2h-48ZM456 88h55v1h-55ZM457 89h54v1h-54ZM14 89h47v2h-47ZM458 90h54v1h-54ZM459 91h53v1h-53ZM459 92h54v1h-54ZM13 91h47v3h-47ZM460 93h53v1h-53ZM461 94h53v1h-53ZM462 95h52v1h-52ZM13 94h46v3h-46ZM463 96h52v1h-52ZM464 97h51v1h-51ZM464 98h52v1h-52ZM465 99h51v1h-51ZM12 97h46v4h-46ZM466 100h51v1h-51ZM467 101h50v2h-50ZM468 103h50v1h-50ZM469 104h49v1h-49ZM469 105h50v1h-50ZM470 106h49v2h-49ZM471 108h49v1h-49ZM472 109h48v1h-48ZM472 110h49v1h-49ZM473 111h48v2h-48ZM474 113h48v2h-48ZM475 115h47v1h-47ZM475 116h48v1h-48ZM476 117h47v2h-47ZM477 119h46v1h-46ZM477 120h47v2h-47ZM478 122h46v2h-46ZM479 124h46v3h-46ZM480 127h45v1h-45ZM480 128h46v2h-46ZM481 130h45v3h-45ZM481 133h46v1h-46ZM482 134h45v4h-45ZM483 138h44v1h-44ZM483 139h45v4h-45ZM484 143h44v4h-44ZM484 147h45v5h-45ZM206 162h5v1h-5ZM329 162h5v1h-5ZM202 163h14v1h-14ZM325 163h13v1h-13ZM199 164h19v1h-19ZM322 164h19v1h-19ZM197 165h23v1h-23ZM318 165h25v1h-25ZM196 166h27v1h-27ZM314 166h30v1h-30ZM194 167h32v1h-32ZM310 167h36v1h-36ZM193 168h37v1h-37ZM305 168h42v1h-42ZM192 169h43v1h-43ZM299 169h49v1h-49ZM192 170h50v1h-50ZM291 170h58v1h-58ZM191 171h64v1h-64ZM277 171h72v1h-72ZM190 172h160v1h-160ZM189 173h162v2h-162ZM188 175h164v3h-164ZM187 178h166v4h-166ZM187 182h167v6h-167ZM187 188h166v3h-166ZM188 191h165v2h-165ZM188 193h164v1h-164ZM189 194h163v2h-163ZM190 196h162v1h-162ZM191 197h160v2h-160ZM192 199h159v1h-159ZM193 200h158v1h-158ZM194 201h157v1h-157ZM195 202h155v1h-155ZM197 203h153v1h-153ZM198 204h152v1h-152ZM201 205h149v1h-149ZM203 206h146v1h-146ZM206 207h143v1h-143ZM209 208h140v1h-140ZM212 209h137v1h-137ZM215 210h133v1h-133ZM220 211h128v1h-128ZM225 212h123v1h-123ZM231 213h116v1h-116ZM238 214h55v1h-55ZM251 215h29v1h-29ZM301 214h46v2h-46ZM300 216h47v1h-47ZM300 217h46v2h-46ZM299 219h47v1h-47ZM299 220h46v2h-46ZM298 222h47v2h-47ZM298 224h46v1h-46ZM297 225h47v2h-47ZM296 227h47v3h-47ZM295 230h47v3h-47ZM294 233h47v2h-47ZM293 235h48v1h-48ZM293 236h47v2h-47ZM292 238h48v1h-48ZM292 239h47v1h-47ZM291 240h48v2h-48ZM291 242h47v1h-47ZM290 243h48v2h-48ZM289 245h48v3h-48ZM288 248h48v2h-48ZM287 250h48v2h-48ZM286 252h49v1h-49ZM286 253h48v1h-48ZM285 254h49v1h-49ZM285 255h48v2h-48ZM284 257h49v1h-49ZM284 258h48v1h-48ZM283 259h49v1h-49ZM283 260h48v1h-48ZM282 261h49v2h-49ZM281 263h49v2h-49ZM280 265h49v2h-49ZM279 267h49v2h-49ZM278 269h50v1h-50ZM278 270h49v1h-49ZM277 271h50v1h-50ZM277 272h49v1h-49ZM276 273h50v1h-50ZM276 274h49v1h-49ZM275 275h50v1h-50ZM274 276h50v2h-50ZM273 278h51v1h-51ZM273 279h50v1h-50ZM272 280h51v1h-51ZM272 281h50v1h-50ZM271 282h51v1h-51ZM271 283h50v1h-50ZM270 284h51v1h-51ZM269 285h51v2h-51ZM268 287h51v1h-51ZM267 288h52v1h-52ZM267 289h51v1h-51ZM266 290h52v1h-52ZM266 291h51v1h-51ZM265 292h52v1h-52ZM264 293h52v2h-52ZM263 295h52v1h-52ZM262 296h53v1h-53ZM262 297h52v1h-52ZM261 298h52v1h-52ZM260 299h53v1h-53ZM260 300h52v1h-52ZM259 301h53v1h-53ZM258 302h53v2h-53ZM257 304h53v1h-53ZM256 305h53v1h-53ZM255 306h54v1h-54ZM255 307h53v1h-53ZM254 308h54v1h-54ZM253 309h54v1h-54ZM252 310h54v1h-54ZM251 311h55v1h-55ZM251 312h54v1h-54ZM250 313h55v1h-55ZM249 314h55v1h-55ZM248 315h55v1h-55ZM247 316h56v1h-56ZM247 317h55v1h-55ZM246 318h55v1h-55ZM245 319h56v1h-56ZM244 320h56v1h-56ZM243 321h56v1h-56ZM242 322h57v1h-57ZM241 323h57v1h-57ZM240 324h57v1h-57ZM239 325h58v1h-58ZM238 326h58v1h-58ZM237 327h58v1h-58ZM236 328h59v1h-59ZM235 329h59v1h-59ZM234 330h59v1h-59ZM233 331h59v1h-59ZM232 332h60v1h-60ZM231 333h60v1h-60ZM230 334h60v1h-60ZM229 335h60v1h-60ZM228 336h61v1h-61ZM227 337h61v1h-61ZM225 338h62v1h-62ZM224 339h62v1h-62ZM223 340h62v1h-62ZM222 341h63v1h-63ZM220 342h64v1h-64ZM219 343h64v1h-64ZM218 344h64v1h-64ZM216 345h65v1h-65ZM215 346h66v1h-66ZM213 347h67v1h-67ZM212 348h67v1h-67ZM210 349h68v1h-68ZM209 350h68v1h-68ZM207 351h69v1h-69ZM206 352h69v1h-69ZM205 353h69v1h-69ZM204 354h69v1h-69ZM203 355h69v1h-69ZM202 356h70v1h-70ZM202 357h69v1h-69ZM201 358h69v1h-69ZM200 359h69v1h-69ZM200 360h68v1h-68ZM200 361h67v1h-67ZM199 362h67v1h-67ZM199 363h65v1h-65ZM199 364h64v1h-64ZM198 365h64v1h-64ZM198 366h63v1h-63ZM198 367h62v1h-62ZM198 368h61v1h-61ZM198 369h60v1h-60ZM198 370h59v1h-59ZM198 371h58v1h-58ZM198 372h56v1h-56ZM198 373h55v1h-55ZM199 374h53v1h-53ZM199 375h52v1h-52ZM199 376h50v1h-50ZM199 377h49v1h-49ZM200 378h47v1h-47ZM200 379h45v1h-45ZM201 380h43v1h-43ZM201 381h42v1h-42ZM202 382h39v1h-39ZM203 383h37v1h-37ZM204 384h34v1h-34ZM205 385h32v1h-32ZM206 386h29v1h-29ZM207 387h26v1h-26ZM209 388h23v1h-23ZM211 389h19v1h-19ZM213 390h15v1h-15ZM217 391h7v1h-7ZM12 101h45v295h-45ZM12 396h46v2h-46ZM13 398h45v4h-45ZM13 402h46v3h-46ZM14 405h45v1h-45ZM14 406h46v4h-46ZM14 410h47v1h-47ZM15 411h46v2h-46ZM15 413h47v2h-47ZM16 415h46v1h-46ZM16 416h47v3h-47ZM17 419h47v3h-47ZM17 422h48v1h-48ZM18 423h47v1h-47ZM18 424h48v2h-48ZM19 426h48v2h-48ZM19 428h49v1h-49ZM20 429h48v1h-48ZM20 430h49v2h-49ZM21 432h49v2h-49ZM21 434h50v1h-50ZM22 435h50v2h-50ZM485 152h44v285h-44ZM23 437h50v1h-50ZM23 438h51v1h-51ZM24 439h50v1h-50ZM24 440h51v1h-51ZM484 437h45v4h-45ZM24 441h52v1h-52ZM25 442h51v1h-51ZM484 441h44v2h-44ZM25 443h52v1h-52ZM26 444h52v1h-52ZM26 445h53v1h-53ZM27 446h52v1h-52ZM483 443h45v4h-45ZM27 447h53v1h-53ZM482 447h46v1h-46ZM28 448h53v1h-53ZM28 449h54v1h-54ZM482 448h45v2h-45ZM29 450h54v1h-54ZM29 451h55v1h-55ZM481 450h46v2h-46ZM30 452h55v1h-55ZM480 452h47v1h-47ZM30 453h56v1h-56ZM480 453h46v1h-46ZM31 454h56v1h-56ZM32 455h56v1h-56ZM479 454h47v2h-47ZM32 456h57v1h-57ZM478 456h48v1h-48ZM33 457h57v1h-57ZM478 457h47v1h-47ZM33 458h58v1h-58ZM34 459h58v1h-58ZM477 458h48v2h-48ZM35 460h58v1h-58ZM476 460h48v1h-48ZM35 461h59v1h-59ZM36 462h60v1h-60ZM475 461h49v2h-49ZM37 463h60v1h-60ZM474 463h49v1h-49ZM37 464h61v1h-61ZM473 464h50v1h-50ZM38 465h62v1h-62ZM472 465h51v1h-51ZM39 466h62v1h-62ZM471 466h51v1h-51ZM39 467h63v1h-63ZM470 467h52v1h-52ZM40 468h64v1h-64ZM469 468h53v1h-53ZM41 469h65v1h-65ZM468 469h53v1h-53ZM42 470h65v1h-65ZM467 470h54v1h-54ZM42 471h67v1h-67ZM466 471h54v1h-54ZM43 472h68v1h-68ZM465 472h55v1h-55ZM44 473h69v1h-69ZM464 473h55v1h-55ZM45 474h70v1h-70ZM462 474h57v1h-57ZM46 475h71v1h-71ZM461 475h57v1h-57ZM46 476h73v1h-73ZM460 476h58v1h-58ZM47 477h74v1h-74ZM458 477h59v1h-59ZM48 478h76v1h-76ZM456 478h61v1h-61ZM49 479h78v1h-78ZM454 479h62v1h-62ZM50 480h80v1h-80ZM452 480h63v1h-63ZM51 481h82v1h-82ZM449 481h66v1h-66ZM52 482h86v1h-86ZM447 482h67v1h-67ZM53 483h90v1h-90ZM443 483h71v1h-71ZM54 484h96v1h-96ZM437 484h76v1h-76ZM55 485h457v1h-457ZM56 486h456v1h-456ZM57 487h454v1h-454ZM58 488h452v1h-452ZM59 489h451v1h-451ZM60 490h449v1h-449ZM61 491h447v1h-447ZM62 492h445v1h-445ZM63 493h443v1h-443ZM65 494h440v1h-440ZM66 495h439v1h-439ZM67 496h437v1h-437ZM68 497h435v1h-435ZM70 498h432v1h-432ZM71 499h430v1h-430ZM72 500h428v1h-428ZM74 501h425v1h-425ZM75 502h423v1h-423ZM77 503h420v1h-420ZM78 504h418v1h-418ZM80 505h414v1h-414ZM81 506h412v1h-412ZM83 507h409v1h-409ZM84 508h407v1h-407ZM86 509h403v1h-403ZM88 510h400v1h-400ZM90 511h397v1h-397ZM92 512h393v1h-393ZM94 513h390v1h-390ZM96 514h386v1h-386ZM98 515h382v1h-382ZM100 516h379v1h-379ZM102 517h375v1h-375ZM105 518h370v1h-370ZM108 519h365v1h-365ZM110 520h361v1h-361ZM113 521h355v1h-355ZM116 522h350v1h-350ZM120 523h343v1h-343ZM124 524h336v1h-336ZM128 525h329v1h-329ZM133 526h320v1h-320ZM139 527h309v1h-309ZM150 528h291v1h-291Z"/></svg>
