<svg xmlns="http://www.w3.org/2000/svg" width="569" height="492" viewBox="0 0 569 492"><path fill="#4e1601" d="M23 12h85v1h-85ZM159 12h96v1h-96ZM315 12h96v1h-96ZM461 12h86v1h-86ZM20 13h91v1h-91ZM157 13h101v1h-101ZM313 13h101v1h-101ZM458 13h91v1h-91ZM18 14h95v1h-95ZM155 14h105v1h-105ZM311 14h104v1h-104ZM457 14h94v1h-94ZM17 15h97v1h-97ZM153 15h108v1h-108ZM310 15h107v1h-107ZM455 15h97v1h-97ZM16 16h99v1h-99ZM152 16h110v1h-110ZM309 16h109v1h-109ZM454 16h99v1h-99ZM15 17h101v1h-101ZM152 17h111v1h-111ZM308 17h111v1h-111ZM454 17h100v1h-100ZM151 18h113v1h-113ZM307 18h112v1h-112ZM453 18h102v1h-102ZM14 18h103v2h-103ZM150 19h114v1h-114ZM307 19h113v1h-113ZM150 20h115v1h-115ZM306 20h114v1h-114ZM452 19h104v2h-104ZM13 20h105v2h-105ZM306 21h115v1h-115ZM451 21h105v1h-105ZM149 21h116v2h-116ZM305 22h116v3h-116ZM12 22h107v4h-107ZM149 23h117v3h-117ZM12 26h108v25h-108ZM148 26h118v25h-118ZM305 25h117v26h-117ZM451 22h106v29h-106ZM451 51h39v26h-39ZM305 51h39v27h-39ZM226 51h40v28h-40ZM80 51h40v29h-40ZM148 51h39v29h-39ZM383 51h39v29h-39ZM304 78h40v3h-40ZM450 77h40v4h-40ZM80 80h41v2h-41ZM147 80h40v2h-40ZM226 79h41v3h-41ZM226 82h42v1h-42ZM303 81h41v2h-41ZM383 80h40v3h-40ZM449 81h41v2h-41ZM80 82h42v2h-42ZM146 82h41v2h-41ZM302 83h42v1h-42ZM383 83h41v1h-41ZM448 83h42v1h-42ZM80 84h43v1h-43ZM145 84h42v1h-42ZM226 83h43v2h-43ZM301 84h43v1h-43ZM383 84h42v1h-42ZM80 85h44v1h-44ZM144 85h43v1h-43ZM226 85h44v1h-44ZM300 85h44v1h-44ZM383 85h43v1h-43ZM447 84h43v2h-43ZM80 86h45v1h-45ZM143 86h44v1h-44ZM226 86h45v1h-45ZM299 86h45v1h-45ZM383 86h44v1h-44ZM445 86h45v1h-45ZM80 87h46v1h-46ZM142 87h45v1h-45ZM226 87h47v1h-47ZM298 87h46v1h-46ZM383 87h45v1h-45ZM444 87h46v1h-46ZM80 88h48v1h-48ZM140 88h47v1h-47ZM226 88h49v1h-49ZM296 88h48v1h-48ZM383 88h47v1h-47ZM442 88h48v1h-48ZM80 89h52v1h-52ZM136 89h51v1h-51ZM226 89h53v1h-53ZM292 89h52v1h-52ZM383 89h50v1h-50ZM439 89h51v1h-51ZM226 90h118v17h-118ZM227 107h117v1h-117ZM80 90h107v19h-107ZM383 90h107v19h-107ZM383 109h106v2h-106ZM81 109h106v3h-106ZM81 112h105v1h-105ZM227 108h116v5h-116ZM384 111h105v2h-105ZM384 113h104v1h-104ZM82 113h104v2h-104ZM228 113h114v2h-114ZM385 114h103v1h-103ZM82 115h103v1h-103ZM83 116h102v1h-102ZM229 115h112v2h-112ZM385 115h102v2h-102ZM83 117h101v1h-101ZM386 117h100v1h-100ZM84 118h99v1h-99ZM230 117h110v2h-110ZM387 118h99v1h-99ZM85 119h98v1h-98ZM231 119h108v1h-108ZM387 119h98v1h-98ZM86 120h96v1h-96ZM232 120h106v1h-106ZM388 120h96v1h-96ZM86 121h95v1h-95ZM233 121h104v1h-104ZM389 121h94v1h-94ZM87 122h93v1h-93ZM234 122h102v1h-102ZM390 122h93v1h-93ZM88 123h91v1h-91ZM235 123h100v1h-100ZM391 123h90v1h-90ZM90 124h88v1h-88ZM236 124h98v1h-98ZM392 124h88v1h-88ZM91 125h85v1h-85ZM237 125h96v1h-96ZM394 125h85v1h-85ZM93 126h82v1h-82ZM239 126h92v1h-92ZM395 126h82v1h-82ZM95 127h77v1h-77ZM241 127h88v1h-88ZM398 127h77v1h-77ZM98 128h71v1h-71ZM244 128h82v1h-82ZM401 128h71v1h-71ZM12 51h39v136h-39ZM519 51h38v136h-38ZM12 187h545v40h-545ZM274 256h22v1h-22ZM268 257h33v1h-33ZM264 258h41v1h-41ZM261 259h48v1h-48ZM258 260h54v1h-54ZM256 261h58v1h-58ZM253 262h64v1h-64ZM251 263h68v1h-68ZM249 264h72v1h-72ZM247 265h76v1h-76ZM246 266h78v1h-78ZM244 267h82v1h-82ZM242 268h86v1h-86ZM241 269h88v1h-88ZM239 270h91v1h-91ZM238 271h94v1h-94ZM237 272h96v1h-96ZM236 273h98v1h-98ZM234 274h102v1h-102ZM233 275h104v1h-104ZM232 276h106v1h-106ZM231 277h108v1h-108ZM230 278h110v1h-110ZM229 279h112v1h-112ZM228 280h114v1h-114ZM227 281h116v1h-116ZM226 282h118v1h-118ZM225 283h119v1h-119ZM225 284h120v1h-120ZM224 285h122v1h-122ZM223 286h124v1h-124ZM222 287h126v2h-126ZM221 289h128v1h-128ZM220 290h130v1h-130ZM219 291h131v1h-131ZM219 292h132v1h-132ZM218 293h134v2h-134ZM217 295h59v1h-59ZM293 295h60v1h-60ZM216 296h56v1h-56ZM297 296h56v1h-56ZM216 297h53v1h-53ZM299 297h55v1h-55ZM215 298h52v1h-52ZM302 298h52v1h-52ZM215 299h50v1h-50ZM303 299h52v1h-52ZM214 300h49v1h-49ZM305 300h50v1h-50ZM214 301h47v1h-47ZM307 301h49v1h-49ZM214 302h46v1h-46ZM308 302h48v1h-48ZM213 303h46v1h-46ZM309 303h48v1h-48ZM213 304h45v1h-45ZM311 304h46v1h-46ZM212 305h45v1h-45ZM312 305h46v1h-46ZM212 306h44v1h-44ZM212 307h43v1h-43ZM313 306h45v2h-45ZM211 308h43v1h-43ZM314 308h45v1h-45ZM315 309h44v1h-44ZM211 309h42v2h-42ZM316 310h43v1h-43ZM210 311h42v1h-42ZM317 311h43v2h-43ZM210 312h41v2h-41ZM318 313h42v1h-42ZM209 314h41v2h-41ZM319 314h42v2h-42ZM209 316h40v2h-40ZM320 316h41v3h-41ZM208 318h40v3h-40ZM321 319h41v2h-41ZM208 321h39v3h-39ZM208 324h38v1h-38ZM322 321h40v4h-40ZM323 325h39v1h-39ZM12 227h39v214h-39ZM207 325h39v116h-39ZM323 326h40v115h-40ZM519 227h38v214h-38ZM323 441h234v24h-234ZM12 441h234v26h-234ZM12 467h233v3h-233ZM324 465h233v5h-233ZM13 470h232v1h-232ZM13 471h231v1h-231ZM325 470h231v2h-231ZM14 472h230v1h-230ZM14 473h229v1h-229ZM326 472h229v2h-229ZM15 474h227v1h-227ZM327 474h227v1h-227ZM16 475h225v1h-225ZM328 475h225v1h-225ZM17 476h223v1h-223ZM329 476h223v1h-223ZM19 477h220v1h-220ZM331 477h219v1h-219ZM21 478h216v1h-216ZM333 478h215v1h-215ZM24 479h209v1h-209Z"/></svg>
