<svg xmlns="http://www.w3.org/2000/svg" width="629" height="567" viewBox="0 0 629 567"><path fill="#4e1601" d="M212 12h20v1h-20ZM409 12h20v1h-20ZM208 13h29v1h-29ZM405 13h29v1h-29ZM204 14h36v1h-36ZM401 14h36v1h-36ZM201 15h42v1h-42ZM398 15h42v1h-42ZM199 16h47v1h-47ZM396 16h47v1h-47ZM196 17h52v1h-52ZM393 17h52v1h-52ZM194 18h56v1h-56ZM391 18h56v1h-56ZM193 19h59v1h-59ZM389 19h60v1h-60ZM191 20h63v1h-63ZM388 20h62v1h-62ZM189 21h66v1h-66ZM386 21h66v1h-66ZM188 22h69v1h-69ZM385 22h69v1h-69ZM186 23h72v1h-72ZM383 23h72v1h-72ZM185 24h74v1h-74ZM382 24h74v1h-74ZM184 25h77v1h-77ZM381 25h77v1h-77ZM183 26h79v1h-79ZM380 26h79v1h-79ZM181 27h82v1h-82ZM378 27h82v1h-82ZM180 28h84v1h-84ZM377 28h84v1h-84ZM179 29h86v1h-86ZM376 29h86v1h-86ZM178 30h88v1h-88ZM375 30h88v1h-88ZM177 31h90v1h-90ZM374 31h90v1h-90ZM177 32h91v1h-91ZM374 32h91v1h-91ZM176 33h93v1h-93ZM373 33h93v1h-93ZM175 34h94v1h-94ZM372 34h94v1h-94ZM174 35h96v1h-96ZM371 35h96v1h-96ZM173 36h98v1h-98ZM370 36h98v1h-98ZM173 37h99v1h-99ZM370 37h99v1h-99ZM172 38h100v1h-100ZM369 38h100v1h-100ZM171 39h102v1h-102ZM368 39h102v1h-102ZM171 40h103v1h-103ZM368 40h103v1h-103ZM170 41h104v1h-104ZM367 41h104v1h-104ZM169 42h106v2h-106ZM366 42h106v2h-106ZM168 44h108v2h-108ZM365 44h108v2h-108ZM167 46h110v2h-110ZM364 46h110v2h-110ZM166 48h112v2h-112ZM363 48h112v2h-112ZM166 50h113v1h-113ZM363 50h113v1h-113ZM165 51h114v2h-114ZM362 51h114v2h-114ZM165 53h115v1h-115ZM362 53h115v1h-115ZM164 54h116v2h-116ZM361 54h116v2h-116ZM164 56h117v1h-117ZM361 56h117v1h-117ZM163 57h118v3h-118ZM360 57h118v3h-118ZM163 60h119v2h-119ZM360 60h119v2h-119ZM162 62h120v5h-120ZM359 62h120v5h-120ZM359 67h121v11h-121ZM162 67h121v12h-121ZM162 79h120v4h-120ZM359 78h120v5h-120ZM163 83h119v2h-119ZM360 83h119v2h-119ZM163 85h118v3h-118ZM360 85h118v3h-118ZM164 88h117v1h-117ZM361 88h117v1h-117ZM164 89h116v2h-116ZM361 89h116v2h-116ZM165 91h115v2h-115ZM362 91h115v2h-115ZM165 93h114v1h-114ZM362 93h114v1h-114ZM166 94h113v1h-113ZM363 94h113v1h-113ZM166 95h112v1h-112ZM363 95h112v1h-112ZM167 96h111v2h-111ZM364 96h111v2h-111ZM167 98h110v1h-110ZM364 98h110v1h-110ZM168 99h109v1h-109ZM365 99h109v1h-109ZM168 100h108v1h-108ZM365 100h108v1h-108ZM169 101h107v1h-107ZM366 101h107v1h-107ZM170 102h105v1h-105ZM367 102h105v1h-105ZM170 103h104v1h-104ZM367 103h104v1h-104ZM171 104h103v1h-103ZM368 104h103v1h-103ZM171 105h102v1h-102ZM368 105h102v1h-102ZM172 106h101v1h-101ZM369 106h101v1h-101ZM173 107h99v1h-99ZM370 107h99v1h-99ZM174 108h97v1h-97ZM370 108h98v1h-98ZM174 109h96v1h-96ZM371 109h96v1h-96ZM175 110h95v1h-95ZM372 110h95v1h-95ZM176 111h93v1h-93ZM373 111h93v1h-93ZM177 112h91v1h-91ZM374 112h91v1h-91ZM178 113h89v1h-89ZM375 113h89v1h-89ZM179 114h87v1h-87ZM376 114h87v1h-87ZM180 115h85v1h-85ZM377 115h85v1h-85ZM181 116h83v1h-83ZM378 116h83v1h-83ZM182 117h81v1h-81ZM379 117h81v1h-81ZM183 118h79v1h-79ZM380 118h79v1h-79ZM184 119h77v1h-77ZM381 119h77v1h-77ZM185 120h74v1h-74ZM382 120h74v1h-74ZM187 121h71v1h-71ZM384 121h71v1h-71ZM188 122h69v1h-69ZM385 122h69v1h-69ZM190 123h65v1h-65ZM387 123h65v1h-65ZM191 124h63v1h-63ZM388 124h63v1h-63ZM193 125h59v1h-59ZM390 125h59v1h-59ZM195 126h55v1h-55ZM392 126h55v1h-55ZM197 127h51v1h-51ZM394 127h51v1h-51ZM199 128h47v1h-47ZM396 128h47v1h-47ZM202 129h41v1h-41ZM399 129h41v1h-41ZM205 130h35v1h-35ZM402 130h35v1h-35ZM209 131h27v1h-27ZM406 131h27v1h-27ZM214 132h17v1h-17ZM411 132h17v1h-17ZM66 149h12v1h-12ZM550 149h13v1h-13ZM60 150h25v1h-25ZM544 150h25v1h-25ZM56 151h33v1h-33ZM540 151h33v1h-33ZM52 152h40v1h-40ZM537 152h40v1h-40ZM50 153h45v1h-45ZM534 153h45v1h-45ZM47 154h50v1h-50ZM532 154h50v1h-50ZM45 155h54v1h-54ZM530 155h54v1h-54ZM43 156h58v1h-58ZM528 156h58v1h-58ZM42 157h61v1h-61ZM526 157h61v1h-61ZM40 158h64v1h-64ZM525 158h64v1h-64ZM38 159h68v1h-68ZM523 159h68v1h-68ZM37 160h70v1h-70ZM522 160h70v1h-70ZM36 161h73v1h-73ZM520 161h73v1h-73ZM34 162h76v1h-76ZM519 162h76v1h-76ZM33 163h78v1h-78ZM518 163h78v1h-78ZM32 164h80v1h-80ZM517 164h80v1h-80ZM31 165h82v1h-82ZM515 165h83v1h-83ZM30 166h84v1h-84ZM514 166h85v1h-85ZM29 167h86v1h-86ZM513 167h87v1h-87ZM28 168h88v1h-88ZM512 168h89v1h-89ZM27 169h90v1h-90ZM512 169h90v1h-90ZM26 170h92v1h-92ZM511 170h92v1h-92ZM25 171h94v1h-94ZM510 171h94v1h-94ZM509 172h96v1h-96ZM24 172h96v2h-96ZM508 173h97v1h-97ZM23 174h98v1h-98ZM313 174h9v1h-9ZM508 174h98v1h-98ZM22 175h100v1h-100ZM300 175h35v1h-35ZM507 175h100v1h-100ZM22 176h101v1h-101ZM293 176h49v1h-49ZM506 176h101v1h-101ZM21 177h102v1h-102ZM287 177h61v1h-61ZM506 177h102v1h-102ZM283 178h69v1h-69ZM505 178h104v1h-104ZM20 178h104v2h-104ZM279 179h77v1h-77ZM504 179h105v1h-105ZM19 180h106v1h-106ZM275 180h85v1h-85ZM504 180h106v1h-106ZM19 181h107v1h-107ZM272 181h91v1h-91ZM503 181h107v1h-107ZM18 182h108v1h-108ZM269 182h97v1h-97ZM503 182h108v1h-108ZM18 183h109v1h-109ZM266 183h103v1h-103ZM502 183h109v1h-109ZM263 184h109v1h-109ZM502 184h110v1h-110ZM17 184h110v2h-110ZM261 185h113v1h-113ZM501 185h111v1h-111ZM258 186h119v1h-119ZM501 186h112v1h-112ZM16 186h112v2h-112ZM256 187h123v1h-123ZM500 187h113v1h-113ZM254 188h128v1h-128ZM252 189h132v1h-132ZM500 188h114v2h-114ZM15 188h114v3h-114ZM249 190h137v1h-137ZM499 190h115v1h-115ZM247 191h141v1h-141ZM245 192h145v1h-145ZM499 191h116v2h-116ZM14 191h116v3h-116ZM244 193h148v1h-148ZM14 194h117v1h-117ZM242 194h152v1h-152ZM498 193h117v2h-117ZM240 195h155v1h-155ZM238 196h159v1h-159ZM498 195h118v2h-118ZM236 197h163v1h-163ZM13 195h118v4h-118ZM235 198h166v1h-166ZM497 197h119v2h-119ZM233 199h169v1h-169ZM231 200h173v1h-173ZM230 201h175v1h-175ZM228 202h179v1h-179ZM227 203h181v1h-181ZM497 199h120v5h-120ZM225 204h185v1h-185ZM224 205h187v1h-187ZM223 206h190v1h-190ZM221 207h193v1h-193ZM220 208h196v1h-196ZM218 209h199v1h-199ZM217 210h201v1h-201ZM216 211h204v1h-204ZM214 212h207v1h-207ZM213 213h209v1h-209ZM212 214h211v1h-211ZM211 215h214v1h-214ZM496 204h121v12h-121ZM210 216h216v1h-216ZM208 217h219v1h-219ZM207 218h221v1h-221ZM12 199h120v21h-120ZM206 219h223v1h-223ZM13 220h119v1h-119ZM205 220h226v1h-226ZM497 216h120v5h-120ZM204 221h228v1h-228ZM497 221h119v1h-119ZM203 222h230v1h-230ZM201 223h233v1h-233ZM13 221h118v4h-118ZM200 224h235v1h-235ZM14 225h117v1h-117ZM199 225h107v1h-107ZM330 225h106v1h-106ZM498 222h118v4h-118ZM198 226h101v1h-101ZM336 226h101v1h-101ZM14 226h116v2h-116ZM197 227h98v1h-98ZM341 227h97v1h-97ZM15 228h115v1h-115ZM196 228h95v1h-95ZM345 228h94v1h-94ZM499 226h116v3h-116ZM195 229h92v1h-92ZM348 229h92v1h-92ZM499 229h115v1h-115ZM15 229h114v2h-114ZM194 230h90v1h-90ZM352 230h89v1h-89ZM16 231h113v1h-113ZM193 231h88v1h-88ZM354 231h88v1h-88ZM500 230h114v2h-114ZM192 232h87v1h-87ZM357 232h86v1h-86ZM16 232h112v2h-112ZM191 233h85v1h-85ZM359 233h85v1h-85ZM501 232h112v2h-112ZM190 234h84v1h-84ZM362 234h83v1h-83ZM501 234h111v1h-111ZM17 234h110v2h-110ZM189 235h83v1h-83ZM364 235h82v1h-82ZM18 236h109v1h-109ZM188 236h82v1h-82ZM366 236h81v1h-81ZM502 235h110v2h-110ZM18 237h108v1h-108ZM187 237h81v1h-81ZM368 237h80v1h-80ZM503 237h108v1h-108ZM19 238h107v1h-107ZM186 238h80v1h-80ZM370 238h79v1h-79ZM503 238h107v1h-107ZM19 239h106v1h-106ZM185 239h79v1h-79ZM372 239h78v1h-78ZM504 239h106v1h-106ZM20 240h104v1h-104ZM184 240h79v1h-79ZM373 240h78v1h-78ZM21 241h103v1h-103ZM183 241h78v1h-78ZM375 241h77v1h-77ZM505 240h104v2h-104ZM21 242h102v1h-102ZM182 242h77v1h-77ZM377 242h76v1h-76ZM22 243h101v1h-101ZM181 243h77v1h-77ZM378 243h76v1h-76ZM506 242h102v2h-102ZM22 244h100v1h-100ZM181 244h75v1h-75ZM380 244h75v1h-75ZM507 244h100v1h-100ZM23 245h98v1h-98ZM180 245h75v1h-75ZM381 245h75v1h-75ZM508 245h98v1h-98ZM24 246h96v1h-96ZM179 246h74v1h-74ZM383 246h74v1h-74ZM25 247h95v1h-95ZM178 247h74v1h-74ZM384 247h74v1h-74ZM509 246h96v2h-96ZM26 248h93v1h-93ZM177 248h73v1h-73ZM386 248h72v1h-72ZM510 248h94v1h-94ZM26 249h92v1h-92ZM176 249h73v1h-73ZM387 249h72v1h-72ZM511 249h92v1h-92ZM27 250h90v1h-90ZM175 250h73v1h-73ZM388 250h72v1h-72ZM512 250h90v1h-90ZM28 251h88v1h-88ZM174 251h72v1h-72ZM390 251h71v1h-71ZM513 251h88v1h-88ZM29 252h86v1h-86ZM174 252h71v1h-71ZM391 252h71v1h-71ZM514 252h86v1h-86ZM30 253h84v1h-84ZM173 253h71v1h-71ZM392 253h71v1h-71ZM515 253h84v1h-84ZM31 254h82v1h-82ZM172 254h70v1h-70ZM394 254h70v1h-70ZM516 254h82v1h-82ZM32 255h80v1h-80ZM171 255h70v1h-70ZM395 255h69v1h-69ZM517 255h80v1h-80ZM33 256h78v1h-78ZM170 256h70v1h-70ZM396 256h69v1h-69ZM518 256h78v1h-78ZM35 257h75v1h-75ZM169 257h70v1h-70ZM397 257h69v1h-69ZM519 257h76v1h-76ZM36 258h72v1h-72ZM169 258h69v1h-69ZM398 258h69v1h-69ZM521 258h72v1h-72ZM37 259h70v1h-70ZM168 259h69v1h-69ZM399 259h69v1h-69ZM522 259h70v1h-70ZM39 260h67v1h-67ZM167 260h68v1h-68ZM401 260h68v1h-68ZM524 260h67v1h-67ZM40 261h64v1h-64ZM166 261h68v1h-68ZM402 261h67v1h-67ZM525 261h64v1h-64ZM42 262h60v1h-60ZM165 262h68v1h-68ZM403 262h67v1h-67ZM527 262h60v1h-60ZM44 263h57v1h-57ZM165 263h67v1h-67ZM404 263h67v1h-67ZM529 263h56v1h-56ZM46 264h53v1h-53ZM164 264h67v1h-67ZM405 264h67v1h-67ZM531 264h53v1h-53ZM48 265h48v1h-48ZM163 265h67v1h-67ZM406 265h66v1h-66ZM533 265h48v1h-48ZM50 266h44v1h-44ZM162 266h67v1h-67ZM407 266h66v1h-66ZM535 266h44v1h-44ZM53 267h38v1h-38ZM162 267h66v1h-66ZM408 267h66v1h-66ZM538 267h38v1h-38ZM57 268h31v1h-31ZM161 268h66v1h-66ZM409 268h66v1h-66ZM541 268h32v1h-32ZM61 269h22v1h-22ZM160 269h66v1h-66ZM410 269h66v1h-66ZM546 269h22v1h-22ZM159 270h66v1h-66ZM411 270h65v1h-65ZM158 271h66v1h-66ZM412 271h65v1h-65ZM158 272h65v1h-65ZM413 272h65v1h-65ZM157 273h65v1h-65ZM414 273h65v1h-65ZM156 274h65v1h-65ZM415 274h64v1h-64ZM156 275h64v1h-64ZM416 275h64v1h-64ZM155 276h64v1h-64ZM417 276h64v1h-64ZM154 277h64v1h-64ZM418 277h63v1h-63ZM153 278h65v1h-65ZM418 278h64v1h-64ZM153 279h64v1h-64ZM419 279h64v1h-64ZM152 280h64v1h-64ZM420 280h64v1h-64ZM151 281h64v1h-64ZM421 281h63v1h-63ZM151 282h63v1h-63ZM422 282h63v1h-63ZM150 283h63v1h-63ZM423 283h63v1h-63ZM149 284h63v1h-63ZM424 284h62v1h-62ZM149 285h62v1h-62ZM424 285h63v1h-63ZM148 286h63v1h-63ZM425 286h63v1h-63ZM147 287h63v1h-63ZM426 287h62v1h-62ZM147 288h62v1h-62ZM427 288h62v1h-62ZM146 289h62v1h-62ZM428 289h62v1h-62ZM429 290h61v1h-61ZM145 290h62v2h-62ZM429 291h62v1h-62ZM144 292h62v1h-62ZM430 292h62v1h-62ZM143 293h62v1h-62ZM431 293h61v1h-61ZM143 294h61v1h-61ZM432 294h61v1h-61ZM142 295h61v1h-61ZM432 295h62v1h-62ZM141 296h62v1h-62ZM433 296h61v1h-61ZM141 297h61v1h-61ZM434 297h61v1h-61ZM140 298h61v1h-61ZM435 298h61v2h-61ZM139 299h61v2h-61ZM436 300h61v1h-61ZM138 301h61v1h-61ZM437 301h60v1h-60ZM138 302h60v1h-60ZM438 302h60v1h-60ZM137 303h60v1h-60ZM438 303h61v1h-61ZM136 304h61v1h-61ZM439 304h60v1h-60ZM136 305h60v1h-60ZM440 305h60v1h-60ZM135 306h60v1h-60ZM135 307h59v1h-59ZM441 306h60v2h-60ZM134 308h60v1h-60ZM442 308h60v1h-60ZM133 309h60v1h-60ZM443 309h59v1h-59ZM133 310h59v1h-59ZM443 310h60v1h-60ZM132 311h60v1h-60ZM444 311h60v1h-60ZM132 312h59v1h-59ZM445 312h59v1h-59ZM131 313h59v1h-59ZM445 313h60v1h-60ZM130 314h60v1h-60ZM446 314h59v1h-59ZM130 315h59v1h-59ZM447 315h59v2h-59ZM129 316h59v2h-59ZM448 317h59v1h-59ZM128 318h59v1h-59ZM449 318h59v2h-59ZM127 319h59v2h-59ZM450 320h59v1h-59ZM126 321h59v1h-59ZM451 321h58v1h-58ZM126 322h58v1h-58ZM451 322h59v1h-59ZM125 323h59v1h-59ZM452 323h58v1h-58ZM125 324h58v1h-58ZM453 324h58v1h-58ZM453 325h59v1h-59ZM124 325h58v2h-58ZM454 326h58v1h-58ZM123 327h58v1h-58ZM122 328h59v1h-59ZM455 327h58v2h-58ZM122 329h58v1h-58ZM456 329h58v2h-58ZM121 330h58v2h-58ZM457 331h58v1h-58ZM458 332h57v1h-57ZM120 332h58v2h-58ZM458 333h58v1h-58ZM119 334h58v1h-58ZM119 335h57v1h-57ZM459 334h58v2h-58ZM118 336h58v1h-58ZM460 336h58v1h-58ZM118 337h57v1h-57ZM461 337h57v1h-57ZM117 338h58v1h-58ZM461 338h58v1h-58ZM117 339h57v1h-57ZM462 339h57v1h-57ZM462 340h58v1h-58ZM116 340h57v2h-57ZM463 341h57v1h-57ZM115 342h57v2h-57ZM464 342h57v2h-57ZM114 344h57v1h-57ZM114 345h56v1h-56ZM465 344h57v2h-57ZM113 346h57v1h-57ZM466 346h57v2h-57ZM112 347h57v2h-57ZM467 348h57v1h-57ZM468 349h56v1h-56ZM111 349h57v2h-57ZM468 350h57v1h-57ZM469 351h56v1h-56ZM110 351h57v2h-57ZM469 352h57v1h-57ZM470 353h56v1h-56ZM109 353h57v2h-57ZM470 354h57v1h-57ZM109 355h56v1h-56ZM471 355h56v1h-56ZM471 356h57v1h-57ZM108 356h56v2h-56ZM472 357h56v1h-56ZM472 358h57v1h-57ZM107 358h56v2h-56ZM473 359h56v1h-56ZM106 360h56v2h-56ZM474 360h56v2h-56ZM475 362h55v1h-55ZM105 362h56v2h-56ZM475 363h56v1h-56ZM105 364h55v1h-55ZM476 364h55v1h-55ZM104 365h56v1h-56ZM476 365h56v1h-56ZM104 366h55v1h-55ZM103 367h56v1h-56ZM477 366h55v2h-55ZM103 368h55v2h-55ZM478 368h55v2h-55ZM479 370h54v1h-54ZM102 370h55v2h-55ZM479 371h55v1h-55ZM102 372h54v1h-54ZM101 373h55v1h-55ZM480 372h54v2h-54ZM101 374h54v2h-54ZM481 374h54v2h-54ZM482 376h53v1h-53ZM100 376h54v2h-54ZM482 377h54v1h-54ZM100 378h53v2h-53ZM483 378h53v2h-53ZM484 380h52v1h-52ZM99 380h53v2h-53ZM484 381h53v2h-53ZM99 382h52v2h-52ZM98 384h53v1h-53ZM485 383h52v2h-52ZM485 385h53v1h-53ZM98 385h52v3h-52ZM486 386h52v3h-52ZM487 389h51v1h-51ZM97 388h52v3h-52ZM487 390h52v2h-52ZM97 391h51v3h-51ZM96 394h52v1h-52ZM488 392h51v4h-51ZM96 395h51v5h-51ZM96 400h50v1h-50ZM489 396h51v6h-51ZM490 402h50v3h-50ZM95 401h51v5h-51ZM490 405h51v8h-51ZM491 413h50v4h-50ZM95 406h50v20h-50ZM490 417h51v9h-51ZM490 426h50v3h-50ZM95 426h51v4h-51ZM96 430h50v2h-50ZM489 429h51v5h-51ZM488 434h52v1h-52ZM96 432h51v5h-51ZM488 435h51v3h-51ZM97 437h51v3h-51ZM487 438h52v3h-52ZM487 441h51v1h-51ZM97 440h52v3h-52ZM98 443h51v1h-51ZM486 442h52v3h-52ZM485 445h53v1h-53ZM98 444h52v3h-52ZM485 446h52v2h-52ZM99 447h52v2h-52ZM484 448h53v2h-53ZM99 449h53v2h-53ZM100 451h52v1h-52ZM483 450h53v2h-53ZM100 452h53v2h-53ZM482 452h54v2h-54ZM100 454h54v1h-54ZM101 455h53v1h-53ZM481 454h54v2h-54ZM480 456h55v1h-55ZM101 456h54v2h-54ZM480 457h54v1h-54ZM102 458h54v1h-54ZM479 458h55v2h-55ZM102 459h55v2h-55ZM478 460h55v2h-55ZM103 461h55v2h-55ZM477 462h56v1h-56ZM103 463h56v1h-56ZM476 463h56v2h-56ZM104 464h56v2h-56ZM475 465h57v1h-57ZM105 466h56v1h-56ZM474 466h57v2h-57ZM105 467h57v2h-57ZM473 468h57v1h-57ZM106 469h57v1h-57ZM472 469h58v1h-58ZM106 470h58v1h-58ZM471 470h59v1h-59ZM471 471h58v1h-58ZM107 471h58v2h-58ZM470 472h59v1h-59ZM107 473h59v1h-59ZM469 473h59v1h-59ZM108 474h59v1h-59ZM468 474h60v1h-60ZM108 475h60v1h-60ZM467 475h60v1h-60ZM109 476h60v1h-60ZM466 476h61v1h-61ZM109 477h61v1h-61ZM465 477h61v1h-61ZM110 478h61v1h-61ZM464 478h62v1h-62ZM110 479h62v1h-62ZM463 479h62v1h-62ZM111 480h62v1h-62ZM462 480h63v1h-63ZM111 481h63v1h-63ZM461 481h63v1h-63ZM112 482h63v1h-63ZM460 482h64v1h-64ZM113 483h63v1h-63ZM459 483h64v1h-64ZM113 484h65v1h-65ZM458 484h65v1h-65ZM114 485h65v1h-65ZM456 485h66v1h-66ZM114 486h66v1h-66ZM455 486h67v1h-67ZM115 487h66v1h-66ZM454 487h67v1h-67ZM115 488h68v1h-68ZM452 488h68v1h-68ZM116 489h68v1h-68ZM451 489h69v1h-69ZM117 490h69v1h-69ZM449 490h70v1h-70ZM117 491h70v1h-70ZM448 491h70v1h-70ZM118 492h71v1h-71ZM446 492h72v1h-72ZM119 493h72v1h-72ZM444 493h73v1h-73ZM119 494h74v1h-74ZM442 494h75v1h-75ZM120 495h75v1h-75ZM440 495h76v1h-76ZM121 496h76v1h-76ZM438 496h77v1h-77ZM121 497h78v1h-78ZM436 497h78v1h-78ZM122 498h79v1h-79ZM434 498h80v1h-80ZM123 499h81v1h-81ZM431 499h82v1h-82ZM124 500h83v1h-83ZM428 500h84v1h-84ZM124 501h87v1h-87ZM425 501h86v1h-86ZM125 502h90v1h-90ZM421 502h90v1h-90ZM126 503h94v1h-94ZM416 503h94v1h-94ZM127 504h101v1h-101ZM407 504h102v1h-102ZM128 505h380v1h-380ZM129 506h378v2h-378ZM130 508h376v1h-376ZM131 509h374v1h-374ZM132 510h372v1h-372ZM133 511h370v1h-370ZM134 512h368v1h-368ZM135 513h366v1h-366ZM136 514h364v1h-364ZM137 515h362v1h-362ZM138 516h360v1h-360ZM139 517h358v1h-358ZM140 518h356v1h-356ZM141 519h354v1h-354ZM142 520h352v1h-352ZM144 521h349v1h-349ZM145 522h346v1h-346ZM146 523h344v1h-344ZM147 524h342v1h-342ZM148 525h340v1h-340ZM150 526h336v1h-336ZM151 527h334v1h-334ZM152 528h332v1h-332ZM154 529h328v1h-328ZM155 530h326v1h-326ZM157 531h323v1h-323ZM158 532h320v1h-320ZM160 533h317v1h-317ZM161 534h314v1h-314ZM163 535h310v1h-310ZM165 536h307v1h-307ZM166 537h304v1h-304ZM168 538h300v1h-300ZM170 539h296v1h-296ZM172 540h292v1h-292ZM174 541h288v1h-288ZM176 542h284v1h-284ZM178 543h280v1h-280ZM181 544h275v1h-275ZM183 545h270v1h-270ZM186 546h265v1h-265ZM188 547h260v1h-260ZM191 548h254v1h-254ZM195 549h247v1h-247ZM198 550h240v1h-240ZM202 551h232v1h-232ZM206 552h224v1h-224ZM212 553h212v1h-212ZM219 554h198v1h-198Z"/></svg>
