<svg xmlns="http://www.w3.org/2000/svg" width="597" height="513" viewBox="0 0 597 513"><path fill="#4e1601" d="M146 12h305v1h-305ZM142 13h313v1h-313ZM139 14h320v1h-320ZM136 15h325v1h-325ZM134 16h330v1h-330ZM132 17h334v1h-334ZM130 18h337v1h-337ZM128 19h341v1h-341ZM127 20h344v1h-344ZM125 21h347v1h-347ZM124 22h349v1h-349ZM123 23h352v1h-352ZM122 24h354v1h-354ZM120 25h357v1h-357ZM119 26h359v1h-359ZM118 27h361v1h-361ZM118 28h362v1h-362ZM117 29h364v1h-364ZM116 30h365v1h-365ZM115 31h367v1h-367ZM114 32h369v1h-369ZM114 33h370v1h-370ZM113 34h371v1h-371ZM112 35h373v1h-373ZM111 36h375v1h-375ZM111 37h376v1h-376ZM110 38h377v1h-377ZM109 39h379v1h-379ZM108 40h381v2h-381ZM107 42h383v1h-383ZM106 43h385v1h-385ZM106 44h386v1h-386ZM105 45h387v1h-387ZM104 46h389v1h-389ZM103 47h391v1h-391ZM103 48h392v1h-392ZM102 49h393v1h-393ZM101 50h395v1h-395ZM100 51h397v2h-397ZM99 53h399v1h-399ZM98 54h401v1h-401ZM98 55h54v1h-54ZM445 55h55v1h-55ZM97 56h54v1h-54ZM447 56h53v1h-53ZM96 57h54v1h-54ZM448 57h53v1h-53ZM95 58h54v1h-54ZM448 58h54v1h-54ZM95 59h53v1h-53ZM449 59h54v1h-54ZM94 60h53v1h-53ZM450 60h53v1h-53ZM93 61h54v1h-54ZM451 61h53v1h-53ZM92 62h54v1h-54ZM451 62h54v1h-54ZM92 63h53v1h-53ZM452 63h53v1h-53ZM91 64h53v1h-53ZM453 64h53v1h-53ZM90 65h54v1h-54ZM453 65h54v1h-54ZM90 66h53v1h-53ZM454 66h54v1h-54ZM89 67h53v1h-53ZM455 67h53v1h-53ZM88 68h54v1h-54ZM456 68h53v1h-53ZM87 69h54v1h-54ZM456 69h54v1h-54ZM87 70h53v1h-53ZM457 70h54v1h-54ZM86 71h53v1h-53ZM458 71h53v1h-53ZM85 72h54v1h-54ZM459 72h53v1h-53ZM84 73h54v1h-54ZM459 73h54v1h-54ZM84 74h53v1h-53ZM460 74h53v1h-53ZM83 75h53v1h-53ZM461 75h53v1h-53ZM82 76h54v1h-54ZM461 76h54v1h-54ZM82 77h53v1h-53ZM462 77h54v1h-54ZM81 78h53v1h-53ZM463 78h53v1h-53ZM80 79h54v1h-54ZM464 79h53v1h-53ZM79 80h54v1h-54ZM464 80h54v1h-54ZM79 81h53v1h-53ZM465 81h54v1h-54ZM78 82h53v1h-53ZM466 82h53v1h-53ZM77 83h54v1h-54ZM467 83h53v1h-53ZM76 84h54v1h-54ZM467 84h54v1h-54ZM76 85h53v1h-53ZM468 85h53v1h-53ZM75 86h53v1h-53ZM469 86h53v1h-53ZM74 87h54v1h-54ZM469 87h54v1h-54ZM74 88h53v1h-53ZM470 88h54v1h-54ZM73 89h53v1h-53ZM471 89h53v1h-53ZM72 90h54v1h-54ZM472 90h53v1h-53ZM71 91h54v1h-54ZM472 91h54v1h-54ZM71 92h53v1h-53ZM473 92h54v1h-54ZM70 93h53v1h-53ZM474 93h53v1h-53ZM69 94h54v1h-54ZM475 94h53v1h-53ZM68 95h54v1h-54ZM475 95h54v1h-54ZM68 96h53v1h-53ZM476 96h53v1h-53ZM67 97h53v1h-53ZM477 97h53v1h-53ZM66 98h54v1h-54ZM477 98h54v1h-54ZM66 99h53v1h-53ZM478 99h54v1h-54ZM65 100h53v1h-53ZM479 100h53v1h-53ZM64 101h54v1h-54ZM480 101h53v1h-53ZM63 102h54v1h-54ZM480 102h54v1h-54ZM63 103h53v1h-53ZM481 103h54v1h-54ZM62 104h53v1h-53ZM482 104h53v1h-53ZM61 105h54v1h-54ZM483 105h53v1h-53ZM60 106h54v1h-54ZM483 106h54v1h-54ZM60 107h53v1h-53ZM484 107h53v1h-53ZM59 108h53v1h-53ZM485 108h53v1h-53ZM58 109h54v1h-54ZM485 109h54v1h-54ZM58 110h53v1h-53ZM486 110h54v1h-54ZM57 111h53v1h-53ZM487 111h53v1h-53ZM56 112h54v1h-54ZM488 112h53v1h-53ZM55 113h54v1h-54ZM488 113h54v1h-54ZM55 114h53v1h-53ZM489 114h54v1h-54ZM54 115h53v1h-53ZM490 115h53v1h-53ZM53 116h54v1h-54ZM491 116h53v1h-53ZM52 117h54v1h-54ZM491 117h54v1h-54ZM52 118h53v1h-53ZM492 118h53v1h-53ZM51 119h53v1h-53ZM493 119h53v1h-53ZM50 120h54v1h-54ZM493 120h54v1h-54ZM50 121h53v1h-53ZM494 121h54v1h-54ZM49 122h53v1h-53ZM495 122h53v1h-53ZM48 123h54v1h-54ZM496 123h53v1h-53ZM47 124h54v1h-54ZM496 124h54v1h-54ZM47 125h53v1h-53ZM497 125h54v1h-54ZM46 126h53v1h-53ZM498 126h53v1h-53ZM45 127h54v1h-54ZM499 127h53v1h-53ZM44 128h54v1h-54ZM499 128h54v1h-54ZM44 129h53v1h-53ZM500 129h53v1h-53ZM43 130h53v1h-53ZM501 130h53v1h-53ZM42 131h54v1h-54ZM501 131h54v1h-54ZM42 132h53v1h-53ZM502 132h54v1h-54ZM41 133h53v1h-53ZM503 133h53v1h-53ZM40 134h54v1h-54ZM504 134h53v1h-53ZM39 135h54v1h-54ZM504 135h54v1h-54ZM39 136h53v1h-53ZM505 136h54v1h-54ZM38 137h53v1h-53ZM506 137h53v1h-53ZM37 138h54v1h-54ZM507 138h53v1h-53ZM36 139h54v1h-54ZM507 139h54v1h-54ZM36 140h53v1h-53ZM508 140h53v1h-53ZM35 141h53v1h-53ZM509 141h53v1h-53ZM34 142h54v1h-54ZM509 142h54v1h-54ZM34 143h53v1h-53ZM510 143h54v1h-54ZM33 144h53v1h-53ZM511 144h53v1h-53ZM32 145h54v1h-54ZM512 145h53v1h-53ZM31 146h54v1h-54ZM512 146h54v1h-54ZM31 147h53v1h-53ZM513 147h54v1h-54ZM30 148h53v1h-53ZM514 148h53v1h-53ZM29 149h54v1h-54ZM515 149h53v1h-53ZM28 150h54v1h-54ZM515 150h54v1h-54ZM28 151h53v1h-53ZM516 151h53v1h-53ZM27 152h53v1h-53ZM517 152h53v1h-53ZM26 153h54v1h-54ZM517 153h54v1h-54ZM26 154h53v1h-53ZM518 154h54v1h-54ZM25 155h53v1h-53ZM519 155h53v1h-53ZM24 156h54v1h-54ZM520 156h53v1h-53ZM23 157h54v1h-54ZM520 157h54v1h-54ZM23 158h53v1h-53ZM521 158h54v1h-54ZM22 159h53v1h-53ZM522 159h53v1h-53ZM21 160h54v1h-54ZM523 160h53v1h-53ZM21 161h53v1h-53ZM523 161h54v1h-54ZM20 162h53v1h-53ZM524 162h53v1h-53ZM525 163h53v1h-53ZM19 163h53v2h-53ZM525 164h54v1h-54ZM18 165h53v1h-53ZM526 165h53v1h-53ZM18 166h52v1h-52ZM527 166h53v1h-53ZM17 167h53v1h-53ZM528 167h52v1h-52ZM17 168h52v1h-52ZM528 168h53v1h-53ZM16 169h52v1h-52ZM529 169h52v1h-52ZM16 170h51v1h-51ZM530 170h51v1h-51ZM15 171h52v1h-52ZM180 171h6v1h-6ZM410 171h10v1h-10ZM15 172h51v1h-51ZM176 172h14v1h-14ZM407 172h16v1h-16ZM531 171h51v2h-51ZM15 173h50v1h-50ZM173 173h19v1h-19ZM404 173h21v1h-21ZM532 173h51v1h-51ZM171 174h23v1h-23ZM403 174h24v1h-24ZM14 174h50v2h-50ZM170 175h26v1h-26ZM401 175h27v1h-27ZM533 174h50v2h-50ZM14 176h49v1h-49ZM169 176h28v1h-28ZM400 176h29v1h-29ZM534 176h49v1h-49ZM168 177h30v1h-30ZM399 177h31v1h-31ZM535 177h49v1h-49ZM13 177h49v2h-49ZM167 178h32v1h-32ZM398 178h33v1h-33ZM13 179h48v1h-48ZM166 179h34v1h-34ZM397 179h35v1h-35ZM536 178h48v2h-48ZM13 180h47v1h-47ZM165 180h36v1h-36ZM397 180h36v1h-36ZM537 180h47v1h-47ZM396 181h38v1h-38ZM538 181h47v1h-47ZM13 181h46v2h-46ZM164 181h38v2h-38ZM395 182h39v1h-39ZM12 183h46v1h-46ZM163 183h40v1h-40ZM394 183h41v1h-41ZM539 182h46v2h-46ZM12 184h45v1h-45ZM163 184h41v1h-41ZM393 184h42v1h-42ZM540 184h45v1h-45ZM162 185h43v1h-43ZM392 185h43v1h-43ZM162 186h44v1h-44ZM391 186h45v1h-45ZM541 185h44v2h-44ZM12 185h44v3h-44ZM162 187h45v1h-45ZM390 187h46v1h-46ZM162 188h46v1h-46ZM389 188h47v1h-47ZM161 189h48v1h-48ZM388 189h48v1h-48ZM161 190h49v1h-49ZM12 188h43v4h-43ZM161 191h50v1h-50ZM387 190h49v2h-49ZM542 187h43v5h-43ZM386 192h50v1h-50ZM12 192h44v2h-44ZM161 192h51v2h-51ZM385 193h51v1h-51ZM541 192h44v2h-44ZM12 194h45v1h-45ZM161 194h52v1h-52ZM384 194h52v1h-52ZM540 194h45v1h-45ZM12 195h46v1h-46ZM161 195h53v1h-53ZM383 195h53v1h-53ZM539 195h46v1h-46ZM12 196h47v1h-47ZM161 196h54v1h-54ZM382 196h54v1h-54ZM538 196h47v1h-47ZM13 197h47v1h-47ZM162 197h54v1h-54ZM381 197h55v1h-55ZM537 197h48v1h-48ZM13 198h48v1h-48ZM162 198h55v1h-55ZM380 198h56v1h-56ZM536 198h48v1h-48ZM13 199h49v1h-49ZM162 199h56v1h-56ZM379 199h56v1h-56ZM13 200h50v1h-50ZM162 200h57v1h-57ZM378 200h57v1h-57ZM535 199h49v2h-49ZM13 201h51v1h-51ZM163 201h57v1h-57ZM378 201h56v1h-56ZM534 201h50v1h-50ZM14 202h50v1h-50ZM163 202h58v1h-58ZM377 202h57v1h-57ZM533 202h50v1h-50ZM14 203h51v1h-51ZM164 203h57v1h-57ZM376 203h57v1h-57ZM532 203h51v1h-51ZM14 204h52v1h-52ZM165 204h57v1h-57ZM375 204h58v1h-58ZM531 204h52v1h-52ZM15 205h52v1h-52ZM165 205h58v1h-58ZM374 205h58v1h-58ZM530 205h53v1h-53ZM15 206h53v1h-53ZM166 206h58v1h-58ZM373 206h58v1h-58ZM529 206h53v1h-53ZM15 207h54v1h-54ZM167 207h58v1h-58ZM372 207h58v1h-58ZM528 207h54v1h-54ZM16 208h54v1h-54ZM168 208h58v1h-58ZM371 208h58v1h-58ZM527 208h55v1h-55ZM16 209h55v1h-55ZM169 209h58v1h-58ZM370 209h59v1h-59ZM17 210h55v1h-55ZM169 210h59v1h-59ZM369 210h59v1h-59ZM526 209h55v2h-55ZM170 211h59v1h-59ZM368 211h59v1h-59ZM525 211h55v1h-55ZM17 211h56v2h-56ZM171 212h59v1h-59ZM368 212h58v1h-58ZM524 212h56v1h-56ZM18 213h56v1h-56ZM172 213h59v1h-59ZM367 213h58v1h-58ZM523 213h56v1h-56ZM19 214h56v1h-56ZM173 214h58v1h-58ZM366 214h58v1h-58ZM522 214h57v1h-57ZM19 215h57v1h-57ZM174 215h58v1h-58ZM365 215h58v1h-58ZM521 215h57v1h-57ZM20 216h57v1h-57ZM175 216h58v1h-58ZM364 216h58v1h-58ZM520 216h57v1h-57ZM20 217h58v1h-58ZM176 217h58v1h-58ZM363 217h58v1h-58ZM519 217h58v1h-58ZM21 218h58v1h-58ZM177 218h58v1h-58ZM362 218h58v1h-58ZM518 218h58v1h-58ZM22 219h58v1h-58ZM178 219h58v1h-58ZM361 219h59v1h-59ZM517 219h58v1h-58ZM23 220h58v1h-58ZM179 220h58v1h-58ZM360 220h59v1h-59ZM516 220h59v1h-59ZM23 221h59v1h-59ZM179 221h59v1h-59ZM359 221h59v1h-59ZM516 221h58v1h-58ZM24 222h59v1h-59ZM180 222h59v1h-59ZM359 222h58v1h-58ZM515 222h58v1h-58ZM25 223h58v1h-58ZM181 223h59v1h-59ZM358 223h58v1h-58ZM514 223h58v1h-58ZM26 224h58v1h-58ZM182 224h58v1h-58ZM357 224h58v1h-58ZM513 224h58v1h-58ZM27 225h58v1h-58ZM183 225h58v1h-58ZM356 225h58v1h-58ZM512 225h58v1h-58ZM28 226h58v1h-58ZM184 226h58v1h-58ZM355 226h58v1h-58ZM511 226h58v1h-58ZM29 227h58v1h-58ZM185 227h58v1h-58ZM354 227h58v1h-58ZM510 227h58v1h-58ZM30 228h58v1h-58ZM186 228h58v1h-58ZM353 228h58v1h-58ZM509 228h59v1h-59ZM31 229h58v1h-58ZM187 229h58v1h-58ZM352 229h58v1h-58ZM508 229h59v1h-59ZM31 230h59v1h-59ZM188 230h58v1h-58ZM351 230h59v1h-59ZM507 230h59v1h-59ZM32 231h59v1h-59ZM188 231h59v1h-59ZM350 231h59v1h-59ZM507 231h58v1h-58ZM33 232h59v1h-59ZM189 232h59v1h-59ZM349 232h59v1h-59ZM506 232h58v1h-58ZM34 233h58v1h-58ZM190 233h59v1h-59ZM349 233h58v1h-58ZM505 233h58v1h-58ZM35 234h58v1h-58ZM191 234h59v1h-59ZM348 234h58v1h-58ZM504 234h58v1h-58ZM36 235h58v1h-58ZM192 235h58v1h-58ZM347 235h58v1h-58ZM503 235h58v1h-58ZM37 236h58v1h-58ZM193 236h58v1h-58ZM346 236h58v1h-58ZM502 236h58v1h-58ZM38 237h58v1h-58ZM194 237h58v1h-58ZM345 237h58v1h-58ZM501 237h58v1h-58ZM39 238h58v1h-58ZM195 238h58v1h-58ZM344 238h58v1h-58ZM500 238h59v1h-59ZM40 239h58v1h-58ZM196 239h58v1h-58ZM343 239h58v1h-58ZM499 239h59v1h-59ZM40 240h59v1h-59ZM197 240h58v1h-58ZM342 240h59v1h-59ZM498 240h59v1h-59ZM41 241h59v1h-59ZM198 241h58v1h-58ZM341 241h59v1h-59ZM497 241h59v1h-59ZM42 242h59v1h-59ZM198 242h59v1h-59ZM340 242h59v1h-59ZM497 242h58v1h-58ZM43 243h59v1h-59ZM199 243h59v1h-59ZM340 243h58v1h-58ZM496 243h58v1h-58ZM44 244h58v1h-58ZM200 244h59v1h-59ZM339 244h58v1h-58ZM495 244h58v1h-58ZM45 245h58v1h-58ZM201 245h58v1h-58ZM338 245h58v1h-58ZM494 245h58v1h-58ZM46 246h58v1h-58ZM202 246h58v1h-58ZM337 246h58v1h-58ZM493 246h58v1h-58ZM47 247h58v1h-58ZM203 247h58v1h-58ZM336 247h58v1h-58ZM492 247h58v1h-58ZM48 248h58v1h-58ZM204 248h58v1h-58ZM335 248h58v1h-58ZM491 248h58v1h-58ZM49 249h58v1h-58ZM205 249h58v1h-58ZM334 249h58v1h-58ZM490 249h59v1h-59ZM50 250h58v1h-58ZM206 250h58v1h-58ZM333 250h58v1h-58ZM489 250h59v1h-59ZM50 251h59v1h-59ZM207 251h58v1h-58ZM332 251h59v1h-59ZM488 251h59v1h-59ZM51 252h59v1h-59ZM207 252h59v1h-59ZM331 252h59v1h-59ZM488 252h58v1h-58ZM52 253h59v1h-59ZM208 253h59v1h-59ZM330 253h59v1h-59ZM487 253h58v1h-58ZM53 254h58v1h-58ZM209 254h59v1h-59ZM330 254h58v1h-58ZM486 254h58v1h-58ZM54 255h58v1h-58ZM210 255h59v1h-59ZM329 255h58v1h-58ZM485 255h58v1h-58ZM55 256h58v1h-58ZM211 256h58v1h-58ZM328 256h58v1h-58ZM484 256h58v1h-58ZM56 257h58v1h-58ZM212 257h58v1h-58ZM327 257h58v1h-58ZM483 257h58v1h-58ZM57 258h58v1h-58ZM213 258h58v1h-58ZM326 258h58v1h-58ZM482 258h58v1h-58ZM58 259h58v1h-58ZM214 259h58v1h-58ZM325 259h58v1h-58ZM481 259h59v1h-59ZM59 260h58v1h-58ZM215 260h58v1h-58ZM324 260h58v1h-58ZM480 260h59v1h-59ZM59 261h59v1h-59ZM216 261h58v1h-58ZM323 261h59v1h-59ZM479 261h59v1h-59ZM60 262h59v1h-59ZM217 262h58v1h-58ZM322 262h59v1h-59ZM478 262h59v1h-59ZM61 263h59v1h-59ZM217 263h59v1h-59ZM321 263h59v1h-59ZM478 263h58v1h-58ZM62 264h59v1h-59ZM218 264h59v1h-59ZM321 264h58v1h-58ZM477 264h58v1h-58ZM63 265h58v1h-58ZM219 265h59v1h-59ZM320 265h58v1h-58ZM476 265h58v1h-58ZM64 266h58v1h-58ZM220 266h58v1h-58ZM319 266h58v1h-58ZM475 266h58v1h-58ZM65 267h58v1h-58ZM221 267h58v1h-58ZM318 267h58v1h-58ZM474 267h58v1h-58ZM66 268h58v1h-58ZM222 268h58v1h-58ZM317 268h58v1h-58ZM473 268h58v1h-58ZM67 269h58v1h-58ZM223 269h58v1h-58ZM316 269h58v1h-58ZM472 269h58v1h-58ZM68 270h58v1h-58ZM224 270h58v1h-58ZM315 270h58v1h-58ZM471 270h59v1h-59ZM69 271h58v1h-58ZM225 271h58v1h-58ZM314 271h58v1h-58ZM470 271h59v1h-59ZM69 272h59v1h-59ZM226 272h58v1h-58ZM313 272h59v1h-59ZM469 272h59v1h-59ZM70 273h59v1h-59ZM227 273h58v1h-58ZM312 273h59v1h-59ZM469 273h58v1h-58ZM71 274h59v1h-59ZM227 274h59v1h-59ZM311 274h59v1h-59ZM468 274h58v1h-58ZM72 275h58v1h-58ZM228 275h59v1h-59ZM311 275h58v1h-58ZM467 275h58v1h-58ZM73 276h58v1h-58ZM229 276h59v1h-59ZM310 276h58v1h-58ZM466 276h58v1h-58ZM74 277h58v1h-58ZM230 277h58v1h-58ZM309 277h58v1h-58ZM465 277h58v1h-58ZM75 278h58v1h-58ZM231 278h58v1h-58ZM308 278h58v1h-58ZM464 278h58v1h-58ZM76 279h58v1h-58ZM232 279h58v1h-58ZM307 279h58v1h-58ZM463 279h58v1h-58ZM77 280h58v1h-58ZM233 280h58v1h-58ZM306 280h58v1h-58ZM462 280h59v1h-59ZM78 281h58v1h-58ZM234 281h58v1h-58ZM305 281h58v1h-58ZM461 281h59v1h-59ZM78 282h59v1h-59ZM235 282h58v1h-58ZM304 282h59v1h-59ZM460 282h59v1h-59ZM79 283h59v1h-59ZM236 283h58v1h-58ZM303 283h59v1h-59ZM459 283h59v1h-59ZM80 284h59v1h-59ZM236 284h59v1h-59ZM302 284h59v1h-59ZM459 284h58v1h-58ZM81 285h59v1h-59ZM237 285h59v1h-59ZM302 285h58v1h-58ZM458 285h58v1h-58ZM82 286h58v1h-58ZM238 286h59v1h-59ZM301 286h58v1h-58ZM457 286h58v1h-58ZM83 287h58v1h-58ZM239 287h58v1h-58ZM300 287h58v1h-58ZM456 287h58v1h-58ZM84 288h58v1h-58ZM240 288h117v1h-117ZM455 288h58v1h-58ZM85 289h58v1h-58ZM241 289h115v1h-115ZM454 289h58v1h-58ZM86 290h58v1h-58ZM242 290h113v1h-113ZM453 290h58v1h-58ZM87 291h58v1h-58ZM243 291h111v1h-111ZM452 291h59v1h-59ZM88 292h58v1h-58ZM244 292h109v1h-109ZM451 292h59v1h-59ZM88 293h59v1h-59ZM245 293h108v1h-108ZM450 293h59v1h-59ZM89 294h59v1h-59ZM246 294h106v1h-106ZM450 294h58v1h-58ZM90 295h59v1h-59ZM246 295h105v1h-105ZM449 295h58v1h-58ZM91 296h58v1h-58ZM247 296h103v1h-103ZM448 296h58v1h-58ZM92 297h58v1h-58ZM248 297h101v1h-101ZM447 297h58v1h-58ZM93 298h58v1h-58ZM249 298h99v1h-99ZM446 298h58v1h-58ZM94 299h58v1h-58ZM250 299h97v1h-97ZM445 299h58v1h-58ZM95 300h58v1h-58ZM251 300h95v1h-95ZM444 300h58v1h-58ZM96 301h58v1h-58ZM252 301h93v1h-93ZM443 301h59v1h-59ZM97 302h58v1h-58ZM253 302h91v1h-91ZM442 302h59v1h-59ZM97 303h59v1h-59ZM254 303h90v1h-90ZM441 303h59v1h-59ZM98 304h59v1h-59ZM255 304h88v1h-88ZM440 304h59v1h-59ZM99 305h59v1h-59ZM255 305h87v1h-87ZM440 305h58v1h-58ZM100 306h59v1h-59ZM256 306h85v1h-85ZM439 306h58v1h-58ZM101 307h58v1h-58ZM257 307h83v1h-83ZM438 307h58v1h-58ZM102 308h58v1h-58ZM258 308h81v1h-81ZM437 308h58v1h-58ZM103 309h58v1h-58ZM259 309h79v1h-79ZM436 309h58v1h-58ZM104 310h58v1h-58ZM260 310h77v1h-77ZM435 310h58v1h-58ZM105 311h58v1h-58ZM261 311h75v1h-75ZM434 311h58v1h-58ZM106 312h58v1h-58ZM262 312h73v1h-73ZM433 312h59v1h-59ZM107 313h58v1h-58ZM263 313h71v1h-71ZM432 313h59v1h-59ZM107 314h59v1h-59ZM264 314h70v1h-70ZM431 314h59v1h-59ZM108 315h59v1h-59ZM265 315h68v1h-68ZM431 315h58v1h-58ZM109 316h59v1h-59ZM265 316h67v1h-67ZM430 316h58v1h-58ZM110 317h58v1h-58ZM266 317h65v1h-65ZM429 317h58v1h-58ZM111 318h58v1h-58ZM267 318h63v1h-63ZM428 318h58v1h-58ZM112 319h58v1h-58ZM268 319h61v1h-61ZM427 319h58v1h-58ZM113 320h58v1h-58ZM269 320h59v1h-59ZM426 320h58v1h-58ZM114 321h58v1h-58ZM270 321h57v1h-57ZM425 321h58v1h-58ZM115 322h58v1h-58ZM271 322h55v1h-55ZM424 322h59v1h-59ZM116 323h58v1h-58ZM272 323h53v1h-53ZM423 323h59v1h-59ZM116 324h59v1h-59ZM273 324h52v1h-52ZM422 324h59v1h-59ZM117 325h59v1h-59ZM274 325h50v1h-50ZM421 325h59v1h-59ZM118 326h59v1h-59ZM274 326h49v1h-49ZM421 326h58v1h-58ZM119 327h59v1h-59ZM275 327h47v1h-47ZM420 327h58v1h-58ZM120 328h58v1h-58ZM276 328h45v1h-45ZM419 328h58v1h-58ZM121 329h58v1h-58ZM277 329h43v1h-43ZM418 329h58v1h-58ZM122 330h58v1h-58ZM278 330h41v1h-41ZM417 330h58v1h-58ZM123 331h58v1h-58ZM279 331h39v1h-39ZM416 331h58v1h-58ZM124 332h58v1h-58ZM280 332h37v1h-37ZM415 332h58v1h-58ZM125 333h58v1h-58ZM281 333h35v1h-35ZM414 333h59v1h-59ZM126 334h58v1h-58ZM282 334h33v1h-33ZM413 334h59v1h-59ZM126 335h59v1h-59ZM283 335h32v1h-32ZM412 335h59v1h-59ZM127 336h59v1h-59ZM284 336h30v1h-30ZM412 336h58v1h-58ZM128 337h59v1h-59ZM285 337h27v1h-27ZM411 337h58v1h-58ZM129 338h58v1h-58ZM286 338h25v1h-25ZM410 338h58v1h-58ZM130 339h58v1h-58ZM288 339h22v1h-22ZM409 339h58v1h-58ZM131 340h58v1h-58ZM289 340h19v1h-19ZM408 340h58v1h-58ZM132 341h58v1h-58ZM292 341h13v1h-13ZM407 341h58v1h-58ZM133 342h58v1h-58ZM297 342h3v1h-3ZM406 342h58v1h-58ZM134 343h58v1h-58ZM405 343h59v1h-59ZM135 344h58v1h-58ZM404 344h59v1h-59ZM135 345h59v1h-59ZM403 345h59v1h-59ZM136 346h59v1h-59ZM402 346h59v1h-59ZM137 347h59v1h-59ZM402 347h58v1h-58ZM138 348h59v1h-59ZM401 348h58v1h-58ZM139 349h58v1h-58ZM400 349h58v1h-58ZM140 350h58v1h-58ZM399 350h58v1h-58ZM141 351h58v1h-58ZM398 351h58v1h-58ZM142 352h58v1h-58ZM397 352h58v1h-58ZM143 353h58v1h-58ZM396 353h58v1h-58ZM144 354h58v1h-58ZM395 354h59v1h-59ZM145 355h58v1h-58ZM394 355h59v1h-59ZM145 356h59v1h-59ZM393 356h59v1h-59ZM146 357h59v1h-59ZM393 357h58v1h-58ZM147 358h59v1h-59ZM392 358h58v1h-58ZM148 359h58v1h-58ZM391 359h58v1h-58ZM149 360h58v1h-58ZM390 360h58v1h-58ZM150 361h58v1h-58ZM389 361h58v1h-58ZM151 362h58v1h-58ZM388 362h58v1h-58ZM152 363h58v1h-58ZM387 363h58v1h-58ZM153 364h58v1h-58ZM386 364h58v1h-58ZM154 365h58v1h-58ZM385 365h59v1h-59ZM154 366h59v1h-59ZM384 366h59v1h-59ZM155 367h59v1h-59ZM383 367h59v1h-59ZM156 368h59v1h-59ZM383 368h58v1h-58ZM157 369h59v1h-59ZM382 369h58v1h-58ZM158 370h58v1h-58ZM381 370h58v1h-58ZM159 371h58v1h-58ZM380 371h58v1h-58ZM160 372h58v1h-58ZM379 372h58v1h-58ZM161 373h58v1h-58ZM378 373h58v1h-58ZM162 374h58v1h-58ZM377 374h58v1h-58ZM163 375h58v1h-58ZM376 375h59v1h-59ZM164 376h58v1h-58ZM375 376h59v1h-59ZM164 377h59v1h-59ZM374 377h59v1h-59ZM165 378h59v1h-59ZM374 378h58v1h-58ZM166 379h59v1h-59ZM373 379h58v1h-58ZM167 380h58v1h-58ZM372 380h58v1h-58ZM168 381h58v1h-58ZM371 381h58v1h-58ZM169 382h58v1h-58ZM370 382h58v1h-58ZM170 383h58v1h-58ZM369 383h58v1h-58ZM171 384h58v1h-58ZM368 384h58v1h-58ZM172 385h58v1h-58ZM367 385h58v1h-58ZM173 386h58v1h-58ZM366 386h59v1h-59ZM173 387h59v1h-59ZM365 387h59v1h-59ZM174 388h59v1h-59ZM364 388h59v1h-59ZM175 389h59v1h-59ZM364 389h58v1h-58ZM176 390h59v1h-59ZM363 390h58v1h-58ZM177 391h58v1h-58ZM362 391h58v1h-58ZM178 392h58v1h-58ZM361 392h58v1h-58ZM179 393h58v1h-58ZM360 393h58v1h-58ZM180 394h58v1h-58ZM359 394h58v1h-58ZM181 395h58v1h-58ZM358 395h58v1h-58ZM182 396h58v1h-58ZM357 396h59v1h-59ZM183 397h58v1h-58ZM356 397h59v1h-59ZM183 398h59v1h-59ZM355 398h59v1h-59ZM184 399h59v1h-59ZM355 399h58v1h-58ZM185 400h59v1h-59ZM354 400h58v1h-58ZM186 401h58v1h-58ZM353 401h58v1h-58ZM187 402h58v1h-58ZM352 402h58v1h-58ZM188 403h58v1h-58ZM351 403h58v1h-58ZM189 404h58v1h-58ZM350 404h58v1h-58ZM190 405h58v1h-58ZM349 405h58v1h-58ZM191 406h58v1h-58ZM348 406h58v1h-58ZM192 407h58v1h-58ZM347 407h59v1h-59ZM193 408h58v1h-58ZM346 408h59v1h-59ZM193 409h59v1h-59ZM345 409h59v1h-59ZM194 410h59v1h-59ZM345 410h58v1h-58ZM195 411h59v1h-59ZM344 411h58v1h-58ZM196 412h58v1h-58ZM343 412h58v1h-58ZM197 413h58v1h-58ZM342 413h58v1h-58ZM198 414h58v1h-58ZM341 414h58v1h-58ZM199 415h58v1h-58ZM340 415h58v1h-58ZM200 416h58v1h-58ZM339 416h58v1h-58ZM201 417h58v1h-58ZM338 417h59v1h-59ZM202 418h58v1h-58ZM337 418h59v1h-59ZM202 419h59v1h-59ZM336 419h59v1h-59ZM203 420h59v1h-59ZM336 420h58v1h-58ZM204 421h59v1h-59ZM335 421h58v1h-58ZM205 422h58v1h-58ZM334 422h58v1h-58ZM206 423h58v1h-58ZM333 423h58v1h-58ZM207 424h58v1h-58ZM332 424h58v1h-58ZM208 425h58v1h-58ZM331 425h58v1h-58ZM209 426h58v1h-58ZM330 426h58v1h-58ZM210 427h58v1h-58ZM329 427h58v1h-58ZM211 428h58v1h-58ZM328 428h59v1h-59ZM212 429h58v1h-58ZM327 429h59v1h-59ZM212 430h59v1h-59ZM326 430h59v1h-59ZM213 431h59v1h-59ZM326 431h58v1h-58ZM214 432h59v1h-59ZM325 432h58v1h-58ZM215 433h58v1h-58ZM324 433h58v1h-58ZM216 434h58v1h-58ZM323 434h58v1h-58ZM217 435h58v1h-58ZM322 435h58v1h-58ZM218 436h58v1h-58ZM321 436h58v1h-58ZM219 437h58v1h-58ZM320 437h58v1h-58ZM220 438h58v1h-58ZM319 438h59v1h-59ZM221 439h58v1h-58ZM318 439h59v1h-59ZM221 440h59v1h-59ZM317 440h59v1h-59ZM222 441h59v1h-59ZM317 441h58v1h-58ZM223 442h59v1h-59ZM316 442h58v1h-58ZM224 443h58v1h-58ZM315 443h58v1h-58ZM225 444h58v1h-58ZM314 444h58v1h-58ZM226 445h58v1h-58ZM313 445h58v1h-58ZM227 446h58v1h-58ZM312 446h58v1h-58ZM228 447h58v1h-58ZM311 447h58v1h-58ZM229 448h58v1h-58ZM310 448h58v1h-58ZM230 449h58v1h-58ZM309 449h59v1h-59ZM231 450h58v1h-58ZM308 450h59v1h-59ZM231 451h59v1h-59ZM307 451h59v1h-59ZM232 452h59v1h-59ZM307 452h58v1h-58ZM233 453h59v1h-59ZM306 453h58v1h-58ZM234 454h58v1h-58ZM305 454h58v1h-58ZM235 455h58v1h-58ZM304 455h58v1h-58ZM236 456h59v1h-59ZM303 456h58v1h-58ZM237 457h60v1h-60ZM301 457h59v1h-59ZM238 458h121v1h-121ZM239 459h120v1h-120ZM240 460h118v1h-118ZM240 461h117v1h-117ZM241 462h115v1h-115ZM242 463h113v1h-113ZM243 464h111v1h-111ZM244 465h109v1h-109ZM245 466h107v1h-107ZM246 467h105v1h-105ZM247 468h103v1h-103ZM248 469h101v1h-101ZM249 470h100v1h-100ZM250 471h98v1h-98ZM250 472h97v1h-97ZM251 473h95v1h-95ZM252 474h93v1h-93ZM253 475h91v1h-91ZM254 476h89v1h-89ZM255 477h87v1h-87ZM256 478h85v1h-85ZM257 479h83v1h-83ZM258 480h82v1h-82ZM259 481h80v1h-80ZM259 482h79v1h-79ZM260 483h77v1h-77ZM261 484h75v1h-75ZM262 485h73v1h-73ZM263 486h71v1h-71ZM264 487h69v1h-69ZM265 488h67v1h-67ZM267 489h64v1h-64ZM268 490h61v1h-61ZM269 491h59v1h-59ZM271 492h56v1h-56ZM272 493h53v1h-53ZM274 494h49v1h-49ZM276 495h46v1h-46ZM278 496h42v1h-42ZM280 497h37v1h-37ZM283 498h31v1h-31ZM286 499h25v1h-25ZM291 500h15v1h-15Z"/></svg>
