<svg xmlns="http://www.w3.org/2000/svg" width="707" height="384" viewBox="0 0 707 384"><path fill="#4e1601" d="M353 12h1v1h-1ZM352 13h4v1h-4ZM350 14h7v1h-7ZM349 15h10v1h-10ZM347 16h13v1h-13ZM346 17h16v1h-16ZM344 18h19v1h-19ZM343 19h22v1h-22ZM341 20h25v1h-25ZM340 21h28v1h-28ZM338 22h31v1h-31ZM337 23h34v1h-34ZM335 24h37v1h-37ZM334 25h39v1h-39ZM332 26h43v1h-43ZM331 27h45v1h-45ZM329 28h49v1h-49ZM328 29h51v1h-51ZM326 30h55v1h-55ZM325 31h57v1h-57ZM323 32h61v1h-61ZM322 33h63v1h-63ZM320 34h67v1h-67ZM319 35h69v1h-69ZM317 36h73v1h-73ZM316 37h75v1h-75ZM314 38h79v1h-79ZM313 39h81v1h-81ZM312 40h83v1h-83ZM310 41h87v1h-87ZM309 42h89v1h-89ZM307 43h93v1h-93ZM306 44h95v1h-95ZM304 45h99v1h-99ZM303 46h101v1h-101ZM301 47h105v1h-105ZM300 48h107v1h-107ZM298 49h111v1h-111ZM297 50h113v1h-113ZM295 51h117v1h-117ZM294 52h119v1h-119ZM292 53h123v1h-123ZM291 54h125v1h-125ZM289 55h129v1h-129ZM288 56h131v1h-131ZM286 57h134v1h-134ZM285 58h137v1h-137ZM283 59h140v1h-140ZM282 60h143v1h-143ZM280 61h146v1h-146ZM279 62h149v1h-149ZM277 63h152v1h-152ZM276 64h155v1h-155ZM274 65h158v1h-158ZM273 66h161v1h-161ZM272 67h163v1h-163ZM270 68h167v1h-167ZM269 69h169v1h-169ZM267 70h173v1h-173ZM266 71h175v1h-175ZM264 72h178v1h-178ZM263 73h181v1h-181ZM261 74h184v1h-184ZM260 75h187v1h-187ZM258 76h190v1h-190ZM257 77h193v1h-193ZM255 78h196v1h-196ZM254 79h199v1h-199ZM252 80h202v1h-202ZM251 81h205v1h-205ZM249 82h208v1h-208ZM248 83h211v1h-211ZM246 84h214v1h-214ZM245 85h217v1h-217ZM243 86h220v1h-220ZM242 87h222v1h-222ZM240 88h226v1h-226ZM239 89h228v1h-228ZM237 90h232v1h-232ZM236 91h234v1h-234ZM234 92h238v1h-238ZM233 93h240v1h-240ZM232 94h96v1h-96ZM330 94h145v1h-145ZM230 95h97v1h-97ZM330 95h146v1h-146ZM229 96h96v1h-96ZM383 96h95v1h-95ZM227 97h97v1h-97ZM385 97h94v1h-94ZM226 98h96v1h-96ZM386 98h95v1h-95ZM224 99h97v1h-97ZM388 99h94v1h-94ZM223 100h96v1h-96ZM389 100h95v1h-95ZM221 101h97v1h-97ZM391 101h94v1h-94ZM220 102h96v1h-96ZM392 102h94v1h-94ZM218 103h97v1h-97ZM394 103h94v1h-94ZM217 104h96v1h-96ZM395 104h94v1h-94ZM215 105h97v1h-97ZM397 105h94v1h-94ZM214 106h97v1h-97ZM398 106h94v1h-94ZM212 107h97v1h-97ZM400 107h94v1h-94ZM211 108h97v1h-97ZM401 108h94v1h-94ZM209 109h97v1h-97ZM403 109h94v1h-94ZM208 110h97v1h-97ZM404 110h94v1h-94ZM206 111h97v1h-97ZM406 111h94v1h-94ZM205 112h97v1h-97ZM407 112h94v1h-94ZM203 113h97v1h-97ZM408 113h95v1h-95ZM202 114h97v1h-97ZM410 114h94v1h-94ZM200 115h97v1h-97ZM411 115h95v1h-95ZM199 116h97v1h-97ZM413 116h94v1h-94ZM197 117h97v1h-97ZM414 117h95v1h-95ZM196 118h97v1h-97ZM416 118h94v1h-94ZM194 119h97v1h-97ZM417 119h94v1h-94ZM193 120h97v1h-97ZM419 120h94v1h-94ZM191 121h97v1h-97ZM420 121h94v1h-94ZM190 122h97v1h-97ZM422 122h94v1h-94ZM189 123h96v1h-96ZM423 123h94v1h-94ZM187 124h97v1h-97ZM425 124h94v1h-94ZM186 125h96v1h-96ZM426 125h94v1h-94ZM184 126h97v1h-97ZM428 126h94v1h-94ZM183 127h96v1h-96ZM429 127h94v1h-94ZM181 128h97v1h-97ZM431 128h94v1h-94ZM180 129h97v1h-97ZM432 129h94v1h-94ZM178 130h97v1h-97ZM434 130h94v1h-94ZM177 131h97v1h-97ZM435 131h94v1h-94ZM175 132h97v1h-97ZM437 132h94v1h-94ZM174 133h97v1h-97ZM438 133h94v1h-94ZM172 134h97v1h-97ZM440 134h94v1h-94ZM171 135h97v1h-97ZM441 135h94v1h-94ZM169 136h97v1h-97ZM442 136h95v1h-95ZM168 137h97v1h-97ZM444 137h94v1h-94ZM166 138h97v1h-97ZM445 138h95v1h-95ZM165 139h97v1h-97ZM447 139h94v1h-94ZM163 140h97v1h-97ZM448 140h94v1h-94ZM162 141h97v1h-97ZM450 141h94v1h-94ZM160 142h97v1h-97ZM451 142h94v1h-94ZM159 143h97v1h-97ZM453 143h94v1h-94ZM157 144h97v1h-97ZM454 144h94v1h-94ZM156 145h97v1h-97ZM456 145h94v1h-94ZM154 146h97v1h-97ZM457 146h94v1h-94ZM153 147h97v1h-97ZM459 147h94v1h-94ZM151 148h97v1h-97ZM460 148h94v1h-94ZM150 149h97v1h-97ZM462 149h94v1h-94ZM148 150h98v1h-98ZM463 150h94v1h-94ZM147 151h97v1h-97ZM465 151h94v1h-94ZM145 152h98v1h-98ZM466 152h94v1h-94ZM144 153h97v1h-97ZM468 153h94v1h-94ZM142 154h98v1h-98ZM469 154h94v1h-94ZM141 155h97v1h-97ZM471 155h94v1h-94ZM139 156h98v1h-98ZM472 156h94v1h-94ZM138 157h97v1h-97ZM473 157h95v1h-95ZM136 158h98v1h-98ZM475 158h94v1h-94ZM135 159h97v1h-97ZM476 159h95v1h-95ZM134 160h97v1h-97ZM478 160h94v1h-94ZM132 161h97v1h-97ZM479 161h95v1h-95ZM131 162h97v1h-97ZM481 162h94v1h-94ZM129 163h97v1h-97ZM482 163h94v1h-94ZM128 164h97v1h-97ZM484 164h94v1h-94ZM126 165h97v1h-97ZM485 165h94v1h-94ZM125 166h97v1h-97ZM487 166h94v1h-94ZM123 167h97v1h-97ZM488 167h94v1h-94ZM122 168h97v1h-97ZM490 168h94v1h-94ZM120 169h97v1h-97ZM491 169h94v1h-94ZM119 170h97v1h-97ZM493 170h94v1h-94ZM117 171h97v1h-97ZM494 171h94v1h-94ZM116 172h97v1h-97ZM496 172h94v1h-94ZM114 173h98v1h-98ZM497 173h94v1h-94ZM113 174h97v1h-97ZM499 174h94v1h-94ZM111 175h98v1h-98ZM500 175h94v1h-94ZM110 176h97v1h-97ZM502 176h94v1h-94ZM109 177h97v1h-97ZM503 177h94v1h-94ZM107 178h97v1h-97ZM505 178h94v1h-94ZM105 179h98v1h-98ZM506 179h94v1h-94ZM104 180h97v1h-97ZM507 180h95v1h-95ZM102 181h98v1h-98ZM509 181h94v1h-94ZM101 182h97v1h-97ZM510 182h95v1h-95ZM99 183h98v1h-98ZM512 183h95v1h-95ZM97 184h99v1h-99ZM513 184h95v1h-95ZM95 185h101v1h-101ZM515 185h95v1h-95ZM93 186h103v1h-103ZM516 186h96v1h-96ZM91 187h105v1h-105ZM517 187h97v1h-97ZM89 188h107v1h-107ZM517 188h99v1h-99ZM87 189h109v1h-109ZM517 189h101v1h-101ZM85 190h111v1h-111ZM517 190h104v1h-104ZM83 191h113v1h-113ZM517 191h106v1h-106ZM80 192h116v1h-116ZM517 192h108v1h-108ZM77 193h119v1h-119ZM517 193h111v1h-111ZM74 194h122v1h-122ZM517 194h114v1h-114ZM71 195h125v1h-125ZM517 195h117v1h-117ZM68 196h128v1h-128ZM517 196h120v1h-120ZM64 197h132v1h-132ZM517 197h124v1h-124ZM60 198h136v1h-136ZM517 198h128v1h-128ZM55 199h141v1h-141ZM517 199h132v1h-132ZM49 200h147v1h-147ZM517 200h138v1h-138ZM12 201h8v1h-8ZM40 201h156v1h-156ZM517 201h146v1h-146ZM688 201h7v1h-7ZM12 202h184v17h-184ZM517 202h178v17h-178ZM13 219h130v1h-130ZM13 220h129v1h-129ZM517 219h177v2h-177ZM13 221h127v1h-127ZM517 221h176v1h-176ZM14 222h125v1h-125ZM570 222h123v1h-123ZM14 223h123v1h-123ZM572 223h120v1h-120ZM15 224h121v1h-121ZM573 224h119v1h-119ZM15 225h119v1h-119ZM575 225h116v1h-116ZM16 226h117v1h-117ZM576 226h115v1h-115ZM17 227h114v1h-114ZM578 227h112v1h-112ZM17 228h113v1h-113ZM579 228h111v1h-111ZM18 229h110v1h-110ZM581 229h108v1h-108ZM18 230h109v1h-109ZM582 230h106v1h-106ZM19 231h106v1h-106ZM584 231h104v1h-104ZM20 232h104v1h-104ZM585 232h102v1h-102ZM21 233h101v1h-101ZM587 233h99v1h-99ZM21 234h100v1h-100ZM588 234h97v1h-97ZM22 235h97v1h-97ZM590 235h94v1h-94ZM23 236h94v1h-94ZM591 236h92v1h-92ZM24 237h92v1h-92ZM592 237h90v1h-90ZM25 238h89v1h-89ZM594 238h87v1h-87ZM26 239h87v1h-87ZM596 239h84v1h-84ZM27 240h84v1h-84ZM597 240h82v1h-82ZM28 241h82v1h-82ZM599 241h79v1h-79ZM29 242h79v1h-79ZM601 242h76v1h-76ZM31 243h75v1h-75ZM603 243h73v1h-73ZM32 244h72v1h-72ZM605 244h69v1h-69ZM33 245h69v1h-69ZM607 245h66v1h-66ZM35 246h65v1h-65ZM609 246h62v1h-62ZM36 247h62v1h-62ZM611 247h58v1h-58ZM38 248h58v1h-58ZM614 248h54v1h-54ZM40 249h53v1h-53ZM617 249h49v1h-49ZM42 250h48v1h-48ZM620 250h43v1h-43ZM45 251h42v1h-42ZM623 251h38v1h-38ZM47 252h37v1h-37ZM627 252h30v1h-30ZM51 253h29v1h-29ZM631 253h22v1h-22ZM55 254h20v1h-20ZM638 254h8v1h-8ZM207 277h112v1h-112ZM394 277h111v1h-111ZM206 278h113v51h-113ZM393 278h113v51h-113ZM144 219h52v152h-52ZM330 96h52v276h-52ZM517 222h52v150h-52Z"/></svg>
